<svg xmlns="http://www.w3.org/2000/svg" xmlns:xlink="http://www.w3.org/1999/xlink" width="644.316" height="474.246" viewBox="0 0 644.316 474.246">
  <defs>
    <clipPath id="clip-path">
      <rect id="Rectangle_4437" data-name="Rectangle 4437" width="140.101" height="140.103" fill="none"/>
    </clipPath>
    <clipPath id="clip-path-2">
      <path id="Path_9389" data-name="Path 9389" d="M210.4,82.523a7.2,7.2,0,0,0-7.2,7.2V215.15a7.2,7.2,0,0,0,7.2,7.2H335.831a7.2,7.2,0,0,0,7.2-7.2V89.72a7.2,7.2,0,0,0-7.2-7.2Z" transform="translate(-203.204 -82.523)" fill="none"/>
    </clipPath>
  </defs>
  <g id="Group_3401" data-name="Group 3401" transform="translate(-0.001 0)">
    <g id="Group_3416" data-name="Group 3416">
      <g id="Group_3415" data-name="Group 3415">
        <g id="Group_3417" data-name="Group 3417">
          <path id="Path_9307" data-name="Path 9307" d="M382.233,259.991s.114-34.261-5.045-40.234c9.525-4.977,13.01-1.319,13.01-1.319s1.268,29.953,7.218,36.413c3.982,6.223-10.115,8.7-10.115,8.7Z" transform="translate(187.444 107.909)" fill="#fff"/>
          <path id="Path_9308" data-name="Path 9308" d="M382.233,259.991s.114-34.261-5.045-40.234c9.525-4.977,13.01-1.319,13.01-1.319s1.268,29.953,7.218,36.413c3.982,6.223-10.115,8.7-10.115,8.7Z" transform="translate(187.444 107.909)" fill="none" stroke="#000" stroke-miterlimit="10" stroke-width="0.237"/>
          <path id="Path_9309" data-name="Path 9309" d="M396.748,244.489s.112-34.261-5.046-40.234c9.525-4.977,13.01-1.319,13.01-1.319s1.269,29.953,7.218,36.413c3.982,6.223-10.115,8.7-10.115,8.7Z" transform="translate(194.657 100.205)" fill="#fff"/>
          <path id="Path_9310" data-name="Path 9310" d="M396.748,244.489s.112-34.261-5.046-40.234c9.525-4.977,13.01-1.319,13.01-1.319s1.269,29.953,7.218,36.413c3.982,6.223-10.115,8.7-10.115,8.7Z" transform="translate(194.657 100.205)" fill="none" stroke="#000" stroke-miterlimit="10" stroke-width="0.237"/>
          <path id="Path_9311" data-name="Path 9311" d="M324.812,161.056S278.4,176.82,281.234,208.02,337.961,243,356.161,242.529s45.958-3.455,58.787-13.073-21.206-36.8-21.206-36.8Z" transform="translate(139.698 80.037)" fill="#fff"/>
          <path id="Path_9312" data-name="Path 9312" d="M324.7,160.71a94.453,94.453,0,0,0-20.938,10.443c-10.765,7.042-21.308,17.178-23.008,30.574a27.359,27.359,0,0,0,4.039,18.426c3.442,5.272,8.616,9.182,14.107,12.124,12.164,6.515,26.376,9.112,39.987,10.371a182.6,182.6,0,0,0,42.513-1.359c9.16-1.307,18.465-3.181,26.968-6.932,4.706-2.076,11.049-4.964,10.628-11.031-.373-5.386-4.185-10.386-7.474-14.4a113.576,113.576,0,0,0-12.26-12.541c-1.555-1.389-3.165-3.159-5.027-4.139-2.522-1.329-5.226-2.4-7.817-3.584l-32.954-15.107L327.017,161.43l-1.427-.653c-.748-.344-2.027.463-.969.946l18.224,8.356,33.684,15.443q6.249,2.865,12.5,5.729l3.537,1.623c.266.123.549.231.808.37.35.189-.108-.091.087.042a67.265,67.265,0,0,1,7.84,6.929,82.671,82.671,0,0,1,12.013,13.7c2.368,3.552,5.54,9.039,3.091,13.306-1.531,2.666-5.091,4.253-7.739,5.525a68.938,68.938,0,0,1-12.36,4.368,159.854,159.854,0,0,1-28.493,4.434,174.479,174.479,0,0,1-18.953.546c-12.943-.422-26.1-2.133-38.416-6.265-11.676-3.918-24.319-11.028-27.427-23.918-3.295-13.678,4.69-26.143,14.8-34.583a92.522,92.522,0,0,1,26.11-14.953c.527-.2,1.054-.4,1.588-.584,1.1-.376-.03-1.35-.819-1.081" transform="translate(139.403 79.842)"/>
          <path id="Path_9313" data-name="Path 9313" d="M300.188,186.429a26.846,26.846,0,0,0,14.54,21.8,33.845,33.845,0,0,0,14.721,3.1c1.151.006,1-1.424-.049-1.428-7.712-.036-15.423-2.153-20.778-7.98a26.947,26.947,0,0,1-6.268-12.567,18.591,18.591,0,0,1-.419-2.769c-.054-.889-1.807-1.133-1.747-.156" transform="translate(149.178 92.333)"/>
          <path id="Path_9314" data-name="Path 9314" d="M287.727,255.423a3.309,3.309,0,1,1-3.31-3.31,3.31,3.31,0,0,1,3.31,3.31" transform="translate(139.698 125.288)" fill="#011721"/>
          <path id="Path_9315" data-name="Path 9315" d="M287.226,255.182a3.182,3.182,0,0,1-1.849,2.873,2.989,2.989,0,0,1-1.707.238,2.468,2.468,0,0,1-.428-.114c.012,0-.28-.138-.19-.087.013.007-.225-.142-.121-.072s-.123-.1-.111-.087c.126.1-.018-.016-.046-.046s-.042-.039,0,0c-.039-.042-.076-.085-.114-.13a2.989,2.989,0,0,1-.171-3.23,3.128,3.128,0,0,1,2.958-1.608,2.231,2.231,0,0,1,.859.241c-.1-.051.025.021.037.027.091.057.1.061.021.01.046.033.093.067.138.1-.033-.025-.109-.106.015.018s-.016-.031.091.091a2.785,2.785,0,0,1,.62,1.769c0,.362.451.687.729.85.121.07.762.376.756.024-.045-3.362-4.76-5.913-7.221-3.183a3.616,3.616,0,0,0-.325,4.265A4.826,4.826,0,0,0,285.6,259.5a3.511,3.511,0,0,0,3.115-3.446c.006-.359-.457-.692-.729-.85-.127-.075-.751-.376-.756-.024" transform="translate(139.456 125.093)" fill="#011721"/>
          <path id="Path_9316" data-name="Path 9316" d="M284.5,280.435q3.62-13.154,7.238-26.306l11.528-41.891,2.632-9.566c.177-.644-1.567-.943-1.76-.244q-3.62,13.151-7.238,26.306-5.764,20.945-11.527,41.891-1.318,4.783-2.633,9.566c-.177.644,1.569.943,1.76.244" transform="translate(140.5 100.398)" fill="#011721"/>
          <path id="Path_9317" data-name="Path 9317" d="M379.716,279.541q-4.563-12.66-9.127-25.318l-14.622-40.564-3.346-9.284c-.326-.9-1.608-.891-1.21.213q4.563,12.66,9.127,25.318l14.622,40.564q1.673,4.641,3.347,9.284c.325.9,1.606.891,1.208-.213" transform="translate(174.597 101.242)" fill="#011721"/>
          <path id="Path_9318" data-name="Path 9318" d="M396.24,171.007l2.362,15.757L347.864,200,315.72,186.764l9.453-29.665,13.788-22.709s9.375.847,13.473.847c2.206,4.413,9.3,6.3,14.182,6.3s.787-5.043.787-5.043H380.8s11.188,5.358,15.443,34.509" transform="translate(156.897 66.785)" fill="#fff"/>
          <path id="Path_9319" data-name="Path 9319" d="M395.7,171.527q1.179,7.879,2.362,15.757l.883-.793-28.071,7.323-17.665,4.609c-1.48.385-2.983.723-4.449,1.16-.829.247-.277-.1-.015.091a5.979,5.979,0,0,0-1.215-.5l-15.869-6.534-9.083-3.741a55.993,55.993,0,0,0-5.44-2.239,1.41,1.41,0,0,1-.457-.189c-.093-.1.117.385.186.079.13-.576.367-1.147.545-1.71l2.416-7.581q2.87-9,5.739-18.007c.945-2.967,2.618-5.325,4.385-8.233l9.422-15.519.647-1.064c-.416.208-.834.416-1.248.626,3.13.281,6.268.527,9.407.7.99.055,2.018.016,3,.13.8.091.617.039,1.151.615.22.238.391.537.6.784a12.8,12.8,0,0,0,5.236,3.4,23.424,23.424,0,0,0,6.449,1.436c1.5.126,3.326.277,4.611-.689,1.813-1.362.358-3.765-.735-5.13l-1.283.856H376.8a20.276,20.276,0,0,1,3.753,0c-.457-.093.058.069.311.249,4.492,3.193,7.338,8.359,9.431,13.33a86.2,86.2,0,0,1,5.407,20.778c.066.449,1.72-.1,1.63-.7-1.534-10.309-4.079-21.592-10.63-30.009a19.319,19.319,0,0,0-4.109-4.1c-1.024-.707-1.88-.546-3.147-.546h-11.3c-.223,0-1.606.452-1.281.855a8.78,8.78,0,0,1,1.29,2.132c.171.425.51,1.207.251,1.647-.482.82-3.217.3-3.885.214-4.081-.548-8.911-2.1-11-5.956a.383.383,0,0,0-.349-.151c-4.494-.024-9-.446-13.473-.849a1.553,1.553,0,0,0-1.25.626q-6.478,10.67-12.955,21.338a23.2,23.2,0,0,0-2.09,5.292q-2.4,7.54-4.805,15.082-1.718,5.394-3.439,10.786c-.043.136.114.205.2.242l15.729,6.476,11.134,4.585,3.668,1.51a7.76,7.76,0,0,0,1.6.657c1.018.138,2.406-.513,3.364-.763l8.387-2.189,23.891-6.232,15.675-4.09c.314-.082.945-.379.883-.793q-1.181-7.879-2.364-15.757c-.067-.449-1.723.1-1.63.7" transform="translate(156.619 66.617)"/>
          <path id="Path_9320" data-name="Path 9320" d="M343.184,135.237c-1.641-6.085-29.939,21.9-33.09,42.388s3.151,35.3,14.5,36.557S364.929,189.6,364.929,189.6s-.945-4.1,3.783-4.1,13.55-.63,13.55-.63-11.66-15.757-20.011-12.291-30.412,15.128-30.412,15.128,15.127-38.449,11.345-52.473" transform="translate(153.699 66.785)" fill="#fff"/>
          <path id="Path_9321" data-name="Path 9321" d="M344.345,135.1c-.651-2.117-4.4-.081-5.477.552-3.979,2.329-7.371,5.844-10.467,9.209A97.783,97.783,0,0,0,316.8,160.2c-3.117,5.121-5.882,10.7-7.043,16.627a51.9,51.9,0,0,0,.442,23.165c1.437,5.265,4.281,10.655,9.332,13.224,3.859,1.962,7.723,1.524,11.661.118a63.567,63.567,0,0,0,13.431-7.2,190.972,190.972,0,0,0,21.453-16.627l.018-.049a3.662,3.662,0,0,1,.308-2.468c.939-1.671,4.585-1.124,6.269-1.193,3.114-.126,6.226-.308,9.333-.53.142-.01,1.522-.4,1.422-.536a49.966,49.966,0,0,0-6.134-6.775c-3.12-2.894-7.227-6.191-11.729-6.052-3.738.117-7.587,2.591-10.862,4.173-4.807,2.323-9.567,4.744-14.312,7.188q-4.448,2.29-8.872,4.621l1.468-.269c5.049-12.853,9.593-26.489,11.45-40.2.546-4.025.945-8.338-.087-12.321-.054-.208-1.768.254-1.705.5a29.327,29.327,0,0,1,.323,10.383,100.938,100.938,0,0,1-2.482,13.339,235.5,235.5,0,0,1-7.263,23.587c-.615,1.711-1.24,3.421-1.9,5.114-.084.213,1.331-.2,1.469-.271q9.283-4.906,18.68-9.6c2.165-1.076,4.335-2.142,6.519-3.177a34.012,34.012,0,0,1,5.262-2.343c4.259-1.168,9.191,2.956,12.047,5.557a49.877,49.877,0,0,1,6.428,7.045l1.422-.536q-3.894.276-7.795.458c-2.757.129-5.973-.293-8.6.713a3.561,3.561,0,0,0-2.132,1.759c-.323.7-.1,1.4-.272,2.073-.12.481-.683.867-1.208,1.319-7.968,6.887-16.386,13.585-25.55,18.815-4.317,2.462-9.247,5.226-14.324,3.671-5.917-1.811-9.395-7.491-11.1-13.109-2.316-7.631-2.227-16.3-.7-24.072,1.305-6.655,4.609-12.88,8.26-18.528A95.521,95.521,0,0,1,333.7,140.743c.868-.834,8.06-8.013,8.943-5.142.07.229,1.774-.28,1.705-.5" transform="translate(153.39 66.671)" fill="#011721"/>
          <path id="Path_9322" data-name="Path 9322" d="M351.87,144.32H329.5s-3.31,0-1.1-5.2,16.23-29.939,26-31.987,14.812,2.048,19.54,8.352,1.891,24.9,1.891,24.9a3.909,3.909,0,0,1-4.1,3.94h-10.4l.867-3.781s7.012,1.418,8.745-6.3,1.418-10.715.787-11.818c-2.206.789-5.831.946-7.563-1.26-1.419,4.413-6.461,8.194-8.667,9.928s-4.411,7.564-3.624,13.236" transform="translate(162.818 52.975)" fill="#011721"/>
          <path id="Path_9323" data-name="Path 9323" d="M344.183,124.218a3.905,3.905,0,0,0,.594,2.09,11.553,11.553,0,0,0,4.109,3.952,31.346,31.346,0,0,0,5.208,2.558c.4.159.558-.359.515-.648a1.231,1.231,0,0,0-.762-.969A21.98,21.98,0,0,1,347,127.279a5.33,5.33,0,0,1-.711-.747q-.148-.177-.283-.364l-.112-.163c.157.231.012.016-.025-.046-.058-.1-.118-.205-.172-.311-.027-.051-.048-.1-.076-.154-.063-.115.087.238.01.016-.028-.082-.06-.163-.088-.245-.063-.183-.019-.187-.015-.039a1.386,1.386,0,0,0-.037-.2c-.033-.166-.084-.117-.006.036a.332.332,0,0,1,0-.121,1.234,1.234,0,0,0-.606-1.1.441.441,0,0,0-.692.382" transform="translate(171.038 61.504)"/>
          <path id="Path_9324" data-name="Path 9324" d="M340.293,130.691l-.552,5.729c-.027.275-.054.551-.079.825a.851.851,0,0,0,.756.9c.4.064.954-.151,1-.614l.552-5.729c.027-.275.052-.551.079-.825a.853.853,0,0,0-.756-.9c-.4-.064-.954.151-1,.614" transform="translate(168.793 64.637)"/>
          <path id="Path_9325" data-name="Path 9325" d="M350.832,128.853c-.328.969-.608,1.957-.861,2.948a17.024,17.024,0,0,0-.731,4.976,3.055,3.055,0,0,0,1.024,2.156c.063.063.617.639.711.545s-.516-.684-.545-.713c.051.052.338.485.317.347a.616.616,0,0,0-.054-.115,2.416,2.416,0,0,1-.114-.38,4.389,4.389,0,0,1-.091-.907,12.61,12.61,0,0,1,.229-2.311,36.065,36.065,0,0,1,1.073-4.356c.1-.311.192-.623.3-.931.061-.181-.434-.6-.545-.713-.045-.045-.692-.6-.711-.545" transform="translate(173.55 64.032)"/>
          <path id="Path_9326" data-name="Path 9326" d="M359.193,135.8s4.254,39.867,3.9,48.139" transform="translate(178.501 67.485)" fill="#5379f6"/>
          <path id="Path_9327" data-name="Path 9327" d="M358.8,135.668c1.365,12.8,2.666,25.628,3.534,38.473a90.3,90.3,0,0,1,.37,9.5c-.021.539,1.139,1.816,1.168,1.087.252-6.536-.576-13.2-1.132-19.7-.668-7.816-1.427-15.624-2.226-23.427q-.265-2.589-.539-5.181c-.057-.54-1.278-1.729-1.175-.757" transform="translate(178.304 67.236)" fill="#011721"/>
          <path id="Path_9328" data-name="Path 9328" d="M356.317,179.23a158.714,158.714,0,0,1,27.569-8.895c14.772-3.19,33.02-12.97,41.954-2.34,11.031,13.125,13.387,21.243,31.662,66.649,3.783,6.027,1.027,9.928-5.709,11.937s-13.663,3.645-24.653,6.953-25.055,9.81-25.526,3.665-6.185-37.109-6.185-37.109-28.39,5.91-39.111,5.437-36.6,5.644-38.967-25.6" transform="translate(157.708 81.087)" fill="#acbaf7"/>
          <path id="Path_9329" data-name="Path 9329" d="M356.717,179.7a142.548,142.548,0,0,1,24.6-8.191c5.516-1.322,10.922-2.829,16.356-4.464,5.268-1.587,10.748-3.262,16.3-3.263a14.692,14.692,0,0,1,11.977,5.494c1.491,1.805,2.928,3.659,4.268,5.579a88,88,0,0,1,7.355,13.047c3.226,6.874,6.037,13.941,8.868,20.983q3.074,7.643,6.12,15.3,1.915,4.792,3.84,9.577c.918,2.284,2.576,4.428,2.2,7.036-.73,5.031-7.711,5.955-11.694,7.052-5.127,1.413-10.266,2.778-15.372,4.265-5.636,1.641-11.143,3.626-16.736,5.4a42.8,42.8,0,0,1-7.064,1.8c-1.475.2-3.73.433-4.659-1.055a7.64,7.64,0,0,1-.551-3.006c-.172-1.388-.379-2.771-.59-4.154-.555-3.633-1.166-7.259-1.789-10.881q-1.646-9.595-3.409-19.17-.1-.566-.208-1.129c-.031-.174-.418-.127-.516-.108-4.521.94-9.064,1.781-13.613,2.569-7.486,1.295-15.1,2.633-22.712,2.856-4.733.139-9.545.249-14.281.183-5.593-.078-11.413-.855-16.242-3.88-7.458-4.673-10.04-13.468-10.712-21.785-.028-.35-1.7.1-1.65.662.611,7.561,2.742,15.544,8.875,20.523,4.471,3.63,10.244,4.934,15.875,5.284,4.853.3,9.694-.22,14.546-.082,7.346.208,14.791-1.091,22.014-2.269,5.78-.945,11.549-1.994,17.284-3.186l-.518-.106c2.245,12.172,4.78,24.408,6.151,36.716.38,3.41,3.75,3.271,6.492,2.831,5.311-.85,10.42-2.956,15.493-4.66,5.919-1.986,11.949-3.639,17.971-5.278,4.594-1.251,9.588-2.159,13.928-4.153,3.594-1.65,6.356-4.635,5.024-8.8-.464-1.451-1.32-2.729-1.886-4.138q-1.058-2.629-2.111-5.26-1.848-4.608-3.687-9.217c-3.51-8.789-6.955-17.615-10.735-26.291a113.907,113.907,0,0,0-7.831-15.4c-1.3-2.067-2.719-4.063-4.218-5.992-2.165-2.784-4.325-5.552-7.708-6.9-4.377-1.75-9.344-1.274-13.86-.389-5.757,1.129-11.318,3.058-16.94,4.7-6.211,1.819-12.568,3.025-18.755,4.949-4.611,1.433-9.172,3.052-13.64,4.885-.7.287-1.406.579-2.1.888-.945.419-.72,1.057.25.626" transform="translate(157.434 80.931)" fill="#011721"/>
          <path id="Path_9330" data-name="Path 9330" d="M419.568,242.21s-4.254-37.847-14.417-49.548-12.47-10.9-24.879-2.985-30.957,24.608-38.286,25.577" transform="translate(169.95 91.335)" fill="#acbaf7"/>
          <path id="Path_9331" data-name="Path 9331" d="M420.512,242.923c-.581-5.141-1.425-10.262-2.385-15.342-1.7-9.018-3.751-18.216-7.5-26.632a37.012,37.012,0,0,0-7.087-10.459c-2.466-2.639-5.489-5.816-9.1-6.8-3.947-1.078-7.943,1.492-11.16,3.449-4.847,2.949-9.455,6.224-13.991,9.625-5.274,3.955-10.458,8.036-15.863,11.809-3.479,2.428-7.594,5.675-11.917,6.328.278-.042.925,1.145,1.419,1.07,3.406-.513,6.612-2.774,9.417-4.627,4.383-2.894,8.564-6.093,12.748-9.263,4.25-3.223,8.482-6.479,12.868-9.516,3.956-2.738,8.209-5.868,12.791-7.458,4.882-1.693,8.251,1.063,11.5,4.543a36.413,36.413,0,0,1,6.973,10.314c3.573,8.027,5.585,16.776,7.254,25.369,1.063,5.468,1.985,10.986,2.611,16.523.055.487,1.388.8,1.418,1.07" transform="translate(169.714 91.156)" fill="#011721"/>
          <path id="Path_9332" data-name="Path 9332" d="M355.378,170.754s-1.672-5.368-5.388-7.14" transform="translate(173.928 81.308)" fill="#fff"/>
          <path id="Path_9333" data-name="Path 9333" d="M356.3,171.442a15.291,15.291,0,0,0-3.718-6.182,10.321,10.321,0,0,0-2.75-1.98c-.289-.141-.388.009-.213.259a2.592,2.592,0,0,0,.971.8,4.6,4.6,0,0,1,.762.466c.084.063,0,0-.012-.007.036.027.07.054.1.082s.19.159.148.123.142.13.174.16c.049.046.174.169.178.174a10.647,10.647,0,0,1,1.235,1.576,16.01,16.01,0,0,1,1.507,2.976c.063.159.121.317.178.478.022.066.052.157.015.045a.4.4,0,0,1,.015.046,1.814,1.814,0,0,0,.74.82c.051.036.741.412.665.169" transform="translate(173.703 81.115)"/>
          <path id="Path_9334" data-name="Path 9334" d="M351.644,170.009s-1.5-4.3-4.215-4.9" transform="translate(172.655 82.054)" fill="#fff"/>
          <path id="Path_9335" data-name="Path 9335" d="M352.724,170.435a11.106,11.106,0,0,0-.737-1.62,8.572,8.572,0,0,0-2.218-2.757,6.661,6.661,0,0,0-2.582-1.2c-.043-.01-.263-.048-.3.034s.142.216.178.244a2.948,2.948,0,0,0,1.15.5c-.139-.031,0,.006.054.018.088.019-.078-.018-.076-.024s.087.034.1.037c-.012,0-.213-.087-.072-.027.027.01.114.052-.01-.008s-.037-.018-.012,0l.072.037c.039.021.031.016-.024-.013,0-.024-.073-.046,0,0l.091.057c.108.066-.094-.072.049.034.109.081.217.163.32.253-.067-.058.055.052.073.069.046.043.093.088.138.135.091.091.18.184.265.281a7.289,7.289,0,0,1,.467.582,11.829,11.829,0,0,1,1.26,2.278c.069.166.138.332.2.5.039.111.24.229.322.281a3.12,3.12,0,0,0,.618.295c.082.028.757.246.675.007" transform="translate(172.384 81.918)"/>
          <path id="Path_9336" data-name="Path 9336" d="M428.145,183.214h5.464l8.745-37.136s2.245-4.964-3.192-4.964H390.945s-2.253,0-3.136,4.018-9.2,35.156-9.2,35.156l-29.5,1.957s-4.492,1.533-1.3,7.087,80.335-6.117,80.335-6.117" transform="translate(172.275 70.127)" fill="#011721"/>
          <path id="Path_9337" data-name="Path 9337" d="M428.393,184h5.464c.386,0,.829-.079.931-.513q3.182-13.511,6.362-27.02c.789-3.35,1.421-6.79,2.379-10.1-.075.26.066-.117.1-.234a8.1,8.1,0,0,0,.3-1.186,3.565,3.565,0,0,0-.6-2.795c-1.313-1.63-3.693-1.421-5.576-1.421h-34.6c-3.85,0-7.711-.078-11.562,0-3.78.076-4.293,4.314-5.034,7.254-2.668,10.567-5.51,21.092-8.319,31.622q-.11.406-.217.813l.693-.512-25.89,1.717c-2.4.16-5.03-.141-6.317,2.416a5.739,5.739,0,0,0,1.2,6.154,5.489,5.489,0,0,0,2.5.952,45.367,45.367,0,0,0,9.914.424c4.962-.132,9.919-.506,14.863-.942,11.242-.988,22.453-2.352,33.641-3.828,6.675-.882,13.348-1.8,20.007-2.807,1.157-.174.569-1.3-.383-1.16-15.26,2.307-30.584,4.314-45.937,5.895-9.184.945-18.558,2.031-27.8,1.672-1.545-.06-4.632,0-5.581-1.051-1.6-1.768-1.557-5.482.943-6.392-.478.174-.037.037.21.034.612-.006,1.234-.081,1.844-.121q13.587-.9,27.174-1.8a.719.719,0,0,0,.695-.512q3.667-13.731,7.263-27.481c.545-2.094,1.091-4.19,1.608-6.293a17.442,17.442,0,0,1,.79-2.849,4.618,4.618,0,0,1,1.454-1.859c.09-.07.787-.265.293-.178a15.009,15.009,0,0,1,2.461,0H434.4c1.564,0,3.129-.015,4.693,0,2.994.028,3.438,1.642,2.739,4.1-.747,2.615-1.272,5.316-1.9,7.964q-3.46,14.694-6.922,29.388l.933-.513h-5.464c-1.075,0-1.2,1.166-.091,1.166" transform="translate(171.982 69.922)" fill="#011721"/>
          <path id="Path_9338" data-name="Path 9338" d="M394.906,152.654a2.541,2.541,0,1,1-2.54-2.54,2.541,2.541,0,0,1,2.54,2.54" transform="translate(193.724 74.599)" fill="#fff"/>
          <path id="Path_9339" data-name="Path 9339" d="M394.313,152.795a2.518,2.518,0,0,1-1.416,2.26c-.082.039-.178.067-.256.1h0c-.127.028-.088.024.117-.015-.627.088.373-.046.442-.031a3.849,3.849,0,0,1-.639-.153,2.461,2.461,0,0,1-1.1-.865,2.564,2.564,0,0,1-.175-2.654,2.477,2.477,0,0,1,.976-1,2.132,2.132,0,0,1,.277-.132c.069-.027.295-.061.1-.045-.159.013-.741.019-.43.058a1.964,1.964,0,0,1,.344.075,2.532,2.532,0,0,1,1.754,2.4c0,.118.814.033.9.025s.876-.058.873-.2a2.612,2.612,0,0,0-1.922-2.483,5.838,5.838,0,0,0-2.69.072,2.923,2.923,0,0,0-1.555.852,2.57,2.57,0,0,0-.253,3.147c.853,1.271,2.4,1.284,3.766,1.075a3.22,3.22,0,0,0,1.951-.9,2.61,2.61,0,0,0,.7-1.757c0-.115-.817-.034-.9-.025-.1.009-.871.054-.873.2" transform="translate(193.432 74.547)"/>
          <path id="Path_9340" data-name="Path 9340" d="M374.534,255.6a3.486,3.486,0,1,1-3.486-3.486,3.487,3.487,0,0,1,3.486,3.486" transform="translate(182.66 125.288)" fill="#011721"/>
          <path id="Path_9341" data-name="Path 9341" d="M373.975,255.971a2.77,2.77,0,0,1-.5,1.638,1.117,1.117,0,0,1-.207.246q-.063.065-.13.126s-.232.19-.093.085a4.078,4.078,0,0,1-.382.249c-.157.093-.069.036-.031.018a3.2,3.2,0,0,1-.3.121,2.642,2.642,0,0,1-1.579.022,2.907,2.907,0,0,1-1.418-.948,3.013,3.013,0,0,1-.662-1.651,2.8,2.8,0,0,1,.35-1.561,2.1,2.1,0,0,1,.487-.6,2.768,2.768,0,0,1,.59-.389,2.626,2.626,0,0,1,1.623-.156,2.97,2.97,0,0,1,2.256,2.8c.015,1.04,1.675.612,1.663-.248a4.1,4.1,0,0,0-2.695-3.867,4.537,4.537,0,0,0-4.926,1.421,4.1,4.1,0,0,0,3.956,6.72,4.54,4.54,0,0,0,3.665-4.274c.013-1.039-1.651-.612-1.663.248" transform="translate(182.387 125.042)" fill="#011721"/>
          <path id="Path_9342" data-name="Path 9342" d="M429.35,258.022H392.3s-13.6,1.368-14.285-2.054,0-9.488,0-9.488.228-5.343,6.846-1.007,9.354-4.106,9.354-4.106c4.563-.913,2.507-2.054,6.615,0s22.586,8.9,25.553,10.723,2.967,5.932,2.967,5.932" transform="translate(187.704 119.376)" fill="#acbaf7"/>
          <path id="Path_9343" data-name="Path 9343" d="M429.876,257.529h-32.9c-3.617,0-7.235.337-10.847.26a18.29,18.29,0,0,1-5.194-.626c-1.976-.639-1.906-2.055-1.973-3.964a47.044,47.044,0,0,1,.229-6.145,4.236,4.236,0,0,1,.32-1.546c1.075-2.078,4.248.415,5.483,1.109a6.471,6.471,0,0,0,5.555.659,9.077,9.077,0,0,0,4.87-5.693l-.879.705c1.027-.222,1.959-.59,2.955-.888a1.648,1.648,0,0,1,1.594.133c1.311.57,2.573,1.244,3.891,1.8,3.551,1.51,7.151,2.907,10.733,4.338,3.445,1.374,6.911,2.715,10.289,4.248,2.793,1.266,4.7,3.253,4.736,6.522.012.963,1.853.466,1.843-.394a7.8,7.8,0,0,0-2.7-5.983,23.209,23.209,0,0,0-5.307-2.578c-5.618-2.359-11.32-4.513-16.95-6.843-2.022-.838-4.079-2.118-6.161-2.747a3.02,3.02,0,0,0-2.159.123c-1.07.4-2.877.485-3.588,1.4a6.66,6.66,0,0,0-.508,1.2,8.149,8.149,0,0,1-1.88,2.624c-3.036,2.633-5.973-1.109-8.971-1.808-3.506-.817-4.829,1.784-5.069,4.7a48.747,48.747,0,0,0-.181,4.947c.024,1.21-.106,2.9.546,3.985.972,1.608,3.621,1.834,5.272,2a72.879,72.879,0,0,0,9.7-.1c3.263-.1,6.548,0,9.813,0h27c.934,0,1.7-1.442.442-1.442" transform="translate(187.398 119.148)"/>
          <path id="Path_9344" data-name="Path 9344" d="M378.009,248.148s-5.01,11.636,9.718,11.636h41.25s5.257-4.792,0-7.985-50.968-3.651-50.968-3.651" transform="translate(187.444 123.317)" fill="#fff"/>
          <path id="Path_9345" data-name="Path 9345" d="M377.66,248.219a10.432,10.432,0,0,0-.638,6.271c1.085,4.546,6.058,5.742,10.136,5.852,12.384.332,24.818.01,37.207.01,1.425,0,2.912.123,4.332,0,.945-.082,1.316-.543,1.913-1.328,1.314-1.726,2.115-4.022.7-5.941a6.274,6.274,0,0,0-3.675-2.216,64.688,64.688,0,0,0-11-1.5c-5.163-.433-10.339-.7-15.514-.909q-11.429-.472-22.873-.6c-.657-.006-.865.846-.1.853,14.63.148,29.5.248,44.024,2.1,2.674.341,6.8.473,8.335,3.135a3.868,3.868,0,0,1-.3,3.891,8.115,8.115,0,0,1-.819,1.157c-.151.18-.874.777-.4.588s-.118-.075-.308-.093c-.575-.052-1.178,0-1.754,0H394.273c-4.823,0-13.257,1.316-15.734-4.177a9.09,9.09,0,0,1,.213-6.962c.256-.606-.888-.62-1.091-.141" transform="translate(187.248 123.176)"/>
          <line id="Line_1341" data-name="Line 1341" x1="5.019" y2="4.947" transform="translate(588.534 366.518)" fill="none" stroke="#000" stroke-miterlimit="10" stroke-width="0.769"/>
          <path id="Path_9346" data-name="Path 9346" d="M401.9,245.766a31.578,31.578,0,0,1-4.711,5.161,31.513,31.513,0,0,1,4.711-5.161" transform="translate(197.386 122.134)"/>
          <path id="Path_9347" data-name="Path 9347" d="M446.138,232.244l-35.645,10.1s-12.715,5.024-14.306,1.918-2.585-9.13-2.585-9.13-1.236-5.2,6.311-2.832,7.881-6.5,7.881-6.5c4.142-2.121,1.855-2.66,6.367-1.8s24.156,2.406,27.508,3.353,4.47,4.9,4.47,4.9" transform="translate(195.563 111.119)" fill="#acbaf7"/>
          <path id="Path_9348" data-name="Path 9348" d="M446.424,231.791l-32.12,9.1c-3.745,1.061-7.395,2.539-11.19,3.389-1.449.326-3.522.916-4.982.365-1.609-.606-2.04-3.841-2.419-5.313-.334-1.3-.768-3.171-.912-4.268a2.987,2.987,0,0,1,.238-1.826c1.254-1.711,4.9.205,6.51.373a6.185,6.185,0,0,0,4.808-1.425,9.131,9.131,0,0,0,2.659-6.346l-.66.813a26.083,26.083,0,0,0,2.677-1.692c.63-.439.777-.406,1.6-.28,1.465.223,2.91.5,4.382.686,3.8.473,7.612.837,11.42,1.233,3.614.376,7.239.719,10.832,1.26a6.446,6.446,0,0,1,6.29,5c.25.841,2.025.126,1.766-.747a7.82,7.82,0,0,0-4.259-5,23.277,23.277,0,0,0-5.823-1.036c-6.106-.747-12.239-1.266-18.348-1.986-2.181-.256-4.617-1.03-6.793-.964a3.375,3.375,0,0,0-2.039.849c-.933.689-2.516,1.153-2.888,2.274-.461,1.4-.371,2.789-1.205,4.121-1.988,3.177-5.241,1.126-8.137.873-1.838-.16-4,.335-4.7,2.257a4.977,4.977,0,0,0-.029,2.721c.222,1.216.487,2.425.787,3.623.406,1.612.813,3.828,1.819,5.194,1.085,1.476,3.326,1.271,4.932,1.078a39.159,39.159,0,0,0,7.628-1.913c.793-.265,1.587-.539,2.368-.838.662-.254.018-.03.347-.133,3.03-.949,6.124-1.735,9.179-2.6l26.3-7.447c1-.283,1.189-1.733-.033-1.388" transform="translate(195.26 110.878)"/>
          <path id="Path_9349" data-name="Path 9349" d="M394.447,238.451S392.8,251.012,406.969,247s39.689-11.241,39.689-11.241,3.751-6.043-2.177-7.684-50.034,10.377-50.034,10.377" transform="translate(195.992 113.265)" fill="#fff"/>
          <path id="Path_9350" data-name="Path 9350" d="M394.068,238.633a10.374,10.374,0,0,0,1.114,6.2c2.329,4.123,7.543,3.886,11.541,2.858,12.151-3.124,24.177-6.841,36.249-10.26a28.336,28.336,0,0,0,3.792-1.075c.811-.362,1.055-1.085,1.361-1.93,1.368-3.778-.9-6.748-4.852-6.789a54.949,54.949,0,0,0-10.676,1.416c-5.117.975-10.2,2.13-15.264,3.337q-11.441,2.719-22.794,5.8c-.7.19-.491.992.214.8,5.452-1.485,10.928-2.889,16.413-4.251,8.932-2.217,17.947-4.507,27.068-5.813,2.666-.38,7.51-1.464,8.938,1.763a4.507,4.507,0,0,1,.078,2.9c-.174.689-.76,1.428-.861,2.1.012-.073.648-.132.043-.106a6.846,6.846,0,0,0-1.37.388l-31.24,8.848c-3.233.916-6.561,2.172-9.905,2.572-2.477.295-5.211.006-6.94-1.988a9.045,9.045,0,0,1-1.754-6.856c.075-.59-1.087-.446-1.154.081" transform="translate(195.792 113.124)"/>
          <line id="Line_1342" data-name="Line 1342" x1="3.482" y2="6.129" transform="translate(612.645 339.299)" fill="none" stroke="#000" stroke-miterlimit="10" stroke-width="0.769"/>
          <path id="Path_9351" data-name="Path 9351" d="M416.565,226.5a31.684,31.684,0,0,1-3.126,6.251,31.484,31.484,0,0,1,3.126-6.251" transform="translate(205.459 112.561)"/>
          <path id="Path_9352" data-name="Path 9352" d="M331.005,341c-16.028,11.809-34.857,15.877-53.589,11.57L22.23,293.745c-5.9-1.362-7.322-12.612-1.971-15.634l49.563-28.074a63.716,63.716,0,0,1,50.676-5.724L347.06,312.386c5.446,1.636,6.884,11.778,2.165,15.252L331.007,341" transform="translate(8.414 120.004)" fill="#b1b7ce"/>
          <path id="Path_9353" data-name="Path 9353" d="M225.287,414.082,91.2,46.343a34.094,34.094,0,0,1-1.989-9.254,28.552,28.552,0,0,1-.043-2.864L73.6,39.9l-.078.222a34.7,34.7,0,0,0,2.111,11.893L209.725,419.753a35.341,35.341,0,0,0,36.153,23c4.832-.416,7.817-1.311,13.862-3.95l10.345-4.489c-15.133.9-39.355-5.316-44.8-20.237" transform="translate(36.539 17.008)" fill="#011721"/>
          <path id="Path_9354" data-name="Path 9354" d="M229.026,444.592c11.612,10.914,29.452,11.859,42.861,3.247l72.687-54.146c15.122-10.754,27.644-26.941,21.013-45.132L246.422,21.754C239.79,3.564,220.042-2.238,201.292.741L113.247,17.083c-12.765,2.347-23.7,11.2-27.653,23.568a34.991,34.991,0,0,0,.443,22.7L220.125,431.091a34.9,34.9,0,0,0,8.9,13.5" transform="translate(41.703 0)" fill="#5967af"/>
          <path id="Path_9355" data-name="Path 9355" d="M228.008,432.4c11.158,10.489,28.3,11.4,41.189,3.121l69.849-52.034c14.534-10.333,26.566-25.89,20.192-43.368L244.725,26.06C238.352,8.581,219.375,3.005,201.358,5.867l-84.611,15.7c-12.271,2.254-22.779,10.766-26.578,22.65a33.633,33.633,0,0,0,.425,21.812L219.455,419.421a33.52,33.52,0,0,0,8.554,12.977" transform="translate(44.009 2.562)" fill="#fff"/>
          <path id="Path_9356" data-name="Path 9356" d="M227.36,432.981c11.506,10.6,30.264,11.859,43.142,2.8,5-3.515,9.82-7.316,14.72-10.965l50.937-37.945c8.146-6.069,16.306-12.2,21.568-21.12a30.642,30.642,0,0,0,2.545-26.894q-4.682-12.835-9.362-25.671-9.285-25.47-18.573-50.937l-23.622-64.785q-12.253-33.61-24.508-67.216L262.92,71.87q-6.9-18.913-13.793-37.825-1.381-3.788-2.762-7.576C242.6,16.206,234.391,9.274,223.93,6.39c-9.04-2.491-18.118-1.662-27.164.018l-28.607,5.31c-16.962,3.148-33.939,6.22-50.884,9.444-17.106,3.254-30.352,17.71-29.394,35.6a43.587,43.587,0,0,0,3.078,12.709q5.12,14.038,10.238,28.078,9.211,25.254,18.419,50.512,11.634,31.9,23.266,63.8,12.361,33.9,24.721,67.794L190.55,342.6q8.944,24.529,17.889,49.057,4.767,13.077,9.536,26.153a38.781,38.781,0,0,0,9.386,15.176c.527.506,2.569-.305,2.018-.834-7.109-6.823-9.637-16.031-12.9-24.969q-7.015-19.241-14.032-38.484-10.286-28.207-20.571-56.416-11.932-32.72-23.863-65.441-12.029-32.992-24.06-65.984-10.585-29.029-21.168-58.055-7.515-20.609-15.029-41.217C95.85,76.359,93.9,71.149,92.04,65.909a33.259,33.259,0,0,1,3.358-29.5,33.633,33.633,0,0,1,21.558-14.1c5.411-1.046,10.839-2.012,16.258-3.018l62.122-11.53c8.913-1.654,17.727-2.747,26.709-.382,10.4,2.741,18.481,9.642,22.2,19.787q4.273,11.676,8.519,23.364,8.9,24.412,17.8,48.825l23.07,63.27,24.179,66.313q10.792,29.6,21.585,59.194l14.824,40.657q1.812,4.967,3.623,9.935c2.584,7.087,3.236,14.309.508,21.54-4.187,11.086-13.449,18.49-22.64,25.337l-21.424,15.959c-14.971,11.152-29.807,22.517-44.928,33.469-11.98,8.678-29.3,6.952-39.979-2.885-.539-.5-2.572.323-2.018.834" transform="translate(43.648 2.395)"/>
          <path id="Path_9357" data-name="Path 9357" d="M109.344,14.462l11.826-3.389-14.944,8.054C96.294,24.481,89.55,34.6,89.21,45.712l-15.634,5.7a42.228,42.228,0,0,1,3.6-17.311,20.489,20.489,0,0,1,9.4-9.461c18.05-8.075,22.769-10.172,22.769-10.172" transform="translate(36.563 5.503)" fill="#6573b7"/>
          <path id="Path_9358" data-name="Path 9358" d="M150.363,239.219a.482.482,0,0,0,.178-.033.512.512,0,0,0,.3-.657L85.583,61.7a.512.512,0,0,0-.96.355l65.26,176.826a.513.513,0,0,0,.48.334" transform="translate(42.04 30.503)" fill="#fff"/>
          <path id="Path_9359" data-name="Path 9359" d="M115.321,82.147c4.81,13.27,18.329,21.362,30.207,18.076s17.6-16.719,12.79-29.991S139.989,48.87,128.111,52.156s-17.6,16.719-12.79,29.99" transform="translate(56.463 25.555)" fill="#fff"/>
          <path id="Path_9360" data-name="Path 9360" d="M114.56,82.627c3.615,9.694,12.217,17.7,22.743,18.884,9.7,1.088,19.183-4.182,22.644-13.434C167.423,68.1,145.608,43.77,125.075,53.1c-11.314,5.139-14.383,18.514-10.515,29.527.216.614,2.365-.022,2.169-.582-3.111-8.857-2.04-19.736,5.6-26.02,7.661-6.307,18.469-4.184,25.77,1.557,7.663,6.024,12.311,16.182,10.934,25.953-1.323,9.375-8.566,17.264-18.435,17.1-10.959-.186-20.186-8.72-23.864-18.583-.231-.617-2.373.034-2.169.581" transform="translate(56.14 25.366)" fill="#011721"/>
          <path id="Path_9361" data-name="Path 9361" d="M156.052,80.266C154.6,90.3,146.684,98.3,136.129,97.368a23.332,23.332,0,0,1-8.262-2.394,26.22,26.22,0,0,1-4.081-2.5c-1.168-.873-2.68-1.75-2.614-3.3.106-2.554,1.57-5.461,2.9-7.557A19.316,19.316,0,0,1,130.3,75.5c.275-.169.669-.584.2-.805a10.506,10.506,0,0,1-5.826-7.405c-.654-3.236.473-7.4,3.913-8.569,3.356-1.139,6.991,1.25,8.838,3.934a9.459,9.459,0,0,1,.723,9.9c-.24.427.2.593.578.6a25.206,25.206,0,0,1,17.395,7.389c.519.509,2.566-.3,2.018-.834a26.831,26.831,0,0,0-18.556-7.735c.193.2.385.4.578.6,4.244-7.56-3.377-17.368-11.774-14.911a8.383,8.383,0,0,0-6.078,7.943,11.073,11.073,0,0,0,6.456,10.11l.2-.807a21.443,21.443,0,0,0-8.941,10.78,21.224,21.224,0,0,0-1.022,3.775c-.256,1.476.162,1.7,1.3,2.674a27.8,27.8,0,0,0,6.949,4.379c7.994,3.5,17.748,2.653,24.309-3.389a21.924,21.924,0,0,0,6.654-13.148c.117-.8-2.063-.419-2.165.287" transform="translate(59.105 28.464)" fill="#011721"/>
          <path id="Path_9362" data-name="Path 9362" d="M150.983,58.281a1.025,1.025,0,0,1-.274-2.012l37.355-10.381a1.025,1.025,0,0,1,.548,1.974L151.254,58.245a1.128,1.128,0,0,1-.274.036" transform="translate(74.522 22.788)" fill="#011721"/>
          <path id="Path_9363" data-name="Path 9363" d="M150.983,58.281a1.025,1.025,0,0,1-.274-2.012l37.355-10.381a1.025,1.025,0,0,1,.548,1.974L151.254,58.245a1.128,1.128,0,0,1-.274.036" transform="translate(74.522 22.788)" fill="none" stroke="#011721" stroke-miterlimit="10" stroke-width="1"/>
          <path id="Path_9364" data-name="Path 9364" d="M155.78,78.08a1.025,1.025,0,0,1-.287-2.007l38.425-11.244a1.025,1.025,0,0,1,.576,1.967L156.068,78.039a1.033,1.033,0,0,1-.287.04" transform="translate(76.907 32.196)" fill="#011721"/>
          <path id="Path_9365" data-name="Path 9365" d="M155.78,78.08a1.025,1.025,0,0,1-.287-2.007l38.425-11.244a1.025,1.025,0,0,1,.576,1.967L156.068,78.039a1.033,1.033,0,0,1-.287.04" transform="translate(76.907 32.196)" fill="none" stroke="#011721" stroke-miterlimit="10" stroke-width="1"/>
          <path id="Path_9366" data-name="Path 9366" d="M157.964,82.454a1.025,1.025,0,0,1-.3-2l24.495-7.531a1.024,1.024,0,0,1,.6,1.958l-24.493,7.531a1.025,1.025,0,0,1-.3.045" transform="translate(77.993 36.22)" fill="#011721"/>
          <path id="Path_9367" data-name="Path 9367" d="M157.964,82.454a1.025,1.025,0,0,1-.3-2l24.495-7.531a1.024,1.024,0,0,1,.6,1.958l-24.493,7.531a1.025,1.025,0,0,1-.3.045" transform="translate(77.993 36.22)" fill="none" stroke="#011721" stroke-miterlimit="10" stroke-width="1"/>
          <path id="Path_9368" data-name="Path 9368" d="M135.32,141.751c3.615,9.694,12.217,17.7,22.743,18.884,9.7,1.088,19.183-4.182,22.644-13.434,7.476-19.981-14.339-44.307-34.873-34.979-11.314,5.139-14.383,18.514-10.515,29.527.216.614,2.365-.022,2.169-.582-3.111-8.857-2.04-19.736,5.6-26.021,7.661-6.305,18.469-4.182,25.77,1.558,7.663,6.024,12.311,16.182,10.934,25.953-1.323,9.375-8.566,17.264-18.435,17.1-10.959-.186-20.186-8.72-23.864-18.583-.231-.617-2.373.034-2.169.581" transform="translate(66.457 54.748)" fill="#011721"/>
          <path id="Path_9369" data-name="Path 9369" d="M176.812,139.39c-1.445,9.991-9.3,17.948-19.8,17.106a23.191,23.191,0,0,1-8.39-2.4,26.367,26.367,0,0,1-4.079-2.494c-1.165-.868-2.675-1.748-2.611-3.292.106-2.56,1.567-5.449,2.9-7.551a19.317,19.317,0,0,1,6.23-6.112c.281-.172.666-.609.195-.831a10.489,10.489,0,0,1-5.823-7.4c-.656-3.238.479-7.387,3.918-8.551,3.346-1.13,7,1.225,8.834,3.922a9.446,9.446,0,0,1,.72,9.886c-.24.428.2.618.584.624a25.171,25.171,0,0,1,17.392,7.377c.534.522,2.584-.289,2.016-.844a26.842,26.842,0,0,0-18.559-7.745q.292.312.585.624c4.241-7.557-3.382-17.4-11.783-14.94a8.422,8.422,0,0,0-6.075,8.314,11.114,11.114,0,0,0,6.462,9.768q.1-.418.195-.832a21.448,21.448,0,0,0-8.938,10.79,21.222,21.222,0,0,0-1.022,3.775c-.257,1.479.163,1.705,1.3,2.683a27.738,27.738,0,0,0,6.95,4.385c8,3.5,17.74,2.663,24.309-3.386a21.949,21.949,0,0,0,6.652-13.155c.12-.832-2.063-.451-2.168.277" transform="translate(69.422 57.839)" fill="#011721"/>
          <path id="Path_9370" data-name="Path 9370" d="M171.743,117.405a1.025,1.025,0,0,1-.274-2.012l37.355-10.381a1.025,1.025,0,0,1,.548,1.974l-37.358,10.383a1.058,1.058,0,0,1-.274.036" transform="translate(84.839 52.17)" fill="#011721"/>
          <path id="Path_9371" data-name="Path 9371" d="M171.743,117.405a1.025,1.025,0,0,1-.274-2.012l37.355-10.381a1.025,1.025,0,0,1,.548,1.974l-37.358,10.383a1.058,1.058,0,0,1-.274.036" transform="translate(84.839 52.17)" fill="none" stroke="#011721" stroke-miterlimit="10" stroke-width="1"/>
          <path id="Path_9372" data-name="Path 9372" d="M176.54,137.2a1.025,1.025,0,0,1-.287-2.007l38.425-11.244a1.025,1.025,0,0,1,.576,1.967l-38.427,11.244a1.035,1.035,0,0,1-.287.04" transform="translate(87.224 61.578)" fill="#011721"/>
          <path id="Path_9373" data-name="Path 9373" d="M176.54,137.2a1.025,1.025,0,0,1-.287-2.007l38.425-11.244a1.025,1.025,0,0,1,.576,1.967l-38.427,11.244a1.035,1.035,0,0,1-.287.04" transform="translate(87.224 61.578)" fill="none" stroke="#011721" stroke-miterlimit="10" stroke-width="1"/>
          <path id="Path_9374" data-name="Path 9374" d="M178.724,141.578a1.025,1.025,0,0,1-.3-2l24.495-7.531a1.024,1.024,0,0,1,.6,1.958l-24.493,7.531a1.024,1.024,0,0,1-.3.045" transform="translate(88.31 65.602)" fill="#011721"/>
          <path id="Path_9375" data-name="Path 9375" d="M178.724,141.578a1.025,1.025,0,0,1-.3-2l24.495-7.531a1.024,1.024,0,0,1,.6,1.958l-24.493,7.531a1.024,1.024,0,0,1-.3.045" transform="translate(88.31 65.602)" fill="none" stroke="#011721" stroke-miterlimit="10" stroke-width="1"/>
          <path id="Path_9376" data-name="Path 9376" d="M175.241,252.145c4.591,9.178,13.773,16.1,24.242,16.405,9.9.29,19.022-5.843,21.526-15.588,5.313-20.661-19.011-42.633-38.5-31.226-10.7,6.263-12.268,19.929-7.271,30.408.307.642,2.413-.069,2.169-.582-4.019-8.426-4.144-19.248,2.635-26.349,6.905-7.232,17.827-6.545,25.815-1.563,8.224,5.129,13.869,14.555,13.7,24.345-.157,9.414-6.41,18.234-16.154,19.378-10.976,1.287-21.275-6.361-26-15.808-.322-.642-2.419.081-2.169.581" transform="translate(85.733 108.639)" fill="#011721"/>
          <path id="Path_9377" data-name="Path 9377" d="M215.828,245.018c-.361,9.91-7.148,18.468-17.413,19.1a22.284,22.284,0,0,1-8.016-1.033,25.9,25.9,0,0,1-4.452-1.867c-.992-.528-3.452-1.56-3.8-2.7-.32-1.058.3-2.979.542-4a20.144,20.144,0,0,1,1.442-4.061,19.283,19.283,0,0,1,5.655-6.944c.463-.358.533-1.046-.1-1.266a10.135,10.135,0,0,1-6.5-6.965c-.817-3.115.1-6.9,3.232-8.344,3.165-1.46,6.89.269,9.022,2.711a9.154,9.154,0,0,1,1.771,9.569c-.269.629.407,1.007.951.957a24.955,24.955,0,0,1,17.936,5.417c.784.617,2.66-.5,1.665-1.278a27.132,27.132,0,0,0-19.423-5.778l.952.957c3.392-7.922-5.188-17.4-13.422-14.064a8.53,8.53,0,0,0-5.1,9.194,11.474,11.474,0,0,0,7.673,9.124q-.052-.633-.1-1.266a21.587,21.587,0,0,0-7.846,12.191,20.264,20.264,0,0,0-.543,4c-.036,1.254.774,1.584,1.771,2.271a27.988,27.988,0,0,0,7.437,3.645c8.374,2.644,17.913.846,23.778-5.98a22.154,22.154,0,0,0,5.094-13.736c.043-1.156-2.163-.864-2.2.151" transform="translate(89.426 111.682)" fill="#011721"/>
          <path id="Path_9378" data-name="Path 9378" d="M209.218,224.722a1.025,1.025,0,0,1-.488-1.971l36.033-14.311a1.025,1.025,0,0,1,.756,1.9l-36.036,14.312a1.032,1.032,0,0,1-.268.066" transform="translate(103.408 103.552)" fill="#011721"/>
          <path id="Path_9379" data-name="Path 9379" d="M209.218,224.722a1.025,1.025,0,0,1-.488-1.971l36.033-14.311a1.025,1.025,0,0,1,.756,1.9l-36.036,14.312a1.032,1.032,0,0,1-.268.066" transform="translate(103.408 103.552)" fill="none" stroke="#011721" stroke-miterlimit="10" stroke-width="1"/>
          <path id="Path_9380" data-name="Path 9380" d="M216.073,243.935a1.025,1.025,0,0,1-.5-1.966l37-15.282a1.025,1.025,0,1,1,.783,1.894l-37,15.282a1.011,1.011,0,0,1-.281.072" transform="translate(106.815 112.613)" fill="#011721"/>
          <path id="Path_9381" data-name="Path 9381" d="M216.073,243.935a1.025,1.025,0,0,1-.5-1.966l37-15.282a1.025,1.025,0,1,1,.783,1.894l-37,15.282a1.011,1.011,0,0,1-.281.072" transform="translate(106.815 112.613)" fill="none" stroke="#011721" stroke-miterlimit="10" stroke-width="1"/>
          <path id="Path_9382" data-name="Path 9382" d="M218.844,247.555a1.024,1.024,0,0,1-.512-1.96l23.549-10.1a1.025,1.025,0,0,1,.805,1.883l-23.55,10.1a.986.986,0,0,1-.293.076" transform="translate(108.192 116.993)" fill="#011721"/>
          <path id="Path_9383" data-name="Path 9383" d="M218.844,247.555a1.024,1.024,0,0,1-.512-1.96l23.549-10.1a1.025,1.025,0,0,1,.805,1.883l-23.55,10.1a.986.986,0,0,1-.293.076" transform="translate(108.192 116.993)" fill="none" stroke="#011721" stroke-miterlimit="10" stroke-width="1"/>
          <path id="Path_9384" data-name="Path 9384" d="M154.736,189.817c5.793,12.63,20.221,19.676,32.235,15.739s17.052-17.377,11.257-30.008-20.221-19.674-32.235-15.739-17.047,17.377-11.257,30.006" transform="translate(75.703 78.875)" fill="#bfcbfa"/>
          <path id="Path_9385" data-name="Path 9385" d="M197.032,184.89c-.97,12.895-12.521,21.013-25.8,18.136A28.363,28.363,0,0,1,159.4,197.25a19.847,19.847,0,0,1,9.028-15.444c-4.772-1.65-7.849-6.67-6.873-11.214s5.635-6.886,10.408-5.233,7.847,6.67,6.871,11.214a7.443,7.443,0,0,1-.777,2.073,27.112,27.112,0,0,1,18.978,6.25" transform="translate(79.212 81.912)" fill="#9aaae9"/>
          <path id="Path_9386" data-name="Path 9386" d="M192.287,163.143a1.025,1.025,0,0,1-.274-2.012l37.355-10.381a1.025,1.025,0,0,1,.548,1.974l-37.355,10.383a1.058,1.058,0,0,1-.274.036" transform="translate(95.048 74.899)" fill="#6573b7"/>
          <path id="Path_9387" data-name="Path 9387" d="M197.085,182.943a1.025,1.025,0,0,1-.287-2.007l38.425-11.244a1.025,1.025,0,0,1,.576,1.967L197.373,182.9a1.034,1.034,0,0,1-.287.04" transform="translate(97.434 84.308)" fill="#6573b7"/>
          <path id="Path_9388" data-name="Path 9388" d="M199.269,187.316a1.025,1.025,0,0,1-.3-2l24.495-7.53a1.024,1.024,0,0,1,.6,1.958l-24.493,7.53a.935.935,0,0,1-.3.045" transform="translate(98.52 88.332)" fill="#6573b7"/>
          <g id="Group_3413" data-name="Group 3413" transform="translate(304.049 123.394)" opacity="0.905">
            <g id="Group_3412" data-name="Group 3412">
              <g id="Group_3411" data-name="Group 3411" clip-path="url(#clip-path)">
                <g id="Group_3410" data-name="Group 3410" transform="translate(0.138 0.139)">
                  <g id="Group_3409" data-name="Group 3409" clip-path="url(#clip-path-2)">
                    <rect id="Rectangle_4435" data-name="Rectangle 4435" width="139.826" height="139.826" transform="translate(0 -0.001)" fill="#acbaf7"/>
                    <rect id="Rectangle_4436" data-name="Rectangle 4436" width="139.826" height="139.826" transform="translate(0 -0.001)" fill="none" stroke="#000" stroke-miterlimit="10" stroke-width="0.185"/>
                  </g>
                </g>
              </g>
            </g>
          </g>
          <path id="Path_9390" data-name="Path 9390" d="M206.43,246.6,177,284.153,138.152,179.1l-1.76-4.766c4.344-2.838,10.377-3.38,14.787,1.03l52.39,52.392c4.41,4.409,7.717,12.643,3.308,17.053l-.448,1.789" transform="translate(67.78 85.539)" fill="#acbaf7"/>
          <path id="Path_9391" data-name="Path 9391" d="M264.243,143.034a15.732,15.732,0,0,1-15.622-14.6c-.28-3.986-.04-8.052-.04-12.046l-1.948,1.06h32.535l-.819-.319c0,3.633.057,7.271,0,10.9-.123,7.819-6.037,14.883-14.106,15-.472.007-1.635.195-1.837.716s.172.671.71.663c8.289-.118,16.182-5.617,17.725-14.035a40.52,40.52,0,0,0,.272-7.259v-6.727c0-.307-.651-.319-.819-.319H247.76c-.575,0-1.946.293-1.946,1.06V123.7a40.528,40.528,0,0,0,.265,7.247c1.509,8.227,8.923,13.462,17.037,13.462.919,0,2.976-1.379,1.127-1.379" transform="translate(122.142 57.682)"/>
          <path id="Path_9392" data-name="Path 9392" d="M250.954,128.031v-5.049a.28.28,0,0,0-.243-.15c-3.311-.865-6.465-3.515-6.892-7.04-.62-5.114,3.953-9.38,8.774-6.555.4.232,2.855-.184,2.689-.832a11.59,11.59,0,0,1,6.251-13.389,14.8,14.8,0,0,1,11.229-.352,14.489,14.489,0,0,1,8.206,6.578c2,3.72,1.654,7.929.117,11.745-.228.567,1.674.087,1.832.03,2.829-1,5.326,2.5,5.3,4.986a5.283,5.283,0,0,1-.859,2.841c-.994,1.5-2.37,1.811-4.1,1.59-.5-.064-2.524.148-2.524.889v5.449c0,.389,2.765.016,2.765-.741v-5.449l-2.524.891c3.892.5,9.161-.766,9.92-5.287a5.418,5.418,0,0,0-1.632-4.862c-2-1.918-4.861-1.732-7.287-.873l1.832.031c1.394-3.464,1.906-7.317.458-10.856a13.9,13.9,0,0,0-6.44-6.828,20.053,20.053,0,0,0-19.643.9c-4.611,2.959-7.052,8.027-5.669,13.45l2.689-.834c-6-3.518-15.441,1.233-14.085,8.663.6,3.259,3.4,5.491,6.364,6.587.22.082.736.139.892.3-.308-.31-.187.578-.187.867v4.048c0,.389,2.766.016,2.766-.741" transform="translate(119.759 46.042)"/>
          <path id="Path_9393" data-name="Path 9393" d="M250.265,118.55a4.964,4.964,0,0,0-2.344-2.136,4.532,4.532,0,0,0-3.594.374,3.445,3.445,0,0,0-1.669,1.69,5.723,5.723,0,0,0,.031,3.629,5.534,5.534,0,0,0,1.94,3.061c1.771,1.189,4.141.29,5.525-1.084a.341.341,0,0,0,.019-.485,1.115,1.115,0,0,0-.728-.175,2.745,2.745,0,0,0-1.837.714c-.13.13.136-.111-.051.046-.052.045-.1.088-.157.13-.034.027-.168.1-.181.133,0,0,.226-.133.127-.082-.034.018-.067.04-.1.06s-.051.025-.076.04c-.162.1.163-.075.165-.075a1.112,1.112,0,0,0-.15.06s.335-.109.238-.081c-.064.019-.2.046.064-.007.305-.063.049-.025-.008-.006.1-.036.356-.013.132-.018-.073,0,.317.039.117,0-.052-.009-.108-.018-.16-.024-.139-.016.226.078.045.007-.094-.037-.19-.072-.283-.114-.028-.012-.057-.033-.085-.043,0,0,.135.093.072.04-.043-.034-.1-.061-.144-.093a4.106,4.106,0,0,1-.966-1.03c.033.049-.048-.079-.061-.1-.034-.06-.069-.118-.1-.18-.067-.123-.13-.247-.19-.374a7.32,7.32,0,0,1-.307-.771,7.564,7.564,0,0,1-.353-1.618,6.573,6.573,0,0,1-.033-.786c0-.114-.009.072.006-.084,0-.055.009-.109.015-.163.013-.124.031-.245.057-.367a2.955,2.955,0,0,1,.2-.636,1.082,1.082,0,0,0,.07-.145c.012-.04-.1.139-.01.018.06-.084.124-.162.187-.244.111-.148-.205.166-.007,0,.072-.06.144-.117.216-.172.193-.15-.04.021-.042.025a.407.407,0,0,1,.106-.06c.136-.036-.144.066-.139.064.184-.078-.121.034-.154.043.225-.06-.364.04-.066.013.139-.013-.2.01-.178.015a.645.645,0,0,0,.132,0c-.156.039-.207-.052-.046.01.025.009.144.022,0,0s.04.013.061.021a3.6,3.6,0,0,1,.442.19c.081.042-.028-.016-.036-.021.036.022.072.045.108.069.07.048.141.1.208.148a4.975,4.975,0,0,1,.665.615,6.424,6.424,0,0,1,.458.567c.042.06.079.123.123.181s-.1-.165-.036-.055c.287.475,1.088.34,1.539.21a2.655,2.655,0,0,0,.933-.433c.115-.091.4-.343.295-.518" transform="translate(120.448 57.741)"/>
          <path id="Path_9394" data-name="Path 9394" d="M270.247,119.147c.039-.064.186-.278.046-.076s.028-.036.072-.093c.067-.088.136-.177.21-.26s.169-.195.259-.287c.04-.043.084-.084.124-.127.207-.207-.166.132-.015.01.106-.085.211-.174.325-.253.051-.036.109-.066.16-.1.1-.079-.18.1-.168.1a.861.861,0,0,0,.142-.075c.058-.027.12-.049.177-.078.153-.075-.344.1-.178.067a.942.942,0,0,0,.093-.027c.237-.075-.015.042-.123.016.036.009.09-.015.129-.012.187.009-.141,0-.157-.006a1.375,1.375,0,0,0,.235.024c.12.009-.145-.028-.148-.03.016.016.082.021.1.03s.07.025.1.036c.205.063-.052-.033-.055-.033.063,0,.2.111.248.145.087.057.168.121.25.184.172.132-.054-.079.009.006s.135.151.193.237c.03.043.055.088.084.132.1.15-.037.076-.018-.043-.01.063.1.248.123.311a3.638,3.638,0,0,1,.145.68c.007.054.012.108.018.162.024.231,0-.174,0,0,0,.135,0,.268,0,.4a7.1,7.1,0,0,1-.25,1.615c-.018.07-.039.139-.06.21-.064.225.057-.154,0,.012-.049.136-.1.271-.151.406a6.762,6.762,0,0,1-.35.736c-.061.111-.127.217-.195.326-.094.153-.043.031.04-.052a2.022,2.022,0,0,0-.135.181q-.108.139-.229.269c-.042.045-.085.088-.129.133-.168.172.1-.076.07-.06-.1.063-.205.151-.3.225-.12.093.343-.172.1-.058-.057.025-.117.051-.172.078-.162.082.4-.112.16-.061-.076.016-.314.066-.015.013s.075-.019,0-.01c-.271.034.27.03.12,0a1.7,1.7,0,0,0-.193-.022c-.162-.012.314.1.1.016-.066-.024-.133-.045-.2-.067-.219-.075.226.132.013.009-.132-.078-.26-.154-.383-.244-.063-.046-.123-.1-.183-.145-.031-.025-.13-.133-.031-.025s-.049-.052-.06-.061a1.642,1.642,0,0,0-1.87-.177c-.391.2-1.171.873-.668,1.373a4.139,4.139,0,0,0,2.232,1.245,3.857,3.857,0,0,0,2.392-.4,5.778,5.778,0,0,0,2.629-3.242,7,7,0,0,0,.379-4.015,3.417,3.417,0,0,0-4.19-2.28,5.836,5.836,0,0,0-3.489,2.763c-.349.578.307,1.066.828,1.106a1.917,1.917,0,0,0,1.805-.832" transform="translate(132.933 57.652)"/>
          <path id="Path_9395" data-name="Path 9395" d="M252.085,134.176v6.4c0,.207.4.317.525.341a2.389,2.389,0,0,0,1.028-.076c.482-.139,1.213-.412,1.213-1.007v-6.4c0-.207-.4-.317-.525-.341a2.412,2.412,0,0,0-1.028.075c-.482.141-1.213.413-1.213,1.007" transform="translate(125.274 66.128)"/>
          <path id="Path_9396" data-name="Path 9396" d="M261.237,134.114v6.392c0,.159.427.183.484.183,4.178,0,8.028.238,11.615,2.715a40.4,40.4,0,0,1,3.139,2.557,13.722,13.722,0,0,1,2.946,2.9,7.151,7.151,0,0,1,.943,3.906c.022,4.566,0,9.131,0,13.7,0,.418,2.766.036,2.766-.741,0-4.675.067-9.356,0-14.029a6.776,6.776,0,0,0-1.612-4.479,29.681,29.681,0,0,0-3.362-2.97,21.927,21.927,0,0,0-3.573-2.608c-3.492-1.919-7.191-2.051-11.062-2.051l.484.184v-6.392c0-.416-2.766-.036-2.766.741" transform="translate(129.822 66.195)"/>
          <path id="Path_9397" data-name="Path 9397" d="M266.845,137.753c-4.018,2.015-8.054,4-12.055,6.045a6.446,6.446,0,0,0-3.733,6.063c-.01,2.557,0,5.114,0,7.67V164.4c0,.7,2.766.231,2.766-.742V150.118c0-2.284.274-4.452,2.569-5.636,2.013-1.039,4.052-2.033,6.079-3.048l6.045-3.031c.422-.213.771-.635.278-.945s-1.492.066-1.949.295" transform="translate(124.761 68.25)"/>
          <path id="Path_9398" data-name="Path 9398" d="M269.877,143.183l-2.669-2.274a12.671,12.671,0,0,0-2.5-2.1c-1-.439-2.639-.121-3.7-.121a35.376,35.376,0,0,0-4.844.2c-3.29.454-6.343,1.846-9.41,3.046-2.721,1.067-6.049,3.379-8.175.081-1.431-2.218-2.606-4.648-3.9-6.953-.457-.814-3.1.145-2.765.741,1.25,2.232,2.462,4.488,3.753,6.7,1.762,3.018,4.886,3.141,7.878,2,2.724-1.043,5.429-2.133,8.149-3.191,3.4-1.323,6.741-1.257,10.309-1.257.144,0,.716.085.811,0,.028-.025-.587-.427-.457-.04.144.431,1.272,1.085,1.611,1.373l3.313,2.822c.654.557,3.193-.5,2.587-1.016" transform="translate(115.239 66.963)"/>
          <path id="Path_9399" data-name="Path 9399" d="M248.685,103.99a11.9,11.9,0,0,0,3.233,4.841c.141.127.552.094.7.082a4.039,4.039,0,0,0,1.076-.244c.2-.075,1.187-.452.826-.777a12.207,12.207,0,0,1-1.281-1.358l.081.1a11.658,11.658,0,0,1-1.873-3.385c-.06-.168-.356-.184-.485-.19a3.351,3.351,0,0,0-1.012.138,3.255,3.255,0,0,0-.945.386c-.111.075-.385.237-.325.407" transform="translate(123.58 51.214)"/>
          <path id="Path_9400" data-name="Path 9400" d="M254.976,146.94V148.5a.3.3,0,0,0,.181.2.643.643,0,0,0,.338.117,1.658,1.658,0,0,0,.479.006,2.2,2.2,0,0,0,.546-.091,2.425,2.425,0,0,0,.931-.439l.183-.18a.413.413,0,0,0,.108-.356V146.2a.3.3,0,0,0-.181-.2.632.632,0,0,0-.338-.118,1.713,1.713,0,0,0-.479-.006,2.256,2.256,0,0,0-.546.091,2.416,2.416,0,0,0-.931.439c-.061.06-.123.12-.183.181a.409.409,0,0,0-.108.355" transform="translate(126.708 72.486)"/>
          <path id="Path_9401" data-name="Path 9401" d="M254.976,152.909v1.563a.281.281,0,0,0,.18.192.627.627,0,0,0,.335.111,1.822,1.822,0,0,0,.478,0,2.36,2.36,0,0,0,.546-.093,2.5,2.5,0,0,0,.931-.433l.186-.175a.39.39,0,0,0,.111-.343v-1.563a.288.288,0,0,0-.18-.192.626.626,0,0,0-.335-.109,1.7,1.7,0,0,0-.478,0,2.27,2.27,0,0,0-.546.093,2.506,2.506,0,0,0-.933.431l-.184.175a.392.392,0,0,0-.111.343" transform="translate(126.708 75.462)"/>
          <path id="Path_9402" data-name="Path 9402" d="M226.453,135.922q2.582,6.2,5.166,12.4c.639,1.534,1.221,3.111,1.936,4.614,1.46,3.07,4.473,4.159,7.673,4.117l7.754-.1-1.295-.969v9.545c0,1.5,2.81,1.13,2.81-.184V155.8c0-.722-.663-.978-1.3-.97l-6.272.082c-.749.01-1.509.06-2.257.03a5.225,5.225,0,0,1-4.527-3.133c-1.8-3.837-3.275-7.863-4.905-11.776q-1.01-2.423-2.019-4.849c-.536-1.286-3.286-.506-2.766.741" transform="translate(112.504 66.85)"/>
          <path id="Path_9403" data-name="Path 9403" d="M259.378,136.429H217.495q.647.476,1.29.954a18.273,18.273,0,0,1,9.841-14.257c9.51-4.575,22.321-1.483,27.213,8.148a19.055,19.055,0,0,1,2.043,6.575c.127,1.311,2.9.632,2.765-.741a20.354,20.354,0,0,0-11.577-15.959c-10.465-4.766-24.653-1.724-30.464,8.6a20.524,20.524,0,0,0-2.627,7.828c-.07.725.726.954,1.29.954h41.883c1.6,0,2.1-2.1.226-2.1" transform="translate(107.329 59.113)"/>
          <path id="Path_9404" data-name="Path 9404" d="M228.909,122.154a8.044,8.044,0,0,1,.49-1.8,6.324,6.324,0,0,1,.754-1.452,7.119,7.119,0,0,1,.516-.66c.012-.012.2-.193.287-.269.067-.058.138-.114.207-.171.042-.034.085-.067.129-.1-.09.063-.1.07-.028.024.142-.091.284-.178.434-.254-.365.187.531-.177.079-.034a4.76,4.76,0,0,1,.478-.126c-.289.058.379-.028.266-.024a3.761,3.761,0,0,1,2.07.454,5.072,5.072,0,0,1,2.184,2.717,7.676,7.676,0,0,1,.518,2.162c.064.858,2.844.289,2.766-.741a6.8,6.8,0,0,0-3.26-5.449,7.455,7.455,0,0,0-6.289.01,7.209,7.209,0,0,0-3.536,3.5,8.605,8.605,0,0,0-.828,2.572c-.141,1.048,2.639.552,2.762-.361" transform="translate(112.381 57.517)"/>
          <path id="Path_9405" data-name="Path 9405" d="M222.2,136.142h26.369c.525,0,1.558-.2,1.834-.72s-.241-.678-.713-.678H223.319c-.525,0-1.558.2-1.835.72s.243.678.714.678" transform="translate(110.027 66.961)"/>
          <path id="Path_9406" data-name="Path 9406" d="M391.307,186.866l-58.576,2.527a10.439,10.439,0,0,0-1.558-7.492,15.586,15.586,0,0,0-9.025-6.844L222.067,145.8a47.877,47.877,0,0,0-46.432,11.269l-31.581,30.045,58.558,58.808,21.329-22.977a20.084,20.084,0,0,1,18.8-6l53.3,11.068a45.485,45.485,0,0,0,21.67-.78l99.869-28.355s-.5-13.514-26.276-12.013" transform="translate(71.587 71.5)" fill="#fff"/>
          <path id="Path_9407" data-name="Path 9407" d="M392.036,186.156l-51.3,2.212-7.278.314,1.455.889c.946-6.663-3.958-12.444-9.935-14.725-1.006-.385-2.058-.659-3.091-.961l-13.462-3.936-47.259-13.814L225.3,145.653a53.22,53.22,0,0,0-23.278-1.918,51.952,51.952,0,0,0-27.966,14.05l-29.906,28.453c-.3.28-.591.561-.886.841-.259.247-.469.75-.165,1.057l19.8,19.89L194.451,239.7l7.208,7.239a2.192,2.192,0,0,0,2.835-.3q7.551-8.137,15.109-16.278c2.039-2.2,4.06-4.415,6.12-6.593a17.95,17.95,0,0,1,16.7-5.47c15.237,2.985,30.415,6.316,45.618,9.471q3.561.741,7.127,1.48a49.335,49.335,0,0,0,19.222.26c4.278-.811,8.483-2.2,12.664-3.391q25.614-7.271,51.227-14.544c13.148-3.733,26.33-7.361,39.446-11.2.222-.064.445-.126.668-.19.681-.193,1.4-.624,1.367-1.406-.114-2.666-1.968-5.338-3.864-7.057-6.26-5.676-15.91-6-23.858-5.572-1.733.093-2.6,2.224-.362,2.1,7.134-.383,16.308-.141,21.737,5.316a9.822,9.822,0,0,1,3.093,6.081q.685-.7,1.367-1.406l-33.849,9.61q-26.79,7.608-53.582,15.214c-4.078,1.159-8.152,2.328-12.233,3.474a44.057,44.057,0,0,1-20.662.81c-1.708-.341-3.41-.708-5.117-1.061q-23.775-4.938-47.549-9.874A23.557,23.557,0,0,0,230.3,217.81c-3.8,1.707-6.564,4.477-9.329,7.455l-17.7,19.07-1.442,1.552,2.834-.3-19.8-19.89q-15.77-15.839-31.544-31.678-3.6-3.62-7.209-7.239c-.054.352-.109.7-.163,1.055l27.851-26.5c1.229-1.171,2.455-2.347,3.691-3.512a45.32,45.32,0,0,1,44.8-10.5q15.563,4.536,31.119,9.1L300.534,170.2l16.371,4.786c4.081,1.193,8.211,2.082,11.292,5.311a11.373,11.373,0,0,1,3.444,9.6c-.112.792.912.913,1.457.889l51.3-2.212,7.278-.314c1.738-.075,2.6-2.2.364-2.1" transform="translate(71.039 71.158)" fill="#011721"/>
          <path id="Path_9408" data-name="Path 9408" d="M165.672,264.686l24.605-32.818,3.554-4.739-2.659.952,1.274,0,2.106-1.337h-1.272c.141.183.28.367.421.549a11.7,11.7,0,0,0,.058-16.405c-.573-.6-3.573.579-3.066,1.112a11.2,11.2,0,0,1,.06,15.531c-.346.364.051.549.421.549h1.272a3.742,3.742,0,0,0,2.3-.617c.38-.349.557-.719-.193-.72-1.436,0-2.967-.072-4.015,1.063a22.74,22.74,0,0,0-1.368,1.825q-3.126,4.168-6.248,8.335-8.216,10.955-16.431,21.912l-4.028,5.374c-.359.478,1.195.34,1.3.322a3.028,3.028,0,0,0,1.906-.892" transform="translate(80.709 104.72)"/>
          <path id="Path_9409" data-name="Path 9409" d="M303.875,177.429s-.2,13.142-21.11,8.4-70.438-17.573-80.644-17.877" transform="translate(100.444 83.464)" fill="#fff"/>
          <path id="Path_9410" data-name="Path 9410" d="M302.766,177.944a8.2,8.2,0,0,1-4.337,6.793c-3.456,1.843-7.819,1.509-11.541.916-3.832-.611-7.622-1.654-11.393-2.554-17.6-4.194-35.142-8.646-52.823-12.492-6.325-1.376-12.937-3.189-19.439-3.416-.707-.025-1.843.2-2.124.979a.959.959,0,0,0,.975,1.3c5.916.208,11.919,1.8,17.675,3.039,9.308,2.006,18.571,4.214,27.828,6.437,9,2.162,17.98,4.368,26.98,6.506,7.826,1.861,16.829,4.871,24.625,1.421,3.543-1.569,6.78-5.129,6.865-9.2.034-1.642-3.259-1.129-3.289.274" transform="translate(99.908 83.085)" fill="#011721"/>
          <path id="Path_9411" data-name="Path 9411" d="M136.019,16.757a3.627,3.627,0,1,0,2.247-5.033,3.92,3.92,0,0,0-2.247,5.033" transform="translate(67.469 5.752)"/>
          <path id="Path_9412" data-name="Path 9412" d="M136.019,16.757a3.627,3.627,0,1,0,2.247-5.033,3.92,3.92,0,0,0-2.247,5.033" transform="translate(67.469 5.752)" fill="none" stroke="#000" stroke-miterlimit="10" stroke-width="0.25"/>
          <path id="Path_9413" data-name="Path 9413" d="M101.042,263.206l27.71-23.577-32.357-44.47L48.759,227.848Z" transform="translate(24.231 96.985)" fill="#fff"/>
          <path id="Path_9414" data-name="Path 9414" d="M102.024,263.314l24.2-20.592,3.507-2.985c.039-.033.235-.216.169-.307q-14.144-19.439-28.289-38.88l-4.067-5.59c-.254-.35-1.16.13-1.4.3L54.4,223.9l-5.893,4.045c-.112.076-.482.338-.263.487l45.732,30.928,6.551,4.429c.409.277,1.934-.621,1.6-.846L56.4,232.018q-3.276-2.216-6.551-4.431c-.088.163-.175.325-.263.487l41.742-28.644,5.894-4.045-1.4.3,23.111,31.762c3.049,4.191,6.054,8.419,9.151,12.577.171.229.19-.051.229-.147-.054.133-.389.341-.5.422-.868.654-1.671,1.422-2.5,2.126l-8.7,7.4-15.983,13.6c-.684.582,1.076.16,1.389-.106" transform="translate(23.942 96.824)"/>
          <path id="Path_9415" data-name="Path 9415" d="M115.647,250.983S40.5,196.56,20.255,208.838-3.307,234.267,4.326,247.272,35.6,282.329,74.1,293.339c31.86-5.251,41.549-42.356,41.549-42.356" transform="translate(0.277 102.886)" fill="#fff"/>
          <path id="Path_9416" data-name="Path 9416" d="M116.714,250.712c-11.051-8-22.589-15.41-34.336-22.34a255.606,255.606,0,0,0-29.159-15.143c-7.732-3.308-16.344-6.681-24.894-6.56a17.762,17.762,0,0,0-9.72,2.985c-6.323,4.022-12.637,9.046-16.17,15.814A21.156,21.156,0,0,0,1,241.768a38.587,38.587,0,0,0,7.176,12.357c7.757,9.61,17.8,17.42,28.31,23.8A148.351,148.351,0,0,0,57.8,288.575q6.254,2.528,12.706,4.515c1.677.518,3.037,1.1,4.771.769a44.232,44.232,0,0,0,5.058-1.266c18.18-5.726,30.674-22.824,36.126-40.472.121-.392.241-.784.346-1.181.156-.593-1.6-.165-1.763.454a65.09,65.09,0,0,1-5.814,14.031c-5,9.314-12.067,17.832-21.427,22.995a40.891,40.891,0,0,1-8.682,3.561c-1.575.44-3.443,1.111-5.054.741-2.23-.513-4.446-1.355-6.614-2.09a151.706,151.706,0,0,1-22.694-9.8A121.52,121.52,0,0,1,14.1,258.137C7.47,251.2.449,242.147,1.917,231.939,2.886,225.2,7.4,219.63,12.459,215.356c3.775-3.191,8.124-6.934,13.238-7.477,7.808-.829,16.065,2.286,23.174,5.136a225.064,225.064,0,0,1,28.216,14.1c12.844,7.386,25.361,15.435,37.418,24.052.211.151.421.3.632.454.507.367,2.109-.524,1.578-.909" transform="translate(0 102.703)"/>
          <path id="Path_9417" data-name="Path 9417" d="M85.073,254.166q-12.123-7.85-24.421-15.429c-4.861-3-9.742-5.962-14.7-8.8a67.353,67.353,0,0,0-9.783-5.028c-.275-.1-2.063-.257-1.344.009a67.968,67.968,0,0,1,9.952,5.17c4.8,2.76,9.537,5.638,14.251,8.542q12.211,7.524,24.249,15.321c.443.287,1.659.127,1.793.214" transform="translate(17.224 111.7)" fill="#011721"/>
          <path id="Path_9418" data-name="Path 9418" d="M41.9,269.354c5.181-7.931,10.931-15.853,17.691-22.51a26.567,26.567,0,0,1,6.678-5.16c.522-.254-.409-1.871-.989-1.587-4.873,2.385-8.73,7.084-12.157,11.154-3.687,4.382-7.1,9-10.357,13.708-.683.99-1.362,1.982-2.019,2.988-.323.5.787,1.97,1.154,1.407" transform="translate(20.222 119.3)" fill="#011721"/>
          <path id="Path_9419" data-name="Path 9419" d="M93.1,183.252,90.052,181.9a1.4,1.4,0,0,0,.954-.349l-1.689.024-.418-.186a7.193,7.193,0,0,1-1.711-2.66C85.2,174.084,83.1,163.96,81.41,162.3S69.1,170.1,69.1,170.1s.663,8.131,0,9.79a2.887,2.887,0,0,1-1.274,1.741l-1.274.259c-.141.006-.278.013-.439.013l.4-.006-2.976.606s7.778,16.116,9.645,16.676,20.847-1.928,20.847-1.928l.933-10.579Z" transform="translate(31.577 80.559)" fill="#fff"/>
          <path id="Path_9420" data-name="Path 9420" d="M92.874,182.71l-3.048-1.352q.418.82.837,1.638a1.756,1.756,0,0,0,.954-.35c.26-.208-.588-1.645-.9-1.641-1.43.021-1.96.265-2.825-1.307a20.647,20.647,0,0,1-1.362-3.688c-.784-2.456-1.461-4.946-2.221-7.408a29.642,29.642,0,0,0-1.961-5.218c-.389-.732-.861-1.73-1.772-1.82-1.232-.12-2.769,1.07-3.727,1.693-1.569,1.022-3.058,2.168-4.516,3.34a19.125,19.125,0,0,0-3.2,2.68c-.44.57-.316.774-.26,1.6a53.509,53.509,0,0,1,.169,6.805c-.129,2.121-.952,3.612-3.215,3.678-.021,0,.409,1.648.9,1.641l.4,0-.9-1.642-2.976.606c-.144.03.151.666.165.693a121.432,121.432,0,0,0,8.3,15.372,6.257,6.257,0,0,0,1.847,2.168,5.1,5.1,0,0,0,2.3.142c3.533-.145,7.063-.581,10.574-.984q4.1-.469,8.2-1l.028-.054q.388-4.392.775-8.786a4.816,4.816,0,0,0-.093-2.542c-.533-1.216-1.287-2.368-1.922-3.533-.51-.936-.867-.769-.344.187q.934,1.711,1.867,3.422l-.307-.859q-.431,4.877-.861,9.757c-.091,1.028-.2.787-1.259.922q-2.576.33-5.153.633c-4.194.5-8.425,1.066-12.649,1.207-1.183.039-1.826.111-2.582-.847a36.978,36.978,0,0,1-3.153-5.2c-1.756-3.2-3.415-6.462-5-9.751.054.231.109.461.163.693l2.976-.606c.142-.03-.5-1.648-.9-1.642l-.4.006q.449.82.9,1.641a2.952,2.952,0,0,0,3.162-2.647,23.319,23.319,0,0,0,.084-5.435q-.058-1.361-.15-2.72c-.018-.272-.018-1.174-.1-1.009.347-.7,1.648-1.424,2.235-1.91,2.512-2.087,5.5-4.982,8.706-5.926,1.832-.54,2.066,2.009,2.5,3.361.78,2.443,1.452,4.92,2.209,7.371A29.2,29.2,0,0,0,88,180.7a4.578,4.578,0,0,0,1.552,1.828,4.914,4.914,0,0,0,2.063.118q-.451-.82-.9-1.641a1.759,1.759,0,0,1-.954.35c-.223.036.608,1.534.837,1.636l3.049,1.352c.007,0-.31-1.427-.775-1.633" transform="translate(31.415 80.285)" fill="#011721"/>
          <path id="Path_9421" data-name="Path 9421" d="M47.193,301.965s44.081-5.5,30.132-7.354c-37.707-5.024,67.436-86.325,73.41-87.985s22.9-5.641,28.209,8.3,7.964,32.855-4.647,46.129-33.187,32.8-33.187,32.8-10.95,9.682-23.562,9.682-70.355-1.566-70.355-1.566" transform="translate(23.453 101.779)" fill="#fff"/>
          <path id="Path_9422" data-name="Path 9422" d="M48.123,302.715c9.9-1.235,20.134-2.292,29.768-4.943.639-.177,3.15-.615,3.136-1.578-.016-1.222-2.9-1.781-3.723-1.913-3.159-.508-6.393-1.058-7.036-4.687-.623-3.509,1.272-7.263,2.946-10.211a82.5,82.5,0,0,1,9.8-13.22c9.3-10.666,19.82-20.282,30.52-29.512,9.4-8.112,19.065-15.972,29.089-23.309A81,81,0,0,1,150.6,207.9a14.547,14.547,0,0,1,4.061-1.28,36.55,36.55,0,0,1,11.163-.961c5.236.464,9.672,2.662,12.019,7.573a56.208,56.208,0,0,1,4.377,15.435c1.777,11.594-.355,23.45-8.61,32.18-7.569,8.006-15.477,15.7-23.387,23.367-3.527,3.418-6.928,7.2-10.818,10.218a45.654,45.654,0,0,1-11.323,6.471,35.1,35.1,0,0,1-13.417,2.22c-6.9-.064-13.794-.225-20.691-.377q-22.2-.49-44.4-1.1l-2.849-.076c.09,0,.891,1.13,1.4,1.144q17.831.483,35.663.909,12.5.3,24.995.539c2.811.049,5.624.1,8.435.114a33.812,33.812,0,0,0,14.311-3.072,46.21,46.21,0,0,0,13.035-8.974q10.8-10.329,21.378-20.884c3.988-4,8.39-7.926,11.786-12.452a33.6,33.6,0,0,0,6.322-16.219,50.472,50.472,0,0,0-.943-16.36c-1.018-4.826-2.3-10.452-5.2-14.531-4.754-6.687-13.121-8.07-20.758-7.018-3.576.492-6.784,1.141-9.79,3.1-8.666,5.639-16.772,12.266-24.763,18.8a414.275,414.275,0,0,0-32.628,29.324A162.585,162.585,0,0,0,76.88,270.669c-2.915,3.772-5.841,7.862-7.413,12.408-.955,2.765-1.358,6,.669,8.387,2.278,2.689,6.392,4.084,9.833,4.214.994.037-.509-.421-.445-.437-.069.018-.237.323-.352.379a14.528,14.528,0,0,1-2.126.846,74.444,74.444,0,0,1-8.187,1.8c-6.169,1.121-12.381,2.015-18.6,2.846q-1.769.236-3.54.461c.018,0,.93,1.2,1.4,1.144" transform="translate(23.22 101.601)"/>
          <path id="Path_9425" data-name="Path 9425" d="M81.393,154.479l-21.9,2.656s-1.328,8.462,1.494,13.107,5.807,8.3,9.956,7.3,6.305-1.66,7.3-5.145,8.268-5.181,6.8-7.5" transform="translate(29.408 76.769)" fill="#fff"/>
          <path id="Path_9426" data-name="Path 9426" d="M81.626,154.025l-19.119,2.317-2.784.338c-.311.037-.78.249-.835.609a29.9,29.9,0,0,0-.171,7.721,18.579,18.579,0,0,0,5.654,11.076,8.205,8.205,0,0,0,4.784,2.509,13.378,13.378,0,0,0,5.614-1.075A7.246,7.246,0,0,0,78.5,174.9c.946-1.391,1.046-2.931,2.365-4.1,1.3-1.151,2.88-1.924,4.233-3,.913-.729,1.8-1.775,1.138-2.965-.427-.768-2.223-.278-1.747.578.461.831-.729,1.525-1.3,1.93-1.109.783-2.287,1.46-3.349,2.313a6.418,6.418,0,0,0-2.165,2.792,5.342,5.342,0,0,1-2.587,3.412,13.338,13.338,0,0,1-4.9,1.383,6.193,6.193,0,0,1-4.548-2.295,17.405,17.405,0,0,1-5.045-10,28.2,28.2,0,0,1,.129-7.515l-.835.609,19.119-2.317,2.784-.337c1.153-.141.994-1.509-.165-1.368" transform="translate(29.093 76.538)" fill="#011721"/>
          <path id="Path_9427" data-name="Path 9427" d="M36.108,214.459s13.872-28.707,19.3-32.523,18.3-6.45,24.935-6.45c0,0,.569,9.271,11.851,9.106s12.157-6.861,10.393-9.57c7.03.111,22.462,1.272,27.771,8.905s20.576,30.532,22.4,43.641,1.162,27.379-11.283,28.209-30.532-1.494-31.527-2.82a33.4,33.4,0,0,0-9.956-27.379c-13.109.5-31.029,2.488-28.541,24.061-8.793,2.157-35.343-35.178-35.343-35.178" transform="translate(17.944 86.977)" fill="#acbaf7"/>
          <path id="Path_9428" data-name="Path 9428" d="M37.229,214.5q3.983-8.238,8.4-16.269c2.132-3.883,4.328-7.759,6.834-11.416a24.8,24.8,0,0,1,2.956-3.763,15.741,15.741,0,0,1,5.524-3.012,56.846,56.846,0,0,1,19.26-3.751l-.428-.3c.422,6.187,6.353,9.4,12,9.407,3.889,0,8.585-.781,11.2-3.985a5.8,5.8,0,0,0,.741-6.618l-1.263,1.033c7.235.129,15.115.837,21.671,4.133,5.867,2.949,9.078,9.441,12.462,14.8a164.685,164.685,0,0,1,11.874,21.611,52.171,52.171,0,0,1,4.471,23.025c-.121,3.826-.645,7.944-2.681,11.271-2.3,3.763-5.943,4.657-10.107,4.819a116.09,116.09,0,0,1-25.186-1.7,17.3,17.3,0,0,1-3.209-.751c-.927-.365-.569-.594-.5-1.582a31.879,31.879,0,0,0-.632-8.67,33.9,33.9,0,0,0-4.7-11.524,36.161,36.161,0,0,0-3.941-5.034c-.771-.828-.891-1.048-1.948-1.019-.837.021-1.675.076-2.51.129-6.555.407-13.555,1.352-19.124,5.109-6.643,4.482-8.317,12.109-7.5,19.7l1.09-.885c-2.365.516-5.09-1.665-6.817-2.985a71.107,71.107,0,0,1-8.754-8.242A235.285,235.285,0,0,1,40.54,218.733c-1.117-1.489-2.229-2.985-3.308-4.5-.4-.564-2.024.352-1.662.859,3.151,4.428,6.477,8.742,9.884,12.976,5.45,6.771,11.173,13.841,18.1,19.17,2.132,1.639,5.084,3.814,7.961,3.186.325-.07,1.139-.418,1.088-.885-.79-7.323.665-14.978,7.431-19,5.449-3.241,12.218-3.8,18.41-4.091a3.733,3.733,0,0,1,1.06-.046c.65.216,1.355,1.287,1.766,1.762a35.3,35.3,0,0,1,2.479,3.214,33.827,33.827,0,0,1,3.331,6.152,33.1,33.1,0,0,1,2.476,11.148,29.129,29.129,0,0,1-.051,3.615c-.061.768-.287,1.193.361,1.65a7.5,7.5,0,0,0,2.581.765c1.608.346,3.236.591,4.865.811,4.174.563,8.378.918,12.585,1.109,4.274.193,8.82.47,13.061-.22,7.164-1.169,10.553-7.314,11.41-14a49.092,49.092,0,0,0-2.644-22.956c-2.949-7.9-7.193-15.338-11.589-22.513q-2.861-4.666-5.908-9.212c-1.59-2.376-3.081-4.95-5.343-6.754-5.736-4.578-14.023-5.661-21.107-6.157q-2.23-.155-4.465-.192c-.346-.006-1.585.51-1.263,1.034a4.958,4.958,0,0,1-.47,5.654c-2.555,3.129-8.22,3.311-11.835,2.635-4.193-.784-7.944-4.111-8.248-8.555-.016-.231-.225-.3-.428-.3a60.752,60.752,0,0,0-17.46,3c-4.007,1.253-8,2.807-10.7,6.129a77.755,77.755,0,0,0-6.941,10.774c-2.334,4.093-4.546,8.256-6.7,12.449-1.254,2.446-2.5,4.9-3.693,7.378-.352.728,1.4.228,1.657-.314" transform="translate(17.651 86.777)" fill="#011721"/>
          <line id="Line_1343" data-name="Line 1343" x2="36.174" transform="translate(117.936 312.554)" fill="#acbaf7"/>
          <path id="Path_9429" data-name="Path 9429" d="M79.038,209.895h36.175a.829.829,0,1,0,.075-1.653H79.114a.829.829,0,1,0-.076,1.653" transform="translate(38.859 103.486)" fill="#011721"/>
          <path id="Path_9430" data-name="Path 9430" d="M89.353,198.263s7.575,7.134,7.741,15.763" transform="translate(44.404 98.527)" fill="#acbaf7"/>
          <path id="Path_9431" data-name="Path 9431" d="M88.965,198.891a26.186,26.186,0,0,1,3.621,4.422,20.755,20.755,0,0,1,3.886,10.85c.024.9,1.889,1.031,1.865.157a21.865,21.865,0,0,0-3.98-11.384,28.093,28.093,0,0,0-3.994-4.871c-.624-.588-2.238.033-1.4.826" transform="translate(44.093 98.313)" fill="#011721"/>
          <path id="Path_9432" data-name="Path 9432" d="M74.436,159.689s-1.41.248-1.494,1.162-1.492,2.1-1,2.46,1-.136,1.742-1.216a4.723,4.723,0,0,0,.747-2.406" transform="translate(35.701 79.358)"/>
          <path id="Path_9433" data-name="Path 9433" d="M73.9,159.461a2.315,2.315,0,0,0-1.3.665c-.244.274-.217.6-.344.927a5.718,5.718,0,0,1-.6,1.033,1.772,1.772,0,0,0-.4.816.438.438,0,0,0,.181.364,3.127,3.127,0,0,0,1.192.554,1.686,1.686,0,0,0,.946.057,1.222,1.222,0,0,0,.424-.277,5.618,5.618,0,0,0,.957-1.2,4.43,4.43,0,0,0,.662-2.278c0-.106-.133-.187-.207-.237a2.8,2.8,0,0,0-.6-.278c-.072-.024-.955-.292-.955-.1a4.564,4.564,0,0,1-.356,1.68,5.48,5.48,0,0,1-.774,1.256,2.017,2.017,0,0,1-.781.72c-.028.01-.057.018-.085.025.1-.028.027-.006-.006,0a2.16,2.16,0,0,1,1.127.361c-.1-.066.112.084.034.024.115.088.018.045.024.012,0,0-.019-.084-.009-.015a.463.463,0,0,1,.018-.169,2.854,2.854,0,0,1,.425-.763,5.542,5.542,0,0,0,.549-.942,3.813,3.813,0,0,1,.274-.847,2.014,2.014,0,0,1,1.275-.675c.127-.024-.01-.169-.033-.19a1.74,1.74,0,0,0-.494-.28,2.163,2.163,0,0,0-1.138-.235" transform="translate(35.408 79.232)"/>
          <path id="Path_9434" data-name="Path 9434" d="M74.624,149.527c4.947,2.079,7.408,1.991,9.069,1.991s7.134,4.647,5.476,9.79-2.265,9.956-2.958,6.97-2.186-5.476-3.347-4.813-1.826,3.153-3.817,2.822-5.973-1.992-5.807-4.314c-1.992,2.82-9.293,5.474-14.935,1.16s-6.459-15.264.919-16.426,12.047,1.41,15.4,2.82" transform="translate(26.777 72.76)" fill="#011721"/>
          <path id="Path_9435" data-name="Path 9435" d="M74.631,150.554a26.433,26.433,0,0,0,8.977,2.052c2.563.136,4.744,3.6,5.175,5.853.41,2.141-.6,4.266-1.154,6.3-.272,1.006-.512,2.024-.819,3.018a3.5,3.5,0,0,0-.28.82c0,.037-.147.26-.13.284q.622.034,1.244.069c-.028-.07-.055-.141-.084-.211.19-.572-.608-2.144-.844-2.721a7.691,7.691,0,0,0-1.359-2.3,2.154,2.154,0,0,0-2.834-.569c-1.37.883-1.671,2.973-3.648,2.455-1.443-.379-4.347-1.415-4.356-3.247a.968.968,0,0,0-1.68-.626c-2.546,3.388-8.169,3.864-11.765,2.172a10.9,10.9,0,0,1-5.913-9.622,7.324,7.324,0,0,1,1.323-4.627c1.341-1.722,3.431-1.98,5.48-2.108,4.594-.289,8.537,1.253,12.666,3.007a.833.833,0,1,0,.689-1.513c-3.766-1.6-7.417-3.081-11.582-3.168-3.632-.075-7.622.349-9.485,3.894-3.43,6.528,1.832,14.965,8.521,16.443,3.85.849,9.067-.129,11.567-3.455l-1.678-.627c.007,1.733,1.2,2.924,2.627,3.762,1.34.787,3.338,1.741,4.946,1.486a3.443,3.443,0,0,0,1.918-1.1c.364-.38,1.04-1.738,1.587-1.726.734.016,1.554,2.847,1.7,3.331.2.671.259,1.689.876,2.154,1.162.879,1.888-.509,2.186-1.433.772-2.388,1.489-4.885,2.07-7.322.871-3.656-1.425-7.578-4.467-9.527a6.378,6.378,0,0,0-3.561-.807,22.385,22.385,0,0,1-7.22-1.9.833.833,0,1,0-.689,1.513" transform="translate(26.425 72.488)" fill="#011721"/>
          <path id="Path_9436" data-name="Path 9436" d="M70.536,206.142c-1.879-6.305-4.136-5.31-4.136-5.31H19.722c-7.965,0-5.31,4.148-5.31,4.148s10.122,24.89,11.781,30.033,6.14,5.145,6.14,5.145h76.993c2.488-2.656-1.826-5.223-1.826-5.223H80.565Z" transform="translate(6.951 99.775)" fill="#011721"/>
          <path id="Path_9437" data-name="Path 9437" d="M71.7,206.4c-.65-2.075-1.558-4.889-3.823-5.739a3.826,3.826,0,0,0-1.566-.195c-.674.024.187.021-.157.027-2.723.046-5.452,0-8.175,0H21.4c-2.046,0-4.263-.157-6.184.663-2.424,1.036-1.811,2.956-1.205,4.486,3.362,8.473,6.865,16.89,10.088,25.418,1.452,3.846,2.416,8.11,6.875,9.425a12.823,12.823,0,0,0,3.762.328H106.41a13.889,13.889,0,0,0,3.638-.012c2.446-.771.72-3.944-.424-4.989a3.768,3.768,0,0,0-2.65-1.216c-8.015-.222-16.067,0-24.084,0h-2.43l1.268.6Q76.714,220.8,71.7,206.4c-.205-.59-2.019-.805-1.81-.2l10.03,28.794c.159.457.861.6,1.268.6h25.7a4.668,4.668,0,0,0,1.072,0c.028-.008.148.021.162,0-1.436,2.2-1.009-.766-.742-.12.058.144.448.334.578.445a2.988,2.988,0,0,1,1.253,3.368c-.172.639.145.37-.175.536a4.925,4.925,0,0,1-1.59,0H39.01c-3.935,0-8.527,1.037-10.856-2.771a30.516,30.516,0,0,1-2.031-5.217c-.786-2.1-1.6-4.18-2.413-6.263q-2.688-6.858-5.449-13.687c-.91-2.262-1.837-4.519-2.753-6.777-1.527-3.76,3.823-3.618,6.293-3.618H61.689a37.438,37.438,0,0,1,5.615-.051c.18.03-.027-.024.022-.006-.138-.049.314.262.383.344a12.351,12.351,0,0,1,2.18,4.425c.186.593,2,.823,1.81.2" transform="translate(6.692 99.618)" fill="#011721"/>
          <path id="Path_9438" data-name="Path 9438" d="M70.425,223.532H25.955a.837.837,0,1,0,.036,1.672h44.47a.837.837,0,1,0-.036-1.672" transform="translate(12.48 111.085)" fill="#fff"/>
          <path id="Path_9439" data-name="Path 9439" d="M62.815,230.76q0-.159,0-.319c0-.142.007-.314,0-.216,0-.174.01-.346.018-.519.043-1,.118-2.007.226-3.006a22.541,22.541,0,0,1,1.784-7.419,4.78,4.78,0,0,1,2.2-2.428c.964-.437-.034-2.019-1-1.579-2.3,1.043-3.253,3.927-3.838,6.172a36.785,36.785,0,0,0-1.04,7.44c-.03.611-.055,1.225-.055,1.835a.851.851,0,1,0,1.7.039" transform="translate(30.371 106.943)" fill="#011721"/>
          <path id="Path_9440" data-name="Path 9440" d="M67.76,229.835a29.711,29.711,0,0,1-.289-3.57,16.645,16.645,0,0,1,.81-6.467,4.866,4.866,0,0,1,.689-1.25,2.19,2.19,0,0,1,.992-.766c.326-.139.765-.57.578-.961-.195-.41-.79-.29-1.111-.154-2.178.928-3.091,3.3-3.455,5.476a26.506,26.506,0,0,0-.153,6.667c.043.5.094,1.006.169,1.506.135.906,1.886.3,1.769-.48" transform="translate(32.642 107.609)" fill="#011721"/>
          <path id="Path_9441" data-name="Path 9441" d="M71.906,229.583a18.373,18.373,0,0,1,.1-3.513,10.4,10.4,0,0,1,2.214-5.835,5.06,5.06,0,0,1,3.344-1.635c.376-.031-.181-.262-.266-.295a3.1,3.1,0,0,0-1.251-.28c-4.787.4-5.935,5.745-5.983,9.72,0,.449,0,.9.031,1.349.031.4,1.81.528,1.807.49" transform="translate(34.819 108.346)" fill="#011721"/>
          <path id="Path_9442" data-name="Path 9442" d="M51.9,276.965H80.905s17.5-2.165,18.312-6.218c.009-.04.016-.081.024-.123a10.054,10.054,0,0,0-9.426-11.751c-12.456-.7-34.051-1.374-44.371,1.5a4.933,4.933,0,0,0-3.162,3.322c-2.43,6.443,2.729,13.272,9.615,13.272" transform="translate(20.709 128.345)" fill="#acbaf7"/>
          <path id="Path_9443" data-name="Path 9443" d="M52,278.105H72.646c2.741,0,5.525.145,8.262,0a51.685,51.685,0,0,0,7.952-1.334c3.485-.75,8.47-1.572,11-4.37,1.386-1.536,1.157-4.127.7-5.979a10.774,10.774,0,0,0-5.245-6.75c-2.627-1.449-5.566-1.416-8.48-1.555q-4.785-.227-9.573-.341a200.78,200.78,0,0,0-20.643.4,66.193,66.193,0,0,0-9.351,1.292c-3.124.708-5.163,2.3-5.991,5.519-1.777,6.9,4,12.949,10.727,13.119,1.111.028,2.009-1.669.522-1.708-6.166-.156-11.139-6.414-8.817-12.432,1.1-2.862,4.03-3.021,6.7-3.437,2.742-.427,5.515-.663,8.286-.826,6.1-.359,12.214-.355,18.317-.211q4.291.1,8.579.3c2.789.129,5.712-.007,8.229,1.383a9.477,9.477,0,0,1,4.811,7.152c.214,2.015.081,3.268-1.69,4.242-3.349,1.841-7.51,2.5-11.229,3.169-1.287.229-2.581.427-3.874.614-.861.124-.006.07-.9.045-2.754-.073-5.521,0-8.275,0H52.521c-1.106,0-2.01,1.708-.522,1.708" transform="translate(20.348 128.058)"/>
          <line id="Line_1344" data-name="Line 1344" x2="5.944" y2="5.859" transform="translate(81.918 390.188)" fill="none" stroke="#000" stroke-miterlimit="10" stroke-width="0.91"/>
          <path id="Path_9444" data-name="Path 9444" d="M49.685,261.568a37.333,37.333,0,0,1,5.579,6.114,37.4,37.4,0,0,1-5.579-6.114" transform="translate(24.691 129.987)"/>
          <path id="Path_9445" data-name="Path 9445" d="M68.308,257.719s-3.873-2.334-5.594,1.94-3.4,11.534,1.584,14.239c2.313,1.254,12.089,2.239,15.929,0s13.516-8.151,13.516-8.151l-14.814-10.29Z" transform="translate(30.31 126.95)" fill="#fff"/>
          <path id="Path_9446" data-name="Path 9446" d="M148,231.025a139.457,139.457,0,0,1-10.832,10.027,370.677,370.677,0,0,1-33.722,25.507Q88.753,276.519,73.4,285.442c-.311.183.873,1.56,1.385,1.26a487.243,487.243,0,0,0,48.1-31.8,272.934,272.934,0,0,0,23.186-19.35c1.124-1.066,2.25-2.138,3.311-3.266.337-.358-1.034-1.632-1.383-1.26" transform="translate(36.449 114.775)" fill="#011721"/>
          <path id="Path_9447" data-name="Path 9447" d="M64.15,246.876a127.127,127.127,0,0,1,14.4,11.718,23.745,23.745,0,0,1,3.647,4.184c.136.215,1.116-.019,1-.2-.225-.353.7-.7.293-1.3-1.572-2.311-4.693-4.522-7.034-6.515-2.8-2.383-7.308-6.025-10.245-8.213-.632-.471.639-.293,0-.752-.24-.172-2.153,1.02-2.064,1.084" transform="translate(28.258 138.657)" fill="#011721"/>
          <path id="Path_9448" data-name="Path 9448" d="M92.756,261.433c-4.963-6.24-10.212-12.467-16.09-17.606a16.062,16.062,0,0,0-5-3.368c-.493-.167-.92,1.468-.569,1.587a16.026,16.026,0,0,1,4.581,2.915,70.383,70.383,0,0,1,5.523,4.852c3.315,3.94,6.772,8.062,9.715,11.619.621.75.941-.126,1.55.638.55.691.675-.16.294-.638" transform="translate(28.281 133.628)" fill="#011721"/>
        </g>
      </g>
    </g>
  </g>
</svg>
