<svg xmlns="http://www.w3.org/2000/svg" xmlns:xlink="http://www.w3.org/1999/xlink" width="555.937" height="583.559" viewBox="0 0 555.937 583.559">
  <defs>
    <linearGradient id="linear-gradient" x1="0.358" y1="0.031" x2="0.13" y2="0.687" gradientUnits="objectBoundingBox">
      <stop offset="0" stop-color="#bfcbfa"/>
      <stop offset="1" stop-color="#e8edfb" stop-opacity="0.302"/>
    </linearGradient>
    <linearGradient id="linear-gradient-2" x1="0.358" y1="0.031" x2="0.13" y2="0.687" gradientUnits="objectBoundingBox">
      <stop offset="0" stop-color="#bfcbfa"/>
      <stop offset="1" stop-color="#e8edfb" stop-opacity="0.8"/>
    </linearGradient>
    <clipPath id="clip-path">
      <rect id="Rectangle_3987" data-name="Rectangle 3987" width="542.178" height="498.53" fill="none"/>
    </clipPath>
    <clipPath id="clip-path-2">
      <path id="Path_7876" data-name="Path 7876" d="M100.292,14.545a18.9,18.9,0,0,0-19.027,20l19.272,412.138a21.152,21.152,0,0,0,20.9,20H294.827a18.9,18.9,0,0,0,19.028-20L294.585,34.543a21.153,21.153,0,0,0-20.9-20Z" transform="translate(-81.243 -14.545)" fill="none"/>
    </clipPath>
    <clipPath id="clip-path-4">
      <rect id="Rectangle_3990" data-name="Rectangle 3990" width="164.855" height="164.856" fill="none"/>
    </clipPath>
    <clipPath id="clip-path-5">
      <rect id="Rectangle_3991" data-name="Rectangle 3991" width="107.017" height="145.174" fill="none"/>
    </clipPath>
  </defs>
  <g id="Group_3423" data-name="Group 3423" transform="translate(-352.063 -1344.941)">
    <g id="Group_3418" data-name="Group 3418">
      <g id="Group_1737" data-name="Group 1737" transform="translate(352.063 1344.941)">
        <path id="Path_3987" data-name="Path 3987" d="M0,243.2c0,138.514,112.289,250.8,250.8,250.8s305.135-59.347,305.135-197.861S356.711,302.313,293.624,87.367,0,104.691,0,243.2" transform="translate(0 89.552)" fill="url(#linear-gradient)"/>
        <g id="Group_3419" data-name="Group 3419">
          <g id="Group_3422" data-name="Group 3422">
            <path id="Path_5264" data-name="Path 5264" d="M0,160.288a165.3,165.3,0,0,0,165.3,165.3c91.29,0,201.1-39.114,201.1-130.4s-131.3,4.065-172.882-137.6S0,69,0,160.288" transform="matrix(0.087, -0.996, 0.996, 0.087, 48.242, 365.006)" fill="url(#linear-gradient-2)"/>
          </g>
        </g>
      </g>
    </g>
    <g id="Group_2390" data-name="Group 2390" transform="translate(365.822 1387.456)">
      <g id="Group_3420" data-name="Group 3420">
        <g id="Group_2378" data-name="Group 2378">
          <g id="Group_2377" data-name="Group 2377" clip-path="url(#clip-path)">
            <path id="Path_7843" data-name="Path 7843" d="M83.076,0h201.4a19.8,19.8,0,0,1,19.774,18.821l22.146,447.792A19.8,19.8,0,0,1,306.62,487.39h-201.4A19.8,19.8,0,0,1,85.446,468.57L63.3,20.778A19.8,19.8,0,0,1,83.076,0" transform="translate(39.309)" fill="#6573b7"/>
            <path id="Path_7844" data-name="Path 7844" d="M89.988,0H294.131a18.427,18.427,0,0,1,18.4,17.517l22.282,450.535a18.426,18.426,0,0,1-18.406,19.338H112.27a18.427,18.427,0,0,1-18.406-17.517L71.582,19.338A18.428,18.428,0,0,1,89.988,0" transform="translate(44.455)" fill="#acbaf7"/>
            <path id="Path_7845" data-name="Path 7845" d="M300.87,22.275A15.9,15.9,0,0,0,284.989,7.138H237.3A27.027,27.027,0,0,1,213.149,22.01H166.477A27.032,27.032,0,0,1,142.335,7.138H93.311A15.9,15.9,0,0,0,77.429,23.8l20.83,435.342a15.9,15.9,0,0,0,15.882,15.142H305.818a15.9,15.9,0,0,0,15.882-16.66Z" transform="translate(48.09 4.434)" fill="#fff"/>
          </g>
        </g>
        <g id="Group_2380" data-name="Group 2380" transform="translate(131.714 23.581)">
          <g id="Group_2379" data-name="Group 2379" clip-path="url(#clip-path-2)">
            <path id="Path_7846" data-name="Path 7846" d="M183.977,54.349h0l.066,1.438h4.123l-.066-1.438c0-.037-.021-.068-.024-.1a2.134,2.134,0,0,0-1.787-1.881l-.4-8.511v0a.363.363,0,0,0-.36-.342l.412,8.789h0l-.409-8.789a.325.325,0,0,0-.329.342v0l.4,8.511a1.9,1.9,0,0,0-1.61,1.879c0,.037-.018.068-.015.105" transform="translate(-17.422 3.448)" fill="#b1b7ce"/>
            <path id="Path_7847" data-name="Path 7847" d="M184.971,115.889c-.045-.053-.071-.122-.122-.17a2.305,2.305,0,0,0-.465-.3,2.171,2.171,0,0,0-.235-.154,2.253,2.253,0,0,0-.423-.088,2.2,2.2,0,0,0-.413-.084h-6.9a2.025,2.025,0,0,0-2.04,2.143v0h11.169a2.222,2.222,0,0,0-.208-.833,2.265,2.265,0,0,0-.366-.511" transform="translate(-23.388 47.915)" fill="#b1b7ce"/>
            <path id="Path_7848" data-name="Path 7848" d="M184.068,53.48h2.508l-.065-1.385h.015l.058,1.385H189.1l.55-1.386h-.057a1.071,1.071,0,0,0-1.059-1.012h-4.123a.956.956,0,0,0-.963,1.012h-.057Z" transform="translate(-17.787 8.153)" fill="#b1b7ce"/>
            <path id="Path_7849" data-name="Path 7849" d="M257.56,96.867l.417-.434-.864-.828-.451-.433-.781-.747-.454-.435-.854-.817,0,0-.008-.008,0,0-.768-.736L238.409,108.6a21.235,21.235,0,0,0-9.314-2.151h-.144l.49,10.483-.008,0-.491-10.48h-.149a21.716,21.716,0,0,0-4.346.47l-.4-.386,0,0-.752-.72,0,0-.457-.438-.007.006-.754-.723.007-.006-.457-.438-.006.006-.754-.721.006-.007-.457-.436-.007.006-.754-.723.007-.006-.457-.438-.007.006-.752-.72,0,0-.457-.438,0,0-.755-.721,0,0-.457-.438,0,0-.752-.72,0,0-.457-.438,0,0-.752-.721,0,0-.457-.438-.006,0-.752-.72,0,0-.457-.434,0,0-.754-.721,0,0-.457-.438,0,0-.752-.72,0,0-.457-.434,0,0-.754-.721,0,0-.457-.438,0,0-.754-.72,0,0-.457-.438,0,0-.752-.721,0,0-.457-.438,0,0-.752-.718,0,0-.454-.438,0,.006,0,0-1.064,1.119-.13.135-.712.749-.344.363-.854.9-.7.734,16.676,15.958c-3.536,2.166-5.686,5.446-5.467,9.106l14.516-.01,0,.015H215.152l.045.969h12.65l0,0H215.1c0,.235-.018.47-.023.707h-4.817l.509,10.9-.485.509,0,0-.415.438,0,0-.686.72,0,0-.417.439,0,0-.392.412-.037-.819h-2.283c-2.184-3.633-4.032-10.423-5.574-18.57h.564l-.118-2.518h-.9c-4.311-24.455-6.067-58.856-6.067-58.856h-5.024s1.461,34.4-.563,58.856h-.914l.118,2.518h.572c-.781,8.147-1.993,14.936-3.837,18.57h-2.283l.186,3.982.113,2.429-6.744,15.013h7s1.641-11.743,13.046-11.743l-.266-5.7h.021l.267,5.707c11.389,0,14.136,11.707,14.144,11.739a2.024,2.024,0,0,0-2.033,2.143H211.9v0h11.438v0h3.135v0h24.153l-.292-6.229h.292L250.539,148h1.125c-.268-.626-.514-1.261-.77-1.89l.592.566,0,0,.457.438,0,0,.749.718,0,0,.454.438,0,0,0,0,3.1-3.262L249.77,138.8l6.485,6.2.7-.734-7.252-6.94-.815-17.422h-4.82c-.028-.237-.063-.472-.088-.707H231.228v0h12.654l-.045-.969H231.181l0-.015,14.521.01a9.755,9.755,0,0,0-2.633-6.133l.167-.175.007.006.417-.438-.007-.006.686-.721.006.006.417-.438-.006-.006.687-.721.007.006.417-.438-.008-.006.686-.72,0,0,.417-.438,0,0,.687-.723,0,.006.417-.438-.006-.007.686-.72,0,0,.417-.438,0,0,.686-.72,0,0,.417-.438,0,0,.686-.721,0,0,.413-.436,0,0,.687-.72,0,0,.417-.436,0,0,.686-.721,0,0,.413-.438,0,0,.686-.721,0,0,.415-.438,0,0,.686-.721,0,0,.417-.438,0,0,.686-.72,0,0,.417-.438,0,0,.684-.72Zm-46.489,40.466v0l-2.1,2.2h0Zm.07,1.47.237,5.076c-.006.021-.011.042-.016.062l-1.856-3.419Zm-15.968-6.3h-5.467c.165-.731.817-3.6,1.26-5.851.511-2.6,1.115-7.832,1.115-7.832h4.9s1.094,5.237,1.848,7.832c.653,2.249,1.573,5.12,1.808,5.851Z" transform="translate(-22.64 9.072)" fill="#b1b7ce"/>
            <path id="Path_7850" data-name="Path 7850" d="M108.719,63.318h.77l.264,5.64h9.922v0h1.135v0h9.922l-.264-5.64h.772l-.1-2.164h0a1.011,1.011,0,0,0-.324-.715l-4.551-10.222h.075l-.353-7.555h-.013l.665-1.649h-15.41l.819,1.649.353,7.555h.068l-3.6,10.227a.925.925,0,0,0-.25.71h0Zm12.672-13.1h0Zm-2.591,0h0Zm5.17,0h0Zm-9.207,0h0Z" transform="translate(-64.239 1.898)" fill="#b1b7ce"/>
            <path id="Path_7851" data-name="Path 7851" d="M117.48,49.477h6.587c-3.413-4.577-6.487-16.569-7.334-20.076a.958.958,0,0,0,.79-1.023,1.088,1.088,0,0,0-1.02-.992h-.019v0a.972.972,0,0,0-.994,1.012,1.081,1.081,0,0,0,.9,1.013c-.522,3.515-2.474,15.492-5.455,20.068Z" transform="translate(-62.801 -6.569)" fill="#b1b7ce"/>
            <path id="Path_7852" data-name="Path 7852" d="M134.909,134.8h-.292l-.068-1.446h.293l-.747-16.006h-.3l-.066-1.446h.293L133.278,99.9h-.293l-.068-1.446h.293l-.747-16h0v0h-.083l1.222-1.809h.5l-.965-20.648H132.6l-1.561-1.736H110.061l-1.4,1.736h-.543l.965,20.648h.5l1.393,1.809H110.9l.747,16.006h.292l.068,1.446h-.292l.749,16.006h.29l.068,1.446h-.292l.749,16.006h.29l.068,1.446h-.29l.749,16.006h.29l.081,1.736h20.977l-.083-1.736h.293l-.747-16.006Zm-18.839-1.738v0h15.956v0H116.071ZM114.44,98.16v0h15.955l0,0H114.44Zm-2.565-17.814Z" transform="translate(-64.547 12.607)" fill="#b1b7ce"/>
            <path id="Path_7853" data-name="Path 7853" d="M111.249,62.411l-.519-11.079.538.034.015-.843-.592-.037,0-.052h-.741l-4.919-.3-13.37-.843-.015.843.854.053-.182,11.986,1.209.075,1.3.081,1.414.088h-.021l-7.085-.433-.013.843.039,0-.177,11.65-.034,0-.013.843.034,0L88.8,86.97l-.029,0-.011.843.028,0L88.6,99.465l-.023,0-.011.843.023,0-.178,11.65-.019,0-.011.843H88.4l-.178,11.652h-.013l-.011.841.013,0-.178,11.652h-.008l-.013.843h.008L87.71,158.15l1.613.1,3.448.214.953.058.446.028,5.381.334.05,1.073h18.641l-4.561-97.546Z" transform="translate(-77.226 7.037)" fill="#b1b7ce"/>
            <path id="Path_7854" data-name="Path 7854" d="M190.224,130.845l-.55,7.252-.19-4.076-1.227-7.252-.548,7.252-.191-4.074-1.227-7.253-.548,7.253-2.283-48.8-1.19-1.9-.188-4.019-1.341-5.1-.861,5.1-6.714-45.485-2.458,45.485-1.341-5.1-.862,5.1.188,4.017-1.012,1.9,1.347,28.819-8.249-12.5-7.078,12.5-1.347-28.821-1.19-1.9-.188-4.019-1.341-5.1-.859,5.1-6.709-45.487-2.463,45.487-1.334-5.1-.869,5.1.188,4.017-1.012,1.9,2.281,48.809-1.227-7.252-.548,7.252.191,4.076-1.227-7.252-.548,7.252.19,4.076-1.227-7.253-.55,7.253,1.519,32.462h57.536L191.449,138.1Z" transform="translate(-48.523 -5.108)" fill="#b1b7ce"/>
            <path id="Path_7855" data-name="Path 7855" d="M175.611,190.451l-26.1-74.008H82.5L87.667,226.96Z" transform="translate(-80.462 48.757)" fill="#fff"/>
            <path id="Path_7856" data-name="Path 7856" d="M176.862,191.085l-8.813-24.993L154,126.243q-1.615-4.582-3.231-9.165a3.325,3.325,0,0,0-1.764-.921H81.987l-.045.008q.873,18.677,1.748,37.355l2.782,59.522q.319,6.819.639,13.638c.011.256,1.581,1.008,1.808.914l29.813-12.376,47.275-19.625,10.856-4.507c-.282.117-1.315-1.119-1.809-.914q-14.9,6.189-29.813,12.376L97.966,222.172q-5.428,2.254-10.856,4.507l1.808.914q-.6-12.882-1.2-25.763-1.17-25.033-2.341-50.068l-1.566-33.5c-.028-.6-.162-1,.13-1.175s1.252,0,1.59,0h48.888c5.157,0,10.358.2,15.514,0,.263-.01.53,0,.794,0l-1.766-.921,8.813,24.993q7.026,19.924,14.051,39.85,1.615,4.582,3.231,9.163c.19.535,1.691.577,1.809.914" transform="translate(-80.809 48.579)" fill="#b1b7ce"/>
            <path id="Path_7857" data-name="Path 7857" d="M106.132,208.4l8.486,18.98,68.667,20.393,35.9-113.287-65.721,6.833,14.588,41.366,0,.028-.232.078Z" transform="translate(-65.782 59.964)" fill="#fff"/>
            <path id="Path_7858" data-name="Path 7858" d="M105.633,208.725c2.72,6.086,5.363,12.213,8.166,18.262a2.8,2.8,0,0,0,2.226,1.731q3.152.936,6.3,1.874,23.793,7.065,47.586,14.132l13.613,4.043c.407.122.887.157,1.041-.331q6.085-19.2,12.169-38.4,9.654-30.464,19.309-60.929,2.213-6.977,4.424-13.957c.19-.6-.79-1.2-1.279-1.149l-57.55,5.982q-4.085.426-8.171.85a.551.551,0,0,0-.506.812q6.384,18.1,12.767,36.2.664,1.88,1.326,3.76a4.928,4.928,0,0,0,.35,1c.107.162.1.58.083.235.122-.193.242-.386.362-.579-2.051.686-4.042,1.659-6.039,2.487l-14.768,6.132-33.358,13.847-7.756,3.22c-1.026.426.339,1.832,1.124,1.506l54.441-22.6c2.472-1.026,4.94-2.236,7.48-3.087a.513.513,0,0,0,.362-.579c-.058-1.231-.961-2.776-1.363-3.917q-1.746-4.946-3.489-9.893l-7.933-22.49q-.934-2.648-1.866-5.295-.253.406-.507.812l57.552-5.984q4.086-.423,8.169-.85-.64-.574-1.278-1.149-6.084,19.2-12.171,38.4-9.654,30.464-19.309,60.929-2.211,6.979-4.423,13.957l1.041-.331q-17.264-5.129-34.527-10.254l-23.555-7-7.759-2.3c-.7-.206-1.4-.477-2.109-.627-1.469-.31.34-.024.011.42.185-.25-1.336-2.988-1.467-3.283l-2.842-6.354q-2.079-4.652-4.16-9.306c-.352-.786-2.223-1.068-1.722.053" transform="translate(-66.144 59.663)" fill="#b1b7ce"/>
            <path id="Path_7859" data-name="Path 7859" d="M254.016,258.28l-6.632-141.837H197.472l-22.279.131,1.394,57.823Z" transform="translate(-22.879 48.758)" fill="#fff"/>
            <path id="Path_7860" data-name="Path 7860" d="M255.231,258.99l-.657-14.059q-.8-16.986-1.589-33.973-.958-20.454-1.913-40.91-.827-17.689-1.655-35.38-.272-5.863-.548-11.726c-.078-1.663.219-3.922-.258-5.532a1.219,1.219,0,0,1-.013-.256c-.019-.43-1.329-1.034-1.7-1.034H217.113c-8.212,0-16.425-.021-24.638.028l-17.769.1-.055.024.866,35.909q.233,9.659.467,19.317a7.936,7.936,0,0,0,.139,2.75,7.629,7.629,0,0,0,1.338,1.448l23,24.915q16.571,17.949,33.138,35.9c6.538,7.083,12.9,14.4,19.648,21.285.105.107.2.22.3.331.282.3,1.813.932,1.608.712l-29.325-31.77L183.388,181.09l-4.817-5.219c-.924-1-.767-.674-.8-2.038l-.666-27.637-.666-27.635c-.011-.449-.091-1.14.063-1.252.25-.183,1.239-.008,1.537-.01q1.751-.01,3.5-.021l15.622-.092c16.477-.1,32.955-.008,49.431-.008h1.949l-1.7-1.034q.328,7.028.657,14.059l1.589,33.971q.956,20.457,1.913,40.912.827,17.689,1.654,35.38l.548,11.725c.078,1.665-.217,3.923.259,5.533a1.12,1.12,0,0,1,.011.256c.026.538,1.754.926,1.757,1.01" transform="translate(-23.216 48.553)" fill="#b1b7ce"/>
            <path id="Path_7861" data-name="Path 7861" d="M101.245,369.792,152.7,268.9l-39.127-87.508-27.7,11.5,7.6,162.616a18.7,18.7,0,0,0,7.769,14.281" transform="translate(-78.365 89.105)" fill="#fff"/>
            <path id="Path_7862" data-name="Path 7862" d="M102.557,369.583q7.626-14.956,15.254-29.912,13.224-25.928,26.446-51.855,4.156-8.152,8.314-16.3c.345-.676,1.4-2.014,1.427-2.8.021-.631-.743-1.719-.994-2.283q-9.9-22.135-19.794-44.271c-6-13.408-11.713-26.982-18-40.257-.113-.24-.216-.483-.324-.725-.068-.156-1.184.319-1.24.342l-27.7,11.5c-.094.041-.661.22-.655.373q.411,8.769.82,17.537.973,20.787,1.944,41.573Q89.2,277.03,90.35,301.553l1.868,39.958.53,11.332c.167,3.575.347,6.992,1.954,10.329a19.454,19.454,0,0,0,5.963,7.12c.391.293,1.749-.824,1.9-.713-5.212-3.906-7.545-9.494-7.84-15.818q-.224-4.757-.446-9.515-.88-18.859-1.764-37.716-1.141-24.413-2.283-48.825-1.014-21.685-2.027-43.37-.338-7.189-.673-14.375l-.214-4.583a7.518,7.518,0,0,0-.112-2.4.894.894,0,0,1-.015-.3l-.655.371,27.7-11.5-1.24.342q7.646,17.106,15.295,34.21,10.778,24.109,21.557,48.215a28.2,28.2,0,0,1,2.082,4.656c.148.639.094.618-.255,1.3q-3.392,6.649-6.783,13.3-12.879,25.255-25.76,50.509-5.943,11.656-11.887,23.308c-2.057,4.034-4.6,8.085-6.273,12.3-.081.206-.2.4-.306.6.157-.31,1.629-.19,1.9-.715" transform="translate(-78.728 88.956)" fill="#b1b7ce"/>
            <path id="Path_7863" data-name="Path 7863" d="M238.778,213.379l-53.09-57.52L157.131,236.12l74.175,22.028Z" transform="translate(-34.1 73.244)" fill="#fff"/>
            <path id="Path_7864" data-name="Path 7864" d="M240.029,213.731q-8.949-9.7-17.9-19.395l-28.574-30.957q-3.307-3.585-6.616-7.167c-.207-.225-1.631-1.062-1.829-.5q-4.839,13.6-9.677,27.2-7.67,21.561-15.343,43.125l-3.536,9.94c-.141.394.872.73,1.07.79L182.7,244.2l39.95,11.864,9.152,2.719c.12.034.78.19.822-.065q3.273-19.606,6.545-39.211.462-2.777.927-5.558c.1-.585-1.821-1.153-1.894-.725q-3.271,19.606-6.543,39.211-.464,2.777-.927,5.558l.82-.065-25.071-7.445q-19.975-5.934-39.95-11.864l-9.153-2.719,1.072.79q4.837-13.6,9.676-27.2l15.345-43.125q1.768-4.971,3.536-9.94l-1.829-.5q8.949,9.7,17.9,19.395l28.574,30.957,6.615,7.169c.34.368,2.189.734,1.767.279" transform="translate(-34.467 73.032)" fill="#b1b7ce"/>
            <path id="Path_7865" data-name="Path 7865" d="M257.593,238.907,113.276,196.049l45.15,100.97,94.636-31.026Z" transform="translate(-61.344 98.211)" fill="#fff"/>
            <path id="Path_7866" data-name="Path 7866" d="M258.312,238.645l-14.369-4.267-34.5-10.246L167.9,211.8l-36.1-10.72-11.9-3.536c-1.868-.554-3.753-1.266-5.658-1.68-.084-.019-.167-.05-.25-.075-.245-.073-1.584-.138-1.315.465l15.261,34.13,24.318,54.381q2.784,6.23,5.571,12.459c.242.538,1.18.589,1.654.433q15.994-5.243,31.987-10.488,25.486-8.353,50.971-16.71l11.678-3.828a.471.471,0,0,0,.339-.321q2.266-13.543,4.531-27.086c.113-.683-1.892-.963-2.012-.251q-.965,5.778-1.932,11.558-.742,4.428-1.482,8.858a59.259,59.259,0,0,0-.994,5.94c-.037.618-.375.762.209.413a1.244,1.244,0,0,1-.391.128,11.827,11.827,0,0,0-2.265.742l-9.547,3.129-64.421,21.121-18,5.9,1.652.433q-7.631-17.067-15.261-34.13-12.159-27.19-24.317-54.381-2.787-6.23-5.572-12.461l-1.315.467q7.186,2.133,14.369,4.267l34.5,10.245q20.768,6.17,41.536,12.336l36.1,10.72L251.75,237.8c1.866.553,3.753,1.266,5.656,1.68.084.018.167.049.25.075.922.272,1.965-.517.657-.906" transform="translate(-61.736 98.02)" fill="#b1b7ce"/>
            <path id="Path_7867" data-name="Path 7867" d="M215,194.612l-11.728,70.277,35.335-11.582-1.631-34.892Z" transform="translate(-5.435 97.318)" fill="#fff"/>
            <path id="Path_7868" data-name="Path 7868" d="M214.432,194.528q-1.982,11.872-3.962,23.745-3.159,18.925-6.316,37.846l-1.449,8.687c-.1.572,1.125,1.128,1.576.981q15.459-5.068,30.918-10.134,2.208-.725,4.416-1.448c.138-.045.285-.131.277-.3q-.7-14.944-1.4-29.887a28.918,28.918,0,0,0-.224-4.789,3.931,3.931,0,0,0-1.221-1.73l-11.141-12.067q-4.944-5.355-9.89-10.713c-.517-.559-2.218-.668-1.321.3l15.15,16.408,4.176,4.525a17.736,17.736,0,0,0,2.433,2.634c.46.318-.1.227-.049-.2a5.673,5.673,0,0,0,.044.923q.1,2.162.2,4.325.623,13.348,1.248,26.7c.042.924.146,1.868.13,2.793,0,.177.5-.306.087-.141-.339.135-.7.229-1.044.342l-10.394,3.408q-11.853,3.884-23.7,7.769l1.576.981q1.982-11.872,3.962-23.745,3.159-18.925,6.316-37.848.725-4.341,1.449-8.685c.109-.652-1.72-1.479-1.853-.679" transform="translate(-5.792 97.062)" fill="#b1b7ce"/>
            <path id="Path_7869" data-name="Path 7869" d="M279.9,328.548a17.742,17.742,0,0,0,.781-6.083l-4.11-87.88L142.619,278.5l6.308,14.111Z" transform="translate(-43.115 122.15)" fill="#fff"/>
            <path id="Path_7870" data-name="Path 7870" d="M281.106,329.267c1.248-4.329.678-8.894.47-13.33l-.969-20.708q-1.141-24.389-2.279-48.781-.268-5.7-.533-11.388c-.023-.5-.567-1.253-1.162-1.059l-13.344,4.376L231.428,248.82l-38.738,12.7L159.183,272.5l-11.042,3.619a49.073,49.073,0,0,0-5.238,1.717,1.865,1.865,0,0,1-.227.075c-.639.209-.71.817-.46,1.373q1.454,3.254,2.91,6.509,1.077,2.412,2.156,4.825a17.525,17.525,0,0,0,1.193,2.669c.755,1.109,2.894,1.242,4.1,1.573l27.5,7.547L221.4,313.747l38.708,10.622L273.345,328c2.109.579,4.28,1.4,6.44,1.765a2.834,2.834,0,0,1,.277.078c1.235.339,1.407-1.542.35-1.832q-7.959-2.184-15.919-4.369l-36.755-10.084L185.966,302.1l-30.356-8.33-3.988-1.094c-.441-.122-1.545-.661-2-.548-.023,0-.138-.058-.152-.042.125-.125.381.749.464.347.117-.566-1.015-2.268-1.24-2.776l-4.134-9.246q-.433-.97-.867-1.941c-.154.459-.306.916-.46,1.373l13.346-4.376,31.857-10.442,38.738-12.7,33.508-10.982q5.52-1.812,11.042-3.62l3.439-1.128a6.775,6.775,0,0,0,1.8-.588.847.847,0,0,1,.227-.075l-1.162-1.059,1.44,30.779q1.116,23.878,2.232,47.755c.23,4.924,1.055,10.392-.327,15.186-.3,1.054,1.383,1.908,1.738.676" transform="translate(-43.449 121.769)" fill="#b1b7ce"/>
            <path id="Path_7871" data-name="Path 7871" d="M196.12,300.926l-23.879-6.551.041-.2L147.86,239.564l-49.3,96.656a16.724,16.724,0,0,0,4.8.718H200.4Z" transform="translate(-70.484 125.244)" fill="#fff"/>
            <path id="Path_7872" data-name="Path 7872" d="M196.744,300.493l-23.879-6.551.73,1.047a2.538,2.538,0,0,0-.428-1.634q-.82-1.829-1.637-3.661-2.874-6.43-5.751-12.86l-13.419-30.009q-1.581-3.531-3.158-7.062a1.1,1.1,0,0,0-1.918-.2q-8.344,16.357-16.684,32.713-13.28,26.038-26.561,52.077-3.028,5.934-6.054,11.867c-.225.443.378.947.73,1.046,4.214,1.179,8.841.773,13.176.773h88.931c.394,0,1.028-.152.965-.692q-1.872-15.734-3.743-31.468-.27-2.271-.542-4.544c-.115-.979-2.114-1.276-1.986-.2q1.87,15.734,3.743,31.468l.54,4.544c.321-.23.642-.462.965-.692H114.47c-4.872,0-10.53.666-15.283-.663q.365.523.73,1.047,8.344-16.357,16.684-32.713l26.561-52.076q3.028-5.934,6.054-11.867l-1.918-.2Q158.04,264,168.786,288.032q1.068,2.39,2.137,4.778a14.087,14.087,0,0,0,.589,1.316c.256.444.1.483.152.246a.937.937,0,0,0,.73,1.046l23.879,6.551c1.213.332,1.7-1.14.472-1.477" transform="translate(-70.873 124.939)" fill="#b1b7ce"/>
            <path id="Path_7873" data-name="Path 7873" d="M162.342,278.4l4.089,34.409h85.878a15.828,15.828,0,0,0,12.655-6.248Z" transform="translate(-30.862 149.372)" fill="#fff"/>
            <path id="Path_7874" data-name="Path 7874" d="M162.342,278.4l4.089,34.409h85.878a15.828,15.828,0,0,0,12.655-6.248Z" transform="translate(-30.862 149.372)" fill="none" stroke="#b1b7ce" stroke-miterlimit="10" stroke-width="0.25"/>
            <path id="Path_7875" data-name="Path 7875" d="M206.8,200.453c.151,3.229-16.431,5.848-37.035,5.848s-37.428-2.62-37.578-5.848,16.428-5.843,37.031-5.843,37.431,2.62,37.582,5.848" transform="translate(-49.599 97.317)" fill="#b1b7ce"/>
          </g>
        </g>
        <g id="Group_2388" data-name="Group 2388">
          <g id="Group_2387" data-name="Group 2387" clip-path="url(#clip-path)">
            <path id="Path_7877" data-name="Path 7877" d="M229.38,157.183c-1.5-32.011-27.945-57.907-58.891-57.458-30.6.438-54.019,26.976-51.866,58.732a60.963,60.963,0,0,0,8.567,27.267c2.237,3.734,23.881,31.457,38.3,49.83,5.156,6.715,14.583,8.228,21.06,3.379a13.989,13.989,0,0,0,3.213-3.379c12.772-18.477,31.984-46.455,33.9-50.329a57.14,57.14,0,0,0,5.72-28.033" transform="translate(73.607 61.949)" fill="#fff"/>
            <path id="Path_7878" data-name="Path 7878" d="M231.024,157.427c-1.36-26.384-19.881-50.372-45.858-56.668a53.8,53.8,0,0,0-62.359,30.4,59.454,59.454,0,0,0-2.476,41.333,54.846,54.846,0,0,0,7.586,16.062c2.7,3.771,5.543,7.445,8.366,11.125,8.489,11.073,17.088,22.062,25.7,33.041,2.005,2.56,3.87,5.318,6.564,7.211a16.81,16.81,0,0,0,8.9,3.03,16.17,16.17,0,0,0,8.685-2.067c3.1-1.77,4.959-4.486,6.939-7.352,7.929-11.483,15.851-22.974,23.625-34.565,2.516-3.752,5.058-7.5,7.425-11.347a49.5,49.5,0,0,0,6.081-17.154,59.955,59.955,0,0,0,.822-13.04c-.053-1.247-2.429-.9-2.383.17a57.652,57.652,0,0,1-4.173,24.529,57.009,57.009,0,0,1-5.327,9.473c-6.628,10.125-13.5,20.087-20.356,30.059q-2.87,4.178-5.749,8.349c-1.911,2.771-3.677,6.112-6.287,8.28-5.533,4.6-13.755,3.427-18.591-1.605-2.127-2.215-3.906-4.856-5.8-7.271q-3.13-3.993-6.253-7.991-6.162-7.889-12.292-15.8c-3.4-4.4-6.795-8.8-10.139-13.239a78.2,78.2,0,0,1-5.331-7.484,59.874,59.874,0,0,1-6.806-42.977,53.773,53.773,0,0,1,19.142-30.447,50.459,50.459,0,0,1,34.325-10.439c25.57,1.738,46.876,21.867,52.3,46.555a61.3,61.3,0,0,1,1.337,10c.063,1.247,2.437.9,2.382-.17" transform="translate(73.155 61.619)" fill="#011721"/>
            <path id="Path_7879" data-name="Path 7879" d="M190.111,145.9c.725,15.486-10.8,28.033-25.724,28.033s-27.619-12.548-28.344-28.033,10.8-28.033,25.722-28.033,27.623,12.555,28.346,28.033" transform="translate(84.494 73.225)" fill="#b1b7ce"/>
            <path id="Path_7880" data-name="Path 7880" d="M166.938,126.844a29.9,29.9,0,0,1,3.959,13.485" transform="translate(103.707 78.799)" fill="none" stroke="#011721" stroke-miterlimit="10" stroke-width="1"/>
            <path id="Path_7881" data-name="Path 7881" d="M138.576,129.8c7.373-11.71,22.785-15.189,34.762-8.515" transform="translate(86.088 73.26)" fill="none" stroke="#011721" stroke-miterlimit="10" stroke-width="1"/>
            <path id="Path_7882" data-name="Path 7882" d="M145.151,152.771a30.127,30.127,0,0,1-8.236-12.782" transform="translate(85.056 86.965)" fill="none" stroke="#011721" stroke-miterlimit="10" stroke-width="1"/>
            <path id="Path_7883" data-name="Path 7883" d="M179.837,135.162c.726,15.389-11.569,28.915-27.287,27.987" transform="translate(94.769 83.967)" fill="none" stroke="#011721" stroke-miterlimit="10" stroke-width="1"/>
            <path id="Path_7884" data-name="Path 7884" d="M155.815,129.235a8.937,8.937,0,0,0-8.823,9.614,10.24,10.24,0,0,0,2.868,6.618,9.5,9.5,0,0,0,6.508,2.654,8.938,8.938,0,0,0,8.823-9.614,10.253,10.253,0,0,0-2.87-6.621,9.485,9.485,0,0,0-6.506-2.652" transform="translate(91.304 80.283)" fill="#fff"/>
            <path id="Path_7885" data-name="Path 7885" d="M37.054,275.952l-1.085,14.463s14.1,2.411,13.378-6.268-12.294-8.2-12.294-8.2" transform="translate(22.345 171.427)" fill="#fff"/>
            <path id="Path_7886" data-name="Path 7886" d="M37.054,275.952l-1.085,14.463s14.1,2.411,13.378-6.268S37.054,275.952,37.054,275.952Z" transform="translate(22.345 171.427)" fill="none" stroke="#000" stroke-miterlimit="10" stroke-width="0.25"/>
            <path id="Path_7887" data-name="Path 7887" d="M43.866,285.8l-7.537,8.727L23.257,309.661l34.013-8.2,1.994-17.355-3.027-.731S52.9,287.726,43.866,285.8" transform="translate(14.448 176.044)" fill="#acbaf7"/>
            <path id="Path_7888" data-name="Path 7888" d="M43.249,286.071q-8.453,9.786-16.9,19.573l-3.7,4.29c-.5.582.974.342,1.166.3q14.854-3.577,29.707-7.158l4.308-1.038c.331-.079,1.026-.282,1.073-.691q1-8.679,1.993-17.355a.259.259,0,0,0-.211-.147l-3.027-.733a2.49,2.49,0,0,0-2.028.545c-2.333,2.969-7.138,2.516-10.343,1.876-.558-.112-2.591.791-1.926.924,4.343.867,11.272,1.015,14.4-2.964l-2.028.543c.734.178,2.258.225,2.834.686.264.212-.094-.28-.036.05a2.4,2.4,0,0,1-.066.575q-.336,2.916-.67,5.832l-1.24,10.8,1.073-.692L27.91,308.439q-2.152.518-4.306,1.038l1.166.3q7.852-9.093,15.7-18.184l4.906-5.681c.482-.558-1.749-.277-2.13.164" transform="translate(14 175.852)"/>
            <path id="Path_7889" data-name="Path 7889" d="M59.628,288s.062,12.775-5.483,16.151-9.641-2.171-9.883-4.34,0-18.8,0-18.8Z" transform="translate(27.431 174.569)" fill="#fff"/>
            <path id="Path_7890" data-name="Path 7890" d="M59.628,288s.062,12.775-5.483,16.151-9.641-2.171-9.883-4.34,0-18.8,0-18.8Z" transform="translate(27.431 174.569)" fill="none" stroke="#000" stroke-miterlimit="10" stroke-width="0.25"/>
            <path id="Path_7891" data-name="Path 7891" d="M21.324,310.665H60.465s14.371,1.446,15.094-2.169,0-10.024,0-10.024-.242-5.643-7.231-1.064-9.883-4.34-9.883-4.34c-4.822-.963-2.652-2.169-6.991,0s-23.863,9.4-27,11.329-3.134,6.268-3.134,6.268" transform="translate(13.247 181.307)" fill="#acbaf7"/>
            <path id="Path_7892" data-name="Path 7892" d="M21.464,311.707H59.117c.407,0,.815,0,1.222,0a2.083,2.083,0,0,1,.541.026c2.13.159,4.261.284,6.4.256a19.675,19.675,0,0,0,7.347-1.052c2.425-1.033,2.5-3.03,2.583-5.46a38.127,38.127,0,0,0-.326-7.142,3.493,3.493,0,0,0-2.3-3.043c-3.286-1.026-5.726,2.3-8.653,2.865-2.717.522-4.687-1.9-5.725-4.092a4.638,4.638,0,0,0-.566-1.269c-.473-.464-1.495-.425-2.1-.624-.585-.191-1.153-.532-1.748-.681-1.981-.494-4.006,1.137-5.752,1.907-6.333,2.795-12.851,5.164-19.247,7.806a40.928,40.928,0,0,0-6.475,2.952,8.438,8.438,0,0,0-3.593,7c-.013,1.012,1.934.493,1.945-.415A6.567,6.567,0,0,1,25.9,304.9a59.726,59.726,0,0,1,5.832-2.552c5.509-2.266,11.075-4.39,16.575-6.676.931-.386,1.863-.775,2.78-1.192.994-.451,2.2-1.449,3.257-1.527a6.818,6.818,0,0,1,2.262.7c1.336.418,1.115-.16,1.642,1.005,1.988,4.4,6.057,6.406,10.472,3.859,1.717-.991,5.151-3.361,6.1-.261a18.009,18.009,0,0,1,.4,4.361,33.849,33.849,0,0,1-.063,4.9c-.149,1.449-.293,1.9-1.683,2.33a24.779,24.779,0,0,1-7.688.61c-5.927-.131-11.986-.271-18.116-.271H21.93c-.986,0-1.793,1.524-.465,1.524" transform="translate(12.875 181.026)"/>
            <path id="Path_7893" data-name="Path 7893" d="M76.53,299.59s5.293,12.294-10.267,12.294H22.683s-5.554-5.063,0-8.437S76.53,299.59,76.53,299.59" transform="translate(12.558 186.114)" fill="#fff"/>
            <path id="Path_7894" data-name="Path 7894" d="M76.164,299.923a10.485,10.485,0,0,1,.692,6.028c-1.185,5.708-8.038,5.653-12.636,5.653h-36.3c-1.445,0-2.91-.071-4.353,0-.589.031-.582-.2-.214.079a6.639,6.639,0,0,1-1.453-1.83,4.05,4.05,0,0,1,2.111-6.245,19.914,19.914,0,0,1,3.928-.871c9.129-1.443,18.506-1.673,27.728-2.012,7.01-.259,14.027-.443,21.044-.512.692-.008.916-.91.1-.9-6.739.068-13.477.242-20.212.482-9.873.353-20.019.488-29.767,2.245C23.7,302.6,19.228,304,19.9,308.13c.209,1.286,1.318,3.716,2.61,4.308a6.733,6.733,0,0,0,2.42.068H62.653c4.99,0,12.438.491,14.92-5.04a10.252,10.252,0,0,0-.208-7.865c-.232-.545-1.425-.2-1.2.323" transform="translate(12.323 185.942)"/>
            <path id="Path_7895" data-name="Path 7895" d="M7.966,104.75S1.1,104.269.735,108.969s-.723,9.16,3.615,11.691,5.391,4.572,8.677,4.58,5.786,1.2,3.979-3.254-5.665-16.271-9.04-17.235" transform="translate(0.332 65.065)" fill="#fff"/>
            <path id="Path_7896" data-name="Path 7896" d="M7.966,104.75S1.1,104.269.735,108.969s-.723,9.16,3.615,11.691,5.391,4.572,8.677,4.58,5.786,1.2,3.979-3.254S11.341,105.715,7.966,104.75Z" transform="translate(0.332 65.065)" fill="none" stroke="#000" stroke-miterlimit="10" stroke-width="0.75"/>
            <path id="Path_7897" data-name="Path 7897" d="M22.836,120.717S24.861,108.14,21,105.382s-6.858-1.584-6.924-.3l8.756,15.638" transform="translate(8.747 64.421)" fill="#fff"/>
            <path id="Path_7898" data-name="Path 7898" d="M22.836,120.717S24.861,108.14,21,105.382s-6.858-1.584-6.924-.3Z" transform="translate(8.747 64.421)" fill="none" stroke="#000" stroke-miterlimit="10" stroke-width="0.75"/>
            <path id="Path_7899" data-name="Path 7899" d="M68.568,82.793s7.954,26.515,8.918,34.107-1.566,9.4-4.458,10.606-9.4.6-10.366,0-1.566-4.458-1.566-7.352V105.5l1.688-24.393Z" transform="translate(37.955 50.385)" fill="#fff"/>
            <path id="Path_7900" data-name="Path 7900" d="M68.568,82.793s7.954,26.515,8.918,34.107-1.566,9.4-4.458,10.606-9.4.6-10.366,0-1.566-4.458-1.566-7.352V105.5l1.688-24.393Z" transform="translate(37.955 50.385)" fill="none" stroke="#000" stroke-miterlimit="10" stroke-width="0.75"/>
            <path id="Path_7901" data-name="Path 7901" d="M.658,101.158H19.339l16.752,29.921H18.375Z" transform="translate(0.409 62.842)" fill="#fff"/>
            <path id="Path_7902" data-name="Path 7902" d="M.658,101.158H19.339l16.752,29.921H18.375Z" transform="translate(0.409 62.842)" fill="none" stroke="#000" stroke-miterlimit="10" stroke-width="0.75"/>
            <rect id="Rectangle_3988" data-name="Rectangle 3988" width="11.041" height="5.483" transform="translate(21.073 193.922)" fill="#fff"/>
            <rect id="Rectangle_3989" data-name="Rectangle 3989" width="11.041" height="5.483" transform="translate(21.073 193.922)" fill="none" stroke="#000" stroke-miterlimit="10" stroke-width="0.75"/>
            <path id="Path_7903" data-name="Path 7903" d="M91.853,105.23s-7.472-.634-19.043,8.421-21.512,29.664-27.3,29.122-17.717-1.446-18.8-9.581c-5.241-.362-15.124,0-15.124,0S15.5,153.077,24,162.116,36.835,176.76,49.67,173.686L47.5,180.375s12.474,2.169,20.068,5.061,28.292,12.487,45.013,9.763c.9-12.294,2.712-28.021,2.712-28.021s8.5,18.078,1.808,30.914-12.654,19.886-19.343,20.428c4.518,7.412,7.231,10.848,14.823,9.04s32.18-7.051,34.892-38.146-3.254-61.827-11.932-68.7-16.149-16.692-43.689-15.488" transform="translate(7.198 65.309)" fill="#acbaf7"/>
            <path id="Path_7904" data-name="Path 7904" d="M92.087,104.654c-2.973-.229-6.213.966-8.881,2.1A48.652,48.652,0,0,0,66.1,119.433c-4.523,5.089-8.343,10.733-12.558,16.066a32.943,32.943,0,0,1-4.933,5.405c-1.693,1.362-2.907,1.3-4.993,1.088-5.528-.567-14.5-1.623-15.595-8.429a1.161,1.161,0,0,0-1.075-.948c-5.024-.321-10.1-.182-15.124,0a.793.793,0,0,0-.809.914,87.6,87.6,0,0,0,5.9,18.6,42.435,42.435,0,0,0,7.735,11.9c3.223,3.445,6.431,7.2,10.58,9.573,4.719,2.694,10.024,2.537,15.18,1.347q-.627-.688-1.252-1.38-1.085,3.344-2.169,6.689a1.078,1.078,0,0,0,.773,1.372,108.672,108.672,0,0,1,21.425,5.593c8.635,3.432,17.281,6.85,26.447,8.593a52.093,52.093,0,0,0,17.688.647.749.749,0,0,0,.577-.653c.7-9.356,1.642-18.7,2.711-28.021q-.91-.015-1.821-.032c3.392,7.265,5.3,16.229,3.847,24.164a29.876,29.876,0,0,1-3.7,9.141,72.17,72.17,0,0,1-5.6,8.794c-2.787,3.659-6.477,7.61-11.332,8.09a.839.839,0,0,0-.621,1.38c1.78,2.908,3.623,6.138,6.441,8.179a10.52,10.52,0,0,0,8.137,1.6,54.978,54.978,0,0,0,10.415-2.913c10.369-3.928,18.848-11.355,23.083-21.741,3.353-8.223,3.779-17.243,3.959-26.018a166.073,166.073,0,0,0-1.892-29.545c-1.169-7.326-2.8-14.907-6.081-21.613a21.991,21.991,0,0,0-4.1-6.075c-1.509-1.492-3.288-2.774-4.911-4.142a51.262,51.262,0,0,0-13.962-8.891c-8.338-3.324-17.5-3.863-26.379-3.505-1.286.052-.854,1.908.266,1.863,13.038-.525,25.713,1.312,36.176,9.562,1.672,1.318,3.277,2.719,4.909,4.085a22.583,22.583,0,0,1,4.235,4.107c3.646,5.143,5.363,11.764,6.692,17.827a146.089,146.089,0,0,1,3.092,26.246c.318,9.3.4,19.156-1.641,28.284A37.594,37.594,0,0,1,125.69,222.6a55.159,55.159,0,0,1-11.532,4.029c-2.63.642-5.459,1.365-8.056.216-3.367-1.492-5.4-5.439-7.224-8.417l-.619,1.378c8.755-.871,14.205-10.279,18.072-17.146,2.719-4.828,4.564-9.45,4.646-15.056a45.949,45.949,0,0,0-1.827-12.933,47.491,47.491,0,0,0-2.612-7.359c-.327-.7-1.7-1.112-1.821-.034-1.07,9.322-2.015,18.664-2.712,28.021l.577-.652c-19.476,3-36.559-8.395-54.772-12.759-3.255-.78-6.535-1.48-9.833-2.057q.387.686.773,1.373,1.085-3.346,2.169-6.689a1.094,1.094,0,0,0-1.252-1.381c-4.59,1.059-9.314,1.321-13.553-1.031-3.891-2.158-6.915-5.721-9.912-8.928-6.028-6.446-9.269-14.646-11.673-23.031-.623-2.171-1.2-4.366-1.637-6.582l-.807.914c5.027-.182,10.1-.319,15.124,0l-1.073-.948c.947,5.909,6.715,8.4,11.983,9.489a48.29,48.29,0,0,0,7.728,1.026,6.276,6.276,0,0,0,4.343-1.851c4.737-4.016,8.147-9.737,11.89-14.627,4.745-6.2,9.779-11.931,16.455-16.11,3.82-2.39,9.076-5.3,13.816-4.94,1.279.1.838-1.779-.266-1.863" transform="translate(6.831 64.955)" fill="#011721"/>
            <path id="Path_7905" data-name="Path 7905" d="M51.367,119.613s-12.506,17.958-15.4,36.217" transform="translate(22.345 74.307)" fill="none" stroke="#acbaf7" stroke-miterlimit="10" stroke-width="0.671"/>
            <path id="Path_7906" data-name="Path 7906" d="M53.205,151.314s-25.551,47-35.675,76.652-6.508,24.1-4.338,31.577,34.952,99.552,34.952,99.552H64.053s0-61.466-4.1-72.795-6.508-21.7-9.4-25.551,3.132-17.838,5.3-20.731,7.232-15.668,7.232-15.668l.965,147.761H83.817s6.509-27.238,9.883-37.121,8.437-35.192,6.268-43.629-4.58-35.192-2.169-47.486,11.991-73.036,11.538-84.124-56.132-8.437-56.132-8.437" transform="translate(6.677 93.829)" fill="#011721"/>
            <path id="Path_7907" data-name="Path 7907" d="M60.873,165.332s-.242,15.651,9.883,25.3" transform="translate(37.816 102.709)" fill="none" stroke="#acbaf7" stroke-miterlimit="10" stroke-width="0.671"/>
            <path id="Path_7908" data-name="Path 7908" d="M36.638,169.2s10.606,19.283,10.606,31.577V360.827" transform="translate(22.761 105.111)" fill="none" stroke="#acbaf7" stroke-miterlimit="10" stroke-width="0.671"/>
            <path id="Path_7909" data-name="Path 7909" d="M40.906,292.845c2.414.577-.282.744-1.124.61-2.889-.4-6.629-.644-8.461-3.2a5.1,5.1,0,0,0,2.54,1.573,29.4,29.4,0,0,0,7.467,1.448c.885.066-.01-.284-.423-.428" transform="translate(19.458 180.314)"/>
            <line id="Line_1177" data-name="Line 1177" x2="5.303" y2="5.227" transform="translate(59.399 480.477)" fill="none" stroke="#000" stroke-miterlimit="10" stroke-width="0.75"/>
            <path id="Path_7910" data-name="Path 7910" d="M32.9,297.267a33.309,33.309,0,0,1,4.979,5.454,33.241,33.241,0,0,1-4.979-5.454" transform="translate(20.438 184.671)"/>
            <path id="Path_7911" data-name="Path 7911" d="M28.954,292.993a13.258,13.258,0,0,0,6.4,2.167c-2.3.561-4.76-.585-6.4-2.167" transform="translate(17.987 182.016)"/>
            <path id="Path_7912" data-name="Path 7912" d="M50.758,85.986s-.843,4.822,0,6.749,2.651,3.134,2.411,4.58-1.446,5.3-.723,5.545c.516.172,1.894,1.044,2.771,1a.732.732,0,0,1,.822.608c.383,3.4,1.929,9.834,7.013,7.187,5.785-3.012,16.49-8.886,16.632-19.4S54.373,81.767,50.758,85.986" transform="translate(31.299 51.772)" fill="#fff"/>
            <path id="Path_7913" data-name="Path 7913" d="M50.758,85.986s-.843,4.822,0,6.749,2.651,3.134,2.411,4.58-1.446,5.3-.723,5.545c.516.172,1.894,1.044,2.771,1a.732.732,0,0,1,.822.608c.383,3.4,1.929,9.834,7.013,7.187,5.785-3.012,16.49-8.886,16.632-19.4S54.373,81.767,50.758,85.986Z" transform="translate(31.299 51.772)" fill="none" stroke="#000" stroke-miterlimit="10" stroke-width="0.75"/>
            <path id="Path_7914" data-name="Path 7914" d="M70.091,129.686s7.954,14.1,8.858,22.237" transform="translate(43.543 80.565)" fill="#acbaf7"/>
            <path id="Path_7915" data-name="Path 7915" d="M69.734,129.955c1.479,2.625,2.826,5.334,4.09,8.067,2.064,4.462,4.186,9.243,4.768,14.17.037.316,1.219.068,1.174-.315-.582-4.927-2.7-9.708-4.768-14.17-1.265-2.733-2.61-5.442-4.09-8.067-.195-.347-1.316.06-1.174.315" transform="translate(43.313 80.453)" fill="#011721"/>
            <path id="Path_7916" data-name="Path 7916" d="M50.942,85.979c-.026-.006-.05-.011-.076-.019a4.368,4.368,0,0,0-4.019,7.43c5.3,4.961,17.193,15.593,28.6,22.449a29.889,29.889,0,0,0,32.48-.948,47.9,47.9,0,0,0,9.906-9.413s31.445-.1,48.384,1.6c0,0,19.257-18.655-.762-31.361a35.091,35.091,0,0,0-18.469-5.274c-8.393-.089-22.5.415-34.232,4.048A34.453,34.453,0,0,1,86.74,72.146c-10.115-5.2-24.309-7.112-34.553,13.237a1.1,1.1,0,0,1-1.243.592" transform="translate(28.245 42.669)" fill="#011721"/>
            <path id="Path_7917" data-name="Path 7917" d="M289.188,255.751A44.083,44.083,0,1,1,245.1,211.668a44.083,44.083,0,0,1,44.084,44.083Z" transform="translate(124.881 131.495)" fill="#9aaae9"/>
            <circle id="Ellipse_41" data-name="Ellipse 41" cx="44.083" cy="44.083" r="44.083" transform="translate(325.899 343.163)" fill="none" stroke="#fff" stroke-miterlimit="10" stroke-width="2.062"/>
            <path id="Path_7918" data-name="Path 7918" d="M289.188,194.614a44.083,44.083,0,1,1-44.094-44.072h.016a44.081,44.081,0,0,1,44.078,44.072" transform="translate(124.881 93.521)" fill="#9aaae9"/>
            <circle id="Ellipse_42" data-name="Ellipse 42" cx="44.083" cy="44.083" r="44.083" transform="translate(325.899 244.063)" fill="none" stroke="#fff" stroke-miterlimit="10" stroke-width="2.062"/>
            <path id="Path_7919" data-name="Path 7919" d="M289.188,133.415A44.083,44.083,0,1,1,245.1,89.332a44.083,44.083,0,0,1,44.084,44.083Z" transform="translate(124.881 55.496)" fill="#9aaae9"/>
            <path id="Path_7920" data-name="Path 7920" d="M201.818,125.089a44.084,44.084,0,1,1,34.957,51.622l0,0a44.08,44.08,0,0,1-34.954-51.617Z" transform="translate(124.876 55.494)" fill="none" stroke="#fff" stroke-miterlimit="10" stroke-width="2.062"/>
            <path id="Path_7921" data-name="Path 7921" d="M235.381,127.974a9.2,9.2,0,0,1-9.228-8.388c-.193-2.336-.032-4.734-.032-7.077l-.812.415H244.3c-.122-.092-.243-.183-.363-.276,0,2.122.024,4.248,0,6.37a8.883,8.883,0,0,1-8.558,8.956c-.456.007-1.24.7-.451.691a10.2,10.2,0,0,0,10.006-7.96,22.5,22.5,0,0,0,.178-4.359v-3.836c0-.2-.18-.276-.363-.276H225.757c-.193,0-.812.11-.812.415v3.836a25.476,25.476,0,0,0,.131,4.192,9.818,9.818,0,0,0,9.854,7.988c.459,0,1.242-.691.451-.691" transform="translate(139.73 69.723)" fill="#011721"/>
            <path id="Path_7922" data-name="Path 7922" d="M227.72,120.272v-2.947a.173.173,0,0,0-.115-.107,5.262,5.262,0,0,1-4.032-3.956,3.773,3.773,0,0,1,5.614-4.027c.214.123,1.148-.068,1.06-.422-1.594-6.373,5.311-9.914,10.645-8.113,4.7,1.589,6.671,6.1,4.849,10.666-.136.342.715.149.806.118,3.576-1.234,5.1,6.106-.047,5.473-.272-.034-.953.076-.953.447v3.181c0,.3,1.174.1,1.174-.315v-3.181l-.955.447c2.244.276,5.026-.567,5.3-3.179.3-2.839-2.617-4.089-4.966-3.28l.806.118a8.021,8.021,0,0,0-.572-7.834,9.579,9.579,0,0,0-6.187-3.619c-5.593-.968-12.712,2.849-11.079,9.382l1.06-.42c-3.443-1.986-8.369.733-7.735,4.869a5.391,5.391,0,0,0,3.568,3.93c.107.042.567.128.644.225-.11-.139-.063.326-.063.522v2.333c0,.3,1.174.1,1.174-.315" transform="translate(138.125 61.872)" fill="#011721"/>
            <path id="Path_7923" data-name="Path 7923" d="M227.208,113.6a2.943,2.943,0,0,0-1.388-1.216,2.079,2.079,0,0,0-2.555,1.081,3.432,3.432,0,0,0,0,2.164,3.378,3.378,0,0,0,1.177,1.856,2.138,2.138,0,0,0,2.706-.469.288.288,0,0,0-.135-.5.891.891,0,0,0-.83.224l-.109.1-.045.041s.076-.06.028-.026-.068.053-.105.078c-.019.015-.135.091-.054.039s-.031.015-.053.024a.419.419,0,0,0-.088.037c.1-.075.125-.037.066-.026l-.044.013-.042.01c.013-.016.169-.019.06-.011a.739.739,0,0,0-.084.007c-.011,0,.139.011.026,0-.007,0-.081-.008-.081-.01s.136.036.055.01a.322.322,0,0,0-.054-.013l-.078-.026c-.1-.029,0,.006,0,0a1.573,1.573,0,0,0-.172-.1c-.031-.021-.172-.135-.092-.063-.053-.049-.105-.1-.154-.149a2.849,2.849,0,0,1-.279-.357c-.04-.062-.078-.125-.115-.188-.008-.016-.062-.115-.028-.049-.018-.037-.036-.075-.054-.11a4.128,4.128,0,0,1-.182-.449,4.444,4.444,0,0,1-.212-.963l-.01-.12c0-.024-.007-.1,0-.037q0-.117,0-.233a2.465,2.465,0,0,1,.052-.438c.013-.063.031-.125.047-.186.023-.079-.006.015,0,0s.028-.068.044-.1c.026-.052.055-.1.084-.151s.031-.019-.011.013a.992.992,0,0,0,.068-.075.677.677,0,0,1,.162-.13l.062-.039c-.1.062-.031.018-.007.008a.493.493,0,0,0,.062-.026c.076-.039-.109.047-.032.013.131-.055-.075,0,.019,0,.019,0,.041,0,.058,0,.073-.013-.1-.019-.034,0,.016,0,.139.013.065,0s.068.018.1.028.083.028.123.044c-.1-.041.034.021.058.034a2.241,2.241,0,0,1,.235.152c.019.016.039.031.058.045.05.041-.045-.041,0,0s.071.063.105.1c.062.058.12.12.177.182a3.25,3.25,0,0,1,.35.464c.141.233.593.144.788.055.214-.1.439-.306.293-.548" transform="translate(138.59 69.746)" fill="#011721"/>
            <path id="Path_7924" data-name="Path 7924" d="M237.811,113.949c.016-.028-.094.143-.047.075.021-.029.039-.058.06-.088.065-.092.133-.183.206-.269.05-.057.1-.113.152-.167s.058-.054,0,0c.037-.032.071-.066.107-.1.062-.052.125-.1.19-.148.01-.006.036-.031.045-.031s-.109.06-.049.031.088-.05.131-.071c.026-.013.141-.05.045-.024s.042-.01.066-.018.037-.006.055-.013c.065-.026-.073.021-.068.011s.133-.008.152-.01c-.105.008-.054,0,.024.01l.058.011c-.015,0-.079-.036-.036-.007a1.244,1.244,0,0,0,.143.055s.07.037.024.011.039.026.047.031c.049.036.1.07.146.109s.113.115.034.023c.039.045.079.089.113.138s.062.107.092.16c-.032-.057-.028-.066-.007-.006.013.036.028.07.039.105a2.09,2.09,0,0,1,.084.4c0,.016.013.117.008.052s0,.053,0,.071c0,.078,0,.156,0,.233a4.312,4.312,0,0,1-.146.944c.029-.11-.007.015-.015.039q-.017.061-.039.122c-.026.079-.055.157-.088.235a3.87,3.87,0,0,1-.2.431c-.016.029-.034.058-.052.089-.062.109.041-.053-.011.019s-.086.126-.135.188-.086.107-.133.157-.052.107,0,0c-.013.026-.057.052-.078.071s-.16.092-.175.131c.023-.06.118-.066.055-.037-.016.008-.032.018-.049.028a.44.44,0,0,0-.1.045c.045-.044.144-.044.036-.016-.032.008-.157.032-.039.013s0,0-.028,0l-.055,0c-.078.008.06-.006.07,0-.013-.013-.094-.011-.114-.013a.177.177,0,0,0-.042-.008c-.047,0,.1.036.052.013s-.079-.024-.117-.039c-.021-.008-.144-.063-.075-.031s-.042-.024-.062-.037c-.041-.026-.081-.053-.12-.083s-.071-.055-.107-.084c-.016-.015-.143-.13-.081-.07a.684.684,0,0,0-.8-.1c-.182.091-.488.415-.271.629a2.317,2.317,0,0,0,1.185.692,1.887,1.887,0,0,0,1.224-.2,3.249,3.249,0,0,0,1.417-1.809,4,4,0,0,0,.2-2.283,1.831,1.831,0,0,0-2.2-1.284,3.127,3.127,0,0,0-1.861,1.511c-.156.256.139.488.365.52a.763.763,0,0,0,.764-.366" transform="translate(147.005 69.725)" fill="#011721"/>
            <path id="Path_7925" data-name="Path 7925" d="M228.324,121.873v3.735c0,.185,1.174.021,1.174-.314v-3.735c0-.186-1.174-.021-1.174.315" transform="translate(141.842 75.468)" fill="#011721"/>
            <path id="Path_7926" data-name="Path 7926" d="M233.255,121.836v3.732a.348.348,0,0,0,.378.332c2.318,0,4.483.091,6.516,1.391a18.812,18.812,0,0,1,2.009,1.6,7.793,7.793,0,0,1,1.767,1.748,4.077,4.077,0,0,1,.5,2.172v7.913c0,.566,1.183.357,1.183-.113,0-2.745.045-5.493,0-8.237a4.132,4.132,0,0,0-1.146-2.918A19,19,0,0,0,240.8,126.5c-2.116-1.256-4.358-1.373-6.739-1.373.125.11.251.222.378.332v-3.732c0-.564-1.184-.357-1.184.113" transform="translate(144.905 75.406)" fill="#011721"/>
            <path id="Path_7927" data-name="Path 7927" d="M237.018,123.8c-2.346,1.177-4.7,2.344-7.038,3.529a3.707,3.707,0,0,0-2.211,3.461c-.007,1.492,0,2.985,0,4.476v4.014c0,.507,1.177.269,1.177-.138v-7.908c0-1.346.12-2.643,1.467-3.369,1.162-.629,2.367-1.188,3.549-1.78s2.352-1.18,3.529-1.769c.725-.365.062-.786-.473-.517" transform="translate(141.495 76.856)" fill="#011721"/>
            <path id="Path_7928" data-name="Path 7928" d="M239.186,127.233l-1.558-1.328a7.086,7.086,0,0,0-1.443-1.218,6.114,6.114,0,0,0-2.057-.05,20.07,20.07,0,0,0-2.774.112,24.033,24.033,0,0,0-5.376,1.744c-1.657.648-3.784,2.046-5.076.032-.832-1.3-1.521-2.714-2.275-4.06-.193-.345-1.316.063-1.174.315.73,1.3,1.436,2.62,2.19,3.909.968,1.657,2.643,1.785,4.3,1.153,1.59-.608,3.169-1.245,4.757-1.861a16.364,16.364,0,0,1,6.191-.77c.159,0,.316,0,.473,0,.065,0-.242-.2-.151,0,.126.277.713.606.94.8q.968.822,1.936,1.647c.276.237,1.354-.212,1.1-.431" transform="translate(135.081 75.998)" fill="#011721"/>
            <path id="Path_7929" data-name="Path 7929" d="M226.491,105.646a6.915,6.915,0,0,0,1.877,2.819.5.5,0,0,0,.3.052,1.492,1.492,0,0,0,.459-.1c.092-.037.509-.214.34-.366a6.634,6.634,0,0,1-1.806-2.719c-.068-.195-.509-.091-.642-.052a1.266,1.266,0,0,0-.4.172c-.054.039-.161.117-.133.195" transform="translate(140.7 65.364)" fill="#011721"/>
            <path id="Path_7930" data-name="Path 7930" d="M229.881,128.768v.913c0,.076.177.1.211.1a1.249,1.249,0,0,0,.431-.05,1.223,1.223,0,0,0,.4-.172l.079-.066a.138.138,0,0,0,.052-.126v-.913c0-.076-.175-.1-.211-.1a1.25,1.25,0,0,0-.431.05,1.231,1.231,0,0,0-.4.172c-.028.023-.054.045-.081.066a.142.142,0,0,0-.052.126" transform="translate(142.809 79.735)" fill="#011721"/>
            <path id="Path_7931" data-name="Path 7931" d="M229.877,131.945v.913a.24.24,0,0,0,.034.17.263.263,0,0,0,.112.136.621.621,0,0,0,.4.1.8.8,0,0,0,.441-.164.477.477,0,0,0,.2-.323v-.913a.24.24,0,0,0-.034-.17.259.259,0,0,0-.11-.136.633.633,0,0,0-.4-.1.82.82,0,0,0-.441.164.477.477,0,0,0-.2.323" transform="translate(142.805 81.665)" fill="#011721"/>
            <path id="Path_7932" data-name="Path 7932" d="M214.5,122.829l3.016,7.24c.373.895.708,1.819,1.13,2.693a4.321,4.321,0,0,0,4.269,2.262q2.264-.032,4.528-.06l-.54-.371v5.574c0,.6,1.188.415,1.188-.1V134.5c0-.3-.285-.375-.538-.371l-3.662.049c-.469.007-.945.042-1.412.015a3.262,3.262,0,0,1-2.761-1.968c-1.025-2.257-1.91-4.588-2.863-6.876q-.591-1.415-1.18-2.831c-.212-.511-1.378-.175-1.174.315" transform="translate(133.242 75.951)" fill="#011721"/>
            <path id="Path_7933" data-name="Path 7933" d="M233.964,124.071H209.511l.54.371a10.9,10.9,0,0,1,5.72-8.421c5.686-2.84,13.477-1.008,16.381,4.828a11.2,11.2,0,0,1,1.171,3.8c.05.52,1.229.238,1.174-.314a11.708,11.708,0,0,0-6.775-9.257c-5.974-2.63-14.024-.937-17.334,4.943a11.863,11.863,0,0,0-1.524,4.518c-.029.3.311.371.54.371h24.451c.663,0,.91-.838.11-.838" transform="translate(129.751 70.741)" fill="#011721"/>
            <path id="Path_7934" data-name="Path 7934" d="M215.51,115.726a3.966,3.966,0,0,1,1.509-2.73,1.543,1.543,0,0,1,.9-.28,2.507,2.507,0,0,1,1.3.3,3.088,3.088,0,0,1,1.325,1.647,4.518,4.518,0,0,1,.3,1.263c.024.315,1.2.084,1.175-.316a3.873,3.873,0,0,0-1.855-3.118,4.054,4.054,0,0,0-3.406,0,3.967,3.967,0,0,0-1.936,1.907,4.836,4.836,0,0,0-.483,1.5c-.053.4,1.12.18,1.167-.17" transform="translate(133.155 69.647)" fill="#011721"/>
            <path id="Path_7935" data-name="Path 7935" d="M212.12,122.963h15.394c.43,0,1.252-.647.462-.647H212.582c-.43,0-1.252.647-.462.647" transform="translate(131.571 75.986)" fill="#011721"/>
            <path id="Path_7936" data-name="Path 7936" d="M216.715,260.691c0-3.889-.266-7.8,1.318-11.456a15.544,15.544,0,0,1,14.113-9.39c2.972-.037,5.953-.045,8.923,0a16.135,16.135,0,0,1,13.889,8.2c2.27,4.077,2.031,8.466,2.031,12.957,0,.253,1.175.068,1.175-.315,0-4.684.219-9.226-2.3-13.417a16.6,16.6,0,0,0-13.931-7.967c-3.124-.063-6.266-.052-9.39,0a17.388,17.388,0,0,0-14.08,7.262c-3.08,4.444-2.923,9.307-2.923,14.442,0,.253,1.174.068,1.174-.315" transform="translate(133.9 148.637)" fill="#011721"/>
            <path id="Path_7937" data-name="Path 7937" d="M221.819,255.035v-6.6c0-.172-1.174-.011-1.174.315v6.6c0,.172,1.174.011,1.174-.315" transform="translate(137.071 154.294)" fill="#011721"/>
            <path id="Path_7938" data-name="Path 7938" d="M237.553,255.057v-6.6c0-.274-1.174-.081-1.174.315v6.6c0,.274,1.174.081,1.174-.315" transform="translate(146.846 154.271)" fill="#011721"/>
            <path id="Path_7939" data-name="Path 7939" d="M247.851,234.631l-1.041-1.162c-.587-.655-.815-.819-.856-1.7a12.226,12.226,0,0,0-1.968-6.135,11.533,11.533,0,0,0-9.591-5.057l-.756.5h.008q.314-.25.627-.5a12.132,12.132,0,0,0-11.49,7.892,35.5,35.5,0,0,0-.712,4c-.172.744-.921,1.347-1.466,1.955-.723.807-.8,1.722.486,1.79,2.821.151,5.692,0,8.515,0h16.23c.877,0,2.818-.23,2.048-1.537-.182-.3-1.286.128-1.175.315.143.242.037.952.428.718-.041.024-.143,0-.191,0-.318.032-.657,0-.976,0H223.21a5.485,5.485,0,0,1-1.571,0c-1.48-.559,1.352-2.472,1.6-3.11a13.622,13.622,0,0,0,.183-2.254,12.688,12.688,0,0,1,.527-2.072,11.347,11.347,0,0,1,1.916-3.445,10.25,10.25,0,0,1,7.913-3.745c.238,0,1.2-.5.627-.5H234.4c-.259,0-1.342.5-.756.5a11.079,11.079,0,0,1,9.846,6.026,12,12,0,0,1,.992,2.78,12.783,12.783,0,0,1,.24,1.445,6.324,6.324,0,0,0,.1,1.545,11.1,11.1,0,0,0,1.929,2.159c.206.229,1.307-.183,1.1-.41" transform="translate(136.727 137.032)" fill="#011721"/>
            <path id="Path_7940" data-name="Path 7940" d="M228.324,220.978v6.6c0,.154,1.174,0,1.174-.315v-6.6c0-.154-1.174,0-1.174.315" transform="translate(141.842 137.045)" fill="#011721"/>
            <path id="Path_7941" data-name="Path 7941" d="M225.527,221.5v3.909c0,.256.3.285.506.256.169-.024.668-.152.668-.4v-3.909c0-.256-.3-.284-.507-.255-.167.024-.666.152-.666.4" transform="translate(140.104 137.35)" fill="#011721"/>
            <path id="Path_7942" data-name="Path 7942" d="M231.04,221.552v3.962c0,.091.167.144.227.156a.948.948,0,0,0,.436-.028c.214-.062.511-.183.511-.443v-3.962c0-.091-.169-.144-.227-.157a1,1,0,0,0-.438.028c-.216.063-.509.185-.509.444" transform="translate(143.529 137.333)" fill="#011721"/>
            <path id="Path_7943" data-name="Path 7943" d="M243.025,230.328c.957,6.25-3.726,12.638-10.382,12.179A10.752,10.752,0,0,1,223,230.072c.045-.3-1.115-.1-1.161.2a11,11,0,0,0,7.237,12.182,11.956,11.956,0,0,0,13.082-4.021,11.072,11.072,0,0,0,2.038-8.417c-.039-.256-1.222,0-1.174.315" transform="translate(137.732 142.826)" fill="#011721"/>
            <path id="Path_7944" data-name="Path 7944" d="M225.157,239.732q2.247,3.935,4.5,7.869l.647,1.133c.177.311.979.094,1.128-.165q2.269-3.935,4.536-7.869c.217-.378.436-.756.653-1.132.248-.431-.911-.279-1.083.016q-2.266,3.935-4.536,7.869-.326.567-.653,1.133.564-.085,1.128-.167l-4.494-7.869c-.216-.378-.433-.755-.648-1.133-.2-.355-1.325.052-1.174.314" transform="translate(139.866 148.647)" fill="#011721"/>
            <path id="Path_7945" data-name="Path 7945" d="M230.139,254.888h-6.545c.122.094.243.188.365.284v-6.6l-.812.42h6.545l-.365-.284v6.6c0,.512,1.177.276,1.177-.136v-6.6c0-.2-.178-.282-.365-.282h-6.545c-.2,0-.812.109-.812.418v6.6c0,.2.178.282.365.282h6.545a.906.906,0,0,0,.773-.327c.13-.237-.11-.375-.326-.375" transform="translate(138.399 154.246)" fill="#011721"/>
            <path id="Path_7946" data-name="Path 7946" d="M246.88,175.276a11.313,11.313,0,0,1-6.83,13.928c-.1.037-.392.118-.392.264,0,2.33.279,3.807,2.776,4.376a26.584,26.584,0,0,1,6.044,2.053,15.834,15.834,0,0,1,8.993,13.951c.324-.126.65-.251.974-.376h-40.4a11.472,11.472,0,0,1-1.735,0c-.89-.143-.383.31-.485-.516-.457-3.714,2.093-7.975,4.732-10.347a21.482,21.482,0,0,1,8.959-4.57,5.888,5.888,0,0,0,3.037-1.261c.965-1.026.731-2.464.731-3.756l-.032-.036c-9.314-3.706-9.842-17.287-.177-21.024.781-.3.039-.378-.391-.211a12.06,12.06,0,0,0-7.753,8.735,11.471,11.471,0,0,0,5.175,11.892c.465.289,1.075.462,1.506.783.527.394.394.208.5.791a4.583,4.583,0,0,1-.3,2.461c-.705,1.263-2.852,1.419-4.129,1.835a23.053,23.053,0,0,0-7.866,4.2,14.9,14.9,0,0,0-5.177,11.4c0,.062.186.062.2.062h42.828c.178,0,.986-.109.974-.376a15.843,15.843,0,0,0-8.38-13.665,23.9,23.9,0,0,0-5.684-2.181c-1.138-.287-2.568-.339-3.3-1.386-.626-.892-.447-2.119-.447-3.148-.13.089-.261.177-.391.264a11.762,11.762,0,0,0,7.613-14.455c-.063-.225-1.237.1-1.174.315" transform="translate(133.342 104.158)" fill="#011721"/>
            <path id="Path_7947" data-name="Path 7947" d="M231.187,194.621c-2.134,0-4.282.076-6.414,0-4.149-.148-6.154-3.473-6.154-7.25,0-6.008-.764-12.409,2.682-17.7a16.17,16.17,0,0,1,23.916-3.4,16.734,16.734,0,0,1,5.741,10.831,71.721,71.721,0,0,1,.1,7.788c0,3.726.091,8.276-4.561,9.3-2.429.537-5.25.139-7.727.139-.482,0-1.231.73-.439.73a58.665,58.665,0,0,0,7.664-.07,7.191,7.191,0,0,0,6.243-7.229c.062-7.005.806-14.4-4.081-20.119a17.69,17.69,0,0,0-23.933-2.372,17.28,17.28,0,0,0-6.626,11.277,66.756,66.756,0,0,0-.159,8.933c0,1.2-.073,2.422.019,3.619a6.8,6.8,0,0,0,3.978,5.629c2.719,1.213,6.414.616,9.311.616.481,0,1.23-.728.439-.728" transform="translate(135.035 100.446)" fill="#011721"/>
            <path id="Path_7948" data-name="Path 7948" d="M225.53,168.026a7.8,7.8,0,0,0,1.631,2.385,14.755,14.755,0,0,0,6.524,3.9,25.708,25.708,0,0,0,6.628,1.051c.23.01,1.323-.417.773-.438-5.073-.2-11.1-1.744-13.947-6.381a5.1,5.1,0,0,1-.434-.828c-.091-.242-1.245.128-1.174.315" transform="translate(140.104 104.138)" fill="#011721"/>
            <path id="Path_7949" data-name="Path 7949" d="M224.545,183.852a8.235,8.235,0,0,0,3.507,1.6,10.935,10.935,0,0,0,8.192-1.772c.211-.136.118-.255-.079-.3a1.3,1.3,0,0,0-.83.224,8.283,8.283,0,0,1-7,1.188,7.592,7.592,0,0,1-2.685-1.36c-.258-.217-1.316.235-1.1.415" transform="translate(139.476 113.918)" fill="#011721"/>
            <path id="Path_7950" data-name="Path 7950" d="M233.679,184.464v6.384c0,.227,1.174.049,1.174-.316V184.15c0-.227-1.174-.05-1.174.315" transform="translate(145.168 114.337)" fill="#011721"/>
            <path id="Path_7951" data-name="Path 7951" d="M237.359,191.058a2.3,2.3,0,0,1-1.388,2.184,1.725,1.725,0,0,1-.509.091,2.072,2.072,0,0,1-.668-.1,2.354,2.354,0,0,1-1.133-.8,2.5,2.5,0,0,1-.227-2.729,1.855,1.855,0,0,1,2.048-1,2.465,2.465,0,0,1,1.877,2.357c0,.271.293.324.52.3.185-.019.663-.165.66-.428A3,3,0,0,0,236.5,188.1a3.609,3.609,0,0,0-3.79,1.015,2.992,2.992,0,0,0-.332,3.512,3.224,3.224,0,0,0,3.4,1.378,3.291,3.291,0,0,0,2.767-3.069c0-.271-.3-.324-.52-.3-.191.019-.657.162-.66.426" transform="translate(144.097 116.739)" fill="#011721"/>
            <path id="Path_7952" data-name="Path 7952" d="M221.316,193.455v-2.19a3.381,3.381,0,0,1,.887-2.641,2.453,2.453,0,0,1,1.564-.676c-.019,0,.279,0,.154,0s.173.013.154.01a2.663,2.663,0,0,1,.436.071,2.914,2.914,0,0,1,.871.394,3.109,3.109,0,0,1,1.32,2.677v2.461c0,.59,1.187.4,1.187-.1v-2.422a4.363,4.363,0,0,0-.178-1.425,3.659,3.659,0,0,0-1.277-1.746,4.039,4.039,0,0,0-4.287-.232,3.8,3.8,0,0,0-2.017,3.312c0,.871,0,1.743,0,2.613,0,.59,1.187.4,1.187-.1" transform="translate(136.75 116.247)" fill="#011721"/>
            <path id="Path_7953" data-name="Path 7953" d="M223.34,189.422V184.3c0-.274-.3-.334-.525-.311-.191.019-.657.165-.657.433v5.117c0,.274.293.334.522.311.195-.019.66-.165.66-.433" transform="translate(138.011 114.3)" fill="#011721"/>
            <g id="Group_2383" data-name="Group 2383" transform="translate(293.533 114.045)" opacity="0.44">
              <g id="Group_2382" data-name="Group 2382">
                <g id="Group_2381" data-name="Group 2381" clip-path="url(#clip-path-4)">
                  <path id="Path_7954" data-name="Path 7954" d="M345.911,152.773a82.427,82.427,0,1,1-82.428-82.428,82.428,82.428,0,0,1,82.428,82.428Z" transform="translate(-181.056 -70.345)" fill="#fff"/>
                </g>
              </g>
            </g>
            <path id="Path_7955" data-name="Path 7955" d="M342.866,102.134A92.619,92.619,0,0,1,326.583,226.57l5.572,7.639a26.143,26.143,0,0,1,28.642,9.62l66.516,91.2a26.156,26.156,0,0,1-42.363,30.691l-66.417-91.066a26.143,26.143,0,0,1,1.106-32.2l-5.292-7.257a92.5,92.5,0,1,1,28.519-133.067m-137.92,97.546A76.416,76.416,0,1,0,223.215,93.165a76.5,76.5,0,0,0-18.268,106.513" transform="translate(108.625 39.181)" fill="#acbaf7"/>
            <g id="Group_2386" data-name="Group 2386" transform="translate(422.146 270.522)" opacity="0.1">
              <g id="Group_2385" data-name="Group 2385">
                <g id="Group_2384" data-name="Group 2384" clip-path="url(#clip-path-5)">
                  <path id="Path_7956" data-name="Path 7956" d="M268.207,167.433l-.405-.571-6.59,3.859,5.292,7.257a26.144,26.144,0,0,0-1.106,32.2l66.419,91.068a26.134,26.134,0,0,0,35.588,6.443Z" transform="translate(-260.386 -166.862)" fill="#011721"/>
                </g>
              </g>
            </g>
            <path id="Path_7957" data-name="Path 7957" d="M200.129,217.2c-23.785-26.514-30.165-65.674-16.246-98.444,13.873-32.669,46.939-54.5,82.362-55.021C288,63.416,309.888,70.88,326.2,85.411c.551.49,2.725-.4,2.194-.872C299.9,59.163,256.692,56.271,223.5,73.8a92.729,92.729,0,0,0-37.6,36.429A93.818,93.818,0,0,0,197.935,218.07c.477.533,2.709-.3,2.194-.871" transform="translate(108.197 38.934)" fill="#011721"/>
            <path id="Path_7958" data-name="Path 7958" d="M323.637,240.191c-6.811-9.184-15.008-17.431-20.7-27.415a42.791,42.791,0,0,1-5.629-16.006c-.7-5.974,2.78-12.052,4.831-17.467.741-1.955,2.189-4.512,1.033-6.532-.994-1.735-3.111-2.628-4.954-3.114a13.007,13.007,0,0,0-2.944-.454c-1.417-.034-2.32.7-3.572,1.352q-4.214,2.211-8.628,4a90.75,90.75,0,0,1-37.887,6.7,86.362,86.362,0,0,1-40.408-12.075c-.717-.425-2.861.6-1.853,1.2a90.567,90.567,0,0,0,70.331,8.939,98.8,98.8,0,0,0,17.822-6.872,22.108,22.108,0,0,1,3.361-1.8c.908-.208,2.865.447,3.829.867a5.348,5.348,0,0,1,2.618,2.057c.762,1.328.008,2.871-.452,4.2-1.9,5.514-4.974,10.9-5.54,16.793-.507,5.263,1.8,11.152,4.076,15.791,5.629,11.5,14.936,20.6,22.49,30.784.516.7,2.782-.13,2.172-.95" transform="translate(125.901 105.037)" fill="#011721"/>
            <path id="Path_7959" data-name="Path 7959" d="M355.3,230.991c12.362,9.569,9.191,29.14-1.091,39.039a21.717,21.717,0,0,1-12.689,6.157,24,24,0,0,1-13-2.873c-7.839-3.988-14.171-10.64-19.609-17.422-8.027-10.008-15.1-20.791-22.4-31.325-.412-.6-2.56.324-2.349.629,7.08,10.217,13.986,20.594,21.65,30.39,5.966,7.626,13.069,15.27,22.055,19.288a25.506,25.506,0,0,0,25.055-2.229c6.417-4.321,10.653-11.582,12.158-19.088,1.735-8.649-.376-17.811-7.57-23.38-.524-.405-2.592.517-2.21.814" transform="translate(176.523 139.386)" fill="#011721"/>
            <path id="Path_7960" data-name="Path 7960" d="M311.463,204.661c4.865,7.022,9.664,14.089,14.494,21.134.381.554,2.515-.387,2.349-.629-4.83-7.046-9.63-14.113-14.494-21.134-.384-.555-2.515.391-2.349.629" transform="translate(193.484 126.644)" fill="#011721"/>
            <path id="Path_7961" data-name="Path 7961" d="M296.8,103.375c8.857,26.77,3.69,57.649-12.477,80.624a82.347,82.347,0,0,1-16.53,17.448c-.4.313-.251.623.2.731,1.428.352,5.018-.624,5.335-2.437.428-2.453-5.225,1.472-5.532,1.706-.739.566.3.777.749.726a4.7,4.7,0,0,0,1.767-.5c.423-.233,1.031-1.072,1.475-1.122.72-.083,2.15-1.158.652-1.188-1.441-.029-3.171-.36-4.351.764-1.984,1.89,1.313,6.2,2.359,7.743.986,1.451,3.983,1.162,5.653,1.344,2.176.237,4.353.478,6.519.8a42.929,42.929,0,0,1,12.947,3.623,21.991,21.991,0,0,1,10.561,11.345c.313.738,2.62.008,2.349-.631-4.137-9.75-13.231-13.712-23.137-15.321-2.414-.391-4.846-.67-7.278-.935-1.308-.144-2.618-.282-3.927-.433-1.7-.2-2.3-1.863-3.051-3.278-.507-.961-1.7-2.926-1.039-4.056-.235.4-.473,0,.229.162a6.535,6.535,0,0,0,1.221.088l.652-1.188a4.7,4.7,0,0,0-1.767.5c-.423.232-1.031,1.072-1.475,1.122l.749.726c.457-.35,1.834-1,2.075-1.466q.912-.387-.691-.31a.638.638,0,0,1-.143.232c-.522.28-.726.986-1.438.811.067.245.131.488.2.733,22.649-17.752,34.827-46.9,33.725-75.428a85.537,85.537,0,0,0-4.225-23.56c-.243-.734-2.579-.066-2.349.629" transform="translate(166.154 63.63)" fill="#011721"/>
            <path id="Path_7962" data-name="Path 7962" d="M198.024,193.977a77.238,77.238,0,0,0,37.7,28.221,78.989,78.989,0,0,0,85.327-23.446,76.588,76.588,0,0,0-28.4-119.919c-29.239-12.422-64.382-5.387-86.658,17.264-22.488,22.872-28.373,58.505-14.231,87.334a78.8,78.8,0,0,0,6.266,10.546c.387.553,2.511-.4,2.349-.629-17.84-25.427-18.625-59.908-1.539-85.948a75.673,75.673,0,0,1,36.76-29.349,74.506,74.506,0,0,1,45.3-1.748,76.912,76.912,0,0,1,55.678,67.122c2.612,31.288-14.829,61.9-43.344,75.228-28.534,13.333-63.408,6.255-85.256-16.177a78.07,78.07,0,0,1-7.6-9.129c-.394-.551-2.51.4-2.349.629" transform="translate(114.375 45.197)" fill="#011721"/>
          </g>
        </g>
        <g id="Group_3421" data-name="Group 3421">
          <rect id="Rectangle_3993" data-name="Rectangle 3993" width="542.178" height="498.53" fill="none"/>
        </g>
      </g>
    </g>
  </g>
</svg>
