<?xml version="1.0" encoding="UTF-8" standalone="no"?>
<!DOCTYPE svg PUBLIC "-//W3C//DTD SVG 1.1//EN" "http://www.w3.org/Graphics/SVG/1.1/DTD/svg11.dtd">
<svg width="100%" height="100%" viewBox="0 0 1920 1095" version="1.1" xmlns="http://www.w3.org/2000/svg" xmlns:xlink="http://www.w3.org/1999/xlink" xml:space="preserve" xmlns:serif="http://www.serif.com/" style="fill-rule:evenodd;clip-rule:evenodd;stroke-miterlimit:10;">
    <g id="Mask_Group_1" transform="matrix(1,0,0,1,0,366)">
        <clipPath id="_clip1">
            <rect x="0" y="-366" width="1920" height="1095"/>
        </clipPath>
        <g clip-path="url(#_clip1)">
            <g id="Mask_Group_1-2" transform="matrix(1,0,0,1,-11,0)">
                <clipPath id="_clip2">
                    <rect x="0" y="-366" width="1920" height="1095"/>
                </clipPath>
                <g clip-path="url(#_clip2)">
                    <g id="Path_619" transform="matrix(1,0,0,1,0,-366)">
                        <rect x="0" y="0" width="1931" height="1095" style="fill:url(#_Radial3);fill-rule:nonzero;"/>
                    </g>
                    <g id="Group_2104" transform="matrix(1,0,0,1,65.791,-49.803)">
                        <g opacity="0.43">
                            <g id="Group_2103">
                                <clipPath id="_clip4">
                                    <rect x="0" y="0" width="1595.44" height="1357.95"/>
                                </clipPath>
                                <g clip-path="url(#_clip4)">
                                    <g id="Path_7449" transform="matrix(1,0,0,1,349.973,40.309)">
                                        <path d="M892.6,64.161C873.176,63.346 853.819,66.963 836,74.737C828.188,75.478 823.064,84.03 812.87,83.793C820.499,75.409 826.753,68.521 833.007,61.641C836.329,58.701 839.765,55.899 842.949,52.798C860.1,36.09 858.511,29.198 836.038,21.215C830.952,19.415 826.401,21.131 821.652,21.948C817.215,22.261 811.419,18.573 809.999,27.048C809.258,31.462 805.83,32.813 802.714,29.178C786.838,10.7 770.649,11.441 760.233,32.1C757.552,37.453 753.063,41.69 747.565,44.058C725.291,55.214 703.291,66.928 680.986,78.008C674.022,81.475 669.249,85.545 670.96,94.517C669.703,101.098 664.356,106.177 657.719,107.094C649.989,108.98 642.419,111.469 635.078,114.539C631.771,115.776 625.204,114.715 626.747,120.61C628.015,125.467 628.603,132.698 635.712,133.782C639.118,134.294 643.883,133.477 643.562,138.562C643.188,144.656 637.69,142.235 634.108,142.662C631.664,142.952 629.19,143.006 626.732,143.162C616.393,141.551 606.008,139.833 605.404,155.853L604.74,157.166C594.111,158.327 600.571,142.39 591.026,142.266C590.682,144.74 591.171,148.016 589.842,149.627C578.556,163.296 592.27,176.04 592.003,189.35C591.889,195.069 598.547,194.13 603.022,193L604.557,198.292C601.273,226.439 594.264,236.351 578.671,233.762C581.955,230.112 585.231,227.004 587.88,223.377C591.561,218.36 594.821,212.389 591.431,206.135C581.451,187.735 577.031,167.835 574.746,147.306C574.112,141.606 570.867,141.991 567.324,142.533C556.664,144.205 544.675,143.833 544.66,160.57C544.66,167.481 532.839,173.139 537.169,177.385C544.591,184.67 540.392,199.985 554.312,201.958C557.812,202.447 558.863,207.204 556.45,211.648C539.162,203.859 521.293,208.571 503.55,208.51C501.72,208.534 499.91,208.897 498.212,209.579C499.54,227.779 484.032,220.308 476.655,223.736C469.928,226.874 462.75,236.198 457.58,233.487C445.362,227.042 440.28,236.32 433.373,241.387C425.462,247.198 415.779,250.978 411.503,261.531C409.739,265.876 405.043,266.22 401.095,264.331C398.331,263.002 395.834,260.231 398.98,257.054C401.408,254.61 405.692,253.454 400.568,249.154C396.77,245.659 391.297,244.614 386.479,246.466C381.141,248.366 384.959,252.552 385.059,255.713C384.962,259.916 386.081,264.059 388.281,267.641C393.115,275.017 392.081,278.408 382.554,278.889C372.795,279.37 362.891,289.778 363.854,295.612C366.137,309.426 359.601,305.172 353.225,304.982C341.825,304.631 343.115,310.312 350.225,317.811C323.964,322.064 327.553,290.924 310.38,285.711C323.034,284.649 335.743,284.376 348.431,284.894C355.838,285.031 364.391,286.794 366.047,275.794C367.819,264.019 358.678,263.561 351.584,262.294C325.69,257.666 301.323,243.982 273.718,247.648C275.642,242.44 283.538,244.678 281.56,238.584C280.376,234.964 275.588,235.476 272.267,234.984C269.78,234.866 267.287,235.01 264.829,235.412C257.201,235.16 250.618,241.933 242.02,237.634C238.927,236.084 235.346,241.009 233.139,244.629C230.539,248.882 226.832,251.387 222.746,254.281C210.946,262.65 199.677,271.493 191.846,285.536C172.275,320.594 156.193,357.873 130.161,388.967C117.065,404.6 132.436,431.94 149.259,433C163.745,433.916 161.378,418.606 170.274,414.261L181.537,430.442C184.613,438.767 189.111,446.496 194.831,453.282C197.099,456.182 200.864,460.109 203.331,456.253C208.569,448.082 220.016,443.608 217.97,430.916C217.129,424.713 218.291,418.4 221.284,412.902C225.033,404.991 231.555,396.591 217.794,390.856C214.075,389.306 215.328,384.472 215.511,380.837C215.877,373.545 216.145,366.252 216.458,358.952C217.138,357.761 217.817,356.577 218.497,355.386C225.568,350.247 232.15,342.977 233.067,334.886C233.8,327.01 237.63,319.739 243.71,314.68L243.626,314.88C245.559,314.781 247.486,314.686 249.407,314.597C257.081,318.667 259.426,323.844 253.752,331.664C249.873,336.994 247.238,343.355 243.214,348.54C234.158,360.208 238.314,370.74 245.566,381.184C253.401,392.463 262.236,388.884 271.866,384.261C282.671,379.076 293.766,370.989 306.061,382.039C294.332,385.839 284.626,394.439 272.034,396.464C263.421,397.854 260.259,402.564 269.163,409.216C273.463,412.423 272.805,416.188 271.763,420.273C270.236,426.199 266.074,425.099 262.271,423.457C255.261,420.41 252.932,424.19 253.444,430.406C254.88,448.122 248.794,460.324 232.093,465.44C219.829,470.762 207.787,475.55 193.722,475.382C184.253,475.275 177.35,471.259 177.869,460.812C178.22,453.802 180.809,446.54 176.204,439.805C160.878,447.25 158.656,454.382 166.04,469.387C168.84,475.087 177.655,484.056 166.597,487.049C143.505,493.311 139.797,517.28 127.523,532.614C118.871,543.442 106.508,547.008 98.582,557.314C96.749,559.696 89.388,556.787 88.869,561.842C88.205,568.524 94.879,567.592 98.769,568.86C112.315,573.274 117.775,582.834 118.211,597.877C118.711,615.127 106.665,612.798 97.105,614.562C91.263,615.646 85.132,615.226 79.313,616.402C72.413,617.792 67.744,620.915 69.745,630.361C72.097,641.472 71.814,653.208 74.762,664.097C76.45,670.336 77.099,681.225 84.613,681.477C98.587,681.935 113.676,684.218 126.1,675.269C131.934,671.077 140.57,666.014 139.127,657.843C136.935,645.427 143.64,638.371 148.985,629.986C152.485,624.496 156.885,619.929 155.476,611.786C154.506,606.135 194.97,584.655 199.85,587.748C202.447,589.445 204.745,591.561 206.65,594.01C214.706,604.143 225.412,610.031 236.683,614.628C245.205,618.11 253.024,621.814 256.283,632.397C258.077,622.424 268.814,612.215 250.457,606.09C238.926,602.241 228.579,594.056 220.447,583.67C217.194,579.524 215.323,575.17 219.004,571.162C222.685,567.154 226.381,570.849 229.481,573.377C234.834,577.737 237.934,584.129 246.006,586.007C258.636,588.947 269.793,595.316 274.725,610.244C276.97,617.807 282.311,624.079 289.42,627.5C291.17,629.911 292.604,632.537 293.688,635.312C295.238,641.49 298.942,644.048 304.463,643.124C311.519,641.948 306.609,635.709 307.953,632.716C312.145,623.339 304.799,620.193 300.981,614.992C297.896,601.43 306.174,597.734 316.181,595.55C334.89,598.963 338.998,593.259 332.339,573.138C332.713,568.538 332.79,563.868 333.492,559.332C337.409,534.026 343.098,528.474 361.349,531.758C359.875,536.813 358.073,542.464 364.149,545.304C371.388,548.679 376.237,542.242 380.949,538.577C390.204,531.377 377.513,535.977 377.249,532.453C377.005,529.032 376.749,526.505 379.318,524.405C385.19,519.632 390.902,514.493 398.393,513.165C400.776,517.586 393.643,520.137 398.553,523.604C398.431,529.369 394.453,533.149 390.344,537.654C401.256,542.862 410.694,547.207 420.01,551.854C428.761,556.237 432.892,561.903 423.981,570.265C415.115,570.754 407.426,578.978 398.11,575.16C380.188,567.822 366.023,577.306 351.843,585.255C330.477,597.236 328.4,605.804 340.091,623.932C345.757,632.732 352.347,636.119 361.304,629.98C364.632,627.64 368.911,627.093 372.72,628.521C379.287,630.629 384.632,630.728 390.237,624.734C395.315,619.305 401.137,619.034 400.5,630.27C399.943,640.17 400.286,650.147 400.08,660.081C399.82,671.97 391.711,679.53 382.868,680.691C360.945,683.555 338.815,690.374 316.334,679.454C308.079,675.437 298.42,678.087 296.694,689.32C294.701,702.256 287.531,702.431 278.413,699.69C262.507,694.902 246.746,689.572 230.825,684.861C224.166,682.891 221.135,681.432 223.464,672.246C227.137,657.753 220.799,652.209 207.184,657.088C196.516,660.914 186.559,666.847 176.284,671.841L177.7,782.591C177.227,745.678 176.756,708.765 176.287,671.852C154.081,678.671 134.96,697.112 109.043,690.225C107.525,690.225 106.112,691.019 105.324,692.317C99.024,706.23 85.745,717.47 86.463,733.743C87.036,746.686 83.485,757.094 78.773,767.915C73.012,781.125 68.072,794.8 61.6,807.6C53.315,823.972 48.955,839.542 61.012,856.715C65.502,863.129 64.96,871.773 65.624,879.6C64.024,886.037 61.187,892.459 67.411,898.392C81.133,911.492 92.748,926.944 107.821,938.558C126.194,959.466 146.849,970.622 173.499,957.213C177.148,955.703 180.915,954.495 184.762,953.601C186.66,953.233 188.536,952.761 190.382,952.188C208.258,945.766 223.103,922.56 245.744,942.337C246.019,942.581 246.706,942.245 247.203,942.291C266.729,943.864 270.447,947.736 271.883,969.025C272.99,985.466 276.839,1000.08 293.134,1007.37C305.604,1017.55 307.658,1033.8 314.734,1047.13C319.003,1058.82 323.897,1070.28 323.302,1083.22C321.996,1111.36 324.05,1138.28 345.702,1159.9C350.375,1164.57 351.302,1173.24 354.476,1179.81C358.958,1189.1 359.027,1200.61 367.457,1207.9C379.332,1217.97 388.901,1230.48 395.512,1244.57C399.689,1253.52 408.73,1263.77 418.955,1259.33C440.016,1250.19 462.038,1241.98 472.164,1216.2C479.304,1198.04 493.278,1182.77 490.399,1160.83C489.669,1156.64 491.73,1152.43 495.485,1150.44C505.908,1144.15 504.717,1131.88 500.113,1125.88C489.652,1112.28 496.713,1103.04 502.274,1092.31C506.512,1084.12 510.383,1075.72 514.423,1067.41C523.136,1056.83 523.571,1046.22 517.08,1033.16C509.475,1017.87 497.623,1000.13 499.616,985.504C500.662,977.822 501.945,969.865 503.686,961.97C502.838,955.907 501.517,949.691 500.028,943.475C499.257,940.23 499.868,935.694 503.594,933.915C514.674,928.623 517.767,917.352 522.15,907.005C523.593,903.584 525.15,900.305 529.595,900.905L529.61,900.905C531.244,901.079 532.738,901.91 533.749,903.205C550.518,878.655 549.754,850.035 554.298,819.559C542.317,824.904 532.642,828.577 523.563,833.449C514.063,838.558 505.992,838.069 498.7,829.226C473.4,807.188 447.767,785.509 429.746,755.942C422.064,743.106 414.054,730.468 406.906,717.318C404.783,713.418 397.689,708.384 402.927,704.375C408.845,699.847 412.06,708.04 415.336,712.118C426.882,726.504 438.168,741.118 449.546,755.652C462.886,773.566 476.346,791.397 489.546,809.426C496.724,819.246 504.276,821.102 513.63,813.126C528.795,800.191 546.23,790.926 560.05,775.289C569.85,764.189 580.278,754.206 586.86,740.514C588.425,737.024 589.996,733.534 591.571,730.045C597.077,724.112 596.023,718.415 591.296,712.161C585.829,704.929 578.063,703.608 570.488,701.516C569.373,696.461 568.253,691.403 567.128,686.343L567.273,686.267L567.197,686.16C582.546,688.56 597.673,688.275 612.388,682.991C632.135,673.675 650.5,685.373 661.71,697.191C672.51,708.584 676.73,716.358 690.743,698.176C688.78,743.924 710.688,773.713 736.888,801.241C739.652,804.141 742.271,809.221 746.471,807.77C751.259,806.121 753.817,801.34 754.306,795.552C755.39,782.601 758.712,769.952 756.177,756.577C754.046,745.299 756.91,735.57 764.485,726.514C773.564,715.655 783.071,704.155 788.325,691.052C794.632,675.352 811.058,679.132 819.625,669.174C819.961,668.774 823.581,670.411 824.55,671.893C832.881,684.729 847.75,692.541 850.437,709.837C851.827,718.779 856.828,719.637 863.052,713.709C865.282,711.578 865.167,706.455 871.291,707.669C883.127,749.269 906.066,785.298 930.647,820.378C930.861,821.668 931.09,822.967 931.311,824.249C936.404,820.675 940.994,828.403 947.538,824.7L936.9,803.216C934.273,794.557 926.194,792.655 920.108,788.455C900.155,774.679 895.573,761.255 903.751,737.782C916.778,745.682 932.959,747.582 942.176,763.149C946.796,757.04 951.102,751.435 955.318,745.749C966.696,730.385 966.36,720.733 953.928,706.095C950.583,702.162 947.239,698.214 943.68,694.488C921.047,670.793 926.506,673.878 939.373,652.046C943.695,651.832 948.468,648.984 952.179,653.069C955.486,656.711 956.914,657.475 958.83,652.076C961.083,645.738 967.337,643.371 972.438,640.79C991.907,631.463 1006.25,613.944 1011.56,593.018C1012.8,588.566 1014.19,583.526 1017.08,580.342C1027.53,568.88 1021.24,554.982 1015.89,547.048C1012.02,541.313 1017.47,537.091 1012.12,531.661C995.736,515.045 996.653,514.061 1010.11,494.561C1011.8,492.94 1012.18,490.354 1011.02,488.315C1007.26,488.057 1003.49,488.085 999.738,488.399C992.132,489.544 983.213,491.171 979.724,482.725C976.824,475.715 985.824,472.309 989.524,467.33C992.792,462.93 996.343,456.716 1002.52,458.976C1009.73,461.618 1000.2,469.056 1005.19,473.668C1010.21,469.491 1014.61,463.039 1020.18,461.794C1031.53,459.259 1028.06,470.301 1029.84,476.364C1030.1,476.82 1030.56,477.128 1031.08,477.196C1043.81,478.09 1040.44,489.849 1043.68,497.196C1045.36,500.976 1043.16,508.296 1049.94,507.619C1055.58,507.275 1060.46,503.509 1062.23,498.143C1065.93,488.735 1061.36,482.993 1055.87,477.503C1046.43,468.057 1044.75,459.184 1053.05,447.722C1059.22,439.17 1063.03,428.716 1067.9,419.094C1080.02,421.209 1087.02,416.223 1089.45,403.371C1091.72,391.398 1094.96,379.63 1097.77,367.779C1103.85,346.146 1109.93,324.52 1116.1,302.62C1126.44,321.871 1128.16,342.313 1132.91,361.968C1133.51,364.45 1130.41,371.589 1138.57,369.245C1146.99,366.824 1140.18,363.106 1139.35,360.445C1136.69,351.961 1130.58,342.836 1145.23,340.171C1148.15,339.644 1146.5,336.857 1145.69,335.292C1138.18,320.776 1130.56,306.328 1122.12,290.246C1118.71,296.897 1117.98,302.494 1110.19,297.966C1103.07,293.835 1095.39,287.642 1085.45,295.11C1080.93,298.516 1073.94,290.71 1069.13,287.11C1065.72,284.56 1071.34,280.11 1073.46,277.038C1082.88,263.346 1092.53,249.815 1102.24,236.33C1054.09,169.546 995.949,110.571 929.855,61.481C927.759,62.976 925.453,64.152 923.013,64.971C912.574,68.293 902.525,64.757 892.598,64.162M526.361,669.477L526.575,669.24L526.361,669.477M540.6,710.3C543.261,710.33 545.868,709.544 548.068,708.047C545.868,709.544 543.261,710.33 540.6,710.3M485.6,455.673C511.425,441.531 537.144,427.2 562.939,413C537.152,427.2 511.426,441.529 485.6,455.671M564.9,409.371C565.5,409.44 566.084,409.478 566.649,409.493C566.084,409.478 565.496,409.44 564.9,409.371M631.021,534.779C631.995,534.6 632.987,534.539 633.976,534.596C632.987,534.542 631.996,534.604 631.021,534.779M638.879,537.49C652.471,545.119 667.186,549.853 681.535,555.427C667.179,549.86 652.464,545.127 638.879,537.49M888.78,171.64C875.944,150.358 863.39,128.885 848.889,108.772C863.389,128.886 875.951,150.358 888.78,171.64M763.249,285.449C797.535,280.302 832.226,277.775 866.184,270.49C832.226,277.79 797.535,280.318 763.249,285.449" style="fill:white;fill-rule:nonzero;"/>
                                    </g>
                                    <g id="Path_7450" transform="matrix(1,0,0,1,63.617,114.344)">
                                        <path d="M26.173,291.822C27.861,295.296 26.303,298.786 23.791,301.757C9.947,318.152 9.855,329.614 23.279,346.864C31.862,357.891 41.842,368.047 48.807,380.081C60.07,399.553 75.862,405.929 96.197,405.769C104.505,405.708 109.033,404.822 109.889,394.949C111.065,381.479 113.615,368.169 115.578,354.798C116.372,352.026 117.67,349.098 113.386,348.04C110.37,344.107 114.142,341.717 115.112,338.693C121.679,327.017 130.98,318.373 141.243,310.226C167.038,289.754 192.214,268.426 217.635,247.449C228.616,242.379 230.143,232.994 225.447,222.922C222.208,216.372 221.946,208.733 224.729,201.976C227.493,194.195 229.166,185.925 232.251,178.304C237.871,164.46 231.8,150.104 223.592,144.204C212.313,136.104 214.329,130.688 219.01,122.013C222.744,118.775 226.341,115.213 219.43,111.613C203.478,103.328 209.465,90.766 215.841,82.013C228.4,64.8 235.8,42.495 256.555,32.705C256.955,32.514 256.761,30.995 256.868,30.105C229.279,18.857 211.013,42.162 186.661,48.623C112.942,118.645 53.14,201.994 10.42,294.258C12.841,293.719 15.181,292.87 17.384,291.73C20.133,290.424 23.691,286.744 26.173,291.822M112.026,353.591C111.621,353.348 111.299,352.989 111.102,352.56C111.304,352.985 111.625,353.344 112.026,353.591" style="fill:white;fill-rule:nonzero;"/>
                                    </g>
                                    <g id="Path_7451" transform="matrix(1,0,0,1,-0.722,475.361)">
                                        <path d="M16.571,270.544C15.723,267.658 18.839,262.182 21.618,259.853C30.618,252.293 40.296,245.642 50.406,238.128C51.75,246.628 45.175,251.766 48.459,261.739C53.988,247.36 67.786,246.207 76.476,233.139C67.244,237.178 65.564,219.699 55.622,229.924C54.874,230.695 43.671,222.024 39.036,216.248C36.119,212.598 42.778,210.399 44.736,207.566C57.073,189.746 75.507,178.819 91.367,165C99.567,157.86 99.102,150.209 94.49,143.3C91.84,139.337 84.38,138.848 79.09,136.8C78.629,136.402 78.194,135.973 77.79,135.517C78.149,127.698 72.46,127.95 67.634,126.881C59.634,125.094 50.071,120.436 48.434,113.953C44.512,98.5 32.172,92.225 23.039,81.489C5.897,152.332 -1.429,225.196 1.268,298.034C9.805,291.429 21.198,286.366 16.568,270.544" style="fill:white;fill-rule:nonzero;"/>
                                    </g>
                                    <g id="Path_7456" transform="matrix(1,0,0,1,485.535,157.337)">
                                        <path d="M74.175,33.566C74.122,33.658 74.063,33.748 73.999,33.833" style="fill:white;fill-rule:nonzero;"/>
                                    </g>
                                    <g id="Path_7457" transform="matrix(1,0,0,1,466.356,127.731)">
                                        <path d="M71.284,29.227L71.108,29.105L71.131,29.235L71.284,29.227Z" style="fill:white;fill-rule:nonzero;"/>
                                    </g>
                                    <g id="Path_7458" transform="matrix(1,0,0,1,423.585,127.846)">
                                        <path d="M136.132,63.049L136.14,63.049C141.317,55.421 140.584,49.541 131.245,45.776C123.456,42.63 114.972,40.057 113.903,29.122C104.892,29.97 91.285,26.381 100.471,44.791C101.453,46.332 100.995,48.407 99.455,49.391C99.204,49.552 98.932,49.678 98.646,49.765C94.118,50.965 92.69,47.344 91.323,43.786C86.566,31.415 77.433,35.073 69.277,37.295C62.992,39.005 64.207,47.237 66.612,48.595C75.905,53.872 80.899,72.565 96.294,60.874L96.286,60.866C97.508,59.942 99.906,60.706 101.886,60.675C102.268,67.575 93.967,67.28 93.86,73.122C97.26,76.451 104.86,71.014 105.643,78.712C106.254,84.859 97.808,80.98 96.235,85.745C113.225,98.971 113.287,98.978 117.616,77.796C119.479,68.671 121.182,59.553 128.416,52.307C131.791,55.766 130.165,62.646 136.129,63.059L136.132,63.049Z" style="fill:white;fill-rule:nonzero;"/>
                                    </g>
                                    <g id="Path_7459" transform="matrix(1,0,0,1,241.2,337.792)">
                                        <path d="M104.576,61.929C88.586,60.7 71.993,57.508 59.477,72.1C57.82,74.032 56.812,73.742 55.102,71.535C45.862,59.653 41.449,67.343 37.18,76.353C41.418,80.706 48.168,72.367 49.848,81.087C50.528,84.63 57.064,96.573 59.378,97.024C81.11,101.216 96.52,90.747 109.402,74.261C114.992,67.098 113.396,62.608 104.576,61.929" style="fill:white;fill-rule:nonzero;"/>
                                    </g>
                                    <g id="Path_7460" transform="matrix(1,0,0,1,674.884,100.273)">
                                        <path d="M125.112,76.289C109.443,87.484 110.912,107.964 103.021,123.419C100.944,127.466 105.921,132.43 109.821,134.468L109.813,134.46C118.999,139.26 128.674,141.027 138.762,137.56C144.772,135.491 146.536,132.092 140.87,128.152C127.239,118.652 131.355,107.718 135.807,95.393C138.861,86.925 145.49,81.106 148.262,72.744C166.584,56.5 190.149,47.058 206.04,24.967C158.848,37.506 146.5,45.432 125.112,76.289" style="fill:white;fill-rule:nonzero;"/>
                                    </g>
                                    <g id="Path_7461" transform="matrix(1,0,0,1,1237.22,394.294)">
                                        <path d="M200.785,158.1C196.837,150.3 201.373,150.632 207.085,152.564C215.599,155.443 219.967,153.58 218.432,151.373C211.056,140.744 220.952,144.473 224.304,142.805C226.06,145.505 228.504,154.205 230.672,147.753C234.772,135.535 242.249,132.753 252.42,131.045C254.863,130.633 258.628,127.204 258.643,125.074C258.727,106.747 265.768,87.558 250.503,69.274C247.342,93.794 236.956,113.922 222.165,131.574C213.658,130.421 208.832,137.416 202.838,141.374C182.9,154.492 182.856,156 198.464,177.2C200.064,170.419 204.68,165.807 200.785,158.1" style="fill:white;fill-rule:nonzero;"/>
                                    </g>
                                    <g id="Path_7465" transform="matrix(1,0,0,1,353.534,428.954)">
                                        <path d="M105.922,116.976C103.907,110.023 99.125,104.192 92.7,100.856C81.715,95.365 76.118,87.416 81.1,74.5C73.013,76.05 64.919,77.595 56.817,79.135C47.875,88.428 63.995,81.067 62.834,88.512L62.834,88.5C62.2,92.463 66.728,104.307 78.542,101.81C83.17,100.825 85.995,118.327 81.092,119.083C67.454,121.198 83.238,134.103 74.51,137.119C79.97,141.426 85.422,139.585 90.874,137.47C89.545,145.648 77.574,144.648 77.686,154.949C88.109,152.276 95.639,142.64 106.612,143.149C120.655,143.806 115.653,131.435 117.173,124.822C119.349,115.292 109.59,119.996 105.917,116.972" style="fill:white;fill-rule:nonzero;"/>
                                    </g>
                                    <g id="Path_7466" transform="matrix(1,0,0,1,70.71,557.05)">
                                        <path d="M25.005,94.167L25,94.167C23.671,94.88 22.609,96.006 21.976,97.374C18.708,103.139 14.867,108.706 12.606,114.914C10.033,122 11.575,127.452 20.792,126.108C31.199,124.735 41.73,124.568 52.176,125.608C61.176,126.417 59.843,123.722 59.568,120.179C57.147,107.473 33.956,91.139 25.007,94.17" style="fill:white;fill-rule:nonzero;"/>
                                    </g>
                                    <g id="Path_7468" transform="matrix(1,0,0,1,466.536,108.517)">
                                        <path d="M114.227,28.369C108.172,25.669 100.658,24.184 95.839,32.134C93.182,36.494 89.829,37.884 84.675,35.219C69.937,27.598 71.875,39.465 71.136,48.055C73.564,44.183 79.299,45.825 79.742,46.655L79.742,46.663C85.5,57.606 95.961,49.663 103.727,53.841C108.08,56.178 116.827,51.993 117.869,43.784C118.533,38.53 120.076,30.993 114.227,28.367" style="fill:white;fill-rule:nonzero;"/>
                                    </g>
                                    <g id="Path_7469" transform="matrix(1,0,0,1,466.357,127.501)">
                                        <path d="M71.308,29.07C71.235,29.154 71.168,29.243 71.108,29.337L71.284,29.452C71.285,29.324 71.292,29.197 71.307,29.07" style="fill:white;fill-rule:nonzero;"/>
                                    </g>
                                    <g id="Path_7470" transform="matrix(1,0,0,1,335.856,453.086)">
                                        <path d="M76.24,78.724C64.694,75.242 62.74,88.086 55.592,92.255C51.942,94.393 49.399,99.395 53.692,102.228L53.7,102.236C59.526,106.085 56.556,109.964 55.937,114.049C55.609,116.195 51.821,117.966 55.037,120.418C57.106,122.006 59.512,121.403 62.062,120.502C78.662,114.668 84.123,103.466 79.61,81.718C79.06,81.218 77.854,79.206 76.242,78.725" style="fill:white;fill-rule:nonzero;"/>
                                    </g>
                                    <g id="Path_7471" transform="matrix(1,0,0,1,1282.31,357.443)">
                                        <path d="M197.7,102.084C204.8,105.597 199.907,96.617 202.251,95.184C204.727,93.521 207.739,92.843 210.689,93.284C222.976,96.797 225.689,84.075 232.536,79.004C236.255,76.263 231.2,69.004 226.648,70.398L226.648,70.4C218.012,73.019 212.407,67.9 205.695,63.718C201.159,72.53 207.665,83.244 196.895,88.418C193.489,90.044 192.489,99.498 197.705,102.087" style="fill:white;fill-rule:nonzero;"/>
                                    </g>
                                    <g id="Path_7473" transform="matrix(1,0,0,1,1202.26,598.029)">
                                        <path d="M194.016,140.278C200.499,145.112 208.257,138.461 216.863,146.769C214.733,141.042 214.595,138.942 213.61,138.293C199.91,129.237 199.33,128.404 196.673,111.628C196.345,109.559 195.848,107.528 195.505,105.473C194.917,101.892 193.077,99.723 189.495,99.998C186.395,100.089 183.68,102.153 182.76,105.114C179.675,114.125 186.509,134.681 194.016,140.278" style="fill:white;fill-rule:nonzero;"/>
                                    </g>
                                    <g id="Path_7474" transform="matrix(1,0,0,1,952.274,14.575)">
                                        <path d="M177.946,27.523C183.918,23.636 182.932,21.903 178.106,17.947C163.292,5.828 151.349,12.266 144.331,38.458C156.4,33.495 168,33.984 177.946,27.523" style="fill:white;fill-rule:nonzero;"/>
                                    </g>
                                    <g id="Path_7475" transform="matrix(1,0,0,1,893.11,-8.571)">
                                        <path d="M197.464,32.205C184.872,32.579 182.215,21.438 175.564,14.005C165.843,3.185 153.412,9.087 145.264,26.482C139.575,28.277 135.864,31.972 135.429,38.455C135.215,41.609 138.129,44.144 139.881,43.678C153.748,39.978 165.828,53.101 179.596,48.878C184.491,48.091 189.396,47.397 194.265,46.473C197.037,45.946 201.065,46.073 200.824,41.991C200.624,38.532 198.503,32.171 197.464,32.201" style="fill:white;fill-rule:nonzero;"/>
                                    </g>
                                    <g id="Path_7476" transform="matrix(1,0,0,1,1232.32,660.429)">
                                        <path d="M187.135,130.8L186.535,131.167L186.935,131.037C190.692,127.272 193.074,130.337 195.403,133.183C198.778,137.329 203.703,138.872 207.323,136.138C212.107,132.901 214.12,126.797 212.2,121.35C210.749,116.829 209.764,112.286 205.916,109.377L205.916,109.385C200.326,113.234 199.288,123.428 189.155,121.328C187.345,120.954 185.635,126.928 187.139,130.797" style="fill:white;fill-rule:nonzero;"/>
                                    </g>
                                    <g id="Path_7478" transform="matrix(1,0,0,1,617.858,55.486)">
                                        <path d="M102.417,22.853C98.767,23.96 94.376,24.686 93.941,29.853C93.857,30.846 95.904,32.174 97.049,33.228C101.081,36.97 107.877,35.114 108.618,33.175L108.626,33.167C111.581,25.467 119.882,25.745 124.975,18.689C115.827,16.864 109.26,20.758 102.418,22.851" style="fill:white;fill-rule:nonzero;"/>
                                    </g>
                                    <g id="Path_7479" transform="matrix(1,0,0,1,485.542,157.331)">
                                        <path d="M74.176,33.573L74,33.84C74.259,33.897 74.522,33.936 74.786,33.955C74.595,33.818 74.386,33.688 74.186,33.566L74.176,33.573Z" style="fill:white;fill-rule:nonzero;"/>
                                    </g>
                                    <g id="Path_7480" transform="matrix(1,0,0,1,486.226,154.275)">
                                        <path d="M95.431,41.431C93.552,37.094 90.597,31.924 84.236,33.344C80.716,34.13 78.036,37.567 74.103,37.025C76.722,38.774 76.844,41.645 77.073,44.625L77.065,44.617C77.865,55.208 89.176,42.471 90.718,51.566C93.838,50.476 95.94,47.515 95.94,44.211C95.94,43.33 95.791,42.455 95.498,41.624L95.429,41.433" style="fill:white;fill-rule:nonzero;"/>
                                    </g>
                                    <g id="Path_7481" transform="matrix(1,0,0,1,355.577,415.404)">
                                        <path d="M79.077,88.038C82.109,80.913 78.122,81.784 73.625,82.425L73.617,82.425C70.891,82.807 66.806,86.434 65.759,79.974C65.339,77.34 70.459,72.681 63.903,72.46C59.192,72.287 55.095,75.823 54.579,80.509C54.303,84.562 54.374,88.632 54.793,92.673L79.077,88.038Z" style="fill:white;fill-rule:nonzero;"/>
                                    </g>
                                    <g id="Path_7485" transform="matrix(1,0,0,1,1128.99,602.358)">
                                        <path d="M181.021,101.151C177.157,103.633 171.346,104.709 170.972,110.773C170.781,114.079 173.408,116.141 177.249,116.195C181.426,113.712 184.386,109.598 185.412,104.848C185.969,101.534 183.365,99.648 181.021,101.148" style="fill:white;fill-rule:nonzero;"/>
                                    </g>
                                    <g id="Path_7486" transform="matrix(1,0,0,1,508.138,579.555)">
                                        <path d="M91.975,108.865L91.983,108.865C93.768,107.77 94.859,105.82 94.859,103.726C94.859,102.613 94.551,101.521 93.968,100.572C93.743,100.206 93.479,99.865 93.181,99.556C87.927,94.402 82.781,98.777 77.405,102.198C82.132,105.367 84.766,113.606 91.975,108.864" style="fill:white;fill-rule:nonzero;"/>
                                    </g>
                                    <g id="Path_7489" transform="matrix(1,0,0,1,695.298,39.534)">
                                        <path d="M117.206,15.843C112.113,16.643 106.615,18.729 105.645,24.625C105.145,27.634 109.745,29.031 112.51,28.512C117.303,27.87 121.531,25.027 123.934,20.83C123.301,17.707 120.379,15.542 117.207,15.844" style="fill:white;fill-rule:nonzero;"/>
                                    </g>
                                    <g id="Path_7490" transform="matrix(1,0,0,1,1192.68,551.815)">
                                        <path d="M187.936,116.262C189.288,108.122 192.564,100.99 185.386,93.01C178.208,101.685 179.017,108.81 187.936,116.262" style="fill:white;fill-rule:nonzero;"/>
                                    </g>
                                    <g id="Path_7491" transform="matrix(1,0,0,1,665.079,30.56)">
                                        <path d="M121.218,32.1C118.584,29.664 115.773,31.252 113.024,31.5C114.131,26.88 118.537,28.308 121.317,26.766C125.525,24.429 126.876,20.566 124.623,16.854C121.591,11.883 118.14,15.877 115.423,17.969C110.674,21.626 107.656,27.101 107.1,33.069C104.2,34.321 100.556,34.856 101.113,39.651C113.438,40.102 113.438,40.102 121.219,32.106" style="fill:white;fill-rule:nonzero;"/>
                                    </g>
                                    <g id="Path_7492" transform="matrix(1,0,0,1,475.183,565.751)">
                                        <path d="M77.952,111.139C82.022,110.719 82.259,106.339 81.752,102.625C81.263,99.089 80.889,94.897 76.178,95.119C70.478,95.386 73.024,100.037 72.894,103.282C74.394,106.092 73.108,111.644 77.949,111.14" style="fill:white;fill-rule:nonzero;"/>
                                    </g>
                                </g>
                            </g>
                        </g>
                    </g>
                </g>
            </g>
            <g id="Group_2530" transform="matrix(1,0,0,1,693.104,369.601)">
                <g id="Group_2529">
                    <g id="Group_2504">
                        <g id="Group_2503">
                            <path id="Path_8532" d="M161.854,42.121C156.947,42.121 152.91,46.159 152.91,51.066C152.91,55.972 156.947,60.01 161.854,60.01L387.2,60.01L387.2,42.121L161.854,42.121Z" style="fill:rgb(220,225,244);fill-rule:nonzero;"/>
                            <path id="Path_8533" d="M161.908,41.553C158.132,41.592 154.69,43.778 153.05,47.18C151.422,50.724 152.147,54.927 154.869,57.72C156.924,59.689 159.704,60.724 162.547,60.578L376.693,60.578C380.029,60.578 383.373,60.644 386.708,60.578L387.14,60.578C387.44,60.578 387.931,60.319 387.931,59.966L387.931,42.077C387.931,41.694 387.585,41.553 387.249,41.553L171.038,41.553C168.122,41.553 165.195,41.48 162.28,41.553L161.908,41.553C161.054,41.553 160.819,42.689 161.799,42.689L383.765,42.689C384.764,42.744 385.766,42.744 386.765,42.689C386.889,42.681 387.013,42.681 387.137,42.689L386.455,42.166L386.455,60.055L387.246,59.443L165.488,59.443C164.415,59.443 163.342,59.45 162.269,59.443C162.24,59.443 162.212,59.443 162.183,59.443C157.501,59.443 153.649,55.591 153.649,50.909C153.649,50.713 153.656,50.518 153.669,50.322C153.996,46.082 157.543,42.75 161.795,42.689C162.647,42.673 162.886,41.535 161.904,41.553" style="fill:rgb(1,23,33);fill-rule:nonzero;"/>
                            <path id="Path_8534" d="M192.6,144.925C190.068,147.244 187.655,149.689 185.368,152.25C185.208,152.43 185.907,152.365 185.94,152.359C186.257,152.326 186.556,152.193 186.794,151.981C189.043,149.467 191.416,147.067 193.905,144.79C194.14,144.575 193.693,144.576 193.572,144.59C193.222,144.606 192.885,144.723 192.6,144.927" style="fill:rgb(22,53,86);fill-rule:nonzero;"/>
                            <path id="Path_8535" d="M249.634,119.431C235.711,119.173 221.56,123.893 210.083,131.669C209.27,132.22 210.483,132.59 211.017,132.229C222.056,124.749 235.704,120.135 249.105,120.383C249.738,120.394 250.612,119.449 249.634,119.431" style="fill:rgb(22,53,86);fill-rule:nonzero;"/>
                            <path id="Path_8536" d="M295.148,157.279C290.941,142.638 281.032,130.037 267.187,123.439C266.787,123.249 265.458,123.839 266.026,124.112C279.746,130.65 289.533,143.167 293.699,157.667C293.834,158.136 295.282,157.744 295.148,157.279" style="fill:rgb(22,53,86);fill-rule:nonzero;"/>
                            <path id="Path_8537" d="M4.826,229.316C-3.95,251.452 0.926,275.585 6.232,297.916C7.631,304.386 9.607,310.718 12.137,316.836C12.299,317.206 13.71,316.736 13.586,316.447C11.315,311.046 9.517,305.459 8.212,299.747C6.864,294.214 5.579,288.661 4.471,283.074C2.23,271.774 0.736,260.183 1.723,248.655C2.271,241.941 3.799,235.343 6.258,229.071C6.369,228.791 4.979,228.929 4.826,229.316" style="fill:rgb(22,53,86);fill-rule:nonzero;"/>
                            <path id="Path_8538" d="M185.479,151.91C181.052,156.454 177.048,161.391 173.515,166.66C170.19,171.632 167.315,177.203 162.467,180.91C153.62,187.681 141.635,185.222 131.604,183.152C107.04,178.086 81.349,168.296 56.143,175.109C43.537,178.516 32.318,185.93 23.49,195.462C22.874,196.128 24.262,196.353 24.7,195.88C32.735,186.994 42.965,180.373 54.361,176.68C67.109,172.747 80.575,173.456 93.554,175.77C106.186,178.023 118.537,181.603 131.099,184.193C140.752,186.184 151.838,188.38 160.917,183.214C166.468,180.056 169.878,174.637 173.225,169.392C177.123,163.262 181.634,157.544 186.689,152.327C187.319,151.679 185.926,151.449 185.479,151.909" style="fill:rgb(22,53,86);fill-rule:nonzero;"/>
                            <g id="Group_2497" opacity="0.72">
                                <g id="Group_2496">
                                    <g id="Group_2495">
                                        <clipPath id="_clip5">
                                            <rect x="17.428" y="162.613" width="438.063" height="195.236"/>
                                        </clipPath>
                                        <g clip-path="url(#_clip5)">
                                            <path id="Path_8539" d="M22.085,357.828C22.085,357.828 -9.876,223.908 93.656,175.891C156.234,146.869 230.763,166.809 271.905,222.176C315.039,280.221 386.614,359.324 455.491,357.828L22.085,357.828Z" style="fill:rgb(172,186,247);fill-rule:nonzero;"/>
                                        </g>
                                    </g>
                                </g>
                            </g>
                            <g id="Group_2502" opacity="0.47">
                                <g id="Group_2501">
                                    <g id="Group_2500">
                                        <g id="Group_2499">
                                            <g id="Group_2498">
                                                <clipPath id="_clip6">
                                                    <path d="M148.876,306.8L58.014,332.321L112.563,357.827L380.163,357.827L148.888,306.8L148.876,306.8Z"/>
                                                </clipPath>
                                                <g clip-path="url(#_clip6)">
                                                    <g id="Rectangle_4041" transform="matrix(1,0,0,1,58.014,306.804)">
                                                        <rect x="0" y="0" width="322.15" height="51.023" style="fill:url(#_Linear7);"/>
                                                    </g>
                                                </g>
                                            </g>
                                        </g>
                                    </g>
                                </g>
                            </g>
                            <path id="Path_8541" d="M250.764,329.289C263.7,329.789 275.648,335.477 288.209,337.989C291.586,338.664 295.001,338.958 298.404,339.453C301.737,339.937 305.051,340.553 308.346,341.247C315.188,342.695 321.946,344.515 328.699,346.31C336.124,348.283 343.563,350.21 351.107,351.676C351.47,351.747 351.837,351.234 351.355,351.14C337.761,348.498 324.555,344.277 311.055,341.246C307.701,340.494 304.329,339.819 300.936,339.268C297.598,338.725 294.222,338.455 290.888,337.899C284.253,336.792 277.839,334.738 271.406,332.821C264.749,330.838 257.994,329.021 251.016,328.753C250.659,328.739 250.28,329.27 250.768,329.289" style="fill:rgb(1,23,33);fill-rule:nonzero;"/>
                            <path id="Path_8542" d="M124.929,199.41C124.76,199.421 124.5,199.544 124.529,199.751C124.585,200.403 124.729,201.045 124.959,201.658C125.084,201.946 125.752,201.783 125.683,201.458C125.546,200.821 125.408,200.185 125.254,199.552C125.179,199.243 124.469,199.431 124.529,199.746C129.503,225.646 135.939,251.229 142.401,276.791C143.247,280.139 144.092,283.487 144.937,286.835C145.321,288.362 145.705,289.889 146.088,291.416C146.507,293.257 146.689,295.144 146.63,297.031C146.582,297.864 146.582,298.698 146.63,299.531C146.756,300.113 146.942,300.681 147.184,301.225C147.588,302.436 148.075,303.618 148.641,304.763C149.136,305.865 149.84,306.861 150.713,307.696C151.965,308.568 153.38,309.18 154.873,309.496C160.827,311.102 166.964,311.855 173.029,312.953C179.492,314.123 185.929,315.407 192.363,316.753C206.599,319.728 220.774,322.988 235.019,325.924C235.303,325.982 235.875,325.555 235.445,325.466C222.9,322.881 210.408,320.045 197.882,317.372C191.689,316.05 185.482,314.772 179.267,313.581C173.067,312.395 166.797,311.549 160.61,310.331C159.175,310.048 157.748,309.631 156.322,309.294C154.686,308.999 153.115,308.412 151.686,307.563C150.469,306.561 149.537,305.256 148.986,303.779C148.376,302.503 147.878,301.176 147.498,299.813C147.076,298.167 147.365,296.159 147.365,294.467C147.266,292.954 146.98,291.459 146.513,290.017C145.709,286.817 144.903,283.617 144.094,280.417C140.894,267.768 137.683,255.124 134.635,242.438C131.216,228.21 128.017,213.929 125.258,199.558L124.533,199.752C124.688,200.385 124.825,201.021 124.963,201.659L125.687,201.459C125.458,200.846 125.313,200.205 125.258,199.553L124.858,199.894" style="fill:rgb(1,23,33);fill-rule:nonzero;"/>
                            <path id="Path_8544" d="M88.465,85.111L105.817,85.12L97.142,88.473L88.465,85.111Z" style="fill:rgb(128,138,219);fill-rule:nonzero;"/>
                            <path id="Path_8545" d="M148.883,306.8L124.889,199.657C135.92,184.589 142.838,162.583 142.238,140.011C141.271,103.604 121.126,79.527 97.238,86.233C73.35,92.939 54.789,127.888 55.754,164.295C56.354,186.867 64.335,204.695 75.994,213.385L58.013,332.323L148.883,306.8Z" style="fill:white;fill-rule:nonzero;"/>
                            <path id="Path_8546" d="M150.332,306.416C149.532,302.846 148.732,299.276 147.932,295.706L142.232,270.239L135.28,239.2C133.284,230.289 131.288,221.378 129.293,212.467L127.313,203.625L126.701,200.894C126.643,200.405 126.535,199.924 126.38,199.457C126.36,199.397 126.346,199.334 126.338,199.271C126.26,199.544 126.181,199.817 126.103,200.09C139.516,181.666 145.103,157.651 143.465,135.106C142.881,125.039 140.337,115.182 135.976,106.09C132.461,99.046 127.376,92.482 120.576,88.358C114.28,84.544 106.781,83.213 99.557,84.629C91.373,86.188 84.129,90.921 78.292,96.717C71.576,103.63 66.242,111.763 62.579,120.678C58.285,130.769 55.614,141.475 54.664,152.4C53.557,163.629 54.459,174.965 57.329,185.877C59.794,194.824 63.939,203.677 70.502,210.368C71.862,211.759 73.325,213.047 74.878,214.219C74.761,213.976 74.643,213.733 74.526,213.489C73.926,217.435 73.329,221.381 72.736,225.326C71.304,234.8 69.871,244.274 68.436,253.749C66.703,265.209 64.969,276.669 63.236,288.128L58.745,317.833L57.275,327.557C56.957,329.098 56.723,330.655 56.575,332.221C56.569,332.29 56.558,332.359 56.544,332.427C56.406,333.34 57.694,333.48 58.279,333.316L67.288,330.786L89.047,324.675L115.26,317.314L137.93,310.948C141.61,309.914 145.33,308.974 148.986,307.843C149.04,307.826 149.095,307.812 149.149,307.797C150.928,307.297 150.406,305.297 148.615,305.802L139.606,308.332L117.847,314.442L91.634,321.803L68.965,328.17L61.454,330.279C60.249,330.524 59.064,330.858 57.908,331.279C57.855,331.298 57.8,331.313 57.745,331.325L59.48,332.213C60.08,328.268 60.677,324.323 61.27,320.376C62.702,310.902 64.135,301.428 65.57,291.953C67.303,280.494 69.037,269.034 70.77,257.574L75.261,227.874L76.731,218.149C76.962,216.623 77.359,215.029 77.436,213.485C77.436,213.417 77.457,213.347 77.467,213.279C77.49,212.991 77.355,212.711 77.115,212.55C63.341,202.191 58.2,183.244 57.332,166.822C56.332,147.885 60.468,128.239 69.977,111.752C77.051,99.474 88.814,86.788 103.965,86.2C117.901,85.658 128.445,96.838 133.909,108.589C141.984,125.956 142.409,146.634 138.419,165.099C136.37,174.834 132.806,184.188 127.858,192.819C126.698,194.811 125.458,196.752 124.112,198.626C123.741,199.144 123.39,199.526 123.468,200.171C123.531,200.693 123.704,201.224 123.818,201.737C125.351,208.569 126.882,215.402 128.409,222.237L135.819,255.33L143.085,287.775C144.47,293.957 145.854,300.139 147.238,306.322C147.304,306.613 147.369,306.905 147.438,307.196C147.738,308.541 150.638,307.786 150.338,306.42" style="fill:rgb(1,23,33);fill-rule:nonzero;"/>
                        </g>
                    </g>
                    <g id="Group_2506">
                        <g id="Group_2505">
                            <clipPath id="_clip8">
                                <path d="M80.529,86.232C56.652,92.939 38.076,127.889 39.046,164.3C39.646,186.872 47.623,204.7 59.287,213.39L41.821,328.895L58.013,332.322L75.994,213.386C64.33,204.692 56.354,186.867 55.754,164.296C54.794,128.189 73.06,93.531 96.654,86.419C91.418,84.751 85.802,84.686 80.529,86.232"/>
                            </clipPath>
                            <g clip-path="url(#_clip8)">
                                <g id="Rectangle_4044" transform="matrix(1,0,0,1,38.076,85.118)">
                                    <rect x="0" y="0" width="58.578" height="247.204" style="fill:url(#_Linear9);"/>
                                </g>
                            </g>
                        </g>
                    </g>
                    <g id="Group_2508">
                        <g id="Group_2507">
                            <path id="Path_8548" d="M80.432,85.854C69.312,89.029 60.47,96.971 53.969,106.311C46.087,117.635 41.278,131.035 39.011,144.586C36.561,159.229 36.956,174.765 41.542,188.964C43.414,195 46.264,200.688 49.98,205.8C51.603,207.99 53.438,210.014 55.459,211.844C55.926,212.265 56.405,212.673 56.897,213.068C57.087,213.221 57.761,213.578 57.836,213.78C57.856,213.832 57.798,213.917 57.807,213.972C57.801,214.357 57.743,214.739 57.636,215.109L57.323,217.177C56.994,219.351 56.665,221.525 56.337,223.699L53.232,244.232C51.918,252.918 50.605,261.604 49.292,270.29C47.966,279.057 46.64,287.823 45.315,296.59C44.244,303.678 43.172,310.765 42.1,317.85L40.447,328.783C40.421,328.95 40.396,329.117 40.371,329.283C40.422,329.371 40.518,329.424 40.62,329.421L56.812,332.848C57.371,332.967 59.352,332.648 59.461,331.933C60.057,327.988 60.653,324.043 61.25,320.097C62.682,310.623 64.115,301.149 65.55,291.674C67.283,280.215 69.017,268.756 70.75,257.296L75.241,227.596L76.711,217.871L77.176,214.797C77.321,214.279 77.402,213.746 77.416,213.208C77.418,213.138 77.429,213.068 77.448,213.001L77.369,212.914C70.5,207.749 65.769,200.242 62.637,192.334C58.879,182.389 57.025,171.826 57.172,161.196C57.172,140.896 62.923,119.542 75.372,103.257C80.942,95.97 88.224,89.416 97.143,86.685C97.199,86.668 98.459,86.085 98.03,85.947C92.299,84.2 86.179,84.169 80.43,85.856C80.2,85.922 78.977,86.23 79.083,86.624C79.189,87.018 80.466,86.663 80.633,86.615C85.441,85.284 90.534,85.382 95.287,86.898L96.174,86.16C84.922,89.6 76.065,98.147 69.7,107.772C61.861,119.616 57.213,133.532 55.271,147.547C53.222,162.342 54.046,178.027 59.347,192.094C61.459,197.925 64.569,203.345 68.538,208.111C69.414,209.132 70.338,210.111 71.307,211.045C71.801,211.519 72.308,211.979 72.829,212.424C73.401,212.781 73.928,213.206 74.399,213.69C74.55,213.926 74.524,213.938 74.47,214.297C73.915,217.964 73.36,221.632 72.806,225.302C71.729,232.428 70.651,239.554 69.574,246.679C68.229,255.575 66.884,264.471 65.54,273.366L61.526,299.918C60.45,307.032 59.374,314.146 58.299,321.26C57.748,324.901 57.03,328.56 56.641,332.224C56.624,332.387 56.592,332.549 56.568,332.711L59.217,331.796L45.031,328.796C44.582,328.696 43.405,328.68 43.044,328.376C43.394,328.676 43.203,328.461 43.308,328.286C43.501,327.656 43.6,327.002 43.601,326.343L47.147,302.893C49.003,290.617 50.859,278.341 52.716,266.064C54.483,254.377 56.249,242.69 58.016,231.003C58.616,227.01 59.22,223.017 59.827,219.024C60.017,217.764 60.208,216.504 60.399,215.243C60.573,214.592 60.674,213.924 60.699,213.251C60.702,213.166 60.715,213.083 60.737,213.001L60.658,212.914C53.742,207.714 48.986,200.138 45.858,192.168C42.126,182.207 40.294,171.633 40.458,160.997C40.494,140.655 46.306,119.252 58.858,102.986C64.395,95.809 71.745,89.155 80.638,86.616C80.869,86.55 82.091,86.242 81.986,85.848C81.881,85.454 80.602,85.809 80.435,85.857" style="fill:rgb(1,23,33);fill-rule:nonzero;"/>
                        </g>
                    </g>
                    <g id="Group_2510">
                        <g id="Group_2509">
                            <clipPath id="_clip10">
                                <path d="M105.011,85.111C102.383,85.133 99.77,85.51 97.243,86.231C96.889,86.331 96.543,86.455 96.191,86.568C112.164,92.031 123.852,112.493 124.584,140.008C125.184,162.58 118.284,183.041 107.251,198.108L131.228,306.808L58.795,327.148L58.013,332.322L58.028,332.322L148.882,306.808L124.89,199.656C135.921,184.588 142.839,162.582 142.238,140.01C141.383,107.825 125.538,85.27 105.373,85.11L105.011,85.111Z"/>
                            </clipPath>
                            <g clip-path="url(#_clip10)">
                                <g id="Rectangle_4046" transform="matrix(1,0,0,1,58.013,85.111)">
                                    <rect x="0" y="0" width="90.869" height="247.212" style="fill:url(#_Linear11);"/>
                                </g>
                            </g>
                        </g>
                    </g>
                    <g id="Group_2512">
                        <g id="Group_2511">
                            <clipPath id="_clip12">
                                <path d="M107.25,198.114L131.227,306.8L148.882,306.8L124.89,199.655L107.25,198.114Z"/>
                            </clipPath>
                            <g clip-path="url(#_clip12)">
                                <g id="Rectangle_4047" transform="matrix(1,0,0,1,107.25,198.114)">
                                    <rect x="0" y="0" width="41.632" height="108.691" style="fill:url(#_Linear13);"/>
                                </g>
                            </g>
                        </g>
                    </g>
                    <g id="Group_2514">
                        <g id="Group_2513">
                            <clipPath id="_clip14">
                                <path d="M59.285,213.387L41.822,328.895L58.012,332.322L75.994,213.387L59.285,213.387Z"/>
                            </clipPath>
                            <g clip-path="url(#_clip14)">
                                <g id="Rectangle_4048" transform="matrix(1,0,0,1,41.822,213.387)">
                                    <rect x="0" y="0" width="34.172" height="118.935" style="fill:url(#_Linear15);"/>
                                </g>
                            </g>
                        </g>
                    </g>
                    <g id="Group_2516">
                        <g id="Group_2515">
                            <path id="Path_8552" d="M175.992,60.01L175.992,94.923C175.994,96.505 177.296,97.807 178.878,97.808L199.078,97.808C200.661,97.808 201.963,96.506 201.963,94.923L201.963,80.447C201.963,77.993 203.982,75.974 206.436,75.974C208.89,75.974 210.909,77.993 210.909,80.447L210.909,94.922C210.938,96.485 212.232,97.754 213.794,97.754C215.357,97.754 216.651,96.485 216.68,94.922L216.68,60.009L175.992,60.01Z" style="fill:rgb(220,225,244);fill-rule:nonzero;"/>
                            <path id="Path_8553" d="M175.267,60.2L175.267,90.479C175.267,91.972 175.216,93.479 175.267,94.969C175.348,97.336 177.202,98.119 179.253,98.119L196.253,98.119C198.128,98.119 200.331,98.382 201.779,96.919C203.227,95.456 202.69,92.394 202.69,90.525L202.69,81.542C202.605,80.571 202.71,79.592 203,78.661C203.535,77.047 205.203,76.071 206.872,76.393C208.169,76.711 209.248,77.611 209.793,78.83C210.131,79.752 210.264,80.736 210.182,81.714L210.182,94.366C210.067,95.399 210.406,96.433 211.109,97.199C212.543,98.336 214.582,98.354 216.036,97.242C217.562,96.153 217.402,94.542 217.402,92.914L217.402,59.814C217.402,59.725 217.183,59.697 217.143,59.697L176.457,59.697C176.094,59.664 175.731,59.762 175.433,59.972C175.295,60.133 175.165,60.319 175.526,60.319L213.245,60.319C214.083,60.319 214.938,60.366 215.775,60.319C215.918,60.295 216.063,60.295 216.206,60.319C215.796,60.138 216.027,60.248 215.955,60.531C215.858,61.4 215.858,62.276 215.955,63.145L215.955,90.994C215.955,92.658 216.622,97.103 214.219,97.368C211.995,97.612 211.633,95.218 211.633,93.585L211.633,82.376C211.749,81.161 211.66,79.935 211.368,78.75C209.496,73.58 201.402,75.473 201.238,80.664C201.138,83.84 201.238,87.035 201.238,90.212C201.238,92.261 202.104,97.3 199.08,97.497C195.815,97.71 192.466,97.497 189.195,97.497C186.008,97.497 182.811,97.575 179.625,97.497C176.611,97.424 176.716,94.787 176.716,92.607L176.716,59.816C176.716,59.551 175.267,59.765 175.267,60.204" style="fill:rgb(1,23,33);fill-rule:nonzero;"/>
                        </g>
                    </g>
                    <g id="Group_2518">
                        <g id="Group_2517">
                            <clipPath id="_clip16">
                                <path d="M152.906,51.066C152.906,55.973 156.943,60.01 161.85,60.01L387.194,60.01L387.194,51.066L152.906,51.066Z"/>
                            </clipPath>
                            <g clip-path="url(#_clip16)">
                                <g id="Rectangle_4050" transform="matrix(1,0,0,1,152.906,51.066)">
                                    <rect x="0" y="0" width="234.289" height="8.944" style="fill:rgb(220,225,244);"/>
                                </g>
                                <path id="Path_8554" d="M152.618,51.456L377.353,51.456C380.364,51.456 383.511,51.72 386.514,51.456C386.643,51.445 386.777,51.456 386.907,51.456L386.47,51.256L386.47,60.2L387.482,59.616L162.747,59.616C159.736,59.616 156.589,59.353 153.586,59.616C153.457,59.628 153.322,59.616 153.193,59.616L153.63,59.816L153.63,50.872C153.63,50.463 152.181,50.723 152.181,51.26L152.181,60.2C152.181,60.369 152.518,60.4 152.618,60.4L377.353,60.4C380.406,60.4 383.461,60.429 386.514,60.4L386.907,60.4C387.239,60.4 387.919,60.245 387.919,59.816L387.919,50.872C387.919,50.704 387.582,50.672 387.482,50.672L162.747,50.672C159.693,50.672 156.639,50.644 153.586,50.672L153.193,50.672C152.675,50.672 151.646,51.452 152.618,51.452" style="fill:rgb(1,23,33);fill-rule:nonzero;"/>
                            </g>
                        </g>
                    </g>
                    <g id="Group_2520">
                        <g id="Group_2519">
                            <g id="Rectangle_4051" transform="matrix(1,0,0,1,175.991,60.01)">
                                <rect x="0" y="0" width="40.683" height="3.772" style="fill:rgb(172,186,247);"/>
                            </g>
                            <path id="Path_8556" d="M175.686,60.335L216.369,60.335L215.95,60.205L215.95,63.977L216.979,63.458L176.3,63.458L176.719,63.588L176.719,59.816C176.719,59.524 175.271,59.747 175.271,60.205L175.271,63.977C175.271,64.125 175.619,64.107 175.69,64.107L216.373,64.107C216.635,64.107 217.402,63.952 217.402,63.588L217.402,59.816C217.402,59.669 217.054,59.686 216.983,59.686L176.3,59.686C175.865,59.686 174.729,60.335 175.69,60.335" style="fill:rgb(1,23,33);fill-rule:nonzero;"/>
                            <path id="Path_8557" d="M378.013,58.388C381.634,83.223 403.155,101.833 428.253,101.833C456.105,101.833 479.024,78.914 479.024,51.062C479.024,23.21 456.105,0.291 428.253,0.291C403.241,0.291 381.769,18.774 378.047,43.507M428.458,84.533C428.457,84.533 428.457,84.533 428.456,84.533C410.097,84.533 394.99,69.427 394.989,51.068C394.989,51.067 394.989,51.067 394.989,51.066C394.989,32.705 410.097,17.597 428.458,17.597C446.819,17.597 461.927,32.705 461.927,51.066C461.927,69.425 446.82,84.533 428.461,84.535" style="fill:rgb(220,225,244);fill-rule:nonzero;"/>
                            <path id="Path_8558" d="M377.289,58.583C380.499,79.077 395.759,95.732 415.894,100.718C435.663,105.346 456.423,98.201 469.156,82.387C475.434,74.444 479.218,64.816 480.027,54.724C480.793,44.509 478.438,34.298 473.277,25.449C462.907,7.912 443.116,-1.948 422.871,0.335C402.703,2.659 385.106,16.763 379.041,36.235C378.292,38.657 377.72,41.13 377.332,43.635C377.278,43.98 378.706,43.735 378.762,43.381C381.856,23.65 396.642,6.908 416.12,2.037C435.575,-2.829 456.591,4.948 468.57,20.925C474.34,28.638 477.81,37.829 478.579,47.43C480.039,67.337 469.606,86.329 452.021,95.773C443.056,100.529 432.844,102.418 422.771,101.184C402.832,98.598 386.177,84.516 380.313,65.284C379.624,62.962 379.097,60.594 378.738,58.198C378.693,57.905 377.232,58.212 377.289,58.586" style="fill:rgb(1,23,33);fill-rule:nonzero;"/>
                            <path id="Path_8559" d="M428.927,84.236C410.669,84.184 395.683,69.13 395.713,50.872C395.713,50.787 395.492,50.772 395.458,50.772C395.829,50.772 395.894,47.499 395.948,47.047C397.006,38.314 401.487,30.348 408.4,24.909C416.641,18.479 427.518,16.452 437.522,19.48C451.527,23.703 461.178,36.693 461.178,51.321C461.178,57.007 459.72,62.598 456.944,67.56C451.268,77.717 440.564,84.089 428.93,84.236C428.619,84.236 427.291,84.836 427.991,84.836C438.454,84.839 448.393,80.181 455.084,72.136C459.968,66.167 462.638,58.688 462.638,50.976C462.638,37.189 454.104,24.755 441.239,19.797C431.399,16.071 420.39,16.95 411.266,22.19C400.88,28.2 394.407,39.271 394.266,51.27C394.266,51.355 394.489,51.37 394.522,51.37C394.043,51.37 394.394,51.216 394.271,51.621C394.249,51.854 394.255,52.089 394.286,52.321C394.298,52.729 394.319,53.136 394.346,53.542C394.413,54.518 394.521,55.49 394.67,56.457C395.478,61.642 397.499,66.563 400.57,70.818C404.512,76.277 409.993,80.438 416.309,82.77C420.053,84.131 424.006,84.829 427.99,84.834C428.303,84.834 429.632,84.243 428.929,84.234" style="fill:rgb(1,23,33);fill-rule:nonzero;"/>
                        </g>
                    </g>
                    <g id="Group_2522">
                        <g id="Group_2521">
                            <clipPath id="_clip17">
                                <path d="M428.631,84.711C410.272,84.808 395.084,69.78 394.987,51.421L394.987,51.066L377.445,51.066C377.445,79.047 400.469,102.071 428.45,102.072L428.458,102.072C456.436,102.072 479.458,79.05 479.458,51.072L461.922,51.066C461.922,51.125 461.922,51.184 461.922,51.243C461.922,69.537 446.924,84.615 428.631,84.711"/>
                            </clipPath>
                            <g clip-path="url(#_clip17)">
                                <path id="Path_8560" d="M466.265,51.066L407.934,51.066C407.934,51.127 407.944,51.188 407.944,51.248" style="fill:none;fill-rule:nonzero;stroke:rgb(1,23,33);stroke-width:0.5px;"/>
                                <path id="Path_8561" d="M377.445,51.066L377.445,102.072L479.46,102.072L479.46,51.066L475.344,51.066" style="fill:none;fill-rule:nonzero;stroke:rgb(1,23,33);stroke-width:0.5px;"/>
                            </g>
                        </g>
                    </g>
                    <g id="Group_2524">
                        <g id="Group_2523">
                            <path id="Path_8563" d="M361.961,62.653C345.461,102.146 318.174,115.278 307.131,119.113C306.102,119.475 305.05,119.77 303.982,119.995C302.343,120.331 300.698,119.349 300.217,117.746C299.616,115.674 299.734,113.459 300.55,111.462C300.769,110.991 300.819,110.459 300.693,109.955C300.421,108.977 300.924,104.105 300.301,104.26C296.611,105.233 294.276,106.287 293.301,102.598C296.076,100.24 291.746,100.65 287.413,101.351C285.875,101.599 283.968,106.731 283.589,108.751C283.21,110.771 285.637,111.174 285.637,111.174L286.166,114.574C286.99,115.98 290.75,116.713 292.38,116.713L294.18,116.713C295.163,116.713 295.974,117.519 295.98,118.502L295.98,118.564C295.993,119.669 295.094,120.588 293.99,120.601C293.856,120.602 293.722,120.59 293.59,120.565C261.847,114.078 237.105,62.656 237.105,62.656L231.633,64.425C239.697,85.031 257.033,109.065 267.446,122.497C272.878,129.499 275.708,138.177 275.446,147.035C275.069,159.669 274.56,175.894 273.992,193.67C273.992,193.67 301.881,203.404 319.651,195.045C316.357,169.452 317.295,153.192 319.091,143.299C320.377,136.232 323.929,129.771 329.209,124.9C357.409,98.849 367.052,63.867 367.052,63.867L361.961,62.653Z" style="fill:white;fill-rule:nonzero;"/>
                            <path id="Path_8564" d="M361.268,62.571C354.444,78.831 344.39,93.871 330.638,105.071C326.125,108.764 321.242,111.981 316.068,114.671C314.14,115.667 312.173,116.579 310.168,117.408C309.355,117.742 308.536,118.062 307.709,118.361C305.879,119.024 303.125,120.383 301.552,118.631C300.494,117.451 300.466,115.356 300.643,113.878C300.794,112.622 301.587,111.402 301.482,110.137C301.343,108.483 301.442,106.837 301.345,105.176C301.321,104.762 301.34,104.152 300.972,103.87C300.361,103.403 299.162,104.037 298.54,104.203C297.674,104.532 296.748,104.676 295.822,104.625C294.722,104.425 294.307,103.366 294.03,102.398C293.948,102.572 293.867,102.747 293.785,102.921C294.274,102.486 295.243,101.694 294.808,100.931C294.426,100.262 293.274,100.28 292.629,100.273C291.047,100.299 289.47,100.457 287.915,100.747C287.008,100.837 286.182,101.316 285.655,102.06C284.321,103.962 283.398,106.122 282.944,108.4C282.544,110.192 283.67,111.379 285.391,111.693L284.917,111.362C284.967,112.511 285.145,113.652 285.446,114.762C286.081,116.27 288.691,116.749 290.08,117.009C290.833,117.15 291.596,117.226 292.362,117.236C293.162,117.246 294.294,116.994 294.894,117.662C295.297,118.153 295.37,118.84 295.078,119.404C294.618,120.267 293.718,120.018 292.966,119.841C292.005,119.616 291.054,119.347 290.115,119.041C282.502,116.588 275.777,111.876 269.884,106.562C258.801,96.568 249.972,84.036 242.538,71.162C241.327,69.064 240.158,66.943 239.029,64.798C238.721,64.209 238.418,63.618 238.119,63.024C237.964,62.715 237.908,62.601 237.834,62.448C237.665,62.148 237.296,62.019 236.977,62.148L231.5,63.925C231.254,64.005 230.773,64.27 230.908,64.614C237.499,81.365 247.654,96.734 258.144,111.268C260.375,114.36 262.649,117.42 264.964,120.449C267.784,123.874 270.127,127.665 271.928,131.72C273.75,136.199 274.7,140.985 274.728,145.82C274.745,150.182 274.486,154.561 274.352,158.92C273.996,170.52 273.631,182.12 273.258,193.72C273.248,193.919 273.38,194.1 273.573,194.151C277.106,195.336 280.712,196.292 284.368,197.013C291.849,198.71 299.541,199.283 307.191,198.713C311.605,198.364 315.927,197.264 319.971,195.46C320.227,195.365 320.39,195.112 320.371,194.84C318.665,182.656 317.974,170.351 318.304,158.052C318.667,148.726 319.471,138.867 324.822,130.912C326.73,128.262 328.921,125.827 331.356,123.651C333.658,121.444 335.87,119.148 337.993,116.763C341.97,112.284 345.645,107.546 348.993,102.579C354.442,94.517 359.113,85.956 362.942,77.01C364.851,72.724 366.469,68.314 367.785,63.81C367.837,63.623 367.636,63.419 367.47,63.379L362.379,62.165C361.758,62.017 360.667,62.931 361.542,63.139L366.633,64.353L366.318,63.922C365.224,67.643 363.912,71.296 362.389,74.863C358.811,83.572 354.437,91.933 349.324,99.84C346.013,104.969 342.36,109.869 338.391,114.508C336.335,116.908 334.19,119.226 331.957,121.461C329.512,123.682 327.202,126.047 325.038,128.543C321.5,133.086 319.156,138.445 318.221,144.127C317.605,147.822 317.193,151.548 316.985,155.288C316.185,168.608 317.238,182.022 318.928,195.233L319.328,194.614C312.173,197.928 303.962,198.29 296.218,197.647C290.03,197.108 283.909,195.975 277.938,194.262C276.754,193.927 275.57,193.581 274.408,193.177L274.723,193.608C275.056,183.113 275.387,172.618 275.716,162.121C275.854,157.67 275.99,153.219 276.123,148.768C276.361,144.221 275.889,139.664 274.723,135.262C273.449,130.789 271.378,126.582 268.611,122.844C266.405,119.87 264.111,116.964 261.911,113.982C256.639,106.831 251.581,99.516 246.87,91.982C241.19,83.194 236.331,73.902 232.352,64.224L231.76,64.913L237.232,63.144L236.375,62.844C240.768,71.761 245.954,80.264 251.87,88.252C256.824,95.201 262.486,101.618 268.764,107.4C274.926,112.957 282.027,117.861 290.048,120.26C291.892,120.812 294.448,121.86 296.014,120.202C297.664,118.458 296.221,116.222 294.089,116.179C291.94,116.136 289.7,116.129 287.757,115.047C286.91,114.576 286.857,114.156 286.72,113.272L286.363,110.979C286.33,110.763 286.063,110.679 285.89,110.648C284.995,110.534 284.317,109.764 284.317,108.862C284.317,108.67 284.348,108.478 284.409,108.295C284.756,106.823 285.276,105.397 285.959,104.048C286.232,103.339 286.639,102.689 287.159,102.135C287.867,101.734 288.673,101.537 289.486,101.565C290.486,101.405 291.497,101.328 292.509,101.337C293.497,101.378 293.609,101.572 292.825,102.268C292.678,102.4 292.518,102.573 292.581,102.792C293.019,104.321 293.84,105.557 295.534,105.703C296.244,105.736 296.955,105.663 297.644,105.488C298.139,105.382 298.627,105.247 299.116,105.114C299.298,105.065 299.789,105.023 299.927,104.892C300.21,104.86 300.158,104.775 299.772,104.64C299.793,104.7 299.809,104.761 299.819,104.824C299.737,104.988 299.887,105.524 299.894,105.733C299.908,106.156 299.899,106.581 299.894,107.004C299.883,107.812 299.841,108.626 299.894,109.433C299.908,109.676 299.951,109.909 299.975,110.149C299.987,110.898 299.836,111.642 299.533,112.327C299.153,113.601 299.029,114.937 299.171,116.259C299.405,118.438 300.479,120.379 302.863,120.575C304.655,120.722 306.563,119.875 308.224,119.268C310.162,118.56 312.066,117.769 313.937,116.894C326.143,111.031 336.883,102.512 345.37,91.961C352.511,83.103 358.335,73.259 362.66,62.735C362.98,61.973 361.524,61.978 361.275,62.571" style="fill:rgb(1,23,33);fill-rule:nonzero;"/>
                            <path id="Path_8565" d="M319.646,195.029L319.646,195.042C301.873,203.401 273.987,193.667 273.987,193.667C271.817,261.461 268.774,351.837 268.774,351.837L276.732,351.837C287.787,326.855 299.726,226.037 299.726,226.037C301.053,277.772 328.909,351.837 328.909,351.837L337.088,351.837C332.443,318.675 320.064,198.181 320.064,198.181C319.916,197.112 319.778,196.065 319.645,195.032" style="fill:rgb(1,23,33);fill-rule:nonzero;"/>
                            <path id="Path_8566" d="M297.644,125C297.644,125 294.197,158.825 256.833,161.921L251.969,169.66L259.929,171.87C259.929,171.87 299.762,163.026 297.645,125" style="fill:rgb(1,23,33);fill-rule:nonzero;"/>
                            <path id="Path_8567" d="M268.773,351.836L265.583,355.386C265.342,355.654 265.209,356.002 265.209,356.363C265.209,357.166 265.869,357.826 266.672,357.826C266.672,357.826 276.16,357.826 276.16,357.826C276.161,357.826 276.161,357.826 276.162,357.826C276.964,357.826 277.624,357.166 277.624,356.364C277.624,356.265 277.614,356.166 277.594,356.069L276.732,351.834L268.773,351.836Z" style="fill:rgb(1,23,33);fill-rule:nonzero;"/>
                            <path id="Path_8568" d="M328.908,351.836L326.962,355.706C326.859,355.911 326.805,356.137 326.805,356.366C326.805,357.17 327.466,357.831 328.27,357.831C328.27,357.831 339.063,357.831 339.063,357.831C339.064,357.831 339.065,357.831 339.065,357.831C339.868,357.831 340.528,357.171 340.528,356.368C340.528,356.016 340.401,355.676 340.171,355.41L337.089,351.838L328.908,351.836Z" style="fill:rgb(1,23,33);fill-rule:nonzero;"/>
                            <path id="Path_8569" d="M270.611,352.008L276.581,352.008C276.713,352.008 276.991,351.954 277.064,351.827C277.137,351.7 276.998,351.676 276.884,351.676L270.914,351.676C270.782,351.676 270.503,351.73 270.431,351.857C270.359,351.984 270.497,352.008 270.611,352.008" style="fill:rgb(172,186,247);fill-rule:nonzero;"/>
                            <path id="Path_8570" d="M288.441,259.611C284.734,279.351 280.952,299.08 276.569,318.683C276.507,318.962 277.237,318.852 277.294,318.596C281.677,298.996 285.46,279.264 289.166,259.524C289.22,259.239 288.489,259.355 288.441,259.611" style="fill:rgb(172,186,247);fill-rule:nonzero;"/>
                            <path id="Path_8571" d="M295.332,225.028C294.161,231.39 292.912,237.737 291.496,244.049C291.434,244.325 292.164,244.215 292.221,243.961C293.637,237.649 294.886,231.302 296.057,224.94C296.109,224.657 295.379,224.774 295.332,225.028" style="fill:rgb(172,186,247);fill-rule:nonzero;"/>
                            <path id="Path_8572" d="M332.017,336.288C322.817,309.553 314.191,282.603 307.077,255.232C305.06,247.472 303.174,239.68 301.417,231.855C301.341,231.515 300.617,231.704 300.693,232.049C306.893,259.744 314.886,287.003 323.719,313.963C326.186,321.489 328.71,328.995 331.293,336.482C331.407,336.816 332.13,336.616 332.017,336.288" style="fill:rgb(172,186,247);fill-rule:nonzero;"/>
                            <path id="Path_8573" d="M328.674,351.989L336.855,351.989C336.944,351.989 337.511,351.91 337.455,351.74C336.769,349.812 336.086,347.883 335.405,345.954C335.343,345.778 334.626,345.994 334.681,346.148C335.362,348.078 336.045,350.007 336.731,351.934L337.331,351.686L329.15,351.686C328.969,351.674 328.789,351.722 328.638,351.823C328.551,351.901 328.516,351.989 328.682,351.989" style="fill:rgb(172,186,247);fill-rule:nonzero;"/>
                        </g>
                    </g>
                    <g id="Group_2526">
                        <g id="Group_2525">
                            <clipPath id="_clip18">
                                <path d="M273.991,193.671C273.991,193.671 301.88,203.405 319.649,195.046C316.355,169.453 317.294,153.193 319.089,143.3C319.578,140.614 320.4,138 321.535,135.517C322.67,133.034 293.51,184.717 273.992,193.675"/>
                            </clipPath>
                            <g clip-path="url(#_clip18)">
                                <g id="Rectangle_4054" transform="matrix(1,0,0,1,273.991,135.513)">
                                    <rect x="0" y="0" width="47.543" height="67.892" style="fill:url(#_Linear19);"/>
                                </g>
                            </g>
                        </g>
                    </g>
                    <g id="Group_2528">
                        <g id="Group_2527">
                            <path id="Path_8575" d="M367.046,63.869L368.846,60.012L363.281,60.012L361.961,62.654L367.046,63.869Z" style="fill:rgb(1,23,33);fill-rule:nonzero;"/>
                            <path id="Path_8576" d="M231.63,64.421L229.347,60.013L235.847,60.013L237.099,62.656L231.63,64.421Z" style="fill:rgb(1,23,33);fill-rule:nonzero;"/>
                            <path id="Path_8577" d="M292.808,106.329C290.699,105.757 288.636,105.024 286.639,104.137C284.125,102.924 280.808,98.583 283.871,96.931C286.934,95.279 287.379,92.976 289.485,95.621C291.591,98.266 292.94,98.531 295.785,98.166C298.63,97.801 303.499,99.697 303.938,104.366C304.377,109.035 300.214,115.338 298.538,116.382C296.862,117.426 295.128,114.489 296.681,113.902C298.234,113.315 300.422,110.816 299.339,109.743C298.256,108.67 296.533,108.427 296.226,109.3C295.919,110.173 295.594,112.108 294.766,112.368C293.938,112.628 293.518,111.368 293.803,110.119C294.088,108.87 294.644,106.871 292.812,106.328" style="fill:rgb(1,23,33);fill-rule:nonzero;"/>
                            <path id="Path_8578" d="M292.808,106.329C290.699,105.757 288.636,105.024 286.639,104.137C284.125,102.924 280.808,98.583 283.871,96.931C286.934,95.279 287.379,92.976 289.485,95.621C291.591,98.266 292.94,98.531 295.785,98.166C298.63,97.801 303.499,99.697 303.938,104.366C304.377,109.035 300.214,115.338 298.538,116.382C296.862,117.426 295.128,114.489 296.681,113.902C298.234,113.315 300.422,110.816 299.339,109.743C298.256,108.67 296.533,108.427 296.226,109.3C295.919,110.173 295.594,112.108 294.766,112.368C293.938,112.628 293.518,111.368 293.803,110.119C294.088,108.87 294.64,106.872 292.808,106.329Z" style="fill:none;fill-rule:nonzero;stroke:rgb(1,23,33);stroke-width:0.15px;"/>
                            <g id="Line_1195" transform="matrix(1,0,0,1,426.016,154.156)">
                                <path d="M10.382,6.552L0,0" style="fill:none;fill-rule:nonzero;"/>
                            </g>
                            <path id="Path_8579" d="M436.953,160.273L427.848,154.527L426.57,153.721C426.242,153.528 425.826,153.559 425.529,153.797C425.294,153.984 425.147,154.391 425.462,154.591L434.568,160.337L435.845,161.143C436.174,161.335 436.59,161.305 436.887,161.067C437.12,160.88 437.268,160.473 436.953,160.273" style="fill:rgb(22,53,86);fill-rule:nonzero;"/>
                            <g id="Line_1196" transform="matrix(1,0,0,1,401.502,164.077)">
                                <path d="M26.816,10.489L0,0" style="fill:none;fill-rule:nonzero;"/>
                            </g>
                            <path id="Path_8580" d="M428.729,174.052L405.229,164.858L401.916,163.563C401.257,163.305 400.227,164.251 401.093,164.59L424.593,173.784L427.906,175.084C428.565,175.341 429.595,174.395 428.729,174.056" style="fill:rgb(22,53,86);fill-rule:nonzero;"/>
                            <g id="Line_1197" transform="matrix(1,0,0,1,412.589,189.169)">
                                <path d="M13.32,0L0,0.415" style="fill:none;fill-rule:nonzero;"/>
                            </g>
                            <path id="Path_8581" d="M425.979,188.661L414.335,189.024L412.659,189.076C411.852,189.101 411.529,190.123 412.518,190.092L424.162,189.73L425.839,189.678C426.645,189.653 426.969,188.63 425.979,188.661" style="fill:rgb(22,53,86);fill-rule:nonzero;"/>
                            <path id="Path_8582" d="M448.493,174.893C456.01,163.58 468.71,156.748 482.293,156.711C489.646,156.699 496.853,158.78 503.068,162.711C503.313,162.865 503.555,163.022 503.795,163.182C521.933,175.222 526.952,200.055 514.912,218.193L487.948,258.713L487.848,258.857C486.776,260.365 485.037,261.262 483.188,261.262C482,261.262 480.842,260.892 479.874,260.204C477.369,258.324 476.785,254.755 478.559,252.174L505.389,211.855C505.535,211.637 505.677,211.416 505.816,211.191C514.016,198.052 509.953,180.493 496.816,172.291C483.796,164.172 466.596,168.332 458.096,181.108L451.72,190.691C451.483,191.047 451.083,191.262 450.655,191.262C450.402,191.262 450.155,191.187 449.945,191.047L448.882,190.339C448.679,190.213 448.445,190.146 448.206,190.146C447.504,190.146 446.925,190.725 446.925,191.427C446.925,191.842 447.127,192.232 447.465,192.472L449.222,193.642C449.647,193.925 448.954,194.852 448.954,194.852C448.922,194.898 448.889,194.952 448.854,194.998C447.037,197.554 443.439,198.163 440.882,196.347C438.376,194.468 437.792,190.898 439.567,188.317L448.502,174.893" style="fill:rgb(220,225,244);fill-rule:nonzero;"/>
                            <path id="Path_8583" d="M449.159,174.88C454.38,167.029 462.203,161.263 471.248,158.6C481.343,155.7 492.196,157.039 501.283,162.307C516.076,171.118 523.572,188.557 519.789,205.354C517.619,214.694 511.426,222.442 506.21,230.281L488.75,256.519C488.268,257.243 487.801,257.979 487.303,258.693C484.579,262.602 479.051,260.674 478.328,256.261C477.809,253.094 480.67,249.992 482.314,247.521C488.422,238.342 494.53,229.162 500.639,219.983C502.407,217.326 504.174,214.669 505.939,212.012C509.129,207.313 510.835,201.763 510.835,196.083C510.835,180.526 498.033,167.724 482.476,167.724C480.015,167.724 477.565,168.045 475.187,168.677C467.86,170.524 461.476,175.034 457.287,181.322C455.95,183.322 454.617,185.326 453.287,187.333C452.645,188.296 452.004,189.26 451.363,190.223C451.282,190.345 451.171,190.623 451.046,190.7C450.582,191 449.98,190.307 449.546,190.072C448.409,189.455 446.385,189.947 446.197,191.422C446.152,192.032 446.473,192.614 447.013,192.901C447.396,193.177 448.264,193.494 448.503,193.893C448.871,194.508 447.743,195.593 447.352,195.933C446.384,196.793 445.083,197.182 443.802,196.992C441.481,196.591 439.668,194.734 439.323,192.404C438.906,189.885 440.401,188.035 441.696,186.09L446.442,178.96L449.156,174.882C449.485,174.388 448.056,174.558 447.822,174.908L440.01,186.645C438.717,188.588 437.42,190.454 437.901,192.953C438.691,197.065 443.195,198.718 446.801,197.144C447.958,196.639 449.801,195.404 450.028,194.018C450.228,192.829 448.028,192.671 447.699,191.606C447.44,190.768 447.966,190.626 448.525,190.834C448.769,190.973 449.003,191.129 449.225,191.302C449.812,191.64 450.518,191.706 451.157,191.482C452.157,191.182 452.357,190.7 452.864,189.932C455.864,185.416 458.643,180.332 462.526,176.503C467.646,171.374 474.604,168.488 481.851,168.488C492.655,168.488 502.485,174.9 506.84,184.786C510.342,192.573 510.137,201.541 506.285,209.161C504.708,211.97 502.972,214.687 501.085,217.298C494.752,226.815 488.418,236.332 482.085,245.85C480.603,248.078 478.979,250.263 477.625,252.574C477.086,253.496 476.802,254.545 476.802,255.612C476.802,258.558 478.965,261.094 481.874,261.558C484.523,261.928 487.164,260.766 488.682,258.564C493.927,250.94 498.941,243.147 504.067,235.444L512.89,222.186C515.002,219.23 516.888,216.119 518.532,212.88C525.693,197.203 522.011,178.585 509.421,166.814C501.999,160.001 492.256,156.26 482.182,156.353C473.043,156.476 464.185,159.55 456.935,165.115C453.383,167.867 450.299,171.173 447.801,174.908C447.471,175.4 448.901,175.231 449.135,174.882" style="fill:rgb(1,23,33);fill-rule:nonzero;"/>
                            <path id="Path_8584" d="M418.359,200.572L370.34,272.732C369.238,274.385 369.507,276.616 370.97,277.96C376.979,283.471 392.698,297.471 407.84,307.547C422.982,317.623 441.969,326.714 449.372,330.128C451.176,330.96 453.339,330.347 454.438,328.692L502.459,256.533C503.689,254.684 503.181,252.15 501.332,250.918L423.975,199.444C422.127,198.213 419.593,198.721 418.362,200.569" style="fill:rgb(220,225,244);fill-rule:nonzero;"/>
                            <path id="Path_8585" d="M417.689,200.574L403.06,222.558L378.154,259.984L370.64,271.277C370.116,271.967 369.656,272.703 369.267,273.477C368.203,275.993 369.808,277.796 371.543,279.377C373.19,280.872 374.85,282.353 376.522,283.821C386.192,292.493 396.429,300.511 407.165,307.821C417.951,314.837 429.189,321.132 440.806,326.665C442.748,327.614 444.697,328.548 446.654,329.465C448.547,330.353 450.279,331.277 452.417,330.625C453.855,330.098 455.048,329.056 455.764,327.702L462.689,317.296L487.463,280.069C492.663,272.251 498.063,264.531 503.086,256.593C503.567,255.878 503.824,255.035 503.824,254.172C503.824,252.683 503.057,251.294 501.796,250.501C500.933,249.913 500.057,249.344 499.188,248.766L486.574,240.372L448.883,215.292C440.877,209.965 432.919,204.557 424.861,199.308C422.535,197.736 419.338,198.3 417.69,200.572C417.342,201.083 418.781,200.933 419.03,200.572C420.503,198.407 422.542,199.216 424.224,200.336L427.824,202.728L441.357,211.733L478.543,236.477C485.875,241.356 493.383,246.046 500.572,251.135C501.693,251.872 502.37,253.128 502.37,254.47C502.37,255.313 502.103,256.136 501.606,256.818C500.979,257.794 500.319,258.751 499.676,259.718L491.1,272.6L466.5,309.559C463.343,314.302 460.186,319.045 457.03,323.788L454.454,327.659C453.362,329.3 452.173,330.706 449.86,329.759C445.815,328.103 441.891,325.993 437.988,324.033C432.474,321.264 427.018,318.375 421.655,315.321C409.935,308.564 398.807,300.829 388.388,292.2C384.044,288.644 379.777,284.995 375.588,281.254C374.118,280.058 372.716,278.78 371.388,277.428C370.214,276.092 370.086,274.117 371.077,272.64C372.637,270.134 374.355,267.714 375.99,265.257L399.084,230.552L418.02,202.097L419.033,200.575C419.377,200.058 417.933,200.211 417.693,200.575" style="fill:rgb(1,23,33);fill-rule:nonzero;"/>
                            <path id="Path_8586" d="M418.363,290.585L407.228,307.318C407.151,307.401 407.109,307.51 407.109,307.622C407.109,307.761 407.173,307.892 407.283,307.977C418.089,314.992 429.343,321.292 440.972,326.836C442.985,327.82 445.006,328.787 447.033,329.736C448.911,330.616 450.683,331.51 452.776,330.7C454.066,330.098 455.121,329.087 455.776,327.824C462.091,318.333 468.407,308.843 474.723,299.352L498.266,263.975C499.86,261.581 501.496,259.21 503.048,256.789C504.6,254.368 503.734,251.733 501.472,250.211C499.842,249.111 498.2,248.035 496.565,246.946L463.949,225.246L463.203,224.746C462.818,224.524 462.326,224.609 462.037,224.946L451.337,241.029C450.823,241.801 452.171,242.069 452.558,241.489L463.258,225.406L462.093,225.606L490.746,244.671C494.076,246.886 497.546,248.971 500.775,251.343C502.401,252.469 502.854,254.708 501.794,256.378C501.637,256.635 501.459,256.878 501.294,257.131L498.87,260.773L477.215,293.313L456.194,324.9C455.494,325.95 454.801,327 454.094,328.048C454.003,328.184 453.917,328.325 453.821,328.458C452.021,330.958 449.599,329.545 447.421,328.523C436.971,323.61 426.678,318.307 416.763,312.382C413.931,310.689 411.138,308.933 408.385,307.113C408.404,307.333 408.422,307.553 408.44,307.772C412.152,302.195 415.864,296.618 419.575,291.039C420.089,290.267 418.74,289.999 418.354,290.58" style="fill:rgb(1,23,33);fill-rule:nonzero;"/>
                            <path id="Path_8587" d="M427.332,277.169L424.292,281.737L423.858,282.39C423.658,282.69 424.029,282.903 424.28,282.925C424.648,282.961 425.009,282.799 425.228,282.501L428.269,277.932L428.703,277.28C428.903,276.98 428.531,276.767 428.281,276.745C427.912,276.709 427.551,276.871 427.332,277.169" style="fill:rgb(1,23,33);fill-rule:nonzero;"/>
                            <path id="Path_8588" d="M445.722,249.676L434.478,266.576L432.873,268.988C432.781,269.126 434.065,269.088 434.301,268.729L445.545,251.829L447.145,249.417C447.236,249.279 445.952,249.317 445.717,249.676" style="fill:rgb(1,23,33);fill-rule:nonzero;"/>
                            <path id="Path_8589" d="M451.955,176.324C456.382,170.993 461.863,166.635 468.055,163.524C473.609,160.916 479.806,159.988 485.88,160.854C491.199,161.426 496.343,163.09 500.99,165.739C502.976,166.815 504.756,168.232 506.25,169.926C506.595,170.358 507.988,169.832 507.588,169.332C506.283,167.842 504.75,166.567 503.047,165.555C498.572,162.79 493.575,160.975 488.368,160.225C482.161,159.056 475.75,159.604 469.831,161.809C462.348,164.996 455.746,169.947 450.593,176.24C450.166,176.787 451.632,176.734 451.955,176.32" style="fill:rgb(1,23,33);fill-rule:nonzero;"/>
                            <path id="Path_8590" d="M429.156,4.114C422.438,4.284 415.811,5.717 409.623,8.34C400.56,12.013 392.423,18.109 387.723,26.84C384.512,33.103 382.895,40.063 383.014,47.1L384.8,46.342L181.284,46.342C180.74,46.303 180.199,46.449 179.748,46.754C179.492,46.989 179.385,47.276 179.888,47.276L383.4,47.276C383.82,47.276 385.183,47.131 385.185,46.518C385.221,35.263 389.027,24.435 397.51,16.799C403.777,11.39 411.344,7.702 419.466,6.099C422.189,5.48 424.965,5.126 427.756,5.042C428.3,5.081 428.841,4.935 429.293,4.63C429.548,4.395 429.656,4.107 429.153,4.108" style="fill:white;fill-rule:nonzero;"/>
                            <path id="Path_8591" d="M491.155,51.352C491.123,66.267 487.335,81.24 478.067,93.152C470.358,102.87 459.836,109.977 447.943,113.5C441.868,115.345 435.557,116.293 429.208,116.313C428.9,116.313 427.57,116.904 428.268,116.902C440.19,116.882 451.904,113.758 462.252,107.838C473.915,101.127 482.949,90.636 487.852,78.105C491.094,69.428 492.704,60.226 492.6,50.964C492.6,50.735 491.152,50.937 491.151,51.352" style="fill:rgb(1,23,33);fill-rule:nonzero;"/>
                            <path id="Path_8592" d="M498.149,275.974L488.949,289.052C483.362,296.993 477.774,304.934 472.187,312.874C469.365,316.886 466.387,320.828 463.709,324.94C462.02,327.631 459.806,329.954 457.199,331.769C454.969,333.326 452.347,334.227 449.631,334.369C445.731,334.511 442.331,332.94 438.964,331.158C432.664,327.825 426.298,324.622 419.99,321.305C416.577,319.638 413.322,317.663 410.267,315.405C409.667,314.933 409.085,314.439 408.521,313.924C408.214,313.645 406.887,314.189 407.162,314.439C409.863,316.777 412.834,318.785 416.011,320.419C421.611,323.483 427.35,326.302 433.011,329.257C436.68,331.173 440.342,333.594 444.411,334.557C447.148,335.213 450.006,335.179 452.727,334.457C457.044,333.18 460.842,330.555 463.563,326.968C464.522,325.758 465.036,324.859 465.815,323.751L470.855,316.588L487.745,292.583L495.317,281.822C496.637,279.946 498.046,278.106 499.289,276.177C499.347,276.086 499.413,276 499.476,275.912C499.776,275.48 498.376,275.668 498.153,275.98" style="fill:rgb(1,23,33);fill-rule:nonzero;"/>
                        </g>
                    </g>
                </g>
            </g>
        </g>
    </g>
    <defs>
        <radialGradient id="_Radial3" cx="0" cy="0" r="1" gradientUnits="userSpaceOnUse" gradientTransform="matrix(965.5,0,0,965.5,965.5,547.5)"><stop offset="0" style="stop-color:rgb(247,248,254);stop-opacity:1"/><stop offset="0.39" style="stop-color:rgb(253,246,235);stop-opacity:1"/><stop offset="1" style="stop-color:rgb(243,244,252);stop-opacity:1"/></radialGradient>
        <linearGradient id="_Linear7" x1="0" y1="0" x2="1" y2="0" gradientUnits="userSpaceOnUse" gradientTransform="matrix(0.96645,0,0,0.96645,-57.987,51.023)"><stop offset="0" style="stop-color:rgb(191,203,250);stop-opacity:1"/><stop offset="1" style="stop-color:rgb(224,230,251);stop-opacity:1"/></linearGradient>
        <linearGradient id="_Linear9" x1="0" y1="0" x2="1" y2="0" gradientUnits="userSpaceOnUse" gradientTransform="matrix(0.995826,0,0,0.995826,-38.0757,272.666)"><stop offset="0" style="stop-color:rgb(223,223,224);stop-opacity:1"/><stop offset="1" style="stop-color:rgb(191,203,250);stop-opacity:1"/></linearGradient>
        <linearGradient id="_Linear11" x1="0" y1="0" x2="1" y2="0" gradientUnits="userSpaceOnUse" gradientTransform="matrix(0.999559,0,0,0.999559,-57.9744,272.675)"><stop offset="0" style="stop-color:rgb(223,223,224);stop-opacity:1"/><stop offset="1" style="stop-color:rgb(191,203,250);stop-opacity:1"/></linearGradient>
        <linearGradient id="_Linear13" x1="0" y1="0" x2="1" y2="0" gradientUnits="userSpaceOnUse" gradientTransform="matrix(0.999168,0,0,0.999168,-107.244,159.776)"><stop offset="0" style="stop-color:rgb(223,223,224);stop-opacity:1"/><stop offset="1" style="stop-color:rgb(191,203,250);stop-opacity:1"/></linearGradient>
        <linearGradient id="_Linear15" x1="0" y1="0" x2="1" y2="0" gradientUnits="userSpaceOnUse" gradientTransform="matrix(0.990988,0,0,0.990988,-41.8265,144.506)"><stop offset="0" style="stop-color:rgb(223,223,224);stop-opacity:1"/><stop offset="1" style="stop-color:rgb(191,203,250);stop-opacity:1"/></linearGradient>
        <linearGradient id="_Linear19" x1="0" y1="0" x2="1" y2="0" gradientUnits="userSpaceOnUse" gradientTransform="matrix(0.998403,0,0,0.998403,-273.99,222.278)"><stop offset="0" style="stop-color:rgb(223,223,224);stop-opacity:1"/><stop offset="1" style="stop-color:rgb(191,203,250);stop-opacity:1"/></linearGradient>
    </defs>
</svg>
