<svg xmlns="http://www.w3.org/2000/svg" xmlns:xlink="http://www.w3.org/1999/xlink" width="1920" height="2037.491" viewBox="0 0 1920 2037.491">
  <defs>
    <radialGradient id="radial-gradient" cx="0.5" cy="0.5" r="0.5" gradientUnits="objectBoundingBox">
      <stop offset="0" stop-color="#f7f8fe"/>
      <stop offset="0.394" stop-color="#fdf6eb"/>
      <stop offset="1" stop-color="#f3f4fc"/>
    </radialGradient>
    <clipPath id="clip-path">
      <path id="Path_7664" data-name="Path 7664" d="M0,0H1920V2037.491H0Z" fill="url(#radial-gradient)"/>
    </clipPath>
    <clipPath id="clip-path-2">
      <rect id="Rectangle_3897" data-name="Rectangle 3897" width="1595.436" height="1357.952" fill="#fff"/>
    </clipPath>
  </defs>
  <g id="Mask_Group_33" data-name="Mask Group 33" clip-path="url(#clip-path)">
    <path id="Path_619" data-name="Path 619" d="M0,0H1931V2382.039H0Z" fill="url(#radial-gradient)"/>
    <g id="Group_2104" data-name="Group 2104" transform="translate(65.791 316.197)" opacity="0.426">
      <g id="Group_2103" data-name="Group 2103" transform="translate(96.491 -316.197)" clip-path="url(#clip-path-2)">
        <path id="Path_7447" data-name="Path 7447" d="M396.062,206.02c-6.216-4.162-11.355-2.054-18.884-.4,5.414-11.576.168-18.372-7.254-24.283a81.753,81.753,0,0,1-27.376-7.254c-2.069-1.039-4.223-4.551-6.338-1.825-4.826,6.223-8.361,1.817-10.095-2.069-2.764-6.193,6.781-2.718,6.162-9.308-4.315-.58-11.813,2.741-13.363-5.147-.336-1.726,4.3-5.208,7.216-6.613,2.749-1.313,4.887-1.229,6.659-.313-8.01-6.636-14.6-16.716-13.447-23.894.557-3.429,4.727-7.506-2.573-9.568-16.563-4.681-38.372,6.758-42.709,23.466-1.71,6.605-4.544,10.981-11.332,7.392-7.781-4.139-10.79-.061-13.608,4.979,2.635-.2,5.62-.26,9.125-.191-2.3,6.323-7.812,5.75-12.661,6.5q-2,3.562-3.986,7.132c3.9,4.849,10.584.863,17.785,1.115-7.873,6.4-13.05,11.874-4.032,20,1.573,1.413,8.285,7.438,3.108,11.531-5.582,4.421-7.056-5.643-11.889-6.216-2.925,2.787-.519,5.91-.481,8.743.046,3.574,1.657,8.392-2.81,9.255-5.017.97-4.039-4.452-5.322-7.606l.008-.008c-2.6-6.353-5.689-12.371-6.6-19.235-9.667,15.311-21.244,28.8-39.609,35.875-5.277,2.031-9.454,7.476-11.676,12.508,10.011-.038,20.144,2.665,30.3,12.661-11.195-1.038-21.832.389-31.972.642-.023,16.448-1.016,33.7,10.782,47.863,6.109,13.63,18.8,24.924,18.411,40.517-.283,11.21,7.285,13.012,11.454,11.561,17.059-5.933,35.271-10.21,48.6-24.214,18.907-19.861,53.644-39.517,79.423-11.088,4.635,5.108,9.026,7.277,11.492-1.657,2.008-7.262,5.544-4.337,9.957-2.321,5.635,2.589,7.6,8.155,11.088,12.455a799.451,799.451,0,0,0,30.255-110.861,12.815,12.815,0,0,1-13.806-.122M294.3,155.988c-3.238,1.077-5.391-2.169-6.033-5.261-1.4-6.7-5.62-13.89,2.108-20.747,1.672,6.789,1.863,13.05,6.025,18.113a5.253,5.253,0,0,1-2.1,7.9" transform="translate(1178.222 693.051)" fill="#fff"/>
        <path id="Path_7448" data-name="Path 7448" d="M218.909,172.117c3.956-6.514,11.179-9.041,19.694-6.559,9.209,2.68,18.739,4.23,28.032,6.582a58.69,58.69,0,0,1-12.89-19.907h-.008c-7.445-15.066-24.711-22.03-29.109-40.113-3.436,16.7-5.093,32.675-7.224,48.573-.428,3.123,1.352,7.9-3.482,9.117-4.284,1.069-9.828-1.1-15.036-4.879a25.47,25.47,0,0,1,3.757,5.88c4.895,9.583,9.293,12.775,16.265,1.306" transform="translate(1314.308 678.632)" fill="#fff"/>
        <path id="Path_7449" data-name="Path 7449" d="M892.6,64.161A128.1,128.1,0,0,0,836,74.737c-7.812.741-12.936,9.293-23.13,9.056,7.629-8.384,13.883-15.272,20.137-22.152,3.322-2.94,6.758-5.742,9.942-8.843,17.151-16.708,15.562-23.6-6.911-31.583-5.086-1.8-9.637-.084-14.386.733-4.437.313-10.233-3.375-11.653,5.1-.741,4.414-4.169,5.765-7.285,2.13C786.838,10.7,770.649,11.441,760.233,32.1a25.411,25.411,0,0,1-12.668,11.958c-22.274,11.156-44.274,22.87-66.579,33.95-6.964,3.467-11.737,7.537-10.026,16.509a15.662,15.662,0,0,1-13.241,12.577,152.193,152.193,0,0,0-22.641,7.445c-3.307,1.237-9.874.176-8.331,6.071,1.268,4.857,1.856,12.088,8.965,13.172,3.406.512,8.171-.305,7.85,4.78-.374,6.094-5.872,3.673-9.454,4.1-2.444.29-4.918.344-7.376.5-10.339-1.611-20.724-3.329-21.328,12.691l-.664,1.313c-10.629,1.161-4.169-14.776-13.714-14.9-.344,2.474.145,5.75-1.184,7.361-11.286,13.669,2.428,26.413,2.161,39.723-.114,5.719,6.544,4.78,11.019,3.65l1.535,5.292c-3.284,28.147-10.293,38.059-25.886,35.47,3.284-3.65,6.56-6.758,9.209-10.385,3.681-5.017,6.941-10.988,3.551-17.242-9.98-18.4-14.4-38.3-16.685-58.829-.634-5.7-3.879-5.315-7.422-4.773-10.66,1.672-22.649,1.3-22.664,18.037,0,6.911-11.821,12.569-7.491,16.815,7.422,7.285,3.223,22.6,17.143,24.573,3.5.489,4.551,5.246,2.138,9.69-17.288-7.789-35.157-3.077-52.9-3.138a14.847,14.847,0,0,0-5.338,1.069c1.328,18.2-14.18,10.729-21.557,14.157-6.727,3.138-13.905,12.462-19.075,9.751-12.218-6.445-17.3,2.833-24.207,7.9-7.911,5.811-17.594,9.591-21.87,20.144-1.764,4.345-6.46,4.689-10.408,2.8-2.764-1.329-5.261-4.1-2.115-7.277,2.428-2.444,6.712-3.6,1.588-7.9a13.6,13.6,0,0,0-14.089-2.688c-5.338,1.9-1.52,6.086-1.42,9.247a21.824,21.824,0,0,0,3.222,11.928c4.834,7.376,3.8,10.767-5.727,11.248-9.759.481-19.663,10.889-18.7,16.723,2.283,13.814-4.253,9.56-10.629,9.37-11.4-.351-10.11,5.33-3,12.829-26.261,4.253-22.672-26.887-39.845-32.1a305.68,305.68,0,0,1,38.051-.817c7.407.137,15.96,1.9,17.616-9.1,1.772-11.775-7.369-12.233-14.463-13.5-25.894-4.628-50.261-18.312-77.866-14.646,1.924-5.208,9.82-2.97,7.842-9.064-1.184-3.62-5.972-3.108-9.293-3.6a35.637,35.637,0,0,0-7.438.428c-7.628-.252-14.211,6.521-22.809,2.222-3.093-1.55-6.674,3.375-8.881,6.995-2.6,4.253-6.307,6.758-10.393,9.652-11.8,8.369-23.069,17.212-30.9,31.255-19.571,35.058-35.653,72.337-61.685,103.431C117.065,404.6,132.436,431.94,149.259,433c14.486.916,12.119-14.394,21.015-18.739l11.263,16.181a76.666,76.666,0,0,0,13.294,22.84c2.268,2.9,6.033,6.827,8.5,2.971,5.238-8.171,16.685-12.645,14.639-25.337a29.414,29.414,0,0,1,3.314-18.014c3.749-7.911,10.271-16.311-3.49-22.046-3.719-1.55-2.466-6.384-2.283-10.019.366-7.292.634-14.585.947-21.885.68-1.191,1.359-2.375,2.039-3.566,7.071-5.139,13.653-12.409,14.57-20.5A29.891,29.891,0,0,1,243.71,314.68l-.084.2q2.9-.149,5.781-.283c7.674,4.07,10.019,9.247,4.345,17.067-3.879,5.33-6.514,11.691-10.538,16.876-9.056,11.668-4.9,22.2,2.352,32.644,7.835,11.279,16.67,7.7,26.3,3.077,10.805-5.185,21.9-13.272,34.195-2.222-11.729,3.8-21.435,12.4-34.027,14.425-8.613,1.39-11.775,6.1-2.871,12.752,4.3,3.207,3.642,6.972,2.6,11.057-1.527,5.926-5.689,4.826-9.492,3.184-7.01-3.047-9.339.733-8.827,6.949,1.436,17.716-4.65,29.918-21.351,35.034-12.264,5.322-24.306,10.11-38.371,9.942-9.469-.107-16.372-4.123-15.853-14.57.351-7.01,2.94-14.272-1.665-21.007-15.326,7.445-17.548,14.577-10.164,29.582,2.8,5.7,11.615,14.669.557,17.662-23.092,6.262-26.8,30.231-39.074,45.565-8.652,10.828-21.015,14.394-28.941,24.7-1.833,2.382-9.194-.527-9.713,4.528-.664,6.682,6.01,5.75,9.9,7.018,13.546,4.414,19.006,13.974,19.442,29.017.5,17.25-11.546,14.921-21.106,16.685-5.842,1.084-11.973.664-17.792,1.84-6.9,1.39-11.569,4.513-9.568,13.959,2.352,11.111,2.069,22.847,5.017,33.736,1.688,6.239,2.337,17.128,9.851,17.38,13.974.458,29.063,2.741,41.487-6.208,5.834-4.192,14.47-9.255,13.027-17.426-2.192-12.416,4.513-19.472,9.858-27.857,3.5-5.49,7.9-10.057,6.491-18.2-.97-5.651,39.494-27.131,44.374-24.038a28.085,28.085,0,0,1,6.8,6.262c8.056,10.133,18.762,16.021,30.033,20.618,8.522,3.482,16.341,7.186,19.6,17.769,1.794-9.973,12.531-20.182-5.826-26.307-11.531-3.849-21.878-12.034-30.01-22.42-3.253-4.146-5.124-8.5-1.443-12.508s7.377-.313,10.477,2.215c5.353,4.36,8.453,10.752,16.525,12.63,12.63,2.94,23.787,9.309,28.719,24.237A27.987,27.987,0,0,0,289.42,627.5a34.953,34.953,0,0,1,4.268,7.812c1.55,6.178,5.254,8.736,10.775,7.812,7.056-1.176,2.146-7.415,3.49-10.408,4.192-9.377-3.154-12.523-6.972-17.724-3.085-13.562,5.193-17.258,15.2-19.442,18.709,3.413,22.817-2.291,16.158-22.412.374-4.6.451-9.27,1.153-13.806,3.917-25.306,9.606-30.858,27.857-27.574-1.474,5.055-3.276,10.706,2.8,13.546,7.239,3.375,12.088-3.062,16.8-6.727,9.255-7.2-3.436-2.6-3.7-6.124-.244-3.421-.5-5.948,2.069-8.048,5.872-4.773,11.584-9.912,19.075-11.24,2.383,4.421-4.75,6.972.16,10.439-.122,5.765-4.1,9.545-8.209,14.05,10.912,5.208,20.35,9.553,29.666,14.2,8.751,4.383,12.882,10.049,3.971,18.411-8.866.489-16.555,8.713-25.871,4.895-17.922-7.338-32.087,2.146-46.267,10.095-21.366,11.981-23.443,20.549-11.752,38.677,5.666,8.8,12.256,12.187,21.213,6.048a12.323,12.323,0,0,1,11.416-1.459c6.567,2.108,11.912,2.207,17.517-3.787,5.078-5.429,10.9-5.7,10.263,5.536-.557,9.9-.214,19.877-.42,29.811-.26,11.889-8.369,19.449-17.212,20.61-21.923,2.864-44.053,9.683-66.534-1.237-8.255-4.017-17.914-1.367-19.64,9.866-1.993,12.936-9.163,13.111-18.281,10.37-15.906-4.788-31.667-10.118-47.588-14.829-6.659-1.97-9.69-3.429-7.361-12.615,3.673-14.493-2.665-20.037-16.28-15.158-10.668,3.826-20.625,9.759-30.9,14.753L177.7,782.591q-.71-55.37-1.413-110.739c-22.206,6.819-41.327,25.26-67.244,18.373a4.35,4.35,0,0,0-3.719,2.092c-6.3,13.913-19.579,25.153-18.861,41.426.573,12.943-2.978,23.351-7.69,34.172C73.012,781.125,68.072,794.8,61.6,807.6c-8.285,16.372-12.645,31.942-.588,49.115,4.49,6.414,3.948,15.058,4.612,22.885-1.6,6.437-4.437,12.859,1.787,18.792,13.722,13.1,25.337,28.552,40.41,40.166,18.373,20.908,39.028,32.064,65.678,18.655a72.176,72.176,0,0,1,11.263-3.612,53.076,53.076,0,0,0,5.62-1.413c17.876-6.422,32.721-29.628,55.362-9.851.275.244.962-.092,1.459-.046,19.526,1.573,23.244,5.445,24.68,26.734,1.107,16.441,4.956,31.056,21.251,38.349,12.47,10.171,14.524,26.429,21.6,39.761,4.269,11.683,9.163,23.145,8.568,36.088-1.306,28.139.748,55.057,22.4,76.675,4.673,4.673,5.6,13.34,8.774,19.907,4.482,9.293,4.551,20.8,12.981,28.1a108.438,108.438,0,0,1,28.055,36.669c4.177,8.942,13.218,19.2,23.443,14.76,21.061-9.14,43.083-17.357,53.209-43.136,7.14-18.159,21.114-33.424,18.235-55.37a9.841,9.841,0,0,1,5.086-10.385c10.423-6.292,9.232-18.564,4.628-24.558-10.461-13.607-3.4-22.847,2.161-33.576,4.238-8.186,8.109-16.593,12.149-24.9,8.713-10.584,9.148-21.19,2.657-34.248-7.605-15.288-19.457-33.034-17.464-47.657,1.046-7.682,2.329-15.639,4.07-23.534-.848-6.063-2.169-12.279-3.658-18.495-.771-3.245-.16-7.781,3.566-9.56,11.08-5.292,14.173-16.563,18.556-26.91,1.443-3.421,3-6.7,7.445-6.1h.015a6.066,6.066,0,0,1,4.139,2.3c16.769-24.55,16.005-53.17,20.549-83.646-11.981,5.345-21.656,9.018-30.735,13.89-9.5,5.109-17.571,4.62-24.863-4.223-25.3-22.038-50.933-43.717-68.954-73.284-7.682-12.836-15.692-25.474-22.84-38.624-2.123-3.9-9.217-8.934-3.979-12.943,5.918-4.528,9.133,3.665,12.409,7.743,11.546,14.386,22.832,29,34.21,43.534,13.34,17.914,26.8,35.745,40,53.774,7.178,9.82,14.73,11.676,24.084,3.7,15.165-12.935,32.6-22.2,46.42-37.837,9.8-11.1,20.228-21.083,26.81-34.775q2.348-5.235,4.711-10.469c5.506-5.933,4.452-11.63-.275-17.884-5.467-7.232-13.233-8.553-20.808-10.645q-1.672-7.583-3.36-15.173l.145-.076-.076-.107c15.349,2.4,30.476,2.115,45.191-3.169,19.747-9.316,38.112,2.382,49.322,14.2,10.8,11.393,15.02,19.167,29.033.985-1.963,45.748,19.945,75.537,46.145,103.065,2.764,2.9,5.383,7.98,9.583,6.529,4.788-1.649,7.346-6.43,7.835-12.218,1.084-12.951,4.406-25.6,1.871-38.975-2.131-11.278.733-21.007,8.308-30.063,9.079-10.859,18.586-22.359,23.84-35.462,6.307-15.7,22.733-11.92,31.3-21.878.336-.4,3.956,1.237,4.925,2.719,8.331,12.836,23.2,20.648,25.887,37.944,1.39,8.942,6.391,9.8,12.615,3.872,2.23-2.131,2.115-7.254,8.239-6.04,11.836,41.6,34.775,77.629,59.356,112.709.214,1.29.443,2.589.664,3.871,5.093-3.574,9.683,4.154,16.227.451L936.9,803.216c-2.627-8.659-10.706-10.561-16.792-14.761-19.953-13.776-24.535-27.2-16.357-50.673,13.027,7.9,29.208,9.8,38.425,25.367,4.62-6.109,8.926-11.714,13.142-17.4,11.378-15.364,11.042-25.016-1.39-39.654-3.345-3.933-6.689-7.881-10.248-11.607-22.633-23.695-17.174-20.61-4.307-42.442,4.322-.214,9.095-3.062,12.806,1.023,3.307,3.642,4.735,4.406,6.651-.993,2.253-6.338,8.507-8.705,13.608-11.286a72.807,72.807,0,0,0,39.12-47.772c1.237-4.452,2.627-9.492,5.521-12.676,10.446-11.462,4.162-25.36-1.191-33.294-3.871-5.735,1.581-9.957-3.772-15.387-16.38-16.616-15.463-17.6-2.008-37.1a5.133,5.133,0,0,0,.916-6.246,74.252,74.252,0,0,0-11.286.084c-7.606,1.145-16.525,2.772-20.014-5.674-2.9-7.01,6.1-10.416,9.8-15.395,3.268-4.4,6.819-10.614,13-8.354,7.208,2.642-2.321,10.08,2.665,14.692,5.017-4.177,9.423-10.629,14.99-11.874,11.347-2.535,7.881,8.507,9.66,14.57a1.67,1.67,0,0,0,1.237.832c12.729.894,9.362,12.653,12.607,20,1.672,3.78-.527,11.1,6.254,10.423a13.832,13.832,0,0,0,12.294-9.476c3.7-9.408-.871-15.15-6.361-20.64-9.438-9.446-11.118-18.319-2.825-29.781,6.177-8.552,9.988-19.006,14.852-28.628,12.126,2.115,19.121-2.871,21.557-15.723,2.268-11.973,5.506-23.741,8.316-35.592,6.078-21.633,12.164-43.259,18.327-65.159,10.339,19.251,12.065,39.693,16.815,59.348.6,2.482-2.5,9.621,5.658,7.277,8.415-2.421,1.611-6.139.779-8.8-2.658-8.484-8.774-17.609,5.88-20.274,2.925-.527,1.268-3.314.458-4.879-7.506-14.516-15.127-28.964-23.565-45.046-3.413,6.651-4.146,12.248-11.935,7.72-7.117-4.131-14.8-10.324-24.733-2.856-4.521,3.406-11.515-4.4-16.326-8-3.406-2.55,2.214-7,4.33-10.072,9.423-13.692,19.075-27.223,28.781-40.708A802.087,802.087,0,0,0,929.855,61.481a26.064,26.064,0,0,1-6.842,3.49c-10.439,3.322-20.488-.214-30.415-.809M526.361,669.477l.214-.237-.214.237M540.6,710.3a13.015,13.015,0,0,0,7.468-2.253A13.015,13.015,0,0,1,540.6,710.3m-55-254.627C511.425,441.531,537.144,427.2,562.939,413c-25.787,14.2-51.513,28.529-77.339,42.671m79.3-46.3c.6.069,1.184.107,1.749.122-.565-.015-1.153-.053-1.749-.122m66.121,125.408a12.4,12.4,0,0,1,2.955-.183,12.8,12.8,0,0,0-2.955.183m7.858,2.711c13.592,7.629,28.307,12.363,42.656,17.937-14.356-5.567-29.071-10.3-42.656-17.937M888.78,171.64c-12.836-21.282-25.39-42.755-39.891-62.868,14.5,20.114,27.062,41.586,39.891,62.868M763.249,285.449c34.286-5.147,68.977-7.674,102.935-14.959-33.958,7.3-68.649,9.828-102.935,14.959" transform="translate(349.973 40.309)" fill="#fff"/>
        <path id="Path_7450" data-name="Path 7450" d="M26.173,291.822c1.688,3.474.13,6.964-2.382,9.935-13.844,16.395-13.936,27.857-.512,45.107,8.583,11.027,18.563,21.183,25.528,33.217,11.263,19.472,27.055,25.848,47.39,25.688,8.308-.061,12.836-.947,13.692-10.82,1.176-13.47,3.726-26.78,5.689-40.151.794-2.772,2.092-5.7-2.192-6.758-3.016-3.933.756-6.323,1.726-9.347,6.567-11.676,15.868-20.32,26.131-28.467,25.795-20.472,50.971-41.8,76.392-62.777,10.981-5.07,12.508-14.455,7.812-24.527a25.418,25.418,0,0,1-.718-20.946c2.764-7.781,4.437-16.051,7.522-23.672,5.62-13.844-.451-28.2-8.659-34.1-11.279-8.1-9.263-13.516-4.582-22.191,3.734-3.238,7.331-6.8.42-10.4-15.952-8.285-9.965-20.847-3.589-29.6C228.4,64.8,235.8,42.495,256.555,32.705c.4-.191.206-1.71.313-2.6-27.589-11.248-45.855,12.057-70.207,18.518A805.64,805.64,0,0,0,10.42,294.258a28.743,28.743,0,0,0,6.964-2.528c2.749-1.306,6.307-4.986,8.789.092m85.853,61.769a2.346,2.346,0,0,1-.924-1.031,2.444,2.444,0,0,0,.924,1.031" transform="translate(63.617 114.344)" fill="#fff"/>
        <path id="Path_7451" data-name="Path 7451" d="M16.571,270.544c-.848-2.886,2.268-8.362,5.047-10.691,9-7.56,18.678-14.211,28.788-21.725,1.344,8.5-5.231,13.638-1.947,23.611,5.529-14.379,19.327-15.532,28.017-28.6-9.232,4.039-10.912-13.44-20.854-3.215-.748.771-11.951-7.9-16.586-13.676-2.917-3.65,3.742-5.849,5.7-8.682C57.073,189.746,75.507,178.819,91.367,165c8.2-7.14,7.735-14.791,3.123-21.7-2.65-3.963-10.11-4.452-15.4-6.5a13.721,13.721,0,0,1-1.3-1.283c.359-7.819-5.33-7.567-10.156-8.636-8-1.787-17.563-6.445-19.2-12.928C44.512,98.5,32.172,92.225,23.039,81.489A795.6,795.6,0,0,0,1.268,298.034c8.537-6.605,19.93-11.668,15.3-27.49" transform="translate(-0.722 475.361)" fill="#fff"/>
        <path id="Path_7452" data-name="Path 7452" d="M248.628,441.615c-1.237-16.7,9.973-37.364,24.779-41.945,10.393-3.215,14.295-9.515,15.54-19.5,3.161-9.461,5.582-19.037,3.7-29.315.2-21.885,2.321-43.037,11.531-63.25,5.246-11.523,3.994-25.459,3.757-38.41-.1-5.834-1.275-14.677-8.514-14.638l-.015-.023c-22.939.137-42.235-14.723-64.411-17.136-2.352-.542-4.872-1.886-7.063-1.5-19.93,3.528-36.05-2.4-47.963-20.6-2.795-4.276-7.422-7.209-10.545-11.317-5.208-6.865-11.615-9.874-19.64-8.354-15.333,2.909-28.422-2.879-40.64-12.05-12.691-9.53-26.81-13.692-42.1-14.921-13.417-1.084-26.81-2.986-40.128-5.124a27.917,27.917,0,0,0-19.22,3.749A797.72,797.72,0,0,0,240.015,473.389q2.027-3.963,4.07-7.911a43.251,43.251,0,0,0,4.543-23.863" transform="translate(45.52 884.567)" fill="#fff"/>
        <path id="Path_7453" data-name="Path 7453" d="M177.044,176.615c4.368,11.4,8.423,22.1,23.283,26.215,9.347,2.589,18.235-4.6,26.8,1.924.321.244,9.446-1.665,10.049-8.759,1.458-17.235,9.194-34.515-1.9-51.552a9.879,9.879,0,0,1,.2-12.63c3.116-4.467,5.383-10.782-3.261-14.028-5.781-2.184-10.775-8.171-15.853,1.413-7.59,14.371-20.205,25.4-25.329,41.4-1.275,4.009-2.879,4.857-6.284,3.894-10.08,1.39-11.431,2.4-7.7,12.118Z" transform="translate(1156.718 690.628)" fill="#fff"/>
        <path id="Path_7454" data-name="Path 7454" d="M141.871,131.884h-.008c-4.452-.588-6,2.688-7.453,6.1-4.376,10.347-7.476,21.618-18.556,26.91-3.719,1.779-4.337,6.315-3.558,9.56,1.481,6.223,2.8,12.432,3.65,18.495,1.2,8.575,1.428,16.845-.275,24.413,2.161,6.544,3.535,10.492,4.765,14.5,2.382,7.751,4.857,15.135,14.974,13.714,10.484-1.466,11.439-8.8,11.439-18.09-.008-20.9.733-41.77,1.336-62.647.244-8.53,4.773-16.723.527-25.7a24.243,24.243,0,0,0-2.7-4.963,6.078,6.078,0,0,0-4.139-2.3" transform="translate(737.717 809.33)" fill="#fff"/>
        <path id="Path_7455" data-name="Path 7455" d="M252.573,121.727c-8.514-2.482-15.738.046-19.694,6.559-6.972,11.477-11.37,8.278-16.265-1.306a25.386,25.386,0,0,0-3.757-5.88,8.181,8.181,0,0,0-2.184-1.7c-1.771-.916-3.91-1-6.659.313-2.909,1.405-7.552,4.887-7.216,6.605,1.55,7.888,9.049,4.574,13.363,5.154.618,6.59-8.927,3.116-6.162,9.308,1.733,3.887,5.269,8.293,10.095,2.062,2.115-2.719,4.269.787,6.338,1.833a81.752,81.752,0,0,0,27.375,7.254c7.422,5.91,12.668,12.706,7.254,24.283,7.537-1.657,12.668-3.764,18.884.4a12.815,12.815,0,0,0,13.806.122q4.272-21.706,7.346-43.732a100.567,100.567,0,0,0-14.493-4.7c-9.293-2.344-18.823-3.894-28.032-6.582" transform="translate(1300.338 722.455)" fill="#fff"/>
        <path id="Path_7456" data-name="Path 7456" d="M74.175,33.566a2.693,2.693,0,0,1-.176.267" transform="translate(485.535 157.337)" fill="#fff"/>
        <path id="Path_7457" data-name="Path 7457" d="M71.284,29.227l-.176-.122.023.13Z" transform="translate(466.356 127.731)" fill="#fff"/>
        <path id="Path_7458" data-name="Path 7458" d="M136.132,63.049h.008c5.177-7.628,4.444-13.508-4.895-17.273-7.789-3.146-16.273-5.719-17.342-16.654-9.011.848-22.618-2.741-13.432,15.669a3.333,3.333,0,0,1-1.016,4.6,3.243,3.243,0,0,1-.809.374c-4.528,1.2-5.956-2.421-7.323-5.979-4.757-12.371-13.89-8.713-22.046-6.491-6.285,1.71-5.07,9.942-2.665,11.3,9.293,5.277,14.287,23.97,29.682,12.279l-.008-.008c1.222-.924,3.62-.16,5.6-.191.382,6.9-7.919,6.605-8.026,12.447,3.4,3.329,11-2.108,11.783,5.59.611,6.147-7.835,2.268-9.408,7.033,16.99,13.226,17.052,13.233,21.381-7.949,1.863-9.125,3.566-18.243,10.8-25.489,3.375,3.459,1.749,10.339,7.713,10.752Z" transform="translate(423.585 127.846)" fill="#fff"/>
        <path id="Path_7459" data-name="Path 7459" d="M104.576,61.929C88.586,60.7,71.993,57.508,59.477,72.1c-1.657,1.932-2.665,1.642-4.375-.565-9.24-11.882-13.653-4.192-17.922,4.818,4.238,4.353,10.988-3.986,12.668,4.734.68,3.543,7.216,15.486,9.53,15.937,21.732,4.192,37.142-6.277,50.024-22.763,5.59-7.163,3.994-11.653-4.826-12.332" transform="translate(241.2 337.792)" fill="#fff"/>
        <path id="Path_7460" data-name="Path 7460" d="M125.112,76.289c-15.669,11.195-14.2,31.675-22.091,47.13-2.077,4.047,2.9,9.011,6.8,11.049l-.008-.008c9.186,4.8,18.861,6.567,28.949,3.1,6.01-2.069,7.774-5.468,2.108-9.408-13.631-9.5-9.515-20.434-5.063-32.759,3.054-8.468,9.683-14.287,12.455-22.649C166.584,56.5,190.149,47.058,206.04,24.967,158.848,37.506,146.5,45.432,125.112,76.289" transform="translate(674.884 100.273)" fill="#fff"/>
        <path id="Path_7461" data-name="Path 7461" d="M200.785,158.1c-3.948-7.8.588-7.468,6.3-5.536,8.514,2.879,12.882,1.016,11.347-1.191-7.376-10.629,2.52-6.9,5.872-8.568,1.756,2.7,4.2,11.4,6.368,4.948,4.1-12.218,11.577-15,21.748-16.708,2.443-.412,6.208-3.841,6.223-5.971.084-18.327,7.125-37.516-8.14-55.8-3.161,24.52-13.547,44.648-28.338,62.3-8.507-1.153-13.333,5.842-19.327,9.8C182.9,154.492,182.856,156,198.464,177.2c1.6-6.781,6.216-11.393,2.321-19.1" transform="translate(1237.217 394.294)" fill="#fff"/>
        <path id="Path_7462" data-name="Path 7462" d="M168.519,121.807Z" transform="translate(1112.782 742.916)" fill="#fff"/>
        <path id="Path_7463" data-name="Path 7463" d="M168.546,121.907l.031-.069h-.008l-.053-.046Z" transform="translate(1112.755 742.819)" fill="#fff"/>
        <path id="Path_7464" data-name="Path 7464" d="M197.022,152.029c14,13.684,28.154,27.192,41.9,41.151,4.9,4.979,11.072,8.377,15.089,2.955,2.986-4.032,2.322-14.86-2.344-16.914-9.094-3.994-12.867-12.462-16.1-19.411-4.612-9.9-17.242-10.416-19.35-21.564-2.131,5.887-5.735.359-8.545.962-13.371-8.11-25.36-19.946-46.336-19.877,13.921,12.752,24.81,22.725,35.691,32.7" transform="translate(1065.082 726.485)" fill="#fff"/>
        <path id="Path_7465" data-name="Path 7465" d="M105.922,116.976A26.46,26.46,0,0,0,92.7,100.856C81.715,95.365,76.118,87.416,81.1,74.5q-12.13,2.325-24.283,4.635c-8.942,9.293,7.178,1.932,6.017,9.377V88.5c-.634,3.963,3.894,15.807,15.708,13.31,4.628-.985,7.453,16.517,2.55,17.273-13.638,2.115,2.146,15.02-6.582,18.036,5.46,4.307,10.912,2.466,16.364.351-1.329,8.178-13.3,7.178-13.188,17.479,10.423-2.673,17.953-12.309,28.926-11.8,14.043.657,9.041-11.714,10.561-18.327,2.176-9.53-7.583-4.826-11.256-7.85" transform="translate(353.534 428.954)" fill="#fff"/>
        <path id="Path_7466" data-name="Path 7466" d="M25.005,94.167H25a6.954,6.954,0,0,0-3.024,3.207c-3.268,5.765-7.109,11.332-9.37,17.54-2.573,7.086-1.031,12.538,8.186,11.194a136.538,136.538,0,0,1,31.384-.5c9,.809,7.667-1.886,7.392-5.429-2.421-12.706-25.612-29.04-34.561-26.009" transform="translate(70.71 557.05)" fill="#fff"/>
        <path id="Path_7467" data-name="Path 7467" d="M192.158,169.575c1.283,3.154.305,8.575,5.322,7.606,4.467-.863,2.856-5.681,2.81-9.255-.038-2.833-2.444-5.956.481-8.743,4.834.573,6.307,10.637,11.889,6.216,5.177-4.093-1.535-10.118-3.108-11.53-9.018-8.125-3.841-13.6,4.032-20-7.2-.252-13.883,3.734-17.785-1.115a11.95,11.95,0,0,1-2.069-4.269c1.588-1.848,3.749-2.5,6.055-2.864,4.849-.748,10.362-.176,12.661-6.5-3.5-.069-6.491-.008-9.125.191-13.959,1.046-16.731,6.582-17.983,25.2a29.253,29.253,0,0,0,.229,5.819c.909,6.865,3.994,12.882,6.6,19.235Z" transform="translate(1224.02 724.922)" fill="#fff"/>
        <path id="Path_7468" data-name="Path 7468" d="M114.227,28.369c-6.055-2.7-13.569-4.185-18.388,3.765-2.657,4.36-6.01,5.75-11.164,3.085-14.738-7.621-12.8,4.246-13.539,12.836,2.428-3.872,8.163-2.23,8.606-1.4v.008c5.758,10.943,16.219,3,23.985,7.178,4.353,2.337,13.1-1.848,14.142-10.057.664-5.254,2.207-12.791-3.642-15.417" transform="translate(466.536 108.517)" fill="#fff"/>
        <path id="Path_7469" data-name="Path 7469" d="M71.308,29.07a2.414,2.414,0,0,0-.2.267l.176.115a3.51,3.51,0,0,1,.023-.382" transform="translate(466.357 127.501)" fill="#fff"/>
        <path id="Path_7470" data-name="Path 7470" d="M76.24,78.724c-11.546-3.482-13.5,9.362-20.648,13.531-3.65,2.138-6.193,7.14-1.9,9.973l.008.008c5.826,3.849,2.856,7.728,2.237,11.813-.328,2.146-4.116,3.917-.9,6.369,2.069,1.588,4.475.985,7.025.084,16.6-5.834,22.061-17.036,17.548-38.784-.55-.5-1.756-2.512-3.368-2.993" transform="translate(335.856 453.086)" fill="#fff"/>
        <path id="Path_7471" data-name="Path 7471" d="M197.7,102.084c7.1,3.513,2.207-5.467,4.551-6.9a11.959,11.959,0,0,1,8.438-1.9c12.287,3.513,15-9.209,21.847-14.28,3.719-2.741-1.336-10-5.888-8.606V70.4c-8.636,2.619-14.241-2.5-20.953-6.682-4.536,8.812,1.97,19.526-8.8,24.7-3.406,1.626-4.406,11.08.81,13.669" transform="translate(1282.313 357.443)" fill="#fff"/>
        <path id="Path_7472" data-name="Path 7472" d="M238.833,142.184c-10.171-10-20.3-12.707-30.3-12.661-11.683.046-23.214,3.849-34.439,4.215,10.347,8.117,21.229,9.362,32.751,9.079,10.148-.245,20.778-1.672,31.988-.634" transform="translate(1149.779 794.12)" fill="#fff"/>
        <path id="Path_7473" data-name="Path 7473" d="M194.016,140.278h0c6.483,4.834,14.241-1.817,22.847,6.491-2.13-5.727-2.268-7.827-3.253-8.476-13.7-9.056-14.28-9.889-16.937-26.665-.328-2.069-.825-4.1-1.168-6.155-.588-3.581-2.428-5.75-6.01-5.475a7.277,7.277,0,0,0-6.735,5.116c-3.085,9.011,3.749,29.567,11.256,35.164" transform="translate(1202.255 598.029)" fill="#fff"/>
        <path id="Path_7474" data-name="Path 7474" d="M177.946,27.523c5.972-3.887,4.986-5.62.16-9.576-14.814-12.119-26.757-5.681-33.775,20.511C156.4,33.495,168,33.984,177.946,27.523" transform="translate(952.274 14.575)" fill="#fff"/>
        <path id="Path_7475" data-name="Path 7475" d="M197.464,32.205c-12.592.374-15.249-10.767-21.9-18.2-9.721-10.82-22.152-4.918-30.3,12.477-5.689,1.795-9.4,5.49-9.835,11.973-.214,3.154,2.7,5.689,4.452,5.223,13.867-3.7,25.947,9.423,39.715,5.2,4.895-.787,9.8-1.481,14.669-2.405,2.772-.527,6.8-.4,6.559-4.482-.2-3.459-2.321-9.82-3.36-9.79" transform="translate(893.11 -8.571)" fill="#fff"/>
        <path id="Path_7476" data-name="Path 7476" d="M187.135,130.8l-.6.367.4-.13c3.757-3.765,6.139-.7,8.468,2.146,3.375,4.146,8.3,5.689,11.92,2.955A12.741,12.741,0,0,0,212.2,121.35c-1.451-4.521-2.436-9.064-6.284-11.973v.008c-5.59,3.849-6.628,14.043-16.761,11.943-1.81-.374-3.52,5.6-2.016,9.469" transform="translate(1232.319 660.429)" fill="#fff"/>
        <path id="Path_7477" data-name="Path 7477" d="M15.8,134.978c-3.558.848-10.064.344-9.744,4.215.328,4.009-.367,11.332.848,11.683,4.33,1.268,11.4,2.13,13.462-.42,4.383-5.452,10.622-4.742,18.617-9.881-9.37-2.726-15.578-7.392-23.183-5.6" transform="translate(34.561 827.663)" fill="#fff"/>
        <path id="Path_7478" data-name="Path 7478" d="M102.417,22.853c-3.65,1.107-8.041,1.833-8.476,7-.084.993,1.963,2.321,3.108,3.375,4.032,3.742,10.828,1.886,11.569-.053l.008-.008c2.955-7.7,11.256-7.422,16.349-14.478-9.148-1.825-15.715,2.069-22.557,4.162" transform="translate(617.858 55.486)" fill="#fff"/>
        <path id="Path_7479" data-name="Path 7479" d="M74.176,33.573,74,33.84a5.424,5.424,0,0,0,.786.115c-.191-.137-.4-.267-.6-.389Z" transform="translate(485.542 157.331)" fill="#fff"/>
        <path id="Path_7480" data-name="Path 7480" d="M95.431,41.431c-1.879-4.337-4.834-9.507-11.195-8.087-3.52.786-6.2,4.223-10.133,3.681,2.619,1.749,2.741,4.62,2.97,7.6l-.008-.008c.8,10.591,12.111-2.146,13.653,6.949a7.791,7.791,0,0,0,4.78-9.942l-.069-.191" transform="translate(486.226 154.275)" fill="#fff"/>
        <path id="Path_7481" data-name="Path 7481" d="M79.077,88.038c3.032-7.125-.955-6.254-5.452-5.613h-.008c-2.726.382-6.811,4.009-7.858-2.451-.42-2.634,4.7-7.293-1.856-7.514a9.046,9.046,0,0,0-9.324,8.049,71.135,71.135,0,0,0,.214,12.164Z" transform="translate(355.577 415.404)" fill="#fff"/>
        <path id="Path_7482" data-name="Path 7482" d="M168.575,121.871h0l-.008-.084-.053.03.008.008Z" transform="translate(1112.75 742.786)" fill="#fff"/>
        <path id="Path_7483" data-name="Path 7483" d="M150.443,141.98c.389.481,4.963-1.344,5.941-3.123,4.673-8.53-3.062-12.149-8-21.541-2.917,11.783-2.9,18.655,2.062,24.665" transform="translate(966.032 713.107)" fill="#fff"/>
        <path id="Path_7484" data-name="Path 7484" d="M184.206,132.425c11.172-3.536,15.807-11.195,21.817-20.3-11.645,2.612-17.914,8.384-21.817,20.3" transform="translate(1216.883 678.685)" fill="#fff"/>
        <path id="Path_7485" data-name="Path 7485" d="M181.021,101.151c-3.864,2.482-9.675,3.558-10.049,9.622-.191,3.306,2.436,5.368,6.277,5.422a17.5,17.5,0,0,0,8.163-11.347c.557-3.314-2.047-5.2-4.391-3.7" transform="translate(1128.992 602.358)" fill="#fff"/>
        <path id="Path_7486" data-name="Path 7486" d="M91.975,108.865h.008a6.029,6.029,0,0,0,1.985-8.293,5.917,5.917,0,0,0-.787-1.016c-5.254-5.154-10.4-.779-15.776,2.642,4.727,3.169,7.361,11.408,14.57,6.666" transform="translate(508.138 579.555)" fill="#fff"/>
        <path id="Path_7487" data-name="Path 7487" d="M193.047,116.347Z" transform="translate(1275.551 706.681)" fill="#fff"/>
        <path id="Path_7488" data-name="Path 7488" d="M203,134.46c-4.169-5.07-4.36-11.324-6.025-18.113-7.728,6.85-3.505,14.043-2.115,20.747.649,3.093,2.8,6.33,6.04,5.261a5.248,5.248,0,0,0,2.657-6.934,5,5,0,0,0-.557-.962" transform="translate(1271.625 706.683)" fill="#fff"/>
        <path id="Path_7489" data-name="Path 7489" d="M117.206,15.843c-5.093.8-10.591,2.886-11.561,8.782-.5,3.009,4.1,4.406,6.865,3.887a15.541,15.541,0,0,0,11.424-7.682,6.258,6.258,0,0,0-6.727-4.986" transform="translate(695.298 39.534)" fill="#fff"/>
        <path id="Path_7490" data-name="Path 7490" d="M187.936,116.262c1.352-8.14,4.628-15.272-2.55-23.252-7.178,8.675-6.369,15.8,2.55,23.252" transform="translate(1192.681 551.815)" fill="#fff"/>
        <path id="Path_7491" data-name="Path 7491" d="M121.218,32.1c-2.634-2.436-5.445-.848-8.194-.6,1.107-4.62,5.513-3.192,8.293-4.734,4.208-2.337,5.559-6.2,3.306-9.912-3.032-4.971-6.483-.977-9.2,1.115a21.586,21.586,0,0,0-8.323,15.1c-2.9,1.252-6.544,1.787-5.987,6.582,12.325.451,12.325.451,20.106-7.545" transform="translate(665.079 30.56)" fill="#fff"/>
        <path id="Path_7492" data-name="Path 7492" d="M77.952,111.139h0c4.07-.42,4.307-4.8,3.8-8.514-.489-3.536-.863-7.728-5.574-7.506-5.7.267-3.154,4.918-3.284,8.163,1.5,2.81.214,8.362,5.055,7.858" transform="translate(475.183 565.751)" fill="#fff"/>
      </g>
    </g>
  </g>
</svg>
