<svg xmlns="http://www.w3.org/2000/svg" xmlns:xlink="http://www.w3.org/1999/xlink" width="1920" height="1095" viewBox="0 0 1920 1095">
  <defs>
    <linearGradient id="linear-gradient" x1="0.709" y1="0.169" x2="0.25" y2="0.861" gradientUnits="objectBoundingBox">
      <stop offset="0" stop-color="#d7dbe4" stop-opacity="0.141"/>
      <stop offset="1" stop-color="#b1b7ce"/>
    </linearGradient>
    <clipPath id="clip-path">
      <rect id="Rectangle_3903" data-name="Rectangle 3903" width="1920" height="1095" transform="translate(0 -366)" fill="#ba9d83"/>
    </clipPath>
    <clipPath id="clip-path-2">
      <rect id="Rectangle_3898" data-name="Rectangle 3898" width="1920" height="1095" transform="translate(0 -366)" fill="#f7f7f7" stroke="#707070" stroke-width="1"/>
    </clipPath>
    <radialGradient id="radial-gradient" cx="0.5" cy="0.5" r="0.5" gradientUnits="objectBoundingBox">
      <stop offset="0" stop-color="#f7f8fe"/>
      <stop offset="0.268" stop-color="#fdf6eb"/>
      <stop offset="1" stop-color="#f3f4fc"/>
    </radialGradient>
    <clipPath id="clip-path-3">
      <rect id="Rectangle_3897" data-name="Rectangle 3897" width="894.21" height="761.104" fill="#fff"/>
    </clipPath>
    <clipPath id="clip-path-4">
      <rect id="Rectangle_3912" data-name="Rectangle 3912" width="590.182" height="275.32" fill="url(#linear-gradient)"/>
    </clipPath>
    <clipPath id="clip-path-5">
      <rect id="Rectangle_4039" data-name="Rectangle 4039" width="416.5" height="620.825" fill="none"/>
    </clipPath>
  </defs>
  <g id="Mask_Group_32" data-name="Mask Group 32" transform="translate(0 366)" clip-path="url(#clip-path)">
    <g id="Mask_Group_31" data-name="Mask Group 31" clip-path="url(#clip-path-2)">
      <path id="Path_7446" data-name="Path 7446" d="M0,0H1931V1095H0Z" transform="translate(0 -366)" fill="url(#radial-gradient)"/>
      <g id="Group_2104" data-name="Group 2104" transform="translate(65.791 -8.955)" opacity="0.426">
        <g id="Group_2103" data-name="Group 2103" clip-path="url(#clip-path-3)">
          <path id="Path_7447" data-name="Path 7447" d="M300.386,165.7c-3.484-2.333-6.364-1.151-10.584-.223,3.034-6.488.094-10.3-4.066-13.61a45.821,45.821,0,0,1-15.343-4.066c-1.16-.582-2.367-2.551-3.552-1.023-2.7,3.488-4.686,1.019-5.658-1.16-1.549-3.471,3.8-1.524,3.454-5.217-2.418-.325-6.621,1.536-7.49-2.885-.188-.967,2.41-2.919,4.044-3.706a3.985,3.985,0,0,1,3.732-.175c-4.49-3.719-8.183-9.369-7.537-13.392.312-1.922,2.649-4.207-1.442-5.363-9.283-2.624-21.507,3.788-23.937,13.152-.959,3.7-2.547,6.154-6.351,4.143-4.361-2.32-6.047-.034-7.627,2.79,1.477-.111,3.15-.146,5.114-.107-1.288,3.544-4.378,3.223-7.1,3.642q-1.123,2-2.234,4c2.187,2.718,5.932.484,9.968.625-4.413,3.587-7.314,6.655-2.26,11.209.882.792,4.644,4.169,1.742,6.463-3.129,2.478-3.955-3.163-6.664-3.484-1.639,1.562-.291,3.313-.27,4.9.026,2,.929,4.7-1.575,5.187-2.812.544-2.264-2.5-2.983-4.263l0,0c-1.459-3.561-3.188-6.933-3.7-10.781-5.418,8.581-11.907,16.139-22.2,20.107-2.957,1.138-5.3,4.19-6.544,7.01,5.611-.021,11.29,1.494,16.983,7.1-6.274-.582-12.236.218-17.92.36-.013,9.219-.569,18.887,6.043,26.826,3.424,7.64,10.537,13.97,10.319,22.709-.158,6.283,4.083,7.293,6.42,6.48,9.561-3.325,19.769-5.722,27.237-13.572,10.6-11.132,30.066-22.148,44.515-6.214,2.6,2.863,5.059,4.079,6.441-.929,1.126-4.07,3.107-2.431,5.581-1.3,3.159,1.451,4.259,4.571,6.214,6.981a448.076,448.076,0,0,0,16.957-62.136,7.183,7.183,0,0,1-7.738-.068m-57.034-28.042c-1.815.6-3.022-1.215-3.381-2.949-.783-3.758-3.15-7.785,1.181-11.628.937,3.8,1.044,7.314,3.377,10.152a2.944,2.944,0,0,1-1.177,4.425" transform="translate(581.968 338.207)" fill="#fff"/>
          <path id="Path_7448" data-name="Path 7448" d="M210.109,145.747c2.217-3.651,6.266-5.067,11.038-3.676,5.162,1.5,10.5,2.371,15.712,3.689a32.894,32.894,0,0,1-7.225-11.158h0c-4.173-8.444-13.85-12.348-16.315-22.482-1.926,9.36-2.855,18.314-4.049,27.224-.24,1.75.758,4.43-1.952,5.11-2.4.6-5.508-.616-8.427-2.735a14.276,14.276,0,0,1,2.106,3.3c2.743,5.371,5.209,7.16,9.116.732" transform="translate(649.228 331.08)" fill="#fff"/>
          <path id="Path_7449" data-name="Path 7449" d="M523.828,42.963a71.8,71.8,0,0,0-31.723,5.928c-4.378.415-7.25,5.209-12.964,5.076,4.276-4.7,7.781-8.56,11.286-12.416,1.862-1.648,3.788-3.218,5.573-4.956,9.613-9.364,8.722-13.229-3.873-17.7-2.85-1.01-5.4-.047-8.063.411-2.487.175-5.735-1.892-6.531,2.859-.415,2.474-2.337,3.231-4.083,1.194-8.9-10.357-17.971-9.942-23.809,1.635a14.242,14.242,0,0,1-7.1,6.7c-12.484,6.253-24.815,12.818-37.316,19.028-3.9,1.943-6.578,4.224-5.62,9.253a8.778,8.778,0,0,1-7.421,7.049,85.3,85.3,0,0,0-12.69,4.173c-1.853.693-5.534.1-4.669,3.4.71,2.722,1.04,6.775,5.025,7.383,1.909.287,4.579-.171,4.4,2.679-.21,3.415-3.291,2.059-5.3,2.3-1.37.163-2.756.193-4.134.278-5.795-.9-11.616-1.866-11.954,7.113l-.372.736c-5.958.651-2.337-8.282-7.687-8.35-.193,1.387.081,3.223-.663,4.126-6.326,7.661,1.361,14.8,1.211,22.264-.064,3.206,3.668,2.679,6.176,2.046l.86,2.966c-1.84,15.776-5.769,21.331-14.509,19.88,1.84-2.046,3.676-3.788,5.162-5.821,2.063-2.812,3.89-6.159,1.99-9.664-5.594-10.315-8.072-21.468-9.352-32.972-.355-3.193-2.174-2.979-4.16-2.675-5.975.937-12.694.728-12.7,10.109,0,3.873-6.625,7.045-4.2,9.424,4.16,4.083,1.806,12.668,9.608,13.773,1.96.274,2.551,2.94,1.2,5.431-9.69-4.366-19.7-1.725-29.651-1.759a8.322,8.322,0,0,0-2.992.6c.745,10.2-7.948,6.013-12.082,7.935-3.771,1.759-7.794,6.985-10.691,5.465-6.848-3.612-9.694,1.588-13.567,4.425-4.434,3.257-9.861,5.376-12.258,11.29-.989,2.435-3.621,2.628-5.833,1.571-1.549-.745-2.949-2.3-1.186-4.079,1.361-1.37,3.762-2.02.89-4.425a7.625,7.625,0,0,0-7.9-1.507c-2.992,1.066-.852,3.411-.8,5.183a12.232,12.232,0,0,0,1.806,6.685c2.709,4.134,2.131,6.035-3.21,6.3-5.47.27-11.021,6.1-10.481,9.373,1.28,7.742-2.384,5.358-5.958,5.251-6.39-.2-5.667,2.987-1.682,7.19-14.719,2.384-12.707-15.07-22.333-17.993a171.325,171.325,0,0,1,21.327-.458c4.152.077,8.945,1.066,9.874-5.1.993-6.6-4.13-6.856-8.106-7.567-14.513-2.594-28.17-10.263-43.642-8.209,1.079-2.919,5.5-1.665,4.4-5.08-.663-2.029-3.347-1.742-5.209-2.016a19.974,19.974,0,0,0-4.169.24c-4.276-.141-7.965,3.655-12.784,1.245-1.733-.869-3.741,1.892-4.978,3.92-1.455,2.384-3.535,3.788-5.825,5.41-6.612,4.691-12.93,9.647-17.321,17.518-10.969,19.649-19.983,40.543-34.573,57.971-7.336,8.761,1.28,24.087,10.708,24.682,8.119.514,6.792-8.068,11.778-10.5l6.313,9.069a42.97,42.97,0,0,0,7.451,12.8c1.271,1.626,3.381,3.826,4.764,1.665,2.936-4.58,9.352-7.088,8.2-14.2a16.486,16.486,0,0,1,1.857-10.1c2.1-4.434,5.756-9.142-1.956-12.356-2.084-.869-1.382-3.578-1.28-5.615.205-4.087.355-8.175.531-12.266.381-.668.762-1.331,1.143-2,3.963-2.88,7.652-6.955,8.166-11.487a16.753,16.753,0,0,1,5.966-11.329l-.047.111q1.624-.083,3.24-.158c4.3,2.281,5.615,5.183,2.435,9.566-2.174,2.987-3.651,6.553-5.906,9.459-5.076,6.54-2.748,12.442,1.318,18.3,4.391,6.321,9.343,4.318,14.74,1.725,6.056-2.906,12.275-7.438,19.165-1.245-6.574,2.127-12.014,6.951-19.071,8.085-4.828.779-6.6,3.42-1.609,7.147,2.41,1.8,2.041,3.908,1.455,6.2-.856,3.321-3.189,2.7-5.32,1.785-3.929-1.708-5.234.411-4.948,3.895.8,9.929-2.606,16.769-11.967,19.636-6.873,2.983-13.623,5.667-21.506,5.572-5.307-.06-9.176-2.311-8.885-8.166.2-3.929,1.648-8-.933-11.774-8.59,4.173-9.835,8.17-5.7,16.58,1.571,3.2,6.51,8.222.312,9.9-12.942,3.509-15.018,16.944-21.9,25.538-4.849,6.069-11.778,8.068-16.221,13.841-1.027,1.335-5.153-.3-5.444,2.538-.372,3.745,3.368,3.223,5.551,3.933,7.593,2.474,10.653,7.832,10.9,16.264.282,9.668-6.471,8.363-11.83,9.352-3.274.608-6.711.372-9.972,1.031-3.869.779-6.484,2.529-5.363,7.824,1.318,6.227,1.16,12.806,2.812,18.909.946,3.5,1.31,9.6,5.521,9.741,7.832.257,16.289,1.536,23.253-3.479,3.27-2.35,8.11-5.187,7.3-9.767-1.228-6.959,2.529-10.914,5.525-15.613,1.96-3.077,4.425-5.637,3.638-10.2-.544-3.167,22.136-15.206,24.87-13.473a15.742,15.742,0,0,1,3.813,3.509c4.515,5.679,10.516,8.979,16.833,11.556,4.776,1.952,9.159,4.027,10.987,9.959,1.006-5.59,7.023-11.312-3.266-14.744-6.463-2.157-12.262-6.745-16.82-12.566-1.823-2.324-2.872-4.763-.809-7.01s4.134-.176,5.872,1.241c3,2.444,4.738,6.026,9.262,7.079,7.079,1.648,13.332,5.217,16.1,13.584a15.686,15.686,0,0,0,8.235,9.673,19.591,19.591,0,0,1,2.392,4.378c.869,3.462,2.945,4.9,6.039,4.378,3.955-.659,1.2-4.156,1.956-5.833,2.35-5.256-1.768-7.019-3.908-9.934-1.729-7.6,2.91-9.673,8.517-10.9,10.486,1.913,12.788-1.284,9.056-12.561.21-2.581.253-5.2.646-7.738,2.2-14.184,5.384-17.3,15.613-15.455-.826,2.833-1.836,6,1.571,7.593,4.057,1.892,6.775-1.716,9.416-3.771,5.187-4.036-1.926-1.455-2.072-3.432-.137-1.917-.282-3.334,1.16-4.511,3.291-2.675,6.493-5.555,10.691-6.3,1.335,2.478-2.662,3.908.09,5.851-.069,3.231-2.3,5.35-4.6,7.875,6.116,2.919,11.406,5.354,16.627,7.961,4.9,2.457,7.22,5.632,2.226,10.319-4.969.274-9.279,4.883-14.5,2.743-10.045-4.113-17.984,1.2-25.932,5.658-11.975,6.715-13.139,11.517-6.587,21.678,3.176,4.93,6.869,6.831,11.89,3.39a6.907,6.907,0,0,1,6.4-.818c3.681,1.181,6.677,1.237,9.818-2.123,2.846-3.043,6.107-3.193,5.752,3.1-.312,5.551-.12,11.141-.235,16.709-.146,6.664-4.691,10.9-9.647,11.551-12.288,1.6-24.691,5.427-37.291-.693-4.627-2.251-10.041-.766-11.008,5.53-1.117,7.25-5.136,7.349-10.246,5.812-8.915-2.684-17.749-5.671-26.672-8.312-3.732-1.1-5.431-1.922-4.126-7.07,2.059-8.123-1.494-11.23-9.125-8.5-5.979,2.144-11.56,5.47-17.316,8.269l.792,62.071q-.4-31.034-.792-62.067c-12.446,3.822-23.163,14.158-37.689,10.3a2.438,2.438,0,0,0-2.084,1.173c-3.531,7.8-10.974,14.1-10.571,23.218.321,7.254-1.669,13.088-4.31,19.153-3.231,7.4-6,15.07-9.625,22.243-4.644,9.176-7.088,17.9-.33,27.528,2.517,3.6,2.213,8.44,2.585,12.827-.9,3.608-2.487,7.207,1,10.533,7.691,7.34,14.2,16,22.649,22.512,10.3,11.718,21.875,17.971,36.811,10.456a40.455,40.455,0,0,1,6.313-2.024,29.744,29.744,0,0,0,3.15-.792c10.019-3.6,18.339-16.606,31.029-5.521.154.137.539-.051.817-.026,10.944.882,13.028,3.052,13.833,14.984.621,9.215,2.778,17.406,11.911,21.494,6.989,5.7,8.14,14.813,12.1,22.285,2.392,6.548,5.136,12.972,4.8,20.227-.732,15.771.419,30.858,12.557,42.975,2.619,2.619,3.141,7.477,4.918,11.158,2.512,5.209,2.551,11.658,7.276,15.75a60.778,60.778,0,0,1,15.724,20.552c2.341,5.012,7.409,10.764,13.139,8.273,11.8-5.123,24.147-9.728,29.822-24.177,4-10.178,11.834-18.733,10.22-31.034a5.516,5.516,0,0,1,2.85-5.821c5.842-3.527,5.174-10.4,2.594-13.764-5.863-7.627-1.9-12.805,1.211-18.819,2.375-4.588,4.545-9.3,6.809-13.957,4.883-5.932,5.127-11.877,1.489-19.2-4.263-8.568-10.905-18.515-9.788-26.711.586-4.306,1.305-8.765,2.281-13.191-.475-3.4-1.215-6.882-2.05-10.366-.432-1.819-.09-4.361,2-5.358,6.21-2.966,7.944-9.283,10.4-15.082.809-1.917,1.682-3.753,4.173-3.42h.009a3.4,3.4,0,0,1,2.32,1.288c9.4-13.76,8.971-29.8,11.517-46.882-6.715,3-12.138,5.055-17.227,7.785-5.324,2.863-9.848,2.589-13.935-2.367-14.179-12.352-28.547-24.5-38.647-41.074-4.306-7.195-8.8-14.278-12.8-21.648-1.19-2.187-5.166-5.007-2.23-7.254,3.317-2.538,5.119,2.054,6.955,4.34,6.471,8.063,12.8,16.255,19.174,24.4,7.477,10.041,15.018,20.034,22.418,30.139,4.023,5.5,8.256,6.544,13.5,2.076,8.5-7.25,18.271-12.442,26.017-21.207,5.5-6.219,11.337-11.817,15.027-19.491q1.316-2.934,2.641-5.868c3.086-3.325,2.5-6.518-.154-10.023-3.064-4.053-7.417-4.794-11.663-5.966q-.937-4.25-1.883-8.5l.081-.043-.043-.06c8.6,1.344,17.081,1.186,25.328-1.776,11.068-5.221,21.361,1.335,27.644,7.956,6.052,6.386,8.418,10.742,16.272.552-1.1,25.641,11.179,42.337,25.863,57.766,1.549,1.626,3.017,4.472,5.371,3.659,2.684-.924,4.117-3.6,4.391-6.848.608-7.259,2.469-14.346,1.049-21.845-1.194-6.321.411-11.774,4.657-16.85,5.089-6.086,10.417-12.532,13.362-19.876,3.535-8.8,12.741-6.681,17.543-12.262.188-.223,2.217.693,2.76,1.524,4.669,7.195,13,11.573,14.509,21.267.779,5.012,3.582,5.5,7.07,2.17,1.25-1.194,1.186-4.066,4.618-3.385,6.634,23.317,19.491,43.509,33.268,63.171.12.723.248,1.451.372,2.17,2.855-2,5.427,2.328,9.095.253l-5.966-12.039c-1.472-4.853-6-5.919-9.411-8.273-11.183-7.721-13.751-15.245-9.168-28.4,7.3,4.425,16.371,5.491,21.536,14.218,2.589-3.424,5-6.565,7.366-9.75,6.377-8.611,6.189-14.021-.779-22.225-1.875-2.2-3.749-4.417-5.744-6.505-12.685-13.28-9.625-11.551-2.414-23.788,2.422-.12,5.1-1.716,7.177.574,1.853,2.042,2.654,2.469,3.728-.556,1.263-3.552,4.768-4.879,7.627-6.326A40.807,40.807,0,0,0,590.5,339.38c.693-2.5,1.472-5.32,3.094-7.1,5.855-6.424,2.333-14.214-.668-18.66-2.17-3.214.886-5.581-2.114-8.624-9.18-9.313-8.667-9.865-1.126-20.792a2.877,2.877,0,0,0,.514-3.5,41.617,41.617,0,0,0-6.326.047c-4.263.642-9.262,1.554-11.218-3.18-1.626-3.929,3.42-5.838,5.491-8.628,1.832-2.465,3.822-5.949,7.284-4.682,4.04,1.481-1.3,5.649,1.494,8.235,2.812-2.341,5.281-5.958,8.4-6.655,6.36-1.421,4.417,4.768,5.414,8.166a.936.936,0,0,0,.693.466c7.135.5,5.247,7.092,7.066,11.209.937,2.119-.3,6.219,3.505,5.842a7.753,7.753,0,0,0,6.891-5.311c2.076-5.273-.488-8.491-3.565-11.569-5.29-5.294-6.232-10.268-1.583-16.692,3.462-4.793,5.6-10.653,8.324-16.045,6.8,1.186,10.717-1.609,12.082-8.812,1.271-6.711,3.086-13.306,4.661-19.949,3.407-12.125,6.818-24.246,10.272-36.52,5.795,10.79,6.762,22.247,9.424,33.263.334,1.391-1.4,5.393,3.171,4.079,4.717-1.357.9-3.441.437-4.93-1.49-4.755-4.918-9.869,3.3-11.363,1.639-.3.71-1.857.257-2.735-4.207-8.136-8.478-16.234-13.208-25.247-1.913,3.728-2.324,6.865-6.69,4.327-3.989-2.315-8.294-5.786-13.863-1.6-2.534,1.909-6.454-2.465-9.15-4.481-1.909-1.429,1.241-3.925,2.427-5.645,5.281-7.674,10.691-15.258,16.131-22.816a449.554,449.554,0,0,0-96.61-98.01,14.608,14.608,0,0,1-3.835,1.956c-5.851,1.862-11.483-.12-17.047-.454M318.56,382.23l.12-.133-.12.133m7.978,22.88a7.3,7.3,0,0,0,4.186-1.263,7.3,7.3,0,0,1-4.186,1.263M295.714,262.4c14.475-7.926,28.889-15.96,43.347-23.916-14.453,7.956-28.872,15.99-43.347,23.916m44.447-25.949c.334.039.663.06.98.068-.317-.009-.646-.03-.98-.068m37.06,70.289a6.947,6.947,0,0,1,1.656-.1,7.176,7.176,0,0,0-1.656.1m4.4,1.519c7.618,4.276,15.866,6.929,23.908,10.053-8.046-3.12-16.294-5.774-23.908-10.053M521.689,103.2c-7.195-11.928-14.231-23.963-22.358-35.236,8.128,11.273,15.168,23.308,22.358,35.236M451.331,166.99c19.217-2.885,38.66-4.3,57.693-8.384-19.033,4.092-38.476,5.508-57.693,8.384" transform="translate(172.607 15.59)" fill="#fff"/>
          <path id="Path_7450" data-name="Path 7450" d="M19.249,175.466c.946,1.947.073,3.9-1.335,5.568-7.759,9.189-7.811,15.613-.287,25.281,4.811,6.18,10.4,11.872,14.308,18.618C38.248,235.847,47.1,239.42,58.5,239.33c4.657-.034,7.194-.531,7.674-6.065.659-7.55,2.089-15.01,3.189-22.5.445-1.554,1.173-3.2-1.228-3.788-1.691-2.2.424-3.544.967-5.239,3.681-6.544,8.894-11.389,14.646-15.955,14.457-11.474,28.568-23.428,42.816-35.185,6.154-2.842,7.01-8.1,4.378-13.747a14.246,14.246,0,0,1-.4-11.74c1.549-4.361,2.487-9,4.216-13.268,3.15-7.759-.253-15.806-4.853-19.114-6.321-4.541-5.191-7.575-2.568-12.437,2.093-1.815,4.109-3.813.235-5.829-8.941-4.644-5.585-11.684-2.012-16.589,7.04-9.647,11.188-22.148,22.82-27.635.227-.107.116-.959.175-1.455-15.463-6.3-25.7,6.758-39.349,10.379A451.545,451.545,0,0,0,10.42,176.831a16.109,16.109,0,0,0,3.9-1.417c1.541-.732,3.535-2.795,4.926.051m48.119,34.62a1.315,1.315,0,0,1-.518-.578,1.37,1.37,0,0,0,.518.578" transform="translate(31.076 52.182)" fill="#fff"/>
          <path id="Path_7451" data-name="Path 7451" d="M9.606,187.451c-.475-1.618,1.271-4.686,2.829-5.992,5.042-4.237,10.469-7.965,16.135-12.176.753,4.764-2.932,7.644-1.091,13.233,3.1-8.059,10.832-8.705,15.7-16.032-5.174,2.264-6.116-7.533-11.688-1.8-.419.432-6.7-4.425-9.3-7.665-1.635-2.046,2.1-3.278,3.2-4.866,6.912-9.985,17.244-16.11,26.133-23.856,4.6-4,4.336-8.29,1.75-12.163-1.485-2.221-5.667-2.5-8.633-3.642a7.692,7.692,0,0,1-.728-.719c.2-4.383-2.987-4.241-5.692-4.841-4.485-1-9.844-3.612-10.76-7.246-2.2-8.658-9.116-12.176-14.235-18.194a445.916,445.916,0,0,0-12.2,121.369c4.785-3.7,11.171-6.54,8.577-15.408" transform="translate(-0.723 230.614)" fill="#fff"/>
          <path id="Path_7452" data-name="Path 7452" d="M142.732,310.435c-.693-9.36,5.59-20.942,13.888-23.509,5.825-1.8,8.012-5.333,8.71-10.931,1.772-5.3,3.129-10.67,2.071-16.43.111-12.266,1.3-24.121,6.463-35.45,2.94-6.458,2.238-14.269,2.106-21.528-.056-3.27-.715-8.226-4.772-8.2l-.009-.013c-12.857.077-23.672-8.252-36.1-9.6-1.318-.3-2.731-1.057-3.959-.839-11.171,1.977-20.205-1.344-26.882-11.547-1.566-2.4-4.16-4.04-5.911-6.343-2.919-3.848-6.51-5.534-11.008-4.682-8.594,1.631-15.93-1.614-22.778-6.754-7.113-5.341-15.027-7.674-23.6-8.363-7.52-.608-15.027-1.673-22.491-2.872a15.647,15.647,0,0,0-10.772,2.1A447.106,447.106,0,0,0,137.9,328.243q1.136-2.221,2.281-4.434a24.241,24.241,0,0,0,2.547-13.375" transform="translate(22.132 432.863)" fill="#fff"/>
          <path id="Path_7453" data-name="Path 7453" d="M176.207,149.063c2.448,6.39,4.721,12.386,13.049,14.693,5.239,1.451,10.22-2.576,15.018,1.079.18.137,5.294-.933,5.632-4.909.817-9.66,5.153-19.345-1.066-28.894a5.537,5.537,0,0,1,.111-7.079c1.746-2.5,3.017-6.043-1.827-7.862-3.24-1.224-6.039-4.579-8.885.792-4.254,8.055-11.325,14.235-14.2,23.2-.715,2.247-1.614,2.722-3.522,2.183-5.649.779-6.407,1.344-4.314,6.792Z" transform="translate(571.339 337.009)" fill="#fff"/>
          <path id="Path_7454" data-name="Path 7454" d="M128.742,131.854h0c-2.5-.33-3.364,1.507-4.177,3.42-2.452,5.8-4.19,12.116-10.4,15.082-2.084,1-2.431,3.539-1.994,5.358.83,3.488,1.571,6.968,2.046,10.366a38.5,38.5,0,0,1-.154,13.683c1.211,3.668,1.982,5.881,2.671,8.128,1.335,4.344,2.722,8.483,8.393,7.687,5.876-.822,6.411-4.935,6.411-10.139,0-11.714.411-23.411.749-35.112.137-4.781,2.675-9.373.3-14.4a13.588,13.588,0,0,0-1.515-2.782,3.406,3.406,0,0,0-2.32-1.288" transform="translate(364.249 395.678)" fill="#fff"/>
          <path id="Path_7455" data-name="Path 7455" d="M228.052,120.407c-4.772-1.391-8.821.026-11.038,3.676-3.908,6.433-6.373,4.639-9.116-.732a14.229,14.229,0,0,0-2.106-3.3,4.585,4.585,0,0,0-1.224-.95,3.985,3.985,0,0,0-3.732.175c-1.631.787-4.233,2.739-4.045,3.7.869,4.421,5.072,2.564,7.49,2.889.347,3.694-5,1.746-3.454,5.217.972,2.178,2.953,4.648,5.658,1.156,1.186-1.524,2.393.441,3.552,1.027a45.82,45.82,0,0,0,15.343,4.066c4.16,3.313,7.1,7.122,4.066,13.61,4.224-.929,7.1-2.11,10.584.223a7.183,7.183,0,0,0,7.738.068q2.394-12.166,4.117-24.511a56.367,56.367,0,0,0-8.123-2.632c-5.209-1.314-10.55-2.183-15.712-3.689" transform="translate(642.323 352.74)" fill="#fff"/>
          <path id="Path_7456" data-name="Path 7456" d="M74.1,33.566a1.509,1.509,0,0,1-.1.15" transform="translate(239.609 73.431)" fill="#fff"/>
          <path id="Path_7457" data-name="Path 7457" d="M71.207,29.173l-.1-.068.013.073Z" transform="translate(230.129 58.798)" fill="#fff"/>
          <path id="Path_7458" data-name="Path 7458" d="M104.72,48.138h0c2.9-4.276,2.491-7.571-2.743-9.681-4.366-1.763-9.12-3.206-9.72-9.334-5.05.475-12.677-1.536-7.528,8.782a1.868,1.868,0,0,1-.569,2.576,1.818,1.818,0,0,1-.454.21c-2.538.672-3.338-1.357-4.1-3.351C76.94,30.406,71.821,32.456,67.25,33.7c-3.522.959-2.842,5.572-1.494,6.334,5.209,2.957,8.008,13.435,16.636,6.882l0,0c.685-.518,2.029-.09,3.137-.107.214,3.865-4.438,3.7-4.5,6.976,1.9,1.866,6.167-1.181,6.6,3.133.342,3.445-4.391,1.271-5.273,3.942,9.523,7.413,9.557,7.417,11.984-4.455,1.044-5.114,2-10.225,6.052-14.286,1.892,1.939.98,5.795,4.323,6.026Z" transform="translate(208.99 58.856)" fill="#fff"/>
          <path id="Path_7459" data-name="Path 7459" d="M74.954,61.415c-8.962-.689-18.262-2.478-25.277,5.7-.929,1.083-1.494.92-2.452-.317-5.179-6.66-7.652-2.35-10.045,2.7,2.375,2.44,6.159-2.234,7.1,2.654.381,1.986,4.045,8.68,5.341,8.932,12.181,2.35,20.817-3.518,28.038-12.758,3.133-4.015,2.238-6.531-2.7-6.912" transform="translate(118.846 162.621)" fill="#fff"/>
          <path id="Path_7460" data-name="Path 7460" d="M115.188,53.732c-8.782,6.274-7.961,17.753-12.382,26.416-1.164,2.268,1.626,5.05,3.813,6.193l0,0c5.149,2.692,10.571,3.681,16.225,1.738,3.368-1.16,4.357-3.064,1.181-5.273-7.64-5.324-5.333-11.453-2.838-18.361,1.712-4.746,5.427-8.008,6.98-12.694,10.267-9.1,23.475-14.4,32.382-26.779-26.45,7.028-33.37,11.47-45.358,28.765" transform="translate(333.194 45.228)" fill="#fff"/>
          <path id="Path_7461" data-name="Path 7461" d="M194.845,119.061c-2.213-4.37.33-4.186,3.531-3.1,4.772,1.613,7.22.569,6.36-.668-4.134-5.958,1.412-3.865,3.291-4.8.984,1.515,2.354,6.39,3.569,2.773,2.3-6.848,6.488-8.406,12.189-9.364,1.37-.231,3.48-2.153,3.488-3.347.047-10.272,3.993-21.027-4.562-31.278-1.772,13.743-7.593,25.025-15.883,34.92-4.768-.646-7.473,3.274-10.832,5.491-11.175,7.353-11.2,8.2-2.452,20.081.895-3.8,3.484-6.386,1.3-10.7" transform="translate(611.126 190.547)" fill="#fff"/>
          <path id="Path_7462" data-name="Path 7462" d="M168.519,121.807Z" transform="translate(549.624 362.853)" fill="#fff"/>
          <path id="Path_7463" data-name="Path 7463" d="M168.532,121.856l.017-.038h0l-.03-.026Z" transform="translate(549.611 362.804)" fill="#fff"/>
          <path id="Path_7464" data-name="Path 7464" d="M181.335,137.658c7.845,7.67,15.78,15.241,23.484,23.064,2.748,2.79,6.206,4.7,8.457,1.656,1.673-2.26,1.3-8.329-1.314-9.48-5.1-2.238-7.212-6.985-9.026-10.88-2.585-5.547-9.664-5.838-10.845-12.086-1.194,3.3-3.214.2-4.789.539-7.494-4.545-14.214-11.179-25.97-11.141,7.8,7.147,13.905,12.737,20,18.326" transform="translate(526.048 354.731)" fill="#fff"/>
          <path id="Path_7465" data-name="Path 7465" d="M83.148,98.305a14.83,14.83,0,0,0-7.413-9.035c-6.154-3.077-9.292-7.533-6.5-14.774q-6.8,1.3-13.61,2.6C50.617,82.3,59.652,78.177,59,82.35v0c-.355,2.221,2.183,8.859,8.8,7.46,2.594-.552,4.177,9.257,1.429,9.681-7.644,1.186,1.2,8.419-3.689,10.109,3.06,2.414,6.116,1.382,9.172.2-.745,4.584-7.456,4.023-7.391,9.8,5.842-1.5,10.062-6.9,16.212-6.612,7.871.368,5.067-6.565,5.919-10.272,1.22-5.341-4.25-2.7-6.309-4.4" transform="translate(174.367 207.678)" fill="#fff"/>
          <path id="Path_7466" data-name="Path 7466" d="M19.065,94h0a3.9,3.9,0,0,0-1.695,1.8c-1.832,3.231-3.985,6.351-5.251,9.831-1.442,3.972-.578,7.028,4.588,6.274a76.527,76.527,0,0,1,17.59-.282c5.042.454,4.3-1.057,4.143-3.043C37.079,101.461,24.081,92.306,19.065,94" transform="translate(34.582 270.989)" fill="#fff"/>
          <path id="Path_7467" data-name="Path 7467" d="M189.136,147.388c.719,1.768.171,4.806,2.983,4.263,2.5-.484,1.6-3.184,1.575-5.187-.021-1.588-1.37-3.338.27-4.9,2.709.321,3.535,5.962,6.664,3.484,2.9-2.294-.86-5.671-1.742-6.463-5.055-4.554-2.153-7.623,2.26-11.209-4.036-.141-7.781,2.093-9.968-.625a6.7,6.7,0,0,1-1.16-2.393,5.245,5.245,0,0,1,3.394-1.6c2.718-.419,5.808-.1,7.1-3.642-1.964-.039-3.638,0-5.114.107-7.824.586-9.377,3.689-10.079,14.124a16.4,16.4,0,0,0,.128,3.261c.509,3.848,2.238,7.22,3.7,10.781Z" transform="translate(604.603 353.959)" fill="#fff"/>
          <path id="Path_7468" data-name="Path 7468" d="M95.287,27.42c-3.394-1.515-7.605-2.345-10.306,2.11-1.489,2.444-3.368,3.223-6.257,1.729-8.26-4.271-7.173,2.38-7.588,7.194,1.361-2.17,4.575-1.25,4.823-.783v0C79.186,43.807,85.05,39.356,89.4,41.7c2.44,1.31,7.34-1.036,7.926-5.637.372-2.945,1.237-7.169-2.042-8.641" transform="translate(230.218 49.302)" fill="#fff"/>
          <path id="Path_7469" data-name="Path 7469" d="M71.22,29.07a1.353,1.353,0,0,0-.111.15l.1.064a1.967,1.967,0,0,1,.013-.214" transform="translate(230.13 58.685)" fill="#fff"/>
          <path id="Path_7470" data-name="Path 7470" d="M65.342,78.464c-6.471-1.952-7.567,5.247-11.573,7.584-2.046,1.2-3.471,4-1.066,5.59l0,0c3.266,2.157,1.6,4.331,1.254,6.621-.184,1.2-2.307,2.2-.505,3.569,1.16.89,2.508.552,3.937.047,9.3-3.27,12.365-9.548,9.835-21.738-.308-.282-.984-1.408-1.887-1.678" transform="translate(165.63 219.605)" fill="#fff"/>
          <path id="Path_7471" data-name="Path 7471" d="M196.1,85.222c3.98,1.969,1.237-3.064,2.551-3.869a6.7,6.7,0,0,1,4.729-1.066c6.886,1.969,8.406-5.162,12.245-8,2.084-1.537-.749-5.6-3.3-4.823v0c-4.841,1.468-7.982-1.4-11.744-3.745-2.542,4.939,1.1,10.944-4.935,13.841-1.909.912-2.47,6.21.454,7.661" transform="translate(633.414 172.333)" fill="#fff"/>
          <path id="Path_7472" data-name="Path 7472" d="M210.379,136.619c-5.7-5.6-11.376-7.122-16.983-7.1-6.548.026-13.011,2.157-19.3,2.363,5.8,4.55,11.9,5.247,18.357,5.089,5.688-.137,11.646-.937,17.928-.355" transform="translate(567.91 388.16)" fill="#fff"/>
          <path id="Path_7473" data-name="Path 7473" d="M188.735,122.563h0c3.634,2.709,7.982-1.019,12.805,3.638-1.194-3.21-1.271-4.387-1.823-4.751-7.678-5.076-8-5.542-9.493-14.945-.184-1.16-.462-2.3-.655-3.45-.33-2.007-1.361-3.223-3.368-3.069a4.078,4.078,0,0,0-3.775,2.868c-1.729,5.05,2.1,16.572,6.309,19.709" transform="translate(593.846 291.242)" fill="#fff"/>
          <path id="Path_7474" data-name="Path 7474" d="M163.172,20.724c3.347-2.178,2.795-3.15.09-5.367-8.3-6.792-15-3.184-18.93,11.5,6.762-2.782,13.268-2.508,18.84-6.129" transform="translate(470.293 2.871)" fill="#fff"/>
          <path id="Path_7475" data-name="Path 7475" d="M170.193,21.815c-7.058.21-8.547-6.035-12.275-10.2C152.47,5.551,145.5,8.86,140.935,18.609c-3.188,1.006-5.268,3.077-5.512,6.711-.12,1.768,1.515,3.189,2.5,2.927,7.772-2.071,14.543,5.281,22.26,2.915,2.743-.441,5.5-.83,8.222-1.348,1.554-.3,3.809-.227,3.676-2.512-.111-1.939-1.3-5.5-1.883-5.487" transform="translate(441.052 -8.569)" fill="#fff"/>
          <path id="Path_7476" data-name="Path 7476" d="M186.87,121.382l-.338.205.223-.073c2.106-2.11,3.441-.394,4.746,1.2,1.892,2.324,4.652,3.188,6.681,1.656a7.141,7.141,0,0,0,2.735-8.286c-.813-2.534-1.365-5.08-3.522-6.711v0c-3.133,2.157-3.715,7.871-9.394,6.694-1.014-.21-1.973,3.137-1.13,5.307" transform="translate(608.705 322.083)" fill="#fff"/>
          <path id="Path_7477" data-name="Path 7477" d="M11.509,134.8c-1.994.475-5.641.193-5.461,2.363.184,2.247-.205,6.351.475,6.548,2.427.71,6.39,1.194,7.545-.235,2.457-3.056,5.953-2.658,10.434-5.538-5.251-1.528-8.731-4.143-12.994-3.137" transform="translate(16.715 404.739)" fill="#fff"/>
          <path id="Path_7478" data-name="Path 7478" d="M98.691,20.816c-2.046.621-4.507,1.027-4.751,3.925-.047.556,1.1,1.3,1.742,1.892,2.26,2.1,6.069,1.057,6.484-.03l0,0c1.656-4.318,6.309-4.16,9.163-8.115-5.127-1.023-8.808,1.16-12.643,2.333" transform="translate(305.009 23.092)" fill="#fff"/>
          <path id="Path_7479" data-name="Path 7479" d="M74.1,33.569l-.1.15a3.04,3.04,0,0,0,.441.064c-.107-.077-.223-.15-.338-.218Z" transform="translate(239.612 73.428)" fill="#fff"/>
          <path id="Path_7480" data-name="Path 7480" d="M86.057,37.771C85,35.34,83.348,32.443,79.782,33.239c-1.973.441-3.475,2.367-5.679,2.063,1.468.98,1.536,2.589,1.665,4.258l0,0c.449,5.936,6.788-1.2,7.652,3.895A4.367,4.367,0,0,0,86.1,37.878l-.039-.107" transform="translate(239.95 71.918)" fill="#fff"/>
          <path id="Path_7481" data-name="Path 7481" d="M68.238,81.189c1.7-3.993-.535-3.505-3.056-3.146h0c-1.528.214-3.818,2.247-4.4-1.374-.235-1.477,2.632-4.087-1.04-4.211a5.07,5.07,0,0,0-5.226,4.511,39.87,39.87,0,0,0,.12,6.818Z" transform="translate(175.377 200.981)" fill="#fff"/>
          <path id="Path_7482" data-name="Path 7482" d="M168.548,121.834h0l0-.047-.03.017,0,0Z" transform="translate(549.609 362.788)" fill="#fff"/>
          <path id="Path_7483" data-name="Path 7483" d="M148.668,131.139c.218.27,2.782-.753,3.33-1.75,2.619-4.781-1.716-6.809-4.485-12.074-1.635,6.6-1.626,10.456,1.156,13.824" transform="translate(477.093 348.119)" fill="#fff"/>
          <path id="Path_7484" data-name="Path 7484" d="M184.206,123.5c6.262-1.982,8.859-6.274,12.228-11.376-6.527,1.464-10.041,4.7-12.228,11.376" transform="translate(601.076 331.106)" fill="#fff"/>
          <path id="Path_7485" data-name="Path 7485" d="M176.6,100.92c-2.166,1.391-5.423,1.994-5.632,5.393-.107,1.853,1.365,3.009,3.518,3.039a9.806,9.806,0,0,0,4.575-6.36c.312-1.857-1.147-2.915-2.461-2.071" transform="translate(557.636 293.382)" fill="#fff"/>
          <path id="Path_7486" data-name="Path 7486" d="M85.571,103.734h0a3.379,3.379,0,0,0,1.113-4.648,3.317,3.317,0,0,0-.441-.569C83.3,95.627,80.418,98.08,77.4,100c2.649,1.776,4.126,6.394,8.166,3.736" transform="translate(250.78 282.112)" fill="#fff"/>
          <path id="Path_7487" data-name="Path 7487" d="M193.047,116.347Z" transform="translate(630.072 344.944)" fill="#fff"/>
          <path id="Path_7488" data-name="Path 7488" d="M198.365,126.5c-2.337-2.842-2.444-6.347-3.377-10.152-4.331,3.839-1.964,7.871-1.185,11.628.364,1.733,1.571,3.548,3.385,2.949a2.941,2.941,0,0,0,1.489-3.886,2.8,2.8,0,0,0-.312-.539" transform="translate(628.132 344.944)" fill="#fff"/>
          <path id="Path_7489" data-name="Path 7489" d="M112.109,15.83c-2.855.449-5.936,1.618-6.48,4.922-.278,1.686,2.3,2.469,3.848,2.178a8.71,8.71,0,0,0,6.4-4.306,3.507,3.507,0,0,0-3.771-2.795" transform="translate(343.283 15.207)" fill="#fff"/>
          <path id="Path_7490" data-name="Path 7490" d="M184.694,106.042c.758-4.562,2.594-8.56-1.429-13.032-4.023,4.862-3.569,8.855,1.429,13.032" transform="translate(589.114 268.401)" fill="#fff"/>
          <path id="Path_7491" data-name="Path 7491" d="M112.355,24.349c-1.477-1.365-3.052-.475-4.592-.338.621-2.589,3.09-1.789,4.648-2.654,2.358-1.31,3.116-3.475,1.853-5.555-1.7-2.786-3.634-.548-5.157.625a12.1,12.1,0,0,0-4.665,8.461c-1.626.7-3.668,1-3.355,3.689,6.908.253,6.908.253,11.269-4.229" transform="translate(328.348 10.772)" fill="#fff"/>
          <path id="Path_7492" data-name="Path 7492" d="M75.529,104.094h0c2.281-.235,2.414-2.692,2.131-4.772-.274-1.982-.484-4.331-3.124-4.207-3.2.15-1.768,2.756-1.84,4.575.839,1.575.12,4.686,2.833,4.4" transform="translate(234.492 275.289)" fill="#fff"/>
        </g>
      </g>
      <g id="Group_2123" data-name="Group 2123" transform="translate(1231 508)">
        <g id="Group_2122" data-name="Group 2122" clip-path="url(#clip-path-4)">
          <path id="Path_7560" data-name="Path 7560" d="M491.992,93.911c1.542-1.464,1.034-2.606-.83-3.211,28.86-10.58,40.167-17.355,44.409-21.383,3.045-2.893-1.885-4.535-9.541-3.237-4.762.808-9.487,1.715-14.141,2.687,49.421-17.386,64.963-27.162,69.4-32.242,2.481-2.842-3.1-4.217-10.811-2.717-6.776,1.317-13.434,2.814-19.873,4.411L582.73,16.31C595.573,7.55,590.423.384,571.285.384H412.876c-19.138,0-45.3,7.166-58.147,15.926L214.645,111.849c4.3-6.475.122-8.253-3.795-8.652a16.989,16.989,0,0,0-8.069,1.685l-97.8,50.266c-35.263,17.982-54.555,33.9-65.048,46.409-10.808,12.888-14.332,24.916-9.043,34.8,6.352,11.875-29.726,38.576-29.726,38.576H152.3c9.724-6.5,19.309-12.373,28.723-17.751,14.629-8.153,35.621-18.985,64.673-32.225q6.114-2.762,12.036-5.417c.138-.057,19.125-7.953,39.161-18.6,5.4-2.837,10.6-5.75,15.569-8.8,8.147-4.938,15.657-10.128,21.206-15.193.05-.042.1-.1.159-.149,12.529-2.919,24.566-7.487,32.063-12.6l40.238-27.443c27.442-10.175,38.347-16.739,42.493-20.676a2.516,2.516,0,0,0,.9-1.5c27.42-10.169,38.319-16.729,42.463-20.665" fill="url(#linear-gradient)"/>
          <path id="Path_7561" data-name="Path 7561" d="M491.992,93.911c1.542-1.464,1.034-2.606-.83-3.211,28.86-10.58,40.167-17.355,44.409-21.383,3.045-2.893-1.885-4.535-9.541-3.237-4.762.808-9.487,1.715-14.141,2.687,49.421-17.386,64.963-27.162,69.4-32.242,2.481-2.842-3.1-4.217-10.811-2.717-6.776,1.317-13.434,2.814-19.873,4.411L582.73,16.31C595.573,7.55,590.423.384,571.285.384H412.876c-19.138,0-45.3,7.166-58.147,15.926L214.645,111.849c4.3-6.475.122-8.253-3.795-8.652a16.989,16.989,0,0,0-8.069,1.685l-97.8,50.266c-35.263,17.982-54.555,33.9-65.048,46.409-10.808,12.888-14.332,24.916-9.043,34.8,6.352,11.875-29.726,38.576-29.726,38.576H152.3c9.724-6.5,19.309-12.373,28.723-17.751,14.629-8.153,35.621-18.985,64.673-32.225q6.114-2.762,12.036-5.417c.138-.057,19.125-7.953,39.161-18.6,5.4-2.837,10.6-5.75,15.569-8.8,8.147-4.938,15.657-10.128,21.206-15.193.05-.042.1-.1.159-.149,12.529-2.919,24.566-7.487,32.063-12.6l40.238-27.443c27.442-10.175,38.347-16.739,42.493-20.676a2.516,2.516,0,0,0,.9-1.5C476.949,104.407,487.848,97.847,491.992,93.911Z" fill="url(#linear-gradient)"/>
        </g>
      </g>
    </g>
    <g id="Group_2494" data-name="Group 2494" transform="translate(1178.328 189.5)">
      <g id="Group_2493" data-name="Group 2493" clip-path="url(#clip-path-5)">
        <path id="Path_8463" data-name="Path 8463" d="M246,219.973s4.721,100.876,2.972,108.192c-18.431,77.13-72.762,87.3-113.087,188.333L31.242,476.327,42.69,209.635Z" transform="translate(15.437 103.586)" fill="#fff"/>
        <path id="Path_8464" data-name="Path 8464" d="M51.162,240.658s2.858,28.086,16.449,50.183c0,0,32.34,38.1,11.494,85.812l-33.1,92.815,82.585,31.7s12.433-42.453,66.668-105.4c0,0,37.462-38.386,46.421-82.933Z" transform="translate(22.733 118.915)" fill="#dfe4fb"/>
        <path id="Path_8465" data-name="Path 8465" d="M50.077,241.3a129.387,129.387,0,0,0,4.553,22.159,124.38,124.38,0,0,0,7.354,19.661,50.93,50.93,0,0,0,5.274,9.278,87.285,87.285,0,0,1,17.667,48.2,79.01,79.01,0,0,1-1.753,20.924,111.755,111.755,0,0,1-5.194,15.832c-1.336,3.489-2.513,7.046-3.768,10.563q-8.4,23.573-16.812,47.146L49.433,457.4c-1.412,3.962-3.185,7.956-4.285,12.019-.051.188-.133.374-.2.557a.151.151,0,0,0,.061.233l27.94,10.725,44.489,17.078,10.157,3.9c.61.233,2.908-.078,3.132-.84a106.948,106.948,0,0,1,5.2-13.26A290.242,290.242,0,0,1,155.7,451.467a478.8,478.8,0,0,1,40.969-54.946c1.909-2.241,3.979-4.349,5.9-6.583q6.708-7.79,12.676-16.178c11.515-16.125,21.348-33.923,26.672-53.1q1.091-3.927,1.9-7.923a.15.15,0,0,0-.063-.232l-18.972-7.188-45.554-17.257-55.09-20.87q-23.73-8.989-47.459-17.98l-15.69-5.944c-2.461-.932-4.911-2.007-7.418-2.81-.114-.036-.224-.085-.335-.127a3.289,3.289,0,0,0-2.08.23c-.115.042-1.452.666-.989.841l13.919,5.274,34.855,13.2L144.2,277.028l45.53,17.248,35.656,13.508,10.8,4.089,3.115,1.18c.254.1,1.185.275,1.343.508a7.631,7.631,0,0,1-.257.925c-.426,1.693-.766,3.407-1.209,5.1-.832,3.181-1.8,6.328-2.882,9.432a152.295,152.295,0,0,1-7.445,17.592A205.108,205.108,0,0,1,210.87,376c-9.412,12.939-20.562,24.466-30.5,36.99-14.778,18.62-28.408,38.293-39.66,59.258-4.862,9.06-9.509,18.433-12.781,28.206-.136.4-.272.811-.393,1.222l3.132-.84L112.328,493.8,76.02,479.866,49.85,469.821a6.02,6.02,0,0,1-1.739-.668s.06.387.1.027a4.028,4.028,0,0,1,.281-.787q1.52-4.258,3.038-8.515l11.784-33.049q6.282-17.618,12.566-35.237c2.344-6.573,4.789-13.093,7.218-19.628a82.422,82.422,0,0,0,.381-55.932,96.6,96.6,0,0,0-13.564-25.245,58.32,58.32,0,0,1-5.331-9.908,122.924,122.924,0,0,1-5.706-14.94,148.28,148.28,0,0,1-5.1-22.1c-.17-1.134-.335-2.271-.453-3.411-.052-.509-3.327.085-3.247.87" transform="translate(22.195 118.705)" fill="#011721"/>
        <path id="Path_8466" data-name="Path 8466" d="M226.307,136.421s28.751-31.607,68.119-38.351a10.306,10.306,0,0,1,11.807,10.958c-1.267,12.43-11.411,34.275-55.024,64.685l-31.321-30.8Z" transform="translate(108.651 48.402)" fill="#fff"/>
        <path id="Path_8467" data-name="Path 8467" d="M228.343,136.681a115.489,115.489,0,0,1,14.2-12.76,130.413,130.413,0,0,1,37.4-20.945,95.214,95.214,0,0,1,11.748-3.259c2.2-.459,4.322-.955,6.537-.294a9.774,9.774,0,0,1,4.674,3.133c3.108,3.747,2.337,8.47,1.13,12.761-2.355,8.364-7.26,15.859-12.688,22.54-11.461,14.112-26.053,25.579-40.879,35.94l2.8-.414-27.431-26.975-3.892-3.826c-.006.2-.01.393-.016.589l6.42-6.49c.56-.566-.481-.795-.843-.813a3.005,3.005,0,0,0-2.153.85l-6.42,6.49a.422.422,0,0,0-.018.589l27.431,26.975,3.892,3.826c.666.656,2.192.007,2.8-.415,14.167-9.9,28-20.81,39.312-33.97,6.175-7.187,11.874-15.351,14.671-24.5,1.2-3.934,2.249-8.469.269-12.318a11.1,11.1,0,0,0-8.2-5.848c-4.018-.619-8.434.817-12.291,1.827-15.221,3.986-29.407,11.418-42.106,20.617a126.064,126.064,0,0,0-19.334,16.73c-.529.581.457.793.843.811a2.948,2.948,0,0,0,2.153-.849" transform="translate(108.113 48.125)" fill="#011721"/>
        <path id="Path_8468" data-name="Path 8468" d="M209.328,176.18s31.13-29.267,70.9-32.923A10.311,10.311,0,0,1,291.143,155.1c-2.232,12.294-14.049,33.282-59.9,60.2l-28.822-33.152Z" transform="translate(100.02 70.774)" fill="#fff"/>
        <path id="Path_8469" data-name="Path 8469" d="M211.177,176.781a115.935,115.935,0,0,1,15.5-11.862c12.18-8.049,25.569-14.509,39.778-18.025a95.367,95.367,0,0,1,12.3-2.213c3.9-.436,7.438.6,9.74,4,2.669,3.93,1.491,8.514-.013,12.609-2.973,8.088-8.47,15.174-14.363,21.348-12.5,13.092-27.837,23.337-43.356,32.469l2.519-.134-25.24-29.034-3.581-4.119q-.1.468-.2.934l6.909-5.967c.559-.483.285-1-.32-1.194a2.715,2.715,0,0,0-2.3.616q-3.454,2.983-6.909,5.968c-.267.232-.468.623-.2.932l25.24,29.034,3.581,4.119c.568.651,1.941.206,2.521-.136,14.91-8.772,29.593-18.578,41.9-30.827,6.715-6.682,12.959-14.288,16.552-23.144,1.428-3.52,2.843-7.668,1.809-11.458A11.061,11.061,0,0,0,286,143.253c-3.689-1.279-7.789-.393-11.53.218-15.8,2.576-30.84,8.826-44.5,17.069A127.253,127.253,0,0,0,208.561,176.2c-1.382,1.3,1.806,1.339,2.616.578" transform="translate(99.48 70.462)" fill="#011721"/>
        <path id="Path_8470" data-name="Path 8470" d="M191.558,208.285s31.13-29.267,70.9-32.923a10.312,10.312,0,0,1,10.918,11.845c-2.232,12.294-14.049,33.282-59.9,60.2l-28.822-33.152Z" transform="translate(91.239 86.637)" fill="#fff"/>
        <path id="Path_8471" data-name="Path 8471" d="M193.419,208.947a115.9,115.9,0,0,1,15.507-11.853c12.179-8.047,25.573-14.5,39.78-18.016a95.379,95.379,0,0,1,12.3-2.216c3.9-.436,7.418.559,9.728,3.953,2.666,3.913,1.478,8.494-.022,12.575-2.972,8.082-8.484,15.155-14.371,21.321-12.494,13.09-27.841,23.329-43.359,32.46l2.531-.1q-12.622-14.516-25.242-29.032l-3.581-4.119-.181.994,6.909-5.968c.572-.495.26-1.068-.344-1.282a2.6,2.6,0,0,0-2.3.616q-3.454,2.983-6.909,5.968a.718.718,0,0,0-.181.994l25.24,29.032,3.581,4.119c.595.683,1.909.267,2.531-.1,14.913-8.775,29.588-18.585,41.9-30.837,6.712-6.679,12.975-14.308,16.544-23.172,1.425-3.537,2.845-7.665,1.8-11.473a11.135,11.135,0,0,0-6.916-7.423c-3.737-1.369-7.887-.478-11.693.142-15.8,2.577-30.833,8.83-44.5,17.076a127.289,127.289,0,0,0-21.408,15.672c-1.406,1.319,1.775,1.478,2.64.666" transform="translate(90.698 86.308)" fill="#011721"/>
        <path id="Path_8472" data-name="Path 8472" d="M172.958,236.231s31.13-29.268,70.9-32.923a10.312,10.312,0,0,1,10.918,11.845c-2.232,12.3-14.049,33.282-59.9,60.2L166.049,242.2Z" transform="translate(82.049 100.446)" fill="#fff"/>
        <path id="Path_8473" data-name="Path 8473" d="M174.972,236.382a116.408,116.408,0,0,1,15.575-11.9c12.24-8.088,25.724-14.571,40.025-18.024a83.791,83.791,0,0,1,12.533-2.146,9.736,9.736,0,0,1,9.413,4.96c2.2,3.961,1.019,8.315-.462,12.276-3.044,8.138-8.53,15.218-14.477,21.448-12.512,13.106-27.888,23.362-43.427,32.506l2.781-.48q-12.62-14.516-25.242-29.032l-3.581-4.119c-.015.16-.031.318-.046.478l6.909-5.968c.586-.506-.514-.616-.789-.614a3.563,3.563,0,0,0-2.168.8l-6.909,5.968a.308.308,0,0,0-.048.478q12.622,14.516,25.242,29.032l3.581,4.119c.533.614,2.277-.182,2.781-.478,14.892-8.763,29.537-18.556,41.834-30.789,6.659-6.626,12.927-14.239,16.447-23.05,1.434-3.59,2.848-7.823,1.6-11.648a10.8,10.8,0,0,0-7.351-6.961c-3.7-1.023-7.917-.04-11.611.586-15.7,2.658-30.641,8.921-44.228,17.12a126.929,126.929,0,0,0-21.341,15.624c-.556.523.49.617.789.616a3.476,3.476,0,0,0,2.168-.8" transform="translate(81.514 100.204)" fill="#011721"/>
        <path id="Path_8474" data-name="Path 8474" d="M218.737,430.453,69.292,373.086a35.265,35.265,0,0,1-20.226-45.427L166.076,22.837A35.263,35.263,0,0,1,211.5,2.611L360.946,59.976A35.265,35.265,0,0,1,381.17,105.4L264.16,410.225a35.263,35.263,0,0,1-45.426,20.226" transform="translate(23.101 0.146)" fill="#fff"/>
        <path id="Path_8475" data-name="Path 8475" d="M219.975,430.17l-37.921-14.556L111.3,388.453c-13.55-5.2-27.15-10.289-40.655-15.606a35.481,35.481,0,0,1-21.8-39.511A62.71,62.71,0,0,1,52.2,323.152l14.406-37.528Q78.626,254.31,90.647,223l27.886-72.649,25.908-67.494,18.136-47.243,4.294-11.189c3.359-8.747,9.117-16.137,17.707-20.292a33.564,33.564,0,0,1,26.4-.944c1.029.384,2.053.787,3.079,1.182q10.058,3.859,20.117,7.722L302.708,38.4l53.829,20.662c1.266.486,2.536.959,3.8,1.457A35.355,35.355,0,0,1,377.9,75.455a35.858,35.858,0,0,1,2.175,31.265q-5.556,14.476-11.112,28.949-11.107,28.931-22.212,57.864l-27.486,71.6L292.2,335.639l-20.5,53.4c-2.752,7.172-5.445,14.369-8.26,21.515a34.834,34.834,0,0,1-16.579,18.42,33.613,33.613,0,0,1-26.893,1.2c-.495-.184-2.434.613-1.775.856,16.178,6,35.341-.217,44.476-14.989a59.993,59.993,0,0,0,4.623-10.317l14.626-38.1q12.2-31.789,24.407-63.581,14.178-36.939,28.358-73.878,12.983-33.82,25.965-67.639,8.877-23.129,17.758-46.26l3.823-9.961c3.968-10.339,3.487-21.768-2.168-31.423a35.858,35.858,0,0,0-17.9-15.191c-1.144-.45-2.3-.882-3.445-1.322l-20.937-8.037L267.73,23.435,215.463,3.372c-1.282-.492-2.558-1.01-3.856-1.455a37.309,37.309,0,0,0-24.669.375A36.889,36.889,0,0,0,165,24.1L153.772,53.352q-11.338,29.539-22.678,59.079-13.96,36.363-27.918,72.726Q89.608,220.5,76.04,255.851L55.713,308.806l-5.651,14.719a60.032,60.032,0,0,0-3.468,10.759,35.791,35.791,0,0,0,22.2,39.394c4.066,1.6,8.158,3.13,12.235,4.7l64.04,24.583,62.858,24.129,10.271,3.943c.49.188,2.434-.6,1.773-.858" transform="translate(22.748 0)" fill="#011721"/>
        <path id="Path_8476" data-name="Path 8476" d="M214.792,412.666,72.976,358.228a26.326,26.326,0,0,1-15.1-33.914L172.25,26.364a26.324,26.324,0,0,1,33.912-15.1L347.978,65.7a26.328,26.328,0,0,1,15.1,33.912L248.706,397.567a26.328,26.328,0,0,1-33.914,15.1" transform="translate(27.745 4.713)" fill="#fff"/>
        <path id="Path_8477" data-name="Path 8477" d="M89.979,343.872c-6.449-11.672-14.414-34.93-14.414-34.93C64.769,275.118,88,225.652,99.794,203.819a112.028,112.028,0,0,0,12.575-37.924c3.184-23.166-3.112-31.447-7.85-34.4a4.845,4.845,0,0,0-6.611,1.449L35.4,227.819A204.594,204.594,0,0,0,1.506,324.566c-2.567,29.491,1.234,59.4,12.076,86.943C26.6,444.594,8.374,500.74,8.374,500.74l60,23.033,33.1-92.815c20.848-47.713-7.255-81.576-7.255-81.576" transform="translate(0.363 64.611)" fill="#fff"/>
        <path id="Path_8478" data-name="Path 8478" d="M91.334,343.688c-5.3-9.66-9.12-20.205-12.842-30.549a70.724,70.724,0,0,1-4.163-27.583c.6-13.317,3.873-26.458,8.141-39.037a267.777,267.777,0,0,1,14.075-33.344c2.443-4.9,5.18-9.66,7.526-14.608A113.045,113.045,0,0,0,112.01,175.8a91,91,0,0,0,2.663-22.8c-.123-4.9-.752-9.954-2.819-14.45-2.356-5.129-9.7-12.618-14.648-5.394-1.655,2.419-3.229,4.9-4.841,7.35q-12.6,19.122-25.2,38.244-13.1,19.893-26.211,39.785c-8.729,13.248-17.2,26.524-23.6,41.118a206.681,206.681,0,0,0-17.1,92.879,190.226,190.226,0,0,0,8.709,48.6c2.065,6.447,4.92,12.646,6.446,19.256A89.311,89.311,0,0,1,17.5,438.208c.5,19.936-3.245,40.159-8.759,59.264-.332,1.15-.666,2.3-1.035,3.439a.614.614,0,0,0,.406.841l52.6,20.19,7.4,2.843a1.438,1.438,0,0,0,1.66-.6l7.414-20.8q7.317-20.52,14.636-41.039l10.43-29.253c2.27-6.365,4.868-12.5,6.35-19.134a82.21,82.21,0,0,0,.913-31.471,80.534,80.534,0,0,0-7.241-22.355,57.3,57.3,0,0,0-6.334-10.465c-.126-.155-.245-.315-.372-.469-.619-.747-2.677.108-1.983.947,6.2,7.5,10.141,17.42,12.473,26.734a79.923,79.923,0,0,1,1.654,29.95,88.035,88.035,0,0,1-4.517,18.3c-.823,2.279-1.853,4.475-2.666,6.755l-9.3,26.087q-7.309,20.487-14.611,40.973-2.9,8.127-5.8,16.25L68.9,520.6a17.359,17.359,0,0,0-1.059,2.972,1.881,1.881,0,0,1-.134.375l1.663-.6-52.6-20.19q-3.7-1.421-7.4-2.843.2.421.406.841A215.43,215.43,0,0,0,18.8,457.725c1.23-11.584,1.53-23.494-.623-34.989C17,416.447,14.59,410.705,12.5,404.69a184,184,0,0,1-6.49-23.775,204,204,0,0,1,22.373-139c3.169-5.642,6.68-11.064,10.239-16.464q10.762-16.338,21.524-32.675,13.882-21.069,27.765-42.14,4.529-6.874,9.056-13.747c.687-1.043,1.345-2.119,2.068-3.139,1.859-2.618,4.533-1.981,6.674-.112,6.889,6.02,7.158,17.254,6.638,25.593-1,15.96-6.035,31.368-13.57,45.393-11.076,20.623-20.6,42.816-24.852,65.937-2.2,11.962-2.96,24.641.2,36.507,2.084,7.835,5.382,15.5,8.461,22.977a145.342,145.342,0,0,0,6.761,14.592c.457.834,2.525.039,1.984-.949" transform="translate(0 64.32)" fill="#011721"/>
        <path id="Path_8479" data-name="Path 8479" d="M179.828,79.922l.007,0c2.032.62,4.076,1.322,6.075,2.09a.128.128,0,0,0,.16-.087.126.126,0,0,0-.069-.152c-2-.768-4.054-1.473-6.09-2.095a.128.128,0,1,0-.084.242" transform="translate(88.815 39.369)" fill="#fff"/>
        <path id="Path_8480" data-name="Path 8480" d="M121.016,87.209a.13.13,0,0,0,.121-.016A104.512,104.512,0,0,1,220.5,74.008a.128.128,0,1,0,.091-.239,104.765,104.765,0,0,0-99.6,13.217.128.128,0,0,0-.033.176l0,0a.111.111,0,0,0,.057.045" transform="translate(59.756 32.982)" fill="#011721"/>
        <path id="Path_8481" data-name="Path 8481" d="M210.306,128.193a1.527,1.527,0,0,0,1.611-2.477A80.371,80.371,0,0,0,156.963,99.8a1.526,1.526,0,0,0-.327,3.035c.054,0,.109.007.163.007a77.35,77.35,0,0,1,52.878,24.938,1.508,1.508,0,0,0,.631.411" transform="translate(76.724 49.31)" fill="#011721"/>
        <path id="Path_8482" data-name="Path 8482" d="M218.885,153.464a1.526,1.526,0,0,0,1.908-2,66.3,66.3,0,0,0-73.175-40.94c-1.549.276-3.1.605-4.618.973a1.526,1.526,0,0,0,.559,3,1.547,1.547,0,0,0,.164-.04c1.452-.353,2.94-.666,4.426-.932a63.249,63.249,0,0,1,69.8,39.049,1.513,1.513,0,0,0,.931.887" transform="translate(70.044 54.113)" fill="#011721"/>
        <path id="Path_8483" data-name="Path 8483" d="M212.33,177.853a1.585,1.585,0,0,0,.321.07,1.526,1.526,0,0,0,1.684-1.34,51.562,51.562,0,0,0-60.273-56.5,58.692,58.692,0,0,0-19.3,7.06,1.526,1.526,0,0,0,1.292,2.766,1.591,1.591,0,0,0,.239-.14,55.631,55.631,0,0,1,18.3-6.694A48.543,48.543,0,0,1,211.3,176.239a1.526,1.526,0,0,0,1.028,1.612" transform="translate(66.155 58.943)" fill="#011721"/>
        <path id="Path_8484" data-name="Path 8484" d="M170.558,202.342a1.524,1.524,0,0,0,.755.057,36.944,36.944,0,1,0-12.344-72.85l-.143.022c-.149.025-.3.052-.448.081a44.085,44.085,0,0,0-27.706,17.088,1.526,1.526,0,0,0,2.373,1.918.884.884,0,0,0,.07-.093,41.033,41.033,0,0,1,25.8-15.912,33.9,33.9,0,0,1,12,66.726l-.127.022a1.526,1.526,0,0,0-.221,2.943" transform="translate(64.4 63.753)" fill="#011721"/>
        <path id="Path_8485" data-name="Path 8485" d="M137.382,179.959a1.525,1.525,0,0,0,1.909-1.993,26.609,26.609,0,0,1,20.141-35.793,19.291,19.291,0,0,1,6.756,37.985,11.989,11.989,0,0,1-4.2-23.607,4.684,4.684,0,0,1,1.642,9.222,1.526,1.526,0,1,0,.351,3.032,1.248,1.248,0,0,0,.127-.021l.058-.01a7.731,7.731,0,0,0-2.713-15.222,15.035,15.035,0,0,0,5.1,29.634l.167-.03a22.339,22.339,0,0,0-7.825-43.984,29.639,29.639,0,0,0-23.991,34.371l0,0a30.029,30.029,0,0,0,1.542,5.525,1.529,1.529,0,0,0,.929.892" transform="translate(66.433 68.616)" fill="#011721"/>
        <path id="Path_8486" data-name="Path 8486" d="M158.777,191.939a22.2,22.2,0,0,0,11.067.82,29.642,29.642,0,0,0-10.38-58.366,36.912,36.912,0,0,0-28.672,24.941,1.548,1.548,0,0,0,.976,1.92,1.524,1.524,0,0,0,1.923-.976A33.872,33.872,0,0,1,160,137.392a26.6,26.6,0,1,1,9.31,52.369,19.289,19.289,0,0,1-7.238-37.894q.24-.045.48-.085a11.986,11.986,0,0,1,4.2,23.6,4.683,4.683,0,0,1-1.641-9.222,1.526,1.526,0,1,0-.335-3.033q-.072.009-.143.022l-.058.01a7.731,7.731,0,0,0,2.706,15.222,15.035,15.035,0,0,0-5.14-29.627l-.125.022a22.353,22.353,0,0,0-3.242,43.165" transform="translate(64.593 66.201)" fill="#011721"/>
        <path id="Path_8487" data-name="Path 8487" d="M200.88,191.205a1.526,1.526,0,0,0,1.808-.681,44.249,44.249,0,0,0-46.083-65.67,51.482,51.482,0,0,0-24.69,11.75,1.526,1.526,0,1,0,1.878,2.406c.034-.027.069-.057.1-.087l.015-.013a48.42,48.42,0,0,1,23.234-11.051A41.2,41.2,0,0,1,200.051,189a1.525,1.525,0,0,0,.557,2.081,1.575,1.575,0,0,0,.275.126" transform="translate(64.892 61.355)" fill="#011721"/>
        <path id="Path_8488" data-name="Path 8488" d="M217.365,164.659a1.526,1.526,0,0,0,1.99-1.709A58.854,58.854,0,0,0,151.108,115.3l-.007,0a66.724,66.724,0,0,0-12.89,3.658,1.526,1.526,0,0,0,1.085,2.849l.04-.016a63.475,63.475,0,0,1,12.3-3.489,55.81,55.81,0,0,1,64.722,45.172,1.526,1.526,0,0,0,1.01,1.177" transform="translate(67.839 56.52)" fill="#011721"/>
        <path id="Path_8489" data-name="Path 8489" d="M216.716,141.223a1.525,1.525,0,0,0,1.779-2.256,73.955,73.955,0,0,0-69.532-34,1.526,1.526,0,0,0,.308,3.033,70.889,70.889,0,0,1,66.648,32.585,1.536,1.536,0,0,0,.8.632" transform="translate(72.962 51.699)" fill="#011721"/>
        <path id="Path_8490" data-name="Path 8490" d="M194.486,111.566a1.526,1.526,0,0,0,1.34-2.709,87.98,87.98,0,0,0-27.032-12.144,1.526,1.526,0,0,0-1.86,1.091,1.547,1.547,0,0,0,1.092,1.862,84.928,84.928,0,0,1,26.1,11.723,1.5,1.5,0,0,0,.36.179" transform="translate(82.464 47.764)" fill="#011721"/>
        <path id="Path_8491" data-name="Path 8491" d="M210.306,128.193a1.527,1.527,0,0,0,1.611-2.477A80.371,80.371,0,0,0,156.963,99.8a1.526,1.526,0,0,0-.327,3.035c.054,0,.109.007.163.007a77.35,77.35,0,0,1,52.878,24.938,1.508,1.508,0,0,0,.631.411" transform="translate(76.724 49.31)" fill="#011721"/>
        <path id="Path_8492" data-name="Path 8492" d="M218.885,153.464a1.526,1.526,0,0,0,1.908-2,66.3,66.3,0,0,0-73.175-40.94c-1.549.276-3.1.605-4.618.973a1.526,1.526,0,0,0,.559,3,1.547,1.547,0,0,0,.164-.04c1.452-.353,2.94-.666,4.426-.932a63.249,63.249,0,0,1,69.8,39.049,1.513,1.513,0,0,0,.931.887" transform="translate(70.044 54.113)" fill="#011721"/>
        <path id="Path_8493" data-name="Path 8493" d="M212.33,177.853a1.585,1.585,0,0,0,.321.07,1.526,1.526,0,0,0,1.684-1.34,51.562,51.562,0,0,0-60.273-56.5,58.692,58.692,0,0,0-19.3,7.06,1.526,1.526,0,0,0,1.292,2.766,1.591,1.591,0,0,0,.239-.14,55.631,55.631,0,0,1,18.3-6.694A48.543,48.543,0,0,1,211.3,176.239a1.526,1.526,0,0,0,1.028,1.612" transform="translate(66.155 58.943)" fill="#011721"/>
        <path id="Path_8494" data-name="Path 8494" d="M170.558,202.342a1.524,1.524,0,0,0,.755.057,36.944,36.944,0,1,0-12.344-72.85l-.143.022c-.149.025-.3.052-.448.081a44.085,44.085,0,0,0-27.706,17.088,1.526,1.526,0,0,0,2.373,1.918.884.884,0,0,0,.07-.093,41.033,41.033,0,0,1,25.8-15.912,33.9,33.9,0,0,1,12,66.726l-.127.022a1.526,1.526,0,0,0-.221,2.943" transform="translate(64.4 63.753)" fill="#011721"/>
        <path id="Path_8495" data-name="Path 8495" d="M137.382,179.959a1.525,1.525,0,0,0,1.909-1.993,26.609,26.609,0,0,1,20.141-35.793,19.291,19.291,0,0,1,6.756,37.985,11.989,11.989,0,0,1-4.2-23.607,4.684,4.684,0,0,1,1.642,9.222,1.526,1.526,0,1,0,.351,3.032,1.248,1.248,0,0,0,.127-.021l.058-.01a7.731,7.731,0,0,0-2.713-15.222,15.035,15.035,0,0,0,5.1,29.634l.167-.03a22.339,22.339,0,0,0-7.825-43.984,29.639,29.639,0,0,0-23.991,34.371l0,0a30.029,30.029,0,0,0,1.542,5.525,1.529,1.529,0,0,0,.929.892" transform="translate(66.433 68.616)" fill="#011721"/>
        <path id="Path_8496" data-name="Path 8496" d="M158.777,191.939a22.2,22.2,0,0,0,11.067.82,29.642,29.642,0,0,0-10.38-58.366,36.912,36.912,0,0,0-28.672,24.941,1.548,1.548,0,0,0,.976,1.92,1.524,1.524,0,0,0,1.923-.976A33.872,33.872,0,0,1,160,137.392a26.6,26.6,0,1,1,9.31,52.369,19.289,19.289,0,0,1-7.238-37.894q.24-.045.48-.085a11.986,11.986,0,0,1,4.2,23.6,4.683,4.683,0,0,1-1.641-9.222,1.526,1.526,0,1,0-.335-3.033q-.072.009-.143.022l-.058.01a7.731,7.731,0,0,0,2.706,15.222,15.035,15.035,0,0,0-5.14-29.627l-.125.022a22.353,22.353,0,0,0-3.242,43.165" transform="translate(64.593 66.201)" fill="#011721"/>
        <path id="Path_8497" data-name="Path 8497" d="M200.88,191.205a1.526,1.526,0,0,0,1.808-.681,44.249,44.249,0,0,0-46.083-65.67,51.482,51.482,0,0,0-24.69,11.75,1.526,1.526,0,1,0,1.878,2.406c.034-.027.069-.057.1-.087l.015-.013a48.42,48.42,0,0,1,23.234-11.051A41.2,41.2,0,0,1,200.051,189a1.525,1.525,0,0,0,.557,2.081,1.575,1.575,0,0,0,.275.126" transform="translate(64.892 61.355)" fill="#011721"/>
        <path id="Path_8498" data-name="Path 8498" d="M217.365,164.659a1.526,1.526,0,0,0,1.99-1.709A58.854,58.854,0,0,0,151.108,115.3l-.007,0a66.724,66.724,0,0,0-12.89,3.658,1.526,1.526,0,0,0,1.085,2.849l.04-.016a63.475,63.475,0,0,1,12.3-3.489,55.81,55.81,0,0,1,64.722,45.172,1.526,1.526,0,0,0,1.01,1.177" transform="translate(67.839 56.52)" fill="#011721"/>
        <path id="Path_8499" data-name="Path 8499" d="M216.716,141.223a1.525,1.525,0,0,0,1.779-2.256,73.955,73.955,0,0,0-69.532-34,1.526,1.526,0,0,0,.308,3.033,70.889,70.889,0,0,1,66.648,32.585,1.536,1.536,0,0,0,.8.632" transform="translate(72.962 51.699)" fill="#011721"/>
        <path id="Path_8500" data-name="Path 8500" d="M194.486,111.566a1.526,1.526,0,0,0,1.34-2.709,87.98,87.98,0,0,0-27.032-12.144,1.526,1.526,0,0,0-1.86,1.091,1.547,1.547,0,0,0,1.092,1.862,84.928,84.928,0,0,1,26.1,11.723,1.5,1.5,0,0,0,.36.179" transform="translate(82.464 47.764)" fill="#011721"/>
        <path id="Path_8501" data-name="Path 8501" d="M110.673,111.045a.123.123,0,0,0,.145-.04A96.676,96.676,0,0,1,281.39,144.033a.127.127,0,0,0,.251-.042l0-.016,0-.01a96.938,96.938,0,0,0-171.023-33.117.127.127,0,0,0,.027.178.07.07,0,0,0,.03.018" transform="translate(54.643 35.685)" fill="#011721"/>
        <path id="Path_8502" data-name="Path 8502" d="M211.917,193.613a.128.128,0,0,0,.145-.04,96.643,96.643,0,0,0,16.425-27.825,97.772,97.772,0,0,0,4.671-16.225.132.132,0,0,0-.1-.149.125.125,0,0,0-.148.1,97.76,97.76,0,0,1-4.659,16.184,96.442,96.442,0,0,1-16.383,27.755.129.129,0,0,0,.015.181.1.1,0,0,0,.037.022" transform="translate(104.673 73.808)" fill="#011721"/>
        <path id="Path_8503" data-name="Path 8503" d="M139.223,200.558a95.856,95.856,0,0,0,45.066,5.9,97.791,97.791,0,0,0,41.514-14.5.128.128,0,0,0,.03-.178l0,0a.126.126,0,0,0-.161-.037,95.872,95.872,0,0,1-86.356,8.575.128.128,0,1,0-.109.232l.016.006" transform="translate(68.747 94.736)" fill="#011721"/>
        <path id="Path_8504" data-name="Path 8504" d="M129.241,212.757a.128.128,0,0,0,.166-.075.133.133,0,0,0-.033-.14,96.732,96.732,0,0,1-30.816-83.393.129.129,0,0,0-.254-.042v.012a97.007,97.007,0,0,0,30.9,83.616.36.36,0,0,0,.04.024" transform="translate(48.208 63.741)" fill="#011721"/>
        <path id="Path_8505" data-name="Path 8505" d="M235.511,121.6a.132.132,0,0,0,.1,0,.129.129,0,0,0,.066-.167A105.927,105.927,0,0,0,209.863,85.1a.128.128,0,0,0-.181,0,.129.129,0,0,0,0,.181l.01,0a105.677,105.677,0,0,1,25.75,36.24.127.127,0,0,0,.07.069" transform="translate(103.591 42.033)" fill="#011721"/>
        <path id="Path_8506" data-name="Path 8506" d="M227.994,181.717a.129.129,0,0,0,.166-.073,104.714,104.714,0,0,0,4.913-58.425.132.132,0,0,0-.152-.1.127.127,0,0,0-.1.152h0a104.49,104.49,0,0,1-4.905,58.28.127.127,0,0,0,.072.166" transform="translate(112.614 60.834)" fill="#011721"/>
        <path id="Path_8507" data-name="Path 8507" d="M176.551,206.345a.135.135,0,0,0,.073.006c1.3-.27,2.612-.563,3.9-.882a.131.131,0,0,0,.094-.157.128.128,0,0,0-.152-.1h0c-1.289.317-2.6.613-3.894.879a.128.128,0,0,0-.1.152v0a.129.129,0,0,0,.078.091" transform="translate(87.198 101.401)" fill="#011721"/>
        <path id="Path_8508" data-name="Path 8508" d="M222.336,140.4a.128.128,0,0,0,.175-.115c.042-1.476.043-2.964.012-4.424a.128.128,0,1,0-.256,0l0,.009c.031,1.454.027,2.936-.015,4.411a.128.128,0,0,0,.082.123" transform="translate(109.818 67.066)" fill="#011721"/>
        <path id="Path_8509" data-name="Path 8509" d="M183.268,215.637a.12.12,0,0,0,.091,0,89.781,89.781,0,0,0,56.89-67.282.131.131,0,0,0-.1-.148.127.127,0,0,0-.149.1,89.56,89.56,0,0,1-56.73,67.088.126.126,0,0,0,0,.238" transform="translate(90.518 73.231)" fill="#011721"/>
        <path id="Path_8510" data-name="Path 8510" d="M158.5,197.047a.111.111,0,0,0,.037.007c2.752.182,5.543.235,8.294.16a.128.128,0,0,0,0-.256c-2.743.076-5.527.024-8.271-.155a.126.126,0,0,0-.139.109h0a.13.13,0,0,0,.082.129" transform="translate(78.278 97.245)" fill="#011721"/>
        <path id="Path_8511" data-name="Path 8511" d="M150.982,199.576a90.8,90.8,0,0,0,10.641,3.353.128.128,0,0,0,.154-.09.13.13,0,0,0-.079-.152l-.015-.006a91.024,91.024,0,0,1-10.611-3.342,88.771,88.771,0,0,1-30.263-19.318.128.128,0,0,0-.176.185,89.052,89.052,0,0,0,30.347,19.368" transform="translate(59.59 88.938)" fill="#011721"/>
        <path id="Path_8512" data-name="Path 8512" d="M111.857,118.839a.13.13,0,0,0,.154-.051,89.767,89.767,0,0,1,85.7-40.863.129.129,0,0,0,.139-.115.132.132,0,0,0-.112-.139A89.767,89.767,0,0,0,111.8,118.648a.133.133,0,0,0,.039.178l.024.009" transform="translate(55.232 38.09)" fill="#011721"/>
        <path id="Path_8513" data-name="Path 8513" d="M233.93,142.554a.127.127,0,0,0,.164-.073.124.124,0,0,0,0-.07A89.608,89.608,0,0,0,220.06,110.7a88.692,88.692,0,0,0-25.494-24.318.128.128,0,0,0-.178.028.126.126,0,0,0,.028.178l.013.009a90.008,90.008,0,0,1,39.424,55.868.12.12,0,0,0,.078.093" transform="translate(96.039 42.671)" fill="#011721"/>
        <path id="Path_8514" data-name="Path 8514" d="M106.695,253.391l56.9,21.843a23.7,23.7,0,1,0,16.988-44.257l-56.9-21.843a23.7,23.7,0,0,0-16.99,44.257" transform="translate(45.202 102.557)" fill="#fff"/>
        <path id="Path_8515" data-name="Path 8515" d="M106.695,253.391l56.9,21.843a23.7,23.7,0,1,0,16.988-44.257l-56.9-21.843a23.7,23.7,0,0,0-16.99,44.257" transform="translate(45.202 102.557)" fill="none" stroke="#011721" stroke-width="0.5"/>
        <path id="Path_8516" data-name="Path 8516" d="M123.162,209.133l56.9,21.843A23.7,23.7,0,0,1,193.7,261.6L92.538,222.767a23.7,23.7,0,0,1,30.624-13.634" transform="translate(45.725 102.556)" fill="#fff"/>
        <path id="Path_8517" data-name="Path 8517" d="M106.918,219.672l25.355,9.733a1.3,1.3,0,0,0,1.023-2.4c-.03-.012-.06-.024-.091-.034l-25.355-9.733a1.3,1.3,0,0,0-1.023,2.4l.091.034" transform="translate(52.395 107.293)" fill="#011721"/>
        <path id="Path_8518" data-name="Path 8518" d="M105.164,224.243l25.355,9.733a1.3,1.3,0,0,0,1.023-2.4c-.03-.012-.06-.024-.091-.034L106.1,221.814a1.3,1.3,0,0,0-1.023,2.4l.091.034" transform="translate(51.528 109.551)" fill="#011721"/>
        <path id="Path_8519" data-name="Path 8519" d="M103.409,228.813l25.355,9.733a1.3,1.3,0,1,0,1.023-2.4c-.03-.012-.06-.024-.091-.034l-25.355-9.733a1.3,1.3,0,1,0-1.023,2.4l.091.034" transform="translate(50.661 111.81)" fill="#011721"/>
        <path id="Path_8520" data-name="Path 8520" d="M176.039,55.295c18.255,4.551,28.7.663,28.7.663s5.158,9.875,21.769,18.708c0,0-12.279,33.358-42.55,35.427-21.113-21.789-7.916-54.8-7.916-54.8" transform="translate(84.972 27.323)" fill="#fff"/>
        <path id="Path_8521" data-name="Path 8521" d="M220.361,74.83a67.7,67.7,0,0,1-8.17,13.084c-7.934,9.879-17.341,15.5-27.979,16.724-14.112-16.021-9.323-38.276-6.919-46.34,11.857,2.435,20.292,1.452,24.49.566,2.528,3.469,8.137,9.845,18.579,15.966" transform="translate(86.241 28.806)" fill="#bfcbfa"/>
        <path id="Path_8522" data-name="Path 8522" d="M176.039,55.295c18.255,4.551,28.7.663,28.7.663l-20.78,54.135c-21.113-21.789-7.916-54.8-7.916-54.8" transform="translate(84.972 27.323)" fill="#fff"/>
        <path id="Path_8523" data-name="Path 8523" d="M184.211,104.638c-14.11-16.021-9.323-38.276-6.919-46.34,11.857,2.437,20.29,1.452,24.49.568Z" transform="translate(86.24 28.806)" fill="#acbaf7"/>
        <path id="Path_8524" data-name="Path 8524" d="M201.783,58.862l-.22.571c-4.37.853-12.669,1.675-24.021-.657-2.048,6.873-5.827,24.057,1.841,38.9-8-14.953-4.161-32.434-2.092-39.382,11.857,2.435,20.292,1.452,24.49.566" transform="translate(86.241 28.805)" fill="#bfcbfa"/>
        <path id="Path_8525" data-name="Path 8525" d="M146.015,229.464a5.114,5.114,0,1,0,2.943,6.607,5.119,5.119,0,0,0-2.943-6.607m.644-1.676a6.91,6.91,0,1,1-8.927,3.974,6.908,6.908,0,0,1,8.927-3.974" transform="translate(67.829 112.327)" fill="#011721"/>
        <path id="Path_8526" data-name="Path 8526" d="M154.795,242.191l-18.491-7.1c-3.064-1.176-5.576.71-6.752,3.773l-1.756,3.569,1.682.645,1.72-3.495.028-.076a5.147,5.147,0,0,1,1.929-2.588,2.686,2.686,0,0,1,2.5-.152l18.491,7.1a2.686,2.686,0,0,1,1.76,1.788,5.145,5.145,0,0,1-.3,3.214l-.028.076-1.062,3.749,1.684.645,1.083-3.828c1.176-3.063.571-6.145-2.494-7.321" transform="translate(63.147 115.99)" fill="#011721"/>
        <path id="Path_8527" data-name="Path 8527" d="M201.951,259.316c-1.139,18.56-19.672,37.682-39.013,29.856-.326-.131-1.31.344-.862.524,19.93,8.064,39.763-11.054,40.957-30.514.028-.441-1.059-.23-1.082.134" transform="translate(80.029 127.945)" fill="#011721"/>
        <path id="Path_8528" data-name="Path 8528" d="M235.142,173.27c-4.393,13.91-8.974,27.813-14.881,41.168-6.036,13.649-12.474,27.062-17.922,40.975q-4.659,11.905-8.627,24.061c-.124.379.962.239,1.083-.131,4.692-14.382,10.168-28.484,16.2-42.354,5.9-13.547,12.448-26.713,17.472-40.631,2.773-7.675,5.3-15.437,7.755-23.219.121-.384-.965-.241-1.083.131" transform="translate(95.712 85.439)" fill="#011721"/>
        <path id="Path_8529" data-name="Path 8529" d="M122.862,71.734c4.506-9.712,7.163-20.1,10.77-30.156,3.511-9.785,8.159-20.605,16.922-26.833a23.18,23.18,0,0,1,16.972-4.025c5.657.811,10.992,3.085,16.359,4.937,11.479,3.956,22.945,7.931,34.348,12.1,23.275,8.518,46.349,17.581,69.277,27,5.392,2.216,10.75,4.523,16.168,6.68,4.061,1.62,8.182,3.106,12.117,5.022,8.451,4.115,15.54,10.788,16.077,20.712.545,10.084-4.169,19.667-7.614,28.872-4.187,11.189-8.854,22.191-12.951,33.412q-1.54,4.22-2.945,8.487c-.137.42.956.284,1.088-.115,3.891-11.839,8.733-23.322,13.245-34.931,2.013-5.177,4.013-10.365,5.963-15.566a64.989,64.989,0,0,0,4.119-15.141,23.959,23.959,0,0,0-2.2-14.087,25.581,25.581,0,0,0-8.51-9.125,63.359,63.359,0,0,0-12.2-6q-7.526-2.988-15-6.09C271.534,47.22,248.048,37.9,224.357,29.136Q206.4,22.491,188.285,16.291c-10.084-3.439-21.158-8.992-31.94-5.276-9.627,3.318-15.684,12.12-19.839,20.951-4.742,10.079-7.39,20.951-11.222,31.374-1.037,2.822-2.174,5.606-3.439,8.336-.236.507.849.423,1.018.058" transform="translate(60.189 4.834)" fill="#011721"/>
        <path id="Path_8530" data-name="Path 8530" d="M86.038,329.35c-10.383-4.5-25.2-8.745-28.345-21.242-2.12-8.427,1.706-17.28,4.78-24.973,3.6-9,6.664-18.209,9.942-27.332,13.8-38.406,28.485-76.487,43.294-114.516q12.515-32.136,25.009-64.279c.229-.592-.858-.611-1.04-.14-15.109,39.1-30.532,78.081-45.457,117.254q-11.159,29.29-21.844,58.761c-3.395,9.417-6.495,18.968-10.2,28.263-3.042,7.625-6.874,15.942-6.054,24.363,1.431,14.7,17.858,19.628,29.3,24.595.475.206,1.254-.477.619-.755" transform="translate(27.674 37.819)" fill="#011721"/>
        <path id="Path_8531" data-name="Path 8531" d="M195.725,291.58c-25.521-10.018-51.353-19.207-77-28.886q-10.993-4.148-21.926-8.451a1.472,1.472,0,0,0-1.022.363c25.5,10.064,51.332,19.265,76.991,28.917q11,4.137,21.938,8.418a1.469,1.469,0,0,0,1.022-.362" transform="translate(47.321 125.618)" fill="#011721"/>
      </g>
    </g>
  </g>
</svg>
