<svg xmlns="http://www.w3.org/2000/svg" xmlns:xlink="http://www.w3.org/1999/xlink" width="497.341" height="506.736" viewBox="0 0 497.341 506.736"><defs><clipPath id="a"><rect width="149.699" height="149.701" fill="none"/></clipPath><clipPath id="b"><path d="M210.931,82.523a7.693,7.693,0,0,0-7.692,7.69V224.236a7.693,7.693,0,0,0,7.692,7.69H344.954a7.691,7.691,0,0,0,7.69-7.69V90.213a7.691,7.691,0,0,0-7.69-7.69Z" transform="translate(-203.239 -82.523)" fill="none"/></clipPath></defs><g transform="translate(-25.934 0)"><g transform="translate(25.934 0)"><path d="M352.557,347.818c-17.126,12.619-37.245,16.964-57.261,12.363L22.628,297.325c-6.305-1.456-7.823-13.476-2.107-16.705l52.958-30a68.081,68.081,0,0,1,54.148-6.117l242.084,72.738c5.819,1.748,7.356,12.585,2.313,16.3l-19.466,14.277" transform="translate(-16.966 144.769)" fill="#b1b7ce"/><path d="M235.719,440.106,92.445,47.173a36.431,36.431,0,0,1-2.126-9.888,30.511,30.511,0,0,1-.046-3.06L73.644,40.292l-.083.237a37.076,37.076,0,0,0,2.255,12.708L219.09,446.165a37.762,37.762,0,0,0,38.63,24.58c5.163-.445,8.353-1.4,14.811-4.221l11.054-4.8c-16.169.961-42.051-5.68-47.867-21.624" transform="translate(16.964 20.518)" fill="#011721"/><path d="M239,475.05c12.407,11.662,31.47,12.671,45.8,3.469l77.667-57.856c16.158-11.491,29.538-28.786,22.452-48.224L257.59,23.244C250.5,3.809,229.4-2.391,209.368.792L115.291,18.254c-13.639,2.508-25.328,11.971-29.548,25.183a37.388,37.388,0,0,0,.473,24.252L229.491,460.624A37.289,37.289,0,0,0,239,475.053" transform="translate(23.193 0)" fill="#5967af"/><path d="M237.6,461.668c11.923,11.208,30.242,12.177,44.01,3.335l74.635-55.6c15.53-11.041,28.386-27.663,21.576-46.339L255.459,27.492C248.649,8.816,228.373,2.858,209.121,5.916L118.714,22.7c-13.111,2.409-24.34,11.5-28.4,24.2a35.938,35.938,0,0,0,.454,23.306L228.457,447.8a35.815,35.815,0,0,0,9.14,13.866" transform="translate(25.975 3.091)" fill="#fff"/><path d="M236.954,462.314c12.294,11.321,32.337,12.671,46.1,2.994,5.341-3.756,10.493-7.817,15.728-11.716l54.426-40.544c8.7-6.484,17.423-13.033,23.046-22.567a32.741,32.741,0,0,0,2.719-28.737q-5-13.714-10-27.43-9.921-27.215-19.845-54.426l-25.24-69.223q-13.093-35.912-26.187-71.821-11.373-31.19-22.745-62.379-7.371-20.209-14.738-40.416-1.476-4.048-2.951-8.1C253.24,16.986,244.466,9.579,233.289,6.5c-9.659-2.662-19.359-1.775-29.025.019L173.7,12.191c-18.124,3.364-36.264,6.646-54.37,10.091C101.05,25.759,86.9,41.206,87.92,60.323c.258,4.794,1.675,9.156,3.289,13.58q5.47,15,10.939,30l19.68,53.972q12.431,34.086,24.859,68.174,13.208,36.219,26.414,72.438l24.52,67.246q9.556,26.21,19.114,52.417,5.094,13.973,10.189,27.945c2.225,6.1,5.266,11.644,10.029,16.216.563.541,2.745-.326,2.156-.891-7.6-7.291-10.3-17.129-13.781-26.68l-14.994-41.12q-10.991-30.139-21.98-60.281-12.75-34.962-25.5-69.924-12.853-35.252-25.709-70.5-11.31-31.018-22.619-62.032-8.03-22.02-16.059-44.041c-2.036-5.581-4.119-11.149-6.107-16.747a35.538,35.538,0,0,1,3.588-31.517,35.937,35.937,0,0,1,23.034-15.069c5.782-1.118,11.582-2.15,17.372-3.225q33.189-6.159,66.378-12.319c9.523-1.767,18.941-2.935,28.538-.408,11.115,2.929,19.747,10.3,23.716,21.142q4.566,12.476,9.1,24.965,9.511,26.085,19.023,52.169l24.65,67.6q12.918,35.43,25.835,70.857,11.531,31.625,23.063,63.249l15.84,43.443q1.936,5.307,3.871,10.616c2.761,7.572,3.458,15.29.542,23.015-4.474,11.846-14.37,19.757-24.191,27.073l-22.892,17.052c-16,11.916-31.849,24.06-48.006,35.762-12.8,9.272-31.3,7.428-42.718-3.082-.576-.531-2.748.345-2.156.891" transform="translate(25.54 2.89)"/><path d="M111.83,14.694l12.636-3.621L108.5,19.678C97.885,25.4,90.68,36.216,90.317,48.086L73.611,54.173a45.12,45.12,0,0,1,3.842-18.5A21.893,21.893,0,0,1,87.5,25.568C106.783,16.94,111.825,14.7,111.825,14.7" transform="translate(16.993 6.639)" fill="#6573b7"/><path d="M154.9,251.4a.513.513,0,0,0,.189-.035.549.549,0,0,0,.325-.7L85.686,61.727a.547.547,0,0,0-1.025.379l69.729,188.94a.55.55,0,0,0,.515.357" transform="translate(23.601 36.798)" fill="#fff"/><path d="M115.473,84.252c5.139,14.18,19.584,22.825,32.276,19.314S166.556,85.7,161.415,71.52,141.831,48.7,129.139,52.206s-18.8,17.865-13.666,32.045" transform="translate(41 30.829)" fill="#fff"/><path d="M114.7,84.791c3.863,10.358,13.054,18.914,24.3,20.178,10.362,1.163,20.5-4.469,24.2-14.354,7.988-21.35-15.322-47.342-37.262-37.376C113.85,58.73,110.571,73.021,114.7,84.789c.23.656,2.527-.024,2.318-.622-3.324-9.464-2.18-21.088,5.979-27.8,8.186-6.739,19.735-4.471,27.535,1.663,8.188,6.436,13.154,17.291,11.683,27.731-1.414,10.018-9.152,18.447-19.7,18.268-11.71-.2-21.569-9.317-25.5-19.856-.246-.659-2.535.037-2.318.621" transform="translate(40.61 30.601)" fill="#011721"/><path d="M158.685,81.826c-1.556,10.76-10.064,19.436-21.414,18.3a25.214,25.214,0,0,1-8.7-2.567c-2.139-1.064-7.291-3.548-7.171-6.26.122-2.735,1.663-5.833,3.1-8.1a20.7,20.7,0,0,1,6.648-6.566c.272-.168.733-.517.245-.747a11.309,11.309,0,0,1-6.289-8.221c-.6-3.457.733-8.054,4.528-9.08,3.744-1.014,7.692,1.907,9.512,4.96a10.129,10.129,0,0,1,.334,10.2c-.19.339.545.379.673.381a27.033,27.033,0,0,1,18.6,7.945c.5.485,2.658-.366,2.169-.846a28.563,28.563,0,0,0-19.813-8.213l.672.381c4.6-8.188-4.055-18.38-12.87-15.59a8.876,8.876,0,0,0-6.28,8.33,11.745,11.745,0,0,0,6.889,10.76l.245-.745a22.523,22.523,0,0,0-10.659,15.5,3.63,3.63,0,0,0-.186,1.334c.2.525,1.137,1.115,1.56,1.478a29.6,29.6,0,0,0,7.419,4.658c8.53,3.735,18.961,2.761,25.97-3.639a23.218,23.218,0,0,0,7.119-14.01c.107-.731-2.2-.31-2.3.352" transform="translate(44.137 34.375)" fill="#011721"/><path d="M151.088,59.132a1.095,1.095,0,0,1-.293-2.15L190.709,45.89a1.095,1.095,0,0,1,.585,2.11L151.378,59.094a1.2,1.2,0,0,1-.293.038" transform="translate(62.786 27.491)" fill="#011721"/><path d="M151.088,59.132a1.095,1.095,0,0,1-.293-2.15L190.709,45.89a1.095,1.095,0,0,1,.585,2.11L151.378,59.094a1.2,1.2,0,0,1-.293.038" transform="translate(62.786 27.491)" fill="none" stroke="#011721" stroke-miterlimit="10" stroke-width="1"/><path d="M155.885,78.99a1.095,1.095,0,0,1-.307-2.145l41.058-12.014a1.1,1.1,0,0,1,.616,2.1L156.193,78.947a1.1,1.1,0,0,1-.307.043" transform="translate(65.663 38.841)" fill="#011721"/><path d="M155.885,78.99a1.095,1.095,0,0,1-.307-2.145l41.058-12.014a1.1,1.1,0,0,1,.616,2.1L156.193,78.947a1.1,1.1,0,0,1-.307.043" transform="translate(65.663 38.841)" fill="none" stroke="#011721" stroke-miterlimit="10" stroke-width="1"/><path d="M158.069,83.11a1.095,1.095,0,0,1-.322-2.14l26.173-8.047a1.094,1.094,0,0,1,.64,2.092l-26.171,8.047a1.1,1.1,0,0,1-.322.048" transform="translate(66.973 43.695)" fill="#011721"/><path d="M158.069,83.11a1.095,1.095,0,0,1-.322-2.14l26.173-8.047a1.094,1.094,0,0,1,.64,2.092l-26.171,8.047a1.1,1.1,0,0,1-.322.048" transform="translate(66.973 43.695)" fill="none" stroke="#011721" stroke-miterlimit="10" stroke-width="1"/><path d="M135.464,143.915c3.863,10.358,13.054,18.914,24.3,20.178,10.362,1.163,20.5-4.469,24.2-14.354,7.988-21.35-15.322-47.342-37.262-37.376-12.089,5.491-15.368,19.783-11.235,31.55.23.656,2.527-.024,2.318-.622-3.324-9.464-2.18-21.088,5.979-27.8,8.186-6.737,19.735-4.469,27.535,1.665,8.188,6.436,13.154,17.291,11.683,27.731-1.414,10.018-9.152,18.447-19.7,18.268-11.71-.2-21.569-9.317-25.5-19.856-.246-.659-2.535.037-2.318.621" transform="translate(53.056 66.046)" fill="#011721"/><path d="M179.445,140.95c-1.556,10.76-10.064,19.436-21.414,18.3a25.213,25.213,0,0,1-8.7-2.567c-2.139-1.064-7.291-3.548-7.171-6.26.122-2.735,1.663-5.833,3.1-8.1a20.7,20.7,0,0,1,6.648-6.566c.272-.168.733-.517.245-.747a11.309,11.309,0,0,1-6.289-8.221c-.6-3.457.733-8.054,4.527-9.08,3.746-1.014,7.694,1.907,9.514,4.96a10.129,10.129,0,0,1,.334,10.2c-.19.339.545.379.673.381a27.033,27.033,0,0,1,18.6,7.945c.5.485,2.658-.366,2.169-.846a28.564,28.564,0,0,0-19.813-8.213l.672.381c4.6-8.188-4.055-18.38-12.87-15.59a8.876,8.876,0,0,0-6.28,8.33,11.742,11.742,0,0,0,6.889,10.76l.245-.745a22.523,22.523,0,0,0-10.659,15.5,3.63,3.63,0,0,0-.186,1.334c.2.525,1.137,1.115,1.558,1.478a29.635,29.635,0,0,0,7.42,4.658c8.53,3.735,18.961,2.761,25.97-3.639a23.218,23.218,0,0,0,7.119-14.01c.107-.731-2.2-.31-2.3.352" transform="translate(56.583 69.82)" fill="#011721"/><path d="M171.848,118.256a1.095,1.095,0,0,1-.293-2.15l39.914-11.093a1.095,1.095,0,0,1,.585,2.11l-39.917,11.094a1.13,1.13,0,0,1-.293.038" transform="translate(75.231 62.936)" fill="#011721"/><path d="M171.848,118.256a1.095,1.095,0,0,1-.293-2.15l39.914-11.093a1.095,1.095,0,0,1,.585,2.11l-39.917,11.094a1.13,1.13,0,0,1-.293.038" transform="translate(75.231 62.936)" fill="none" stroke="#011721" stroke-miterlimit="10" stroke-width="1"/><path d="M176.645,138.114a1.095,1.095,0,0,1-.307-2.145L217.4,123.956a1.1,1.1,0,0,1,.616,2.1l-41.059,12.014a1.1,1.1,0,0,1-.307.043" transform="translate(78.108 74.286)" fill="#011721"/><path d="M176.645,138.114a1.095,1.095,0,0,1-.307-2.145L217.4,123.956a1.1,1.1,0,0,1,.616,2.1l-41.059,12.014a1.1,1.1,0,0,1-.307.043" transform="translate(78.108 74.286)" fill="none" stroke="#011721" stroke-miterlimit="10" stroke-width="1"/><path d="M178.829,142.234a1.095,1.095,0,0,1-.322-2.14l26.173-8.047a1.094,1.094,0,0,1,.64,2.092l-26.171,8.047a1.1,1.1,0,0,1-.321.048" transform="translate(79.418 79.14)" fill="#011721"/><path d="M178.829,142.234a1.095,1.095,0,0,1-.322-2.14l26.173-8.047a1.094,1.094,0,0,1,.64,2.092l-26.171,8.047a1.1,1.1,0,0,1-.321.048" transform="translate(79.418 79.14)" fill="none" stroke="#011721" stroke-miterlimit="10" stroke-width="1"/><path d="M175.463,254.432c4.9,9.8,14.717,17.2,25.9,17.51,10.576.294,20.325-6.224,23-16.643,5.683-22.1-20.306-45.493-41.128-33.34-11.436,6.678-13.11,21.28-7.774,32.472.317.664,2.564-.1,2.318-.622-4.3-9.023-4.413-20.554,2.814-28.166,7.366-7.758,19.055-6.985,27.583-1.665,8.8,5.485,14.81,15.554,14.645,26.019-.157,10.046-6.846,19.517-17.254,20.726-11.734,1.363-22.737-6.812-27.788-16.912-.333-.664-2.57.117-2.318.621" transform="translate(76.31 131.07)" fill="#011721"/><path d="M218.343,246.492c-.384,10.549-7.711,20.087-18.764,20.523a24.325,24.325,0,0,1-8.778-1.356,28.141,28.141,0,0,1-4.682-2.079c-1.172-.656-3.5-1.643-3.8-3.124-.277-1.372.365-3.381.718-4.736a22.228,22.228,0,0,1,1.459-3.973,20.952,20.952,0,0,1,6.136-7.542c.224-.174.4-.485.03-.611a11.275,11.275,0,0,1-7.151-7.478c-.958-3.337-.19-7.644,3.116-9.424,3.476-1.873,7.815.529,10.058,3.261a10.156,10.156,0,0,1,1.7,10.427c-.146.339.5.4.672.381a26.956,26.956,0,0,1,19.354,5.848c.561.441,2.658-.461,2.167-.846a28.71,28.71,0,0,0-20.566-6.117l.673.382c3.676-8.585-5.8-17.657-14.287-14.36a8.732,8.732,0,0,0-5.593,8.941,11.773,11.773,0,0,0,7.978,9.989c.01-.2.021-.408.03-.611a22.549,22.549,0,0,0-8.357,13.276,12.959,12.959,0,0,0-.457,3.813c.093.763-.054.632.592,1.15a22.672,22.672,0,0,0,2.206,1.52,29.394,29.394,0,0,0,8.017,3.49c8.676,2.3,18.525.1,24.5-6.855a23.288,23.288,0,0,0,5.338-14.509c.019-.513-2.289-.168-2.318.621" transform="translate(80.759 134.874)" fill="#011721"/><path d="M209.331,225.842a1.1,1.1,0,0,1-.521-2.107l38.5-15.291a1.095,1.095,0,0,1,.808,2.035l-38.5,15.293a1.1,1.1,0,0,1-.286.07" transform="translate(97.633 124.922)" fill="#011721"/><path d="M209.331,225.842a1.1,1.1,0,0,1-.521-2.107l38.5-15.291a1.095,1.095,0,0,1,.808,2.035l-38.5,15.293a1.1,1.1,0,0,1-.286.07" transform="translate(97.633 124.922)" fill="none" stroke="#011721" stroke-miterlimit="10" stroke-width="1"/><path d="M216.186,245.122a1.095,1.095,0,0,1-.534-2.1l39.538-16.329a1.095,1.095,0,1,1,.837,2.023l-39.54,16.329a1.079,1.079,0,0,1-.3.077" transform="translate(101.742 135.853)" fill="#011721"/><path d="M216.186,245.122a1.095,1.095,0,0,1-.534-2.1l39.538-16.329a1.095,1.095,0,1,1,.837,2.023l-39.54,16.329a1.079,1.079,0,0,1-.3.077" transform="translate(101.742 135.853)" fill="none" stroke="#011721" stroke-miterlimit="10" stroke-width="1"/><path d="M218.956,248.386a1.094,1.094,0,0,1-.547-2.094l25.162-10.8a1.095,1.095,0,0,1,.861,2.012l-25.163,10.8a1.054,1.054,0,0,1-.314.082" transform="translate(103.404 141.137)" fill="#011721"/><path d="M218.956,248.386a1.094,1.094,0,0,1-.547-2.094l25.162-10.8a1.095,1.095,0,0,1,.861,2.012l-25.163,10.8a1.054,1.054,0,0,1-.314.082" transform="translate(103.404 141.137)" fill="none" stroke="#011721" stroke-miterlimit="10" stroke-width="1"/><path d="M154.937,191.948c6.188,13.5,21.6,21.024,34.442,16.817S207.6,190.2,201.409,176.7s-21.608-21.022-34.445-16.817-18.215,18.567-12.027,32.062" transform="translate(64.21 95.153)" fill="#bfcbfa"/><path d="M199.646,186.264c-1.036,13.778-13.378,22.452-27.568,19.378a30.306,30.306,0,0,1-12.647-6.171,21.207,21.207,0,0,1,9.647-16.5c-5.1-1.763-8.386-7.127-7.343-11.982s6.021-7.358,11.121-5.592,8.385,7.127,7.342,11.982a7.954,7.954,0,0,1-.83,2.215,28.97,28.97,0,0,1,20.279,6.678" transform="translate(68.443 98.816)" fill="#9aaae9"/><path d="M192.392,163.994a1.095,1.095,0,0,1-.293-2.15l39.914-11.093a1.095,1.095,0,0,1,.585,2.11l-39.914,11.094a1.132,1.132,0,0,1-.293.038" transform="translate(87.548 90.356)" fill="#6573b7"/><path d="M197.19,183.853a1.095,1.095,0,0,1-.307-2.145l41.058-12.014a1.1,1.1,0,0,1,.616,2.1L197.5,183.81a1.1,1.1,0,0,1-.307.043" transform="translate(90.425 101.707)" fill="#6573b7"/><path d="M199.374,187.971a1.095,1.095,0,0,1-.321-2.14l26.173-8.046a1.094,1.094,0,0,1,.64,2.092l-26.171,8.046a1,1,0,0,1-.321.048" transform="translate(91.735 106.56)" fill="#6573b7"/><g transform="translate(297.798 131.847)" opacity="0.905"><g clip-path="url(#a)"><g transform="translate(0.147 0.149)"><g clip-path="url(#b)"><rect width="149.405" height="149.405" transform="translate(0 -0.002)" fill="#acbaf7"/><rect width="149.405" height="149.405" transform="translate(0 -0.002)" fill="none" stroke="#000" stroke-miterlimit="10" stroke-width="0.185"/></g></g></g></g><path d="M211.263,251.7l-31.449,40.128-41.506-112.25-1.881-5.093c4.642-3.033,11.088-3.612,15.8,1.1l55.98,55.981c4.712,4.711,8.245,13.509,3.535,18.222l-.478,1.911" transform="translate(54.652 103.191)" fill="#acbaf7"/><path d="M265.909,144.984a17.06,17.06,0,0,1-17.04-15.522c-.365-4.325-.061-8.772-.061-13.111q-1.224.482-2.446.968h34.764l-.512-.176c0,3.88.048,7.764,0,11.644-.1,8.113-6.172,16.075-14.706,16.2a3.411,3.411,0,0,0-2.091.56c-.282.312-.569.593.157.584,8.856-.126,17.431-5.609,19.247-14.655a39.615,39.615,0,0,0,.349-7.766v-7.356c0-.165-.461-.176-.51-.176H248.3c-.494,0-2.444.245-2.444.968v7.022a45.459,45.459,0,0,0,.24,7.511c1.476,8.724,9.268,14.452,17.882,14.452a3.387,3.387,0,0,0,2.091-.56c.288-.318.565-.584-.157-.584" transform="translate(120.232 69.648)"/><path d="M251.674,130.521v-5.4a.437.437,0,0,0-.288-.27c-3.612-.944-7.014-3.764-7.358-7.657-.483-5.466,4.637-9.5,9.6-6.588.541.318,2.9-.168,2.666-1.06a12.128,12.128,0,0,1,6.731-14.117,16.2,16.2,0,0,1,11.878-.489,15.33,15.33,0,0,1,8.837,6.953c2.139,3.96,1.745,8.429.11,12.491-.349.865,1.8.385,2.028.3,3.26-1.155,5.891,2.777,5.565,5.621-.347,3.042-2.646,4.426-5.552,4.052-.691-.09-2.4.192-2.4,1.129v5.822c0,.763,2.954.256,2.954-.792V124.7l-2.4,1.131c4.223.544,9.714-1.025,10.341-5.942a6.03,6.03,0,0,0-1.995-5.333c-2.155-1.879-5.083-1.795-7.628-.893l2.03.3c2.967-7.372.8-15-6.272-18.937a20.991,20.991,0,0,0-21.2.808c-4.893,3.242-7.457,8.7-5.977,14.506q1.334-.533,2.668-1.062c-6.608-3.871-16.512,1.644-14.8,9.655.726,3.386,3.656,5.72,6.755,6.907a4.289,4.289,0,0,1,.98.331c-.43-.358-.23.312-.23.816v4.325c0,.763,2.956.256,2.956-.792" transform="translate(117.355 55.478)"/><path d="M250.738,118.562a5.154,5.154,0,0,0-2.446-2.164,4.589,4.589,0,0,0-5.6,2.262,6.179,6.179,0,0,0,.038,3.844,6.081,6.081,0,0,0,2.067,3.311c1.787,1.254,4.282.526,5.739-.92.152-.15.365-.368.3-.613s-.361-.349-.566-.382a2.663,2.663,0,0,0-2.089.56,4.767,4.767,0,0,1-.365.331c-.027.022-.056.043-.083.067-.155.13.086-.066.1-.07a1.062,1.062,0,0,0-.19.122c-.037.021-.075.038-.109.061-.109.075.217-.1.2-.1a1,1,0,0,0-.16.067c-.2.091.417-.131.147-.054s.419-.069.141-.03c-.232.032.245.006.168-.008a.651.651,0,0,0-.176,0c.083-.014.331.051.131,0a.767.767,0,0,0-.194-.043c.082-.014.251.093.08.019-.054-.024-.109-.045-.163-.07s-.106-.053-.158-.082c-.035-.019-.2-.133-.08-.046s-.042-.034-.075-.059-.085-.069-.125-.1a3.238,3.238,0,0,1-.282-.272,4.777,4.777,0,0,1-.51-.653c-.035-.051-.067-.1-.1-.157.1.152-.018-.034-.038-.07-.072-.131-.141-.264-.2-.4a7.933,7.933,0,0,1-.331-.821,8.078,8.078,0,0,1-.389-1.761c-.014-.136-.024-.274-.03-.409,0-.072,0-.146,0-.218,0-.179-.006.058,0-.072a5.168,5.168,0,0,1,.094-.8c.05-.235.158-.448.216-.675.013-.05-.1.176-.014.032.029-.048.056-.1.086-.146s.054-.077.083-.115c.157-.219-.042.029-.042.029-.008-.018.179-.163.182-.166a.94.94,0,0,1,.115-.093c.011.008-.213.12-.08.054a1.059,1.059,0,0,0,.115-.072c.194-.134-.069.045-.109.046.034,0,.078-.038.112-.048.186-.056-.341.115-.163.054.323-.11-.309.045-.074.016.019,0-.336,0-.194.013a.824.824,0,0,0,.141,0c.123,0-.152-.006-.155-.014a.619.619,0,0,0,.1.018c.032.008.067.014.1.019.213.034-.144-.067-.038-.014.154.077.318.126.47.21.062.035.258.166.1.053.066.045.13.091.194.139a5.3,5.3,0,0,1,.721.683,5.682,5.682,0,0,1,.641.846c.12.2.614.235.792.238a2.883,2.883,0,0,0,1.158-.234c.446-.2,1.136-.587.8-1.142" transform="translate(118.187 69.634)"/><path d="M270.512,118.839l.03-.05c.115-.181-.067.088,0-.006.125-.166.245-.334.381-.493a6.571,6.571,0,0,1,.577-.6c.184-.17-.12.082.029-.022.054-.038.107-.083.163-.122s.134-.086.2-.133c.107-.077-.133.091-.128.077a.517.517,0,0,1,.122-.064l.061-.029-.213.093c.032-.013.064-.027.1-.037.157-.053-.266.082-.224.07.107-.03.264-.05-.2.037.221-.042.048,0-.093,0,.045,0,.16.01-.021,0-.222-.016.021.008.053.01.179.008-.146-.054.03.006.085.03.173.053.258.086s.022,0,0,0c.038.018.075.04.112.061a2.962,2.962,0,0,1,.306.2,2.792,2.792,0,0,1,.366.32c.032.035.061.07.091.106.016.018.029.038.043.056.045.059-.056-.091,0,.01a2.964,2.964,0,0,1,.278.616,5.526,5.526,0,0,1-.078,3.17,7.837,7.837,0,0,1-.651,1.64c-.066.118-.134.235-.206.352-.021.035-.043.069-.066.1,0-.006.08-.115.029-.043s-.082.115-.125.171a5.574,5.574,0,0,1-.541.592c-.114.114.19-.138.014-.014-.058.04-.117.082-.173.123-.19.139.232-.114.077-.045a.809.809,0,0,0-.091.046c-.154.09.2-.09.2-.086-.282.11.32-.088.152-.045-.2.051.446-.072.179-.038a1.56,1.56,0,0,0,.245-.024,1.084,1.084,0,0,0-.125.006c-.04,0,.334,0,.094,0s.125.045,0,.006c-.069-.021-.141-.035-.211-.058s-.123-.046-.186-.069c-.166-.064.074.054-.086-.045a4.773,4.773,0,0,1-.859-.67c-.158-.157-.579-.147-.765-.139a3.65,3.65,0,0,0-1.153.251c-.259.1-1.265.531-.856.937a3.661,3.661,0,0,0,1.943,1.062,5.278,5.278,0,0,0,3.21-.582,5.771,5.771,0,0,0,2.673-3.277,6.9,6.9,0,0,0,.352-3.962,2.739,2.739,0,0,0-.969-1.489,3.912,3.912,0,0,0-3.418-.485,6.348,6.348,0,0,0-3.868,2.9c-.112.187.134.33.261.374a2.111,2.111,0,0,0,.948.01,2.484,2.484,0,0,0,1.718-.862" transform="translate(133.265 69.687)"/><path d="M252.111,134.077v6.836c0,.7.728.96,1.345.889a2.229,2.229,0,0,0,1.113-.4c.221-.173.526-.443.526-.75v-6.835c0-.7-.728-.961-1.345-.891a2.236,2.236,0,0,0-1.112.4c-.222.171-.528.441-.528.749" transform="translate(124.005 79.684)"/><path d="M261.272,134.24v6.83c0,.328.7.346.876.346,4.33,0,8.343.245,12.063,2.8a47.675,47.675,0,0,1,3.837,3.141,10.89,10.89,0,0,1,2.913,3.1,8.009,8.009,0,0,1,.747,3.783c.029,4.851,0,9.706,0,14.557,0,.742,2.956.242,2.956-.792,0-5.01.072-10.024,0-15.034a7.385,7.385,0,0,0-2.1-5.189,33.266,33.266,0,0,0-6.987-5.533c-3.86-2.183-7.93-2.322-12.227-2.322q.439.173.878.347v-6.83c0-.741-2.956-.242-2.956.792" transform="translate(129.497 79.791)"/><path d="M267.966,137.793c-4.293,2.153-8.605,4.271-12.881,6.459a6.868,6.868,0,0,0-3.994,6.46c-.01,2.732,0,5.464,0,8.2v7.345c0,.717,2.956.224,2.956-.793V150.987c0-2.441.283-4.773,2.74-6.04,2.151-1.112,4.33-2.172,6.5-3.257l6.459-3.239c.441-.222.832-.654.306-.98s-1.6.08-2.081.322" transform="translate(123.392 82.341)"/><path d="M272.482,143.793l-2.852-2.43a17.023,17.023,0,0,0-2.673-2.265c-1.064-.56-2.814-.219-3.975-.219a38.135,38.135,0,0,0-5.182.2c-3.516.481-6.775,1.971-10.054,3.255l-4.338,1.7a3.451,3.451,0,0,1-4.458-1.63c-1.5-2.4-2.781-4.962-4.165-7.43-.5-.9-3.375.048-2.737,1.187,1.372,2.447,2.649,4.982,4.128,7.364,2.1,3.388,5.789,2.865,8.986,1.612,2.838-1.11,5.662-2.262,8.514-3.333,3.711-1.395,7.567-1.147,11.451-1.147l-.806-.293,5.424,4.621c.833.71,3.6-.451,2.737-1.187" transform="translate(111.923 80.701)"/><path d="M248.722,104.1a12.806,12.806,0,0,0,3.465,5.21,1.231,1.231,0,0,0,.774.173,3.362,3.362,0,0,0,1.155-.246c.259-.107,1.289-.593.837-1a12.5,12.5,0,0,1-2-2.321l.094.144a12.5,12.5,0,0,1-1.364-2.746c-.075-.214-.354-.277-.545-.3a2.825,2.825,0,0,0-1.091.106,2.783,2.783,0,0,0-1,.454c-.141.115-.4.318-.32.534" transform="translate(121.965 61.741)"/><path d="M255.013,146.838v1.67a.352.352,0,0,0,.059.326.437.437,0,0,0,.254.248,1.048,1.048,0,0,0,.44.122,1.573,1.573,0,0,0,.541.008,2.594,2.594,0,0,0,1.118-.385l.266-.2a.913.913,0,0,0,.286-.453V146.5a.354.354,0,0,0-.059-.325.437.437,0,0,0-.254-.248,1.048,1.048,0,0,0-.441-.122,1.573,1.573,0,0,0-.541-.008,2.594,2.594,0,0,0-1.116.385l-.266.2a.914.914,0,0,0-.286.453" transform="translate(125.736 87.394)"/><path d="M255.009,152.939v1.67a.23.23,0,0,0,.176.15.682.682,0,0,0,.347.072,2.2,2.2,0,0,0,.5-.029,3.264,3.264,0,0,0,.581-.11,3.326,3.326,0,0,0,1.008-.421l.2-.158a.327.327,0,0,0,.138-.3v-1.67a.232.232,0,0,0-.178-.15.707.707,0,0,0-.346-.072,2.286,2.286,0,0,0-.5.029,3.261,3.261,0,0,0-.581.11,3.348,3.348,0,0,0-1.008.421l-.2.158a.329.329,0,0,0-.138.3" transform="translate(125.742 91.078)"/><path d="M226.479,135.927q2.759,6.624,5.52,13.25c.627,1.505,1.216,3.033,1.883,4.52,1.494,3.332,4.568,4.56,8.03,4.515q4.091-.055,8.183-.109l-.9-.659v10.2c0,1.228,2.956.608,2.956-.368v-10.2c0-.491-.456-.664-.9-.657q-3.424.043-6.846.09c-.753.01-1.513.048-2.268.03a5.941,5.941,0,0,1-5.293-3.637c-1.868-4.08-3.461-8.309-5.187-12.452q-1.106-2.656-2.214-5.315c-.43-1.032-3.343-.139-2.956.792" transform="translate(108.618 80.738)"/><path d="M262.814,137.742H218.061q.465.377.931.755a19.719,19.719,0,0,1,10.472-15.39c10.2-4.922,23.978-1.451,29.138,8.916a20.746,20.746,0,0,1,2.18,7.031c.107,1.1,3.074.432,2.956-.792A21.4,21.4,0,0,0,251.3,121.3c-11.115-4.787-26.262-1.787-32.449,9.205a21.827,21.827,0,0,0-2.823,8.311c-.05.509.489.755.929.755h44.753c.585,0,1.7-.184,1.942-.84.224-.608-.192-.992-.833-.992" transform="translate(102.369 71.402)"/><path d="M229.131,122.584a8.6,8.6,0,0,1,.523-1.923,6.823,6.823,0,0,1,.8-1.555,7.385,7.385,0,0,1,.552-.707c.016-.018.214-.21.307-.291.072-.062.147-.122.219-.182.046-.037.091-.072.138-.106-.1.066-.106.072-.029.022.149-.1.3-.189.462-.272-.385.2.565-.192.085-.038a5.1,5.1,0,0,1,.51-.136c-.309.062.4-.026.285-.022a4.069,4.069,0,0,1,2.215.493,5.423,5.423,0,0,1,2.335,2.911,8.328,8.328,0,0,1,.553,2.31c.067.891,3.036.288,2.956-.792a7.253,7.253,0,0,0-3.481-5.814,7.986,7.986,0,0,0-6.718.021,7.7,7.7,0,0,0-3.781,3.728,9.094,9.094,0,0,0-.886,2.748c-.146,1.094,2.822.56,2.949-.4" transform="translate(108.458 69.393)"/><path d="M222.292,136.258h28.175c.566,0,1.663-.21,1.958-.776s-.254-.747-.768-.747H223.482c-.566,0-1.663.208-1.959.774s.256.749.769.749" transform="translate(105.617 80.775)"/><path d="M408.282,189.811l-62.589,2.7a11.154,11.154,0,0,0-1.665-8.006,16.653,16.653,0,0,0-9.643-7.313L227.446,145.933a51.157,51.157,0,0,0-49.613,12.041l-33.745,32.1,62.569,62.837,22.79-24.551a21.46,21.46,0,0,1,20.087-6.412l56.957,11.827a48.6,48.6,0,0,0,23.154-.833l106.711-30.3s-.534-14.44-28.076-12.836" transform="translate(59.245 86.256)" fill="#fff"/><path d="M409.611,189.172,354.8,191.536l-7.777.336c.355.262.712.525,1.067.789,1.012-7.127-4.322-13.42-10.816-15.686-1.006-.35-2.041-.63-3.065-.929l-14.384-4.205-50.5-14.76L231,145.876a56.853,56.853,0,0,0-24.861-2.011A55.593,55.593,0,0,0,176.25,158.84l-31.955,30.4c-.317.3-.632.6-.947.9-.253.24-.534.664-.214.984L164.3,212.379,198,246.227q3.851,3.868,7.7,7.735c.693.7,2.417.251,3.009-.387q8.074-8.7,16.145-17.393c2.18-2.348,4.338-4.717,6.54-7.044a19,19,0,0,1,17.839-5.845c16.28,3.2,32.5,6.747,48.742,10.12q3.808.792,7.615,1.582a52.636,52.636,0,0,0,20.8.182c4.477-.877,8.877-2.326,13.262-3.57l54.737-15.542c14.047-3.989,28.126-7.884,42.147-11.968.238-.069.475-.134.713-.2.633-.181,1.534-.577,1.5-1.353-.122-2.838-2.1-5.673-4.117-7.5-6.664-6.037-17.032-6.3-25.464-5.848-1.735.093-2.873,2.089-.465,1.959,7.684-.413,17.427-.072,23.254,5.784a10.571,10.571,0,0,1,3.317,6.537l1.5-1.353L400.609,212.39l-57.254,16.256c-4.357,1.238-8.711,2.487-13.071,3.712a46.932,46.932,0,0,1-22.089.822c-1.823-.368-3.644-.757-5.467-1.136q-25.4-5.274-50.807-10.549a25.271,25.271,0,0,0-15.57,1.521c-4.066,1.825-7.022,4.741-9.979,7.927l-18.914,20.374-1.54,1.66,3.01-.387-21.161-21.253-33.7-33.849-7.7-7.735q-.108.492-.214.984,14.878-14.156,29.759-28.313c1.315-1.251,2.623-2.508,3.944-3.752a48.165,48.165,0,0,1,47.873-11.222q16.629,4.847,33.249,9.719l50.364,14.722q8.748,2.555,17.494,5.114c4.4,1.286,8.752,2.251,12.083,5.741a12.269,12.269,0,0,1,3.7,10.339c-.082.571.6.809,1.068.789q27.4-1.18,54.812-2.364,3.889-.168,7.777-.334c.662-.029,2.009-.21,2.292-.956.259-.683-.219-1.08-.949-1.048" transform="translate(58.587 85.894)" fill="#011721"/><path d="M165.931,268.383l26.291-35.066,3.8-5.064-2.841,1.017,1.361,0,2.251-1.428-1.36,0c.15.2.3.392.449.587a12.5,12.5,0,0,0,.062-17.529c-.613-.641-3.818.619-3.276,1.188a11.968,11.968,0,0,1,.064,16.595c-.369.389.054.587.449.587l1.36,0a4,4,0,0,0,2.457-.659c.406-.373.6-.768-.206-.769-1.534,0-3.17-.077-4.29,1.136a24.294,24.294,0,0,0-1.462,1.95q-3.34,4.453-6.676,8.906-8.779,11.706-17.556,23.414l-4.3,5.742c-.384.51,1.276.363,1.393.344a3.235,3.235,0,0,0,2.036-.953" transform="translate(70.25 126.33)"/><path d="M310.881,178.078s-.216,14.042-22.556,8.976-75.263-18.777-86.169-19.1" transform="translate(94.057 100.689)" fill="#fff"/><path d="M309.768,178.664a9.112,9.112,0,0,1-4.706,7.526c-3.706,1.983-8.473,1.515-12.443.827-4.018-.7-7.993-1.764-11.956-2.71-18.8-4.482-37.55-9.239-56.44-13.348-6.763-1.472-13.807-3.359-20.76-3.6-1.281-.045-3.706,1.83-1.368,1.911,6.316.222,12.751,1.969,18.9,3.295,9.944,2.143,19.842,4.5,29.733,6.878,9.611,2.31,19.212,4.666,28.83,6.951,8.373,1.99,17.943,5.11,26.289,1.44,3.754-1.651,7.3-5.267,7.393-9.621.029-1.382-3.449-.653-3.471.454" transform="translate(93.435 100.33)" fill="#011721"/><path d="M136.071,17.112a3.875,3.875,0,1,0,2.4-5.378,4.189,4.189,0,0,0-2.4,5.378" transform="translate(54.277 6.939)"/><path d="M136.071,17.112a3.875,3.875,0,1,0,2.4-5.378,4.189,4.189,0,0,0-2.4,5.378" transform="translate(54.277 6.939)" fill="none" stroke="#000" stroke-miterlimit="10" stroke-width="0.25"/><line x2="38.652" transform="translate(98.935 333.967)" fill="#acbaf7"/></g></g></svg>