<svg xmlns="http://www.w3.org/2000/svg" width="25.335" height="20.009" viewBox="0 0 25.335 20.009">
  <g id="Group_3066" data-name="Group 3066" transform="translate(-0.02 0.316)">
    <g id="Group_2598" data-name="Group 2598" transform="translate(1.175 0.745)">
      <path id="Path_8606" data-name="Path 8606" d="M5.35,9.359A5.349,5.349,0,0,0,9.537.68,12.9,12.9,0,0,0,5.35,0,12.9,12.9,0,0,0,1.163.68,5.349,5.349,0,0,0,5.35,9.359" transform="translate(6.162 3.281)" fill="#bfcbd8"/>
      <path id="Path_8603" data-name="Path 8603" d="M17.288,24.1A13.285,13.285,0,0,0,5.776,30.748a13.295,13.295,0,0,0,23.025,0A13.285,13.285,0,0,0,17.288,24.1Z" transform="translate(-5.776 -21.143)" fill="none" stroke="#bfcbd8" stroke-miterlimit="10" stroke-width="2"/>
      <line id="Line_1203" data-name="Line 1203" x1="16.565" y2="16.565" transform="translate(3.23 1.323)" fill="none" stroke="#bfcbd8" stroke-miterlimit="10" stroke-width="3"/>
      <line id="Line_1204" data-name="Line 1204" x1="17.766" y2="17.766" transform="translate(1.588)" fill="none" stroke="#fff" stroke-miterlimit="10" stroke-width="3"/>
    </g>
  </g>
</svg>
