<svg xmlns="http://www.w3.org/2000/svg" width="19.768" height="18.966" viewBox="0 0 19.768 18.966"><g transform="translate(-1709.176 -113.784)"><path d="M15.636,7.819a4.919,4.919,0,0,1-9.82.394c-.009-.13-.014-.262-.014-.394A4.9,4.9,0,0,1,8.717,3.327a4.792,4.792,0,0,1,2-.428,4.911,4.911,0,0,1,4.918,4.9Z" transform="translate(1708.34 111.635)" fill="none" stroke="#163556" stroke-linecap="round" stroke-linejoin="round" stroke-width="1.5"/><path d="M14.062,9.5l3.522,2a6.066,6.066,0,0,1,2.881,3.716l.632,2.39H2.828l.641-2.39A6.083,6.083,0,0,1,6.341,11.5l3.53-2" transform="translate(1707.098 114.392)" fill="none" stroke="#163556" stroke-linecap="round" stroke-linejoin="round" stroke-width="1.5"/></g></svg>