<svg xmlns="http://www.w3.org/2000/svg" width="35" height="34" viewBox="0 0 35 34">
  <g id="Group_2557" data-name="Group 2557" transform="translate(-54 -162)">
    <ellipse id="Ellipse_33" data-name="Ellipse 33" cx="17.5" cy="17" rx="17.5" ry="17" transform="translate(54 162)" fill="#163556"/>
    <g id="Group_2253" data-name="Group 2253" transform="translate(63.157 168.503)">
      <g id="Group_2254" data-name="Group 2254" transform="translate(0.564 0.564)">
        <path id="Path_7674" data-name="Path 7674" d="M4.637,0h6.284a4.637,4.637,0,0,1,4.637,4.637V8.021a4.637,4.637,0,0,1-4.637,4.637H4.637A4.637,4.637,0,0,1,0,8.021V4.637A4.637,4.637,0,0,1,4.637,0Z" transform="translate(0 7.207)" fill="none" stroke="#fff" stroke-linecap="round" stroke-width="1.5"/>
        <path id="Path_7672" data-name="Path 7672" d="M15.265,8.207H5.471V5.9a4.9,4.9,0,0,1,9.794,0Z" transform="translate(-2.589 -1)" fill="none" stroke="#fff" stroke-linecap="round" stroke-linejoin="round" stroke-width="1.5"/>
        <path id="Path_7673" data-name="Path 7673" d="M13.921,18.707a1.568,1.568,0,1,1-1.567-1.567A1.568,1.568,0,0,1,13.921,18.707Z" transform="translate(-4.479 -6.739)" fill="none" stroke="#fff" stroke-linecap="round" stroke-linejoin="round" stroke-width="1.5"/>
        <line id="Line_1163" data-name="Line 1163" y2="2.369" transform="translate(7.874 13.536)" fill="none" stroke="#fff" stroke-linecap="round" stroke-linejoin="round" stroke-width="1.5"/>
      </g>
    </g>
  </g>
</svg>
