<svg xmlns="http://www.w3.org/2000/svg" xmlns:xlink="http://www.w3.org/1999/xlink" width="26.532" height="25.115" viewBox="0 0 26.532 25.115"><defs><clipPath id="a"><rect width="26.532" height="25.115" transform="translate(0 0)" fill="none" stroke="#fff" stroke-width="1.5"/></clipPath></defs><g transform="translate(0 0)"><g clip-path="url(#a)"><path d="M10.812,24.409l-.1-6.815a.016.016,0,0,0-.012-.015L1,14.622A.635.635,0,0,1,.84,13.439L25.456.545a.394.394,0,0,1,.57.415L22.787,19.93a1.042,1.042,0,0,1-1.376.805l-7.034-2.069a.014.014,0,0,0-.018.007L11.2,24.5A.206.206,0,0,1,10.812,24.409Z" fill="none" stroke="#fff" stroke-linecap="round" stroke-width="1.5"/><line x2="3.423" y2="1.025" transform="translate(10.832 17.582)" fill="none" stroke="#fff" stroke-linecap="round" stroke-width="1.5"/><line y1="17.052" x2="15.08" transform="translate(10.697 0.528)" fill="none" stroke="#fff" stroke-linecap="round" stroke-width="1.5"/></g></g></svg>