<svg xmlns="http://www.w3.org/2000/svg" width="37.24" height="33.688" viewBox="0 0 37.24 33.688"><g transform="translate(0 15.406) rotate(-30)"><path d="M28.1,0H2.708A2.711,2.711,0,0,0,0,2.708V18.4A2.711,2.711,0,0,0,2.708,21.11H28.1A2.711,2.711,0,0,0,30.813,18.4V2.708A2.711,2.711,0,0,0,28.1,0Zm-.354,1.805-.361.3L16.481,11.19a1.679,1.679,0,0,1-2.149,0L3.423,2.106l-.361-.3ZM1.805,3.109l8.888,7.4L1.805,16.425ZM28.1,19.3H2.708a.9.9,0,0,1-.885-.723l10.318-6.867,1.035.862a3.484,3.484,0,0,0,4.46,0l1.035-.862,10.318,6.867A.9.9,0,0,1,28.1,19.3Zm.9-2.88L20.119,10.51l8.888-7.4Z" fill="#163556"/></g></svg>