<svg xmlns="http://www.w3.org/2000/svg" width="35" height="34" viewBox="0 0 35 34">
  <g id="Group_3077" data-name="Group 3077" transform="translate(1726.635 -1195.146)">
    <g id="Group_3077-2" data-name="Group 3077" transform="translate(-1780.771 1033.571)">
      <ellipse id="Ellipse_33" data-name="Ellipse 33" cx="17.5" cy="17" rx="17.5" ry="17" transform="translate(54.135 161.574)" fill="#163556"/>
      <g id="Group_2305" data-name="Group 2305" transform="translate(5.423 3)">
        <g id="Group_2306" data-name="Group 2306">
          <g id="Group_2304" data-name="Group 2304" transform="translate(70.956 187.801) rotate(-135)">
            <path id="Path_7711" data-name="Path 7711" d="M4.345,0a3.036,3.036,0,0,0-2.8,1.853L.105,5.264A1.316,1.316,0,0,0,1.317,7.093h3.03a1.316,1.316,0,0,0,1.26-.937L6.674,4.012h9.99l1.067,2.144a1.316,1.316,0,0,0,1.26.937h3.03a1.316,1.316,0,0,0,1.212-1.828L21.789,1.853A3.037,3.037,0,0,0,18.994,0Z" transform="translate(0 0)" fill="none" stroke="#fff" stroke-linecap="round" stroke-linejoin="round" stroke-width="1.5"/>
          </g>
          <path id="Path_7712" data-name="Path 7712" d="M0,0A1.909,1.909,0,0,0,2.428,0" transform="translate(68.88 175.091) rotate(-135)" fill="none" stroke="#fff" stroke-linecap="round" stroke-linejoin="round" stroke-width="1.5"/>
          <path id="Path_7713" data-name="Path 7713" d="M0,0A3.439,3.439,0,0,0,4.728,0" transform="translate(71.695 173.903) rotate(-135)" fill="none" stroke="#fff" stroke-linecap="round" stroke-linejoin="round" stroke-width="1.5"/>
          <path id="Path_7714" data-name="Path 7714" d="M0,0A5.877,5.877,0,0,0,7.933,0" transform="translate(74.863 173.001) rotate(-135)" fill="none" stroke="#fff" stroke-linecap="round" stroke-linejoin="round" stroke-width="1.5"/>
        </g>
      </g>
    </g>
  </g>
</svg>
