<svg xmlns="http://www.w3.org/2000/svg" width="35" height="34" viewBox="0 0 35 34">
  <g id="Group_2546" data-name="Group 2546" transform="translate(-54.135 -161.574)">
    <ellipse id="Ellipse_33" data-name="Ellipse 33" cx="17.5" cy="17" rx="17.5" ry="17" transform="translate(54.135 161.574)" fill="#163556"/>
    <g id="Group_2262" data-name="Group 2262" transform="translate(2.4 0.642)">
      <path id="Path_41" data-name="Path 41" d="M63.126,3.318a1.947,1.947,0,1,1-1.947-1.947A1.947,1.947,0,0,1,63.126,3.318Z" transform="translate(3.073 171.837)" fill="none" stroke="#fff" stroke-linecap="round" stroke-linejoin="round" stroke-width="1.5"/>
      <path id="Path_42" data-name="Path 42" d="M101.368,39.565a1.947,1.947,0,1,1-1.947-1.947A1.947,1.947,0,0,1,101.368,39.565Z" transform="translate(-27.311 143.038)" fill="none" stroke="#fff" stroke-linecap="round" stroke-linejoin="round" stroke-width="1.5"/>
      <path id="Path_43" data-name="Path 43" d="M138.613,2.32A1.947,1.947,0,1,1,136.666.373,1.947,1.947,0,0,1,138.613,2.32Z" transform="translate(-56.904 172.63)" fill="none" stroke="#fff" stroke-linecap="round" stroke-linejoin="round" stroke-width="1.5"/>
      <path id="Path_44" data-name="Path 44" d="M4.266,66.168a1.947,1.947,0,1,1-1.947-1.947A1.947,1.947,0,0,1,4.266,66.168Z" transform="translate(56.389 114.829)" fill="none" stroke="#fff" stroke-linecap="round" stroke-linejoin="round" stroke-width="1.5"/>
      <path id="Path_7678" data-name="Path 7678" d="M5.786,2.46,8.191,0" transform="translate(54.764 176.59)" fill="none" stroke="#fff" stroke-linecap="round" stroke-width="1.5"/>
      <line id="Line_23" data-name="Line 23" x2="4.749" y2="4.749" transform="translate(65.927 176.385)" fill="none" stroke="#fff" stroke-linecap="round" stroke-linejoin="round" stroke-width="1.5"/>
      <line id="Line_24" data-name="Line 24" x1="4.749" y2="4.749" transform="translate(73.442 176.249)" fill="none" stroke="#fff" stroke-linecap="round" stroke-linejoin="round" stroke-width="1.5"/>
    </g>
  </g>
</svg>
