<svg id="linkedin" xmlns="http://www.w3.org/2000/svg" width="20.168" height="20.168" viewBox="0 0 20.168 20.168">
  <path id="Path_2910" data-name="Path 2910" d="M21.519,21.378h.005v-7.4c0-3.619-.779-6.406-5.009-6.406a4.392,4.392,0,0,0-3.956,2.174H12.5V7.912H8.489V21.377h4.177V14.709c0-1.755.333-3.453,2.507-3.453,2.142,0,2.174,2,2.174,3.566v6.556Z" transform="translate(-1.355 -1.209)" fill="#fff"/>
  <path id="Path_2911" data-name="Path 2911" d="M.4,7.977H4.578V21.442H.4Z" transform="translate(-0.063 -1.274)" fill="#fff"/>
  <path id="Path_2912" data-name="Path 2912" d="M2.422,0A2.433,2.433,0,1,0,4.844,2.422,2.423,2.423,0,0,0,2.422,0Z" fill="#fff"/>
</svg>
