<svg xmlns="http://www.w3.org/2000/svg" width="35" height="34" viewBox="0 0 35 34">
  <g id="Group_2973" data-name="Group 2973" transform="translate(-54.135 -161.574)">
    <ellipse id="Ellipse_33" data-name="Ellipse 33" cx="17.5" cy="17" rx="17.5" ry="17" transform="translate(54.135 161.574)" fill="#163556"/>
    <g id="Group_2270" data-name="Group 2270" transform="translate(60.891 170.075)">
      <g id="Group_2271" data-name="Group 2271" transform="translate(0 0)">
        <path id="Path_7685" data-name="Path 7685" d="M21.618,8.054c0,3.9-4.616,7.054-10.307,7.054a14.484,14.484,0,0,1-3.875-.516l-4.25,2.537,1.023-3.965A6.257,6.257,0,0,1,1,8.054C1,4.157,5.616,1,11.311,1S21.618,4.157,21.618,8.054Z" transform="translate(-0.565 -0.565)" fill="none" stroke="#fff" stroke-linecap="round" stroke-linejoin="round" stroke-width="1.5"/>
        <circle id="Ellipse_37" data-name="Ellipse 37" cx="1.419" cy="1.419" r="1.419" transform="translate(4.355 6.2)" fill="#fff"/>
        <circle id="Ellipse_38" data-name="Ellipse 38" cx="1.419" cy="1.419" r="1.419" transform="translate(9.325 6.2)" fill="#fff"/>
        <circle id="Ellipse_39" data-name="Ellipse 39" cx="1.419" cy="1.419" r="1.419" transform="translate(14.38 6.2)" fill="#fff"/>
      </g>
    </g>
  </g>
</svg>
