<svg xmlns="http://www.w3.org/2000/svg" width="35" height="34" viewBox="0 0 35 34">
  <g id="Group_3075" data-name="Group 3075" transform="translate(-59.365 -570.426)">
    <ellipse id="Ellipse_40" data-name="Ellipse 40" cx="17.5" cy="17" rx="17.5" ry="17" transform="translate(59.365 570.426)" fill="#163556"/>
    <g id="Group_2299" data-name="Group 2299" transform="translate(67.365 577.426)">
      <g id="Group_2193" data-name="Group 2193" transform="translate(0 0)">
        <path id="Path_7662" data-name="Path 7662" d="M17.907,13.029V11.571A7.248,7.248,0,0,0,10.979,4.3a7.071,7.071,0,0,0-7.367,6.977v1.751A2.582,2.582,0,0,1,1,15.58v4.565H20.519V15.58A2.581,2.581,0,0,1,17.907,13.029Z" transform="translate(-1 -4.297)" fill="none" stroke="#fff" stroke-width="1.5"/>
        <path id="Path_7663" data-name="Path 7663" d="M7.79,22.2h0a3.986,3.986,0,0,0,7.971,0Z" transform="translate(-2.016 -6.356)" fill="none" stroke="#fff" stroke-width="1.5"/>
      </g>
    </g>
  </g>
</svg>
