<svg xmlns="http://www.w3.org/2000/svg" xmlns:xlink="http://www.w3.org/1999/xlink" width="1541.151" height="1311.759" viewBox="0 0 1541.151 1311.759">
  <defs>
    <linearGradient id="linear-gradient" x1="0.5" x2="0.5" y2="1" gradientUnits="objectBoundingBox">
      <stop offset="0" stop-color="#80c3f8"/>
      <stop offset="1" stop-color="#fff"/>
    </linearGradient>
  </defs>
  <g id="Group_755" data-name="Group 755" transform="translate(90.997 -135.994)" opacity="0.121">
    <g id="Group_1615" data-name="Group 1615" transform="translate(-91 136)">
      <path id="Union_1" data-name="Union 1" d="M7685.4,1189.621a26.979,26.979,0,0,1,18.566-3.622c12.865,2.065,25.8,3.9,38.763,4.951,14.767,1.186,28.406,5.206,40.665,14.412,11.8,8.858,24.445,14.449,39.256,11.64,7.753-1.469,13.942,1.439,18.972,8.068,3.019,3.97,7.488,6.8,10.187,10.933,11.509,17.585,27.079,23.31,46.332,19.9,2.116-.378,4.55.921,6.823,1.444,21.422,2.333,40.062,16.687,62.22,16.554l.014.021c6.993-.037,8.128,8.506,8.225,14.141.228,12.51,1.439,25.972-3.629,37.1-8.9,19.526-10.947,39.958-11.138,61.1,1.821,9.929-.518,19.179-3.571,28.318-1.2,9.648-4.972,15.734-15.011,18.838-14.3,4.426-25.131,24.387-23.936,40.52a41.766,41.766,0,0,1-4.389,23.05q-1.969,3.817-3.931,7.643A770.572,770.572,0,0,1,7685.4,1189.621Zm668.722,244.43a104.742,104.742,0,0,0-27.1-35.422c-8.145-7.051-8.209-18.168-12.54-27.144-3.061-6.344-3.961-14.716-8.477-19.232-20.917-20.88-22.9-46.882-21.643-74.065.575-12.5-4.151-23.575-8.276-34.86-6.829-12.879-8.814-28.583-20.859-38.408-15.741-7.044-19.457-21.164-20.528-37.045-1.386-20.565-4.979-24.3-23.839-25.824a2.364,2.364,0,0,0-.622.062c-.322.062-.629.124-.787-.018-21.871-19.1-36.21,3.313-53.48,9.517a51.5,51.5,0,0,1-5.427,1.365,69.275,69.275,0,0,0-10.88,3.489c-25.744,12.953-45.7,2.176-63.445-18.021-14.56-11.221-25.778-26.149-39.035-38.8-6.012-5.731-3.274-11.935-1.727-18.154-.64-7.56-.117-15.909-4.453-22.105-11.649-16.591-7.436-31.629.566-47.444,6.247-12.363,11.021-25.573,16.59-38.335,4.55-10.454,7.981-20.508,7.426-33.011-.693-15.718,12.135-26.575,18.221-40.016a4.2,4.2,0,0,1,3.592-2.022c25.035,6.655,43.5-11.159,64.956-17.747q.673,53.485,1.365,106.972L8142.356,880.8c9.922-4.824,19.54-10.555,29.845-14.251,13.15-4.714,19.273.642,15.727,14.643-2.252,8.872.677,10.281,7.108,12.186,15.382,4.55,30.6,9.7,45.971,14.325,8.808,2.648,15.733,2.478,17.658-10.019,1.668-10.85,11-13.408,18.972-9.528,21.717,10.546,43.093,3.961,64.27,1.193,8.543-1.119,16.377-8.423,16.628-19.906.2-9.6-.134-19.232.405-28.8.612-10.852-5.009-10.595-9.913-5.349-5.416,5.791-10.578,5.695-16.922,3.659a11.9,11.9,0,0,0-11.027,1.409c-8.653,5.929-15.019,2.655-20.492-5.842-11.294-17.512-9.286-25.787,11.353-37.361,13.7-7.679,27.381-16.842,44.692-9.752,9,3.687,16.427-4.258,24.991-4.73,8.609-8.075,4.618-13.549-3.834-17.783-9-4.492-18.118-8.69-28.659-13.719,3.97-4.352,7.813-8,7.931-13.574-4.744-3.348,2.146-5.812-.154-10.083-7.237,1.285-12.755,6.249-18.427,10.859-2.486,2.029-2.235,4.469-2,7.774.251,3.408,12.508-1.041,3.569,5.916-4.553,3.541-9.236,9.759-16.229,6.5-5.869-2.742-4.129-8.2-2.706-13.084-17.629-3.173-23.125,2.19-26.908,26.635-.68,4.382-.753,8.888-1.115,13.337,6.432,19.437,2.464,24.947-15.607,21.65-9.664,2.109-17.659,5.678-14.679,18.781,3.688,5.022,10.785,8.062,6.735,17.12-1.3,2.89,3.444,8.916-3.371,10.053-5.333.891-8.912-1.58-10.408-7.546a33.761,33.761,0,0,0-4.124-7.546,27.034,27.034,0,0,1-14.191-16.671c-4.767-14.422-15.543-20.572-27.742-23.413-7.8-1.815-10.793-7.988-15.963-12.2-3-2.441-6.571-6.019-10.12-2.139s-1.748,8.078,1.393,12.082c7.856,10.033,17.851,17.94,28.99,21.657,17.73,5.916,7.359,15.778,5.628,25.412-3.15-10.224-10.705-13.8-18.935-17.164-10.89-4.442-21.231-10.129-29.012-19.916a27.07,27.07,0,0,0-6.574-6.049c-4.714-2.989-43.8,17.763-42.864,23.22,1.359,7.864-2.89,12.275-6.268,17.578-5.165,8.1-11.64,14.914-9.524,26.909,1.393,7.891-6.95,12.782-12.584,16.832-12,8.644-26.578,6.438-40.076,6-7.258-.242-7.884-10.763-9.515-16.789-2.848-10.519-2.574-21.855-4.847-32.587-1.932-9.125,2.575-12.142,9.243-13.484,5.621-1.135,11.543-.73,17.187-1.778,9.233-1.7,20.874.546,20.388-16.116-.421-14.532-5.694-23.768-18.78-28.03-3.763-1.225-10.208-.325-9.568-6.779.5-4.884,7.613-2.072,9.383-4.375,7.657-9.95,19.6-13.395,27.957-23.856,11.861-14.811,15.439-37.966,37.746-44.013,10.68-2.892,2.167-11.552-.539-17.063-7.134-14.493-4.987-21.383,9.816-28.576,4.449,6.507,1.948,13.521,1.609,20.293-.5,10.09,6.167,13.97,15.313,14.074,13.588.161,25.221-4.463,37.065-9.6,16.133-4.941,22.012-16.729,20.625-33.842-.5-6.005,1.755-9.655,8.527-6.712,3.672,1.587,7.692,2.648,9.169-3.076,1.011-3.947,1.644-7.583-2.508-10.682-8.6-6.424-5.547-10.974,2.772-12.317,12.165-1.955,21.539-10.268,32.868-13.933-11.875-10.675-22.594-2.862-33.029,2.146-9.3,4.469-17.837,7.921-25.405-2.973-7.007-10.09-11.021-20.263-2.271-31.535,3.885-5.008,6.432-11.152,10.178-16.3,5.48-7.553,3.217-12.554-4.2-16.487-1.86.09-3.719.177-5.584.274l.081-.191a28.865,28.865,0,0,0-10.284,19.524c-.884,7.811-7.244,14.834-14.074,19.8-.656,1.151-1.312,2.293-1.969,3.445-.3,7.051-.562,14.1-.917,21.141-.175,3.512-1.386,8.179,2.206,9.678,13.293,5.538,6.993,13.652,3.371,21.295a28.427,28.427,0,0,0-3.2,17.4c1.976,12.259-9.08,16.581-14.141,24.473-2.381,3.726-6.02-.064-8.209-2.869a74.037,74.037,0,0,1-12.842-22.062l-10.88-15.63c-8.594,4.2-6.307,18.985-20.3,18.1-16.25-1.025-31.1-27.441-18.456-42.539,25.146-30.036,40.681-66.047,59.586-99.912,7.569-13.565,18.456-22.106,29.852-30.19,3.947-2.8,7.532-5.216,10.039-9.323,2.133-3.5,5.591-8.255,8.58-6.758,5.08,2.54,9.434,1.078,13.733-.385,2.729-.928,5.437-1.858,8.3-1.762a34.389,34.389,0,0,1,7.184-.412c3.208.472,7.834-.023,8.979,3.475,1.909,5.886-5.718,3.723-7.576,8.755,26.665-3.542,50.2,9.678,75.217,14.148,6.853,1.225,15.681,1.667,13.97,13.042-1.6,10.629-9.862,8.925-17.017,8.792a295.338,295.338,0,0,0-36.757.79c16.591,5.038,13.123,35.118,38.491,31.01-6.869-7.244-8.114-12.731,2.9-12.393,6.16.184,12.474,4.294,10.271-9.049-.931-5.637,8.637-15.69,18.063-16.155,9.2-.465,10.2-3.74,5.531-10.864a21.116,21.116,0,0,1-3.113-11.522c-.094-3.053-3.783-7.1,1.373-8.932a13.137,13.137,0,0,1,13.608,2.6c4.95,4.147.813,5.266-1.533,7.629-3.04,3.067-.627,5.745,2.042,7.028,3.815,1.824,8.352,1.49,10.056-2.706,4.131-10.194,13.484-13.846,21.125-19.46,6.675-4.891,11.582-13.853,23.383-7.626,5,2.618,11.928-6.388,18.426-9.42,7.125-3.311,22.108,3.9,20.823-13.676a14.337,14.337,0,0,1,5.158-1.032c4.734.014,9.478-.32,14.217-.656,12.416-.88,24.8-1.759,36.884,3.687,2.333-4.292,1.314-8.888-2.065-9.36-13.445-1.9-9.388-16.7-16.559-23.736-4.182-4.1,7.237-9.568,7.237-16.243.014-16.169,11.594-15.808,21.892-17.424,3.424-.523,6.558-.891,7.17,4.61,2.206,19.828,6.476,39.051,16.117,56.827,3.276,6.042.126,11.81-3.429,16.657-2.561,3.5-5.725,6.505-8.9,10.03,15.062,2.5,21.834-7.074,25-34.264l-1.483-5.11c-4.322,1.091-10.753,2-10.643-3.528.258-12.856-12.992-25.168-2.089-38.372,1.282-1.557.811-4.72,1.145-7.111,9.22.117,2.979,15.513,13.247,14.392l.643-1.269c.583-15.476,10.613-13.816,20.6-12.259,2.376-.147,4.767-.2,7.127-.479a15.557,15.557,0,0,1,2.844.035c2.968.2,6.017.412,6.288-4,.309-4.914-4.292-4.124-7.582-4.619-6.869-1.048-7.436-8.032-8.66-12.724-1.49-5.694,4.854-4.668,8.047-5.863a147.14,147.14,0,0,1,21.871-7.194,15.125,15.125,0,0,0,12.789-12.149c-1.651-8.667,2.959-12.6,9.688-15.946,21.546-10.7,42.8-22.018,64.313-32.8a24.564,24.564,0,0,0,12.238-11.55c10.061-19.953,25.7-20.669,41.033-2.818,3.01,3.512,6.321,2.206,7.037-2.059,1.031-6.162,4.458-5.669,7.916-5.176a16.218,16.218,0,0,0,3.339.251c4.59-.79,8.985-2.45,13.9-.709,21.707,7.709,23.24,14.369,6.675,30.508-3.076,3-6.4,5.7-9.6,8.543-6.043,6.645-12.082,13.3-19.453,21.4,9.849.228,14.8-8.034,22.345-8.748a123.725,123.725,0,0,1,54.672-10.217c9.591.576,19.3,3.991,29.38.781a25.166,25.166,0,0,0,6.608-3.369,774.818,774.818,0,0,1,166.508,168.916c-9.376,13.026-18.7,26.1-27.8,39.323-2.043,2.966-7.473,7.267-4.182,9.731,4.646,3.475,11.4,11.011,15.771,7.723,9.595-7.214,17.017-1.232,23.89,2.759,7.525,4.373,8.232-1.034,11.53-7.458,8.151,15.534,15.513,29.49,22.764,43.513.78,1.513,2.381,4.2-.444,4.714-14.154,2.574-8.246,11.389-5.679,19.584.8,2.567,7.378,6.16-.753,8.5-7.877,2.266-4.891-4.633-5.464-7.03-4.589-18.985-6.257-38.733-16.243-57.327-5.952,21.155-11.831,42.044-17.705,62.941-2.713,11.449-5.842,22.815-8.031,34.381-2.354,12.414-9.109,17.231-20.823,15.188-4.7,9.294-8.38,19.393-14.348,27.653-8.012,11.073-6.388,19.644,2.729,28.769,5.3,5.3,9.722,10.85,6.146,19.936a13.361,13.361,0,0,1-11.877,9.155c-6.549.649-4.426-6.418-6.04-10.07-3.134-7.095.117-18.456-12.179-19.317a1.613,1.613,0,0,1-1.2-.806c-1.718-5.856,1.631-16.522-9.33-14.074-5.379,1.2-9.635,7.435-14.479,11.472-4.816-4.456,4.39-11.64-2.576-14.194-5.967-2.183-9.4,3.822-12.552,8.071-3.571,4.808-12.269,8.1-9.464,14.871,3.368,8.158,11.985,6.586,19.333,5.48a71.78,71.78,0,0,1,10.9-.081,4.958,4.958,0,0,1-.884,6.033c-13,18.831-13.883,19.784,1.938,35.834,5.172,5.245-.094,9.323,3.646,14.864,5.169,7.663,11.241,21.088,1.151,32.161-2.8,3.076-4.141,7.944-5.336,12.243a70.33,70.33,0,0,1-37.786,46.148c-4.928,2.491-10.97,4.78-13.146,10.9-1.852,5.216-3.231,4.479-6.425.96-3.585-3.947-8.2-1.2-12.37-.988-12.43,21.088-17.7,18.108,4.161,41,3.436,3.6,6.666,7.412,9.9,11.212,12.009,14.141,12.333,23.464,1.343,38.3-4.071,5.49-8.229,10.9-12.692,16.8-8.9-15.041-24.535-16.878-37.119-24.5-7.9,22.674-3.475,35.643,15.8,48.95,5.879,4.057,13.683,5.893,16.221,14.258l10.283,20.749c-3.18,1.8-5.883.806-8.409-.189-2.5-.981-4.822-1.964-7.268-.246-.214-1.239-.435-2.494-.64-3.74-23.745-33.886-45.9-68.688-57.339-108.874-5.913-1.172-5.8,3.776-7.958,5.835-6.012,5.731-10.843,4.9-12.186-3.74-2.595-16.708-16.959-24.254-25.007-36.654-.935-1.43-4.433-3.01-4.755-2.625-8.278,9.618-24.144,5.966-30.236,21.132-5.075,12.658-14.258,23.768-23.029,34.257-7.317,8.748-10.083,18.145-8.024,29.041,2.448,12.922-.76,25.138-1.808,37.648-.472,5.591-2.942,10.208-7.568,11.8-4.058,1.4-6.588-3.5-9.257-6.307-25.309-26.591-46.473-55.365-44.575-99.558-13.535,17.562-17.615,10.053-28.046-.951-10.827-11.412-28.567-22.711-47.643-13.712-14.214,5.1-28.827,5.377-43.653,3.06l.073.1-.141.074q1.627,7.336,3.247,14.656c7.315,2.022,14.817,3.3,20.1,10.284,4.566,6.04,5.584,11.543.265,17.275q-2.279,5.057-4.55,10.113c-6.36,13.227-16.427,22.875-25.9,33.591-13.354,15.108-30.193,24.054-44.843,36.55-9.035,7.7-16.33,5.909-23.266-3.578-12.752-17.415-25.748-34.639-38.637-51.943-10.99-14.037-21.892-28.155-33.045-42.054-3.164-3.937-6.271-11.852-11.985-7.479-5.062,3.873,1.791,8.734,3.843,12.5,6.9,12.7,14.641,24.91,22.062,37.31,17.408,28.56,42.171,49.5,66.609,70.791,7.044,8.541,14.841,9.013,24.017,4.078,8.771-4.707,18.115-8.253,29.688-13.418-4.387,29.439-3.649,57.085-19.849,80.8a23.594,23.594,0,0,1,2.61,4.794c4.1,8.667-.273,16.584-.509,24.823-.582,20.167-1.3,40.327-1.291,60.514,0,8.971-.922,16.059-11.051,17.475-9.772,1.372-12.163-5.761-14.463-13.247-1.188-3.873-2.517-7.686-4.6-14.007,1.645-7.311,1.423-15.3.265-23.584-1.681,7.629-2.919,15.315-3.931,22.734-1.925,14.127,9.524,31.268,16.87,46.037,6.27,12.612,5.851,22.859-2.568,33.082-3.9,8.025-7.64,16.146-11.733,24.054-5.37,10.364-12.2,19.289-2.089,32.433,4.448,5.791,5.6,17.645-4.47,23.724a9.508,9.508,0,0,0-4.914,10.03c2.782,21.2-10.716,35.945-17.612,53.486-9.782,24.9-31.057,32.838-51.4,41.669a11.971,11.971,0,0,1-4.811,1.034C8364.119,1449.342,8357.486,1441.253,8354.122,1434.051Zm122.329-326.087c-4.232,10-7.222,20.883-17.924,25.995-3.6,1.72-4.191,6.1-3.445,9.236q.653,2.722,1.252,5.439-.593-2.714-1.245-5.439c-.753-3.136-.156-7.516,3.438-9.236,10.7-5.112,13.7-16,17.924-25.995,1.374-3.231,2.839-6.333,6.94-5.922a7.133,7.133,0,0,0-.727-.038C8479.11,1102,8477.734,1104.924,8476.451,1107.964Zm7.2-5.893h.007a6.053,6.053,0,0,1,2.721,1.014,5.969,5.969,0,0,0-2.719-1.014ZM8494.7,917.957h0Zm-.073,0-.171,0Zm6.679-2.076.172-.107Zm-20.791-37.364.207-.23Zm149.894-110.166c-13.859-5.384-28.074-9.957-41.2-17.328C8602.328,758.4,8616.543,762.975,8630.409,768.352Zm-48.793-19.946a12.355,12.355,0,0,1,2.853-.177q-.341-.021-.685-.021A12.214,12.214,0,0,0,8581.616,748.406ZM8441.14,671.988c24.947-13.662,49.8-27.505,74.71-41.22C8490.933,644.482,8466.087,658.326,8441.14,671.988Zm268.205-164.433c33.119-4.958,66.63-7.4,99.431-14.449C8775.975,500.142,8742.464,502.583,8709.345,507.555ZM8830.6,397.619c-12.294-20.4-24.336-40.976-38.205-60.275C8806.267,356.642,8818.3,377.221,8830.6,397.619Zm142.069,785.7c.375-15.062-11.884-25.972-17.785-39.138-11.4-13.682-10.438-30.347-10.415-46.235l.244-.006-.251.006c-11.132.272-21.644-.93-31.639-8.771,10.843-.355,21.98-4.027,33.269-4.071,9.286-.042,18.682,2.374,28.121,11.133-9.429-8.764-18.833-11.175-28.13-11.14,2.146-4.861,6.183-10.12,11.28-12.082,17.737-6.839,28.922-19.865,38.259-34.655.88,6.632,3.859,12.444,6.374,18.58l-.007.009.009-.009c-2.517-6.137-5.5-11.948-6.374-18.58a28.09,28.09,0,0,1-.221-5.621c1.209-17.984,3.887-23.331,17.371-24.341,1.877-.141,3.938-.211,6.248-.211-2.311,0-4.373.07-6.25.211,2.724-4.868,5.628-8.808,13.146-4.81,6.556,3.468,9.294-.76,10.947-7.141,4.188-16.139,25.255-27.188,41.254-22.667,7.051,1.992,3.023,5.932,2.487,9.243-1.114,6.933,5.25,16.671,12.989,23.082a5.78,5.78,0,0,0-1.986-.617,5.781,5.781,0,0,1,1.986.617,7.919,7.919,0,0,1,2.109,1.637l.02.021c5.025,3.643,10.37,5.73,14.506,4.7,4.667-1.172,2.949-5.791,3.361-8.808,2.059-15.356,3.659-30.789,6.979-46.921,4.248,17.468,20.927,24.194,28.118,38.749h.009a56.645,56.645,0,0,0,12.441,19.22l.009,0a97.08,97.08,0,0,1,14,4.536q-2.966,21.277-7.1,42.245a772.275,772.275,0,0,1-29.225,107.088c-3.371-4.152-5.267-9.528-10.71-12.029-4.265-1.948-7.68-4.773-9.618,2.243-2.384,8.63-6.625,6.535-11.1,1.6-24.9-27.464-58.458-8.476-76.72,10.71-12.872,13.528-30.465,17.659-46.942,23.391a7.866,7.866,0,0,1-2.565.418C8977.214,1194.9,8972.45,1192.094,8972.672,1183.314Zm33.423-118.914h0Zm-.062,0c-3.417-.035-2.966-4.2-3.88-7.013C9003.066,1060.2,9002.614,1064.365,9006.032,1064.4Zm155.427-1.03a12.309,12.309,0,0,1-6.741-2.01A12.285,12.285,0,0,0,9161.459,1063.37Zm-6.968-2.159a12.771,12.771,0,0,0-7.237-2.192A12.778,12.778,0,0,1,9154.491,1061.212Zm-18.015-.233h0c5.229-11.182.161-17.748-7.009-23.457C9136.638,1043.229,9141.706,1049.794,9136.477,1060.978Zm-126.628-5.628c.019,1.456.306,3.126.309,4.633,0-1.507-.29-3.177-.309-4.633a7.237,7.237,0,0,0-.17-1.367A7.237,7.237,0,0,1,9009.849,1055.351Zm-7.82,1.685-.036-.092Zm17.21-3.047c-3.447,0-5.092-6.631-8.925-7.085h0C9014.146,1047.36,9015.79,1053.989,9019.238,1053.989Zm2.31-.892q.123-.09.249-.189Q9021.671,1053.007,9021.548,1053.1Zm75.354-24.346c2.043-2.632,4.125.76,6.123,1.764-2-1.011-4.08-4.4-6.123-1.771-4.5,5.809-7.837,2.049-9.569-1.6C9089.065,1030.792,9092.405,1034.553,9096.9,1028.75Zm-9.573-1.611-.05-.106Zm-.051-.109c-.02-.042-.039-.084-.058-.125C9087.239,1026.946,9087.259,1026.989,9087.278,1027.03Zm-.088-.191c-.014-.029-.026-.058-.039-.087C9087.164,1026.781,9087.177,1026.81,9087.19,1026.839Zm-.525-1.976c.03-3.268,6.472-1.682,6.467-6.534C9093.137,1023.181,9086.7,1021.595,9086.665,1024.863Zm-75.769-1.154a6.46,6.46,0,0,1-5.034-1.93A6.459,6.459,0,0,0,9010.9,1023.709Zm5.6-.692a30.894,30.894,0,0,1,6.192-.565l0,0q-.325-.011-.647-.011A33.484,33.484,0,0,0,9016.5,1023.017Zm-12.983-5.766a11.575,11.575,0,0,0,2,4.124q.063.077.126.152-.063-.074-.126-.152c1.276-2.293,2.559-4.6,3.851-6.89A9.033,9.033,0,0,0,9003.512,1017.251Zm76.683-4.463c1.08,5.5,5.152,5.357,8.9,5.063-3.749.291-7.82.427-8.9-5.07a1.3,1.3,0,0,1,.107-.74A1.33,1.33,0,0,0,9080.194,1012.788Zm12.909,4.971a9.037,9.037,0,0,0-1.2-.071A9.057,9.057,0,0,1,9093.1,1017.76Zm-36.682-4.727a5.069,5.069,0,0,0,2.565-6.7,5.068,5.068,0,0,1-2.567,6.7,3.751,3.751,0,0,1-4.392-1.682A3.744,3.744,0,0,0,9056.422,1013.032Zm30.743-6.632a21.012,21.012,0,0,0-6.268,4.685,21.1,21.1,0,0,1,6.27-4.685,8.684,8.684,0,0,1,3.733-.961h0A8.7,8.7,0,0,0,9087.165,1006.4Zm-65.575,1.808Zm36.858-2.8c.063.085.124.172.181.26-.056-.089-.115-.176-.178-.26-4.021-4.889-4.205-10.938-5.821-17.5C9054.237,994.466,9054.421,1000.506,9058.448,1005.4Zm-1384.4,132.723c-1.172-.339-.5-7.412-.82-11.285-.309-3.74,5.975-3.254,9.413-4.071,7.346-1.734,13.344,2.772,22.394,5.407-7.723,4.965-13.749,4.278-17.981,9.545-.939,1.162-2.955,1.591-5.262,1.591A29.472,29.472,0,0,1,7674.048,1138.127Zm1219.585-56.871c-13.276-13.484-26.952-26.534-40.474-39.751-10.512-9.634-21.03-19.266-34.478-31.586,20.264-.067,31.846,11.366,44.762,19.2a4.991,4.991,0,0,1,3.03.836c1.94.967,3.882,1.934,5.222-1.764,2.036,10.77,14.237,11.269,18.693,20.83,3.127,6.712,6.77,14.894,15.555,18.751,4.509,1.985,5.148,12.444,2.266,16.34a5.875,5.875,0,0,1-4.856,2.67C8900.188,1086.78,8896.661,1084.33,8893.633,1081.255Zm77.121-23.457c-4.829-3.677-9.764-2.844-14.831-2.008-3.613.594-7.295,1.19-11.053.15-14.355-3.977-18.272-14.311-22.49-25.322v-.009c-3.608-9.388-2.3-10.362,7.435-11.7,3.291.928,4.838.111,6.07-3.763,4.95-15.453,17.137-26.105,24.468-39.988,4.905-9.257,9.729-3.472,15.313-1.363,8.35,3.134,6.16,9.234,3.15,13.549a9.546,9.546,0,0,0-.191,12.2c10.717,16.457,3.245,33.149,1.838,49.8-.553,6.477-8.458,8.48-9.583,8.48A.247.247,0,0,1,8970.754,1057.8Zm-99.081-29.725,0,0,.051-.03.009.081h0l-.029.065Zm.053.046h0l-.046-.038Zm-159.24-9.245c-4.794-5.8-4.811-12.444-1.992-23.826,4.773,9.072,12.246,12.568,7.73,20.809-.84,1.528-4.429,3.092-5.476,3.092A.339.339,0,0,1,8712.485,1018.874Zm296.007-62.087c-5.808,8.792-10.283,16.19-21.076,19.6C8991.186,964.886,8997.241,959.309,9008.492,956.788Zm4.645,2.7c-2.25-2.752-4.55-5.708-8.179-2.072l-.383.127.58-.355c-1.452-3.74.2-9.508,1.948-9.146,9.789,2.029,10.793-7.82,16.192-11.536v-.009c3.717,2.812,4.668,7.2,6.07,11.566a12.309,12.309,0,0,1-4.714,14.281,6.413,6.413,0,0,1-3.927,1.325C9018.072,963.666,9015.281,962.12,9013.137,959.486Zm-1357.582-228.7c8.821,10.371,20.742,16.434,24.535,31.358,1.577,6.263,10.813,10.763,18.543,12.487,4.661,1.034,10.157.79,9.809,8.343a13.305,13.305,0,0,0,1.255,1.239c5.112,1.978,12.319,2.45,14.878,6.277,4.456,6.678,4.9,14.067-3.017,20.966-15.32,13.351-33.128,23.906-45.04,41.114-1.9,2.738-8.327,4.861-5.51,8.386,4.479,5.584,15.3,13.956,16.022,13.213,5.4-5.561,8.283-2.641,11.354.276,2.386,2.266,4.891,4.534,8.79,2.828-8.393,12.63-21.723,13.742-27.063,27.632-3.171-9.632,3.18-14.6,1.881-22.808-9.766,7.26-19.119,13.685-27.809,20.986-2.685,2.25-5.694,7.539-4.875,10.327,4.469,15.283-6.535,20.174-14.783,26.554A768.556,768.556,0,0,1,7655.555,730.784Zm1336.029,177.18c-3.15.064-6.1.129-8.821-1.9-7.252-5.407-13.854-25.263-10.874-33.967a7.026,7.026,0,0,1,6.506-4.942c3.461-.267,5.238,1.828,5.8,5.287.334,1.985.813,3.947,1.131,5.945,2.564,16.206,3.127,17.01,16.36,25.76.951.626,1.082,2.655,3.141,8.186C9000.129,907.8,8995.688,907.881,8991.584,907.964Zm-101.852-26.216c.361-5.858,5.976-6.9,9.708-9.294,2.264-1.455,4.778.368,4.239,3.569a16.894,16.894,0,0,1-7.885,10.961C8892.086,886.934,8889.548,884.942,8889.732,881.748Zm-690.114-30.31c5.192-3.3,10.164-7.532,15.239-2.551a5.649,5.649,0,0,1,.76.981,5.825,5.825,0,0,1-1.918,8.011h-.007a7.207,7.207,0,0,1-3.937,1.388C8205.544,859.267,8203.2,853.842,8199.618,851.439Zm-485.14-9.457c2.183-6,5.892-11.373,9.049-16.943a6.716,6.716,0,0,1,2.922-3.1h.007c8.645-2.929,31.047,12.849,33.384,25.122.267,3.424,1.55,6.028-7.138,5.245a131.8,131.8,0,0,0-30.317.488,17.531,17.531,0,0,1-2.515.2C7713.216,852.994,7712.247,848.124,7714.478,841.982Zm448.952-2.832c.125-3.134-2.339-7.626,3.171-7.884,4.552-.214,4.914,3.836,5.386,7.251.486,3.585.258,7.818-3.675,8.225a5.507,5.507,0,0,1-.57.031C8163.737,846.772,8164.814,841.748,8163.43,839.149Zm801.747-23.384c6.934,7.709,3.77,14.6,2.464,22.462C8959.024,831.028,8958.243,824.147,8965.177,815.766ZM8063.29,740.034c-5.269,2.045-10.535,3.822-15.808-.339,8.43-2.913-6.816-15.379,6.358-17.422,4.736-.732,2.005-17.638-2.464-16.687-11.412,2.413-15.785-9.029-15.172-12.856v.007c1.122-7.191-14.452-.081-5.812-9.059q11.727-2.235,23.455-4.476c-4.815,12.48.592,20.16,11.2,25.463a25.556,25.556,0,0,1,12.775,15.571c3.548,2.922,12.975-1.621,10.873,7.583-1.467,6.39,3.364,18.338-10.2,17.705-10.6-.5-17.874,8.815-27.943,11.4C8050.438,746.967,8062,747.934,8063.29,740.034Zm-51.7,6.839c-3.1-2.367.555-4.08.87-6.153.6-3.947,3.468-7.693-2.16-11.41l-.009-.009c-4.145-2.736-1.688-7.567,1.837-9.632,6.9-4.027,8.794-16.434,19.946-13.072,1.557.465,2.722,2.406,3.253,2.892,4.359,21.007-.914,31.83-16.952,37.464a12.146,12.146,0,0,1-3.909.871A4.556,4.556,0,0,1,8011.588,746.872Zm1013.47-36.55c5.791-3.82,10.452-10.578,18.67-9.464,14.288-17.053,24.318-36.5,27.374-60.182,14.744,17.666,7.944,36.2,7.861,53.905-.014,2.059-3.649,5.37-6.01,5.768-9.826,1.653-17.047,4.338-21.01,16.139-2.093,6.233-4.453-2.169-6.15-4.78-3.237,1.616-12.8-1.992-5.674,8.276,1.483,2.132-2.735,3.933-10.961,1.151-5.517-1.865-9.9-2.183-6.086,5.349,3.763,7.442-.7,11.9-2.24,18.447C9005.754,724.456,9005.8,722.994,9025.058,710.322ZM7742.6,670.482c-6.729-11.624-16.367-21.435-24.659-32.085-12.969-16.664-12.879-27.736.5-43.573,2.427-2.869,3.931-6.24,2.3-9.6-2.4-4.907-5.835-1.352-8.49-.09a27.721,27.721,0,0,1-6.728,2.443,778.226,778.226,0,0,1,170.247-237.275c23.521-6.24,41.167-28.753,67.818-17.887-.1.854.087,2.323-.3,2.508-20.049,9.457-27.2,31-39.332,47.628-6.16,8.453-11.941,20.588,3.468,28.592,6.675,3.472,3.2,6.917-.408,10.047-4.52,8.379-6.468,13.609,4.426,21.435,7.931,5.7,13.8,19.568,8.366,32.942-2.979,7.362-4.6,15.35-7.265,22.868a24.545,24.545,0,0,0,.693,20.231c4.536,9.731,3.06,18.8-7.546,23.694-24.556,20.263-48.876,40.865-73.793,60.641-9.913,7.87-18.9,16.22-25.242,27.5-.937,2.922-4.58,5.229-1.667,9.029,4.138,1.018,2.885,3.85,2.116,6.528-1.9,12.916-4.359,25.774-5.494,38.784-.827,9.538-5.2,10.394-13.227,10.454l-.714,0C7768.361,695.3,7753.343,689.064,7742.6,670.482Zm61.069-25.587a2.349,2.349,0,0,1-.894-1A2.262,2.262,0,0,0,7803.665,644.895ZM8030.2,671.921a8.738,8.738,0,0,1,9.008-7.774c6.328.214,1.386,4.714,1.791,7.258,1.011,6.24,4.958,2.736,7.59,2.367h.007c4.345-.619,8.2-1.46,5.269,5.423l-23.457,4.476A68.847,68.847,0,0,1,8030.2,671.921Zm1033.461-35.148c-5.038-2.5-4.073-11.633-.783-13.2,10.408-4.995,4.122-15.343,8.5-23.856,6.484,4.034,11.9,8.985,20.24,6.454v-.007c4.4-1.342,9.28,5.665,5.688,8.313-6.615,4.9-9.235,17.187-21.1,13.793a11.564,11.564,0,0,0-8.149,1.838c-1.9,1.162,1.117,7.45-1.9,7.45A6.074,6.074,0,0,1,9063.659,636.773ZM7924.349,612.9c-2.236-.435-8.55-11.971-9.206-15.4-.933-4.831-3.472-4.244-6.243-3.654-2.061.435-4.248.873-5.994-.919,4.122-8.7,8.386-16.132,17.312-4.654,1.651,2.132,2.625,2.411,4.225.546,12.091-14.1,28.12-11.014,43.566-9.825,8.52.656,10.061,4.994,4.661,11.912-10.583,13.546-22.931,22.884-39.3,22.884A47.571,47.571,0,0,1,7924.349,612.9ZM8392,419.63l.007.007c-3.77-1.971-8.58-6.765-6.574-10.675,7.622-14.928,6.2-34.713,21.341-45.526,20.662-29.808,32.59-37.464,78.174-49.576-15.35,21.341-38.114,30.464-55.808,46.155-2.678,8.075-9.082,13.7-12.031,21.878-4.3,11.9-8.278,22.469,4.891,31.645,5.474,3.8,3.77,7.088-2.038,9.086a31.521,31.521,0,0,1-10.315,1.751A38.017,38.017,0,0,1,8392,419.63ZM8136.129,399.2c1.52-4.6,9.678-.854,9.088-6.793-.451-4.46-3.276-4.357-6.171-4.253-1.934.071-3.9.14-5.211-1.147.1-5.642,8.122-5.363,7.753-12.022a16.514,16.514,0,0,1-1.9-.131c-1.37-.145-2.7-.295-3.5.315l.009.007c-14.871,11.292-19.695-6.765-28.673-11.861-2.323-1.313-3.5-9.266,2.574-10.917,7.877-2.146,16.7-5.681,21.295,6.27,1.322,3.436,2.7,6.933,7.074,5.775a3.132,3.132,0,0,0,.783-.362,3.22,3.22,0,0,0,.981-4.44c-8.875-17.786,4.271-14.318,12.976-15.138,1.031,10.562,9.227,13.049,16.751,16.089,9.022,3.636,9.729,9.317,4.728,16.685h-.007l-.007.007a2.513,2.513,0,0,1-.17.258l.17-.258c-5.761-.4-4.191-7.044-7.452-10.385-6.984,7-8.63,15.808-10.429,24.622-2.337,11.428-3.385,16.471-6.717,16.471C8147.435,408,8143.375,404.844,8136.129,399.2Zm48.621-10.371c-3.118.728-6.226,1.458-6.627-3.827l.007.007c-.221-2.876-.338-5.651-2.869-7.339,3.8.523,6.388-2.8,9.789-3.555,6.144-1.372,9,3.62,10.813,7.811l.067.184a7.528,7.528,0,0,1-4.617,9.6C8190.592,387.469,8187.665,388.15,8184.75,388.832ZM8174.5,377.546l.17-.258.007-.007c.2.117.4.244.583.375A4.953,4.953,0,0,1,8174.5,377.546Zm10.357-27.83c-2.934-1.577-6.263-1.365-9.565-1.156-5.144.329-10.217.659-13.6-5.777v-.009c-.428-.8-5.966-2.388-8.312,1.352.716-8.3-1.158-19.761,13.077-12.4,4.98,2.574,8.218,1.232,10.786-2.98,4.654-7.679,11.912-6.249,17.76-3.638,5.651,2.538,4.161,9.819,3.519,14.894-.821,6.457-6.573,10.336-10.952,10.336A5.7,5.7,0,0,1,8184.858,349.716Zm-31.682-5.332h0v0h0a2.543,2.543,0,0,1,.189-.255,3.636,3.636,0,0,0-.021.368l-.1-.064.1.068-.147.007Zm171.4-65.806c-1.105-1.018-3.081-2.3-3-3.261.419-4.992,4.66-5.694,8.186-6.763,6.611-2.022,12.955-5.784,21.79-4.02-4.921,6.816-12.938,6.542-15.792,13.986l-.009.007c-.412,1.083-2.78,2.139-5.457,2.139A8.307,8.307,0,0,1,8324.579,278.578Zm49.539-17.88c-.536-4.631,2.982-5.149,5.784-6.358a20.854,20.854,0,0,1,8.039-14.583c2.627-2.022,5.962-5.879,8.891-1.078,2.174,3.585.868,7.318-3.2,9.574-2.683,1.49-6.94.111-8.009,4.573,2.655-.235,5.37-1.771,7.914.583-6.075,6.242-7.241,7.439-13.748,7.439C8378.248,260.849,8376.4,260.781,8374.118,260.7Zm33.571-5.842c.937-5.694,6.247-7.707,11.167-8.483a6.045,6.045,0,0,1,6.5,4.817,15.016,15.016,0,0,1-11.035,7.421,6.414,6.414,0,0,1-1.179.1C8410.526,258.714,8407.275,257.364,8407.689,254.856ZM8725.919,224.3c4.66,3.82,5.614,5.494-.154,9.25-9.6,6.24-20.818,5.768-32.472,10.562C8700.071,218.808,8711.608,212.591,8725.919,224.3Zm-75.149,5.1c-6.16-2.178-12.336-4.357-18.928-2.6-1.69.451-4.509-2-4.3-5.045.422-6.261,4.007-9.832,9.5-11.566,7.87-16.8,19.881-22.5,29.269-12.052,6.425,7.177,8.992,17.94,21.157,17.579,1-.03,3.054,6.114,3.244,9.457.23,3.938-3.658,3.82-6.337,4.329-4.7.893-9.44,1.564-14.168,2.323a18.782,18.782,0,0,1-5.555.818C8659.924,232.638,8655.351,231.017,8650.77,229.4Z" transform="translate(-7633.997 -192.881)" fill="url(#linear-gradient)"/>
    </g>
  </g>
</svg>
