<svg xmlns="http://www.w3.org/2000/svg" xmlns:xlink="http://www.w3.org/1999/xlink" width="1920" height="994.976" viewBox="0 0 1920 994.976">
  <defs>
    <clipPath id="clip-path">
      <rect id="Rectangle_2507" data-name="Rectangle 2507" width="1920" height="994.976" transform="translate(0 1938)" fill="#163556"/>
    </clipPath>
    <clipPath id="clip-path-2">
      <rect id="Rectangle_2506" data-name="Rectangle 2506" width="1302.281" height="1234.389" fill="none"/>
    </clipPath>
    <clipPath id="clip-path-3">
      <rect id="Rectangle_3891" data-name="Rectangle 3891" width="420.484" height="390.941" fill="#3745ac" stroke="#717fcf" stroke-width="1"/>
    </clipPath>
  </defs>
  <g id="Mask_Group_20" data-name="Mask Group 20" transform="translate(0 -1938)" clip-path="url(#clip-path)">
    <rect id="Rectangle_2505" data-name="Rectangle 2505" width="1920" height="994.976" transform="translate(0 1938)" fill="#3745ac"/>
    <g id="Group_1556" data-name="Group 1556" transform="translate(660.489 1913.017)" opacity="0.288">
      <g id="Group_1555" data-name="Group 1555" clip-path="url(#clip-path-2)">
        <path id="Path_5042" data-name="Path 5042" d="M356.064,197.673c-5.074-3.783-9.268-1.867-15.414-.361,4.419-10.523.137-16.7-5.921-22.073a61.435,61.435,0,0,1-22.345-6.594c-1.689-.944-3.447-4.137-5.173-1.659-3.939,5.657-6.825,1.652-8.24-1.881-2.256-5.629,5.535-2.471,5.03-8.461-3.522-.528-9.643,2.492-10.908-4.678-.274-1.569,3.509-4.734,5.89-6.011,2.244-1.194,3.989-1.118,5.435-.285-6.538-6.032-11.918-15.195-10.976-21.719.455-3.117,3.858-6.823-2.1-8.7-13.52-4.255-31.321,6.143-34.861,21.331-1.4,6-3.709,9.982-9.25,6.719-6.351-3.762-8.807-.056-11.107,4.526a71,71,0,0,1,7.448-.174c-1.876,5.747-6.376,5.227-10.334,5.907q-1.636,3.238-3.254,6.483c3.185,4.408,8.639.784,14.517,1.013-6.426,5.817-10.652,10.794-3.291,18.179,1.284,1.284,6.763,6.761,2.537,10.481-4.556,4.019-5.759-5.13-9.7-5.65-2.387,2.534-.424,5.373-.393,7.948.037,3.249,1.353,7.628-2.294,8.413-4.1.882-3.3-4.047-4.344-6.913l.006-.007c-2.125-5.775-4.644-11.245-5.385-17.485-7.891,13.917-17.34,26.176-32.331,32.61-4.307,1.846-7.717,6.8-9.53,11.37,8.172-.035,16.443,2.422,24.733,11.509-9.138-.944-17.82.354-26.1.583-.019,14.952-.829,30.632,8.8,43.508,4.986,12.39,15.346,22.656,15.028,36.831-.231,10.19,5.946,11.828,9.35,10.509,13.924-5.393,28.79-9.281,39.667-22.011,15.433-18.054,43.787-35.921,64.83-10.079,3.783,4.644,7.367,6.615,9.381-1.506,1.639-6.6,4.525-3.943,8.128-2.11,4.6,2.353,6.2,7.413,9.05,11.321a792.852,792.852,0,0,0,24.7-100.774,9.571,9.571,0,0,1-11.269-.111M273,152.194c-2.643.979-4.4-1.971-4.924-4.783-1.141-6.095-4.587-12.626,1.72-18.86,1.365,6.171,1.521,11.863,4.918,16.465a4.921,4.921,0,0,1,.455.875,5,5,0,0,1-2.169,6.3" transform="translate(928.952 619.589)" fill="none"/>
        <path id="Path_5043" data-name="Path 5043" d="M215.23,166.658c3.229-5.921,9.125-8.218,16.075-5.963,7.517,2.436,15.3,3.845,22.881,5.983a54.306,54.306,0,0,1-10.521-18.1h-.006c-6.077-13.7-20.17-20.026-23.76-36.463-2.8,15.181-4.157,29.7-5.9,44.154-.349,2.839,1.1,7.184-2.842,8.288-3.5.972-8.022-1-12.273-4.436a23.622,23.622,0,0,1,3.067,5.345c4,8.711,7.586,11.613,13.276,1.187" transform="translate(1036.265 606.68)" fill="none"/>
        <path id="Path_5044" data-name="Path 5044" d="M738.43,59.773a95.3,95.3,0,0,0-46.2,9.614c-6.376.673-10.559,8.448-18.88,8.232,6.227-7.622,11.332-13.883,16.437-20.137,2.711-2.672,5.516-5.22,8.115-8.038,14-15.188,12.7-21.456-5.641-28.709-4.151-1.638-7.866-.076-11.743.666-3.621.285-8.352-3.068-9.512,4.637-.6,4.012-3.4,5.241-5.946,1.937-12.958-16.8-26.172-16.125-34.674,2.652A21.869,21.869,0,0,1,620.046,41.5C601.865,51.637,583.907,62.285,565.7,72.357c-5.685,3.151-9.58,6.851-8.184,15.007-1.028,6-5.373,10.592-10.808,11.432a115.53,115.53,0,0,0-18.481,6.768c-2.7,1.124-8.059.16-6.8,5.518,1.035,4.415,1.515,10.988,7.318,11.974,2.78.465,6.669-.278,6.408,4.345-.305,5.539-4.793,3.339-7.717,3.727-1.995.264-4.014.312-6.021.451-8.439-1.465-16.916-3.026-17.409,11.536l-.542,1.194c-8.676,1.055-3.4-13.431-11.194-13.543-.281,2.249.118,5.227-.966,6.691-9.212,12.425,1.982,24.01,1.764,36.109-.093,5.2,5.342,4.345,8.994,3.318l1.253,4.81c-2.68,25.586-8.4,34.6-21.13,32.242,2.68-3.318,5.354-6.143,7.517-9.44,3-4.56,5.666-9.988,2.9-15.673-8.147-16.729-11.756-34.818-13.619-53.476-.517-5.178-3.166-4.831-6.058-4.338-8.7,1.52-18.487,1.18-18.5,16.4,0,6.282-9.649,11.425-6.115,15.285,6.059,6.622,2.63,20.546,13.993,22.337,2.855.444,3.715,4.769,1.745,8.809-14.112-7.08-28.7-2.8-43.182-2.853a11.055,11.055,0,0,0-4.357.972c1.084,16.541-11.575,9.753-17.6,12.869-5.491,2.853-11.35,11.328-15.57,8.864-9.973-5.858-14.118,2.575-19.759,7.177-6.457,5.282-14.361,8.718-17.851,18.311-1.44,3.95-5.273,4.262-8.5,2.547-2.256-1.208-4.295-3.727-1.727-6.615,1.982-2.221,5.479-3.276,1.3-7.177a10.263,10.263,0,0,0-11.5-2.443c-4.357,1.728-1.24,5.532-1.159,8.406a21.58,21.58,0,0,0,2.63,10.842c3.945,6.705,3.1,9.787-4.675,10.224-7.966.437-16.05,9.9-15.265,15.2,1.864,12.557-3.472,8.691-8.676,8.517-9.306-.319-8.253,4.845-2.45,11.661-21.435,3.866-18.506-24.44-32.524-29.181a224.137,224.137,0,0,1,31.059-.743c6.046.125,13.027,1.728,14.38-8.274,1.446-10.7-6.015-11.12-11.805-12.272-21.136-4.207-41.026-16.645-63.558-13.313,1.571-4.734,8.016-2.7,6.4-8.239-.966-3.29-4.874-2.825-7.586-3.269a26.166,26.166,0,0,0-6.071.389c-6.227-.229-11.6,5.928-18.618,2.02-2.524-1.409-5.448,3.068-7.249,6.358-2.119,3.866-5.148,6.143-8.483,8.774-9.63,7.608-18.83,15.646-25.225,28.411-15.975,31.868-29.1,65.755-50.35,94.02-10.683,14.209,1.864,39.066,15.6,40.031,11.824.833,9.892-13.084,17.153-17.034l9.194,14.709a71.91,71.91,0,0,0,10.852,20.761c1.851,2.638,4.924,6.206,6.937,2.7,4.276-7.427,13.619-11.495,11.949-23.031a29.358,29.358,0,0,1,2.705-16.375c3.06-7.191,8.383-14.827-2.848-20.04-3.036-1.409-2.013-5.8-1.864-9.107.3-6.629.517-13.258.773-19.894.555-1.083,1.109-2.159,1.664-3.242,5.772-4.671,11.145-11.28,11.893-18.63a28.233,28.233,0,0,1,8.689-18.374l-.069.18q2.365-.135,4.718-.257c6.264,3.7,8.178,8.406,3.547,15.514-3.166,4.845-5.317,10.627-8.6,15.34-7.392,10.606-4,20.178,1.92,29.674,6.4,10.252,13.607,7,21.467,2.8,8.82-4.713,17.876-12.064,27.911-2.02-9.574,3.45-17.5,11.273-27.774,13.112-7.031,1.263-9.611,5.546-2.344,11.592,3.509,2.915,2.973,6.337,2.119,10.051-1.247,5.386-4.644,4.387-7.748,2.895-5.722-2.77-7.623.666-7.205,6.317,1.172,16.1-3.8,27.2-17.428,31.847-10.01,4.838-19.84,9.19-31.321,9.038-7.729-.1-13.364-3.748-12.94-13.244.287-6.372,2.4-12.973-1.359-19.1-12.51,6.768-14.323,13.251-8.3,26.891,2.287,5.185,9.48,13.334.455,16.055-18.849,5.692-21.872,27.481-31.894,41.419-7.062,9.843-17.153,13.084-23.623,22.448-1.5,2.166-7.5-.479-7.928,4.116-.542,6.074,4.905,5.227,8.084,6.379,11.057,4.012,15.514,12.7,15.869,26.377.411,15.68-9.424,13.563-17.228,15.167-4.768.986-9.773.6-14.523,1.673-5.635,1.263-9.443,4.1-7.81,12.689,1.92,10.1,1.689,20.768,4.1,30.667,1.378,5.671,1.907,15.569,8.041,15.8,11.406.417,23.723,2.492,33.864-5.643,4.762-3.811,11.812-8.413,10.634-15.84-1.789-11.287,3.684-17.7,8.047-25.322,2.855-4.991,6.445-9.142,5.3-16.541-.792-5.136,32.237-24.662,36.22-21.851a24.078,24.078,0,0,1,5.554,5.692c6.576,9.211,15.314,14.563,24.514,18.742,6.956,3.165,13.339,6.532,16,16.153,1.465-9.065,10.228-18.346-4.756-23.913-9.412-3.5-17.858-10.94-24.5-20.38-2.655-3.769-4.182-7.726-1.178-11.37s6.021-.285,8.552,2.013c4.369,3.963,6.9,9.773,13.488,11.481,10.309,2.672,19.416,8.461,23.442,22.032a24.886,24.886,0,0,0,11.992,15.687,33.032,33.032,0,0,1,3.484,7.1c1.265,5.615,4.288,7.941,8.795,7.1,5.759-1.069,1.751-6.74,2.848-9.461,3.422-8.524-2.574-11.384-5.691-16.111-2.518-12.328,4.238-15.687,12.4-17.673,15.271,3.1,18.624-2.082,13.189-20.373.305-4.186.368-8.427.941-12.55,3.2-23,7.841-28.05,22.738-25.065-1.2,4.6-2.674,9.732,2.287,12.314,5.909,3.068,9.867-2.783,13.713-6.115,7.554-6.546-2.8-2.36-3.017-5.567-.2-3.11-.411-5.407,1.689-7.316,4.793-4.338,9.455-9.01,15.57-10.218,1.945,4.019-3.877,6.337.131,9.489-.1,5.241-3.347,8.677-6.7,12.772,8.907,4.734,16.611,8.684,24.215,12.911,7.143,3.984,10.515,9.135,3.241,16.736-7.237.444-13.513,7.92-21.117,4.449-14.629-6.671-26.191,1.95-37.766,9.176-17.44,10.891-19.135,18.679-9.593,35.158,4.625,8,10,11.078,17.315,5.5a9.206,9.206,0,0,1,9.318-1.326c5.36,1.916,9.724,2.006,14.3-3.443,4.145-4.935,8.895-5.178,8.377,5.033-.455,9-.174,18.068-.343,27.1-.212,10.808-6.831,17.679-14.049,18.735-17.9,2.6-35.958,8.8-54.308-1.125-6.738-3.651-14.623-1.243-16.031,8.968-1.627,11.758-7.48,11.918-14.922,9.426-12.983-4.352-25.848-9.2-38.844-13.48-5.435-1.791-7.91-3.117-6.009-11.467,3-13.174-2.175-18.214-13.289-13.778-8.708,3.477-16.835,8.871-25.219,13.411l1.153,100.67q-.58-50.331-1.153-100.663c-18.126,6.2-33.733,22.962-54.888,16.7a3.491,3.491,0,0,0-3.035,1.9c-5.142,12.647-15.981,22.865-15.4,37.657.467,11.766-2.431,21.227-6.277,31.062-4.706,12.008-8.739,24.44-14.018,36.074-6.763,14.882-10.322,29.035-.48,44.647,3.665,5.83,3.222,13.688,3.765,20.8C62.1,806.865,59.791,812.7,64.871,818.1c11.2,11.9,20.681,25.953,32.985,36.511,15,19.005,31.857,29.147,53.61,16.958a54.705,54.705,0,0,1,9.194-3.283A39.719,39.719,0,0,0,165.248,867c14.591-5.838,26.708-26.932,45.189-8.954.224.222.785-.083,1.191-.042,15.938,1.43,18.973,4.949,20.145,24.3.9,14.945,4.045,28.23,17.346,34.859,10.179,9.246,11.855,24.024,17.627,36.143,3.484,10.62,7.48,21.039,6.993,32.8-1.066,25.579.611,50.047,18.288,69.7,3.815,4.248,4.575,12.126,7.162,18.1,3.659,8.447,3.715,18.908,10.6,25.544a98.131,98.131,0,0,1,22.9,33.332c3.409,8.128,10.789,17.457,19.135,13.417,17.191-8.309,35.167-15.777,43.432-39.211,5.828-16.507,17.234-30.382,14.884-50.332a9.287,9.287,0,0,1,4.151-9.44c8.508-5.719,7.536-16.874,3.777-22.323-8.539-12.37-2.774-20.769,1.764-30.521,3.459-7.441,6.619-15.084,9.917-22.636,7.112-9.621,7.467-19.262,2.169-31.132-6.208-13.9-15.882-30.028-14.255-43.321.854-6.983,1.9-14.216,3.322-21.393-.692-5.511-1.77-11.161-2.986-16.812-.63-2.95-.131-7.073,2.911-8.69,9.044-4.81,11.569-15.056,15.146-24.461,1.178-3.11,2.45-6.087,6.077-5.546h.013a4.858,4.858,0,0,1,3.378,2.089c13.688-22.316,13.064-48.332,16.773-76.035-9.78,4.859-17.677,8.2-25.088,12.626-7.754,4.644-14.342,4.2-20.295-3.838-20.65-20.033-41.574-39.739-56.284-66.616-6.27-11.668-12.809-23.156-18.643-35.109-1.733-3.547-7.523-8.121-3.247-11.766,4.831-4.116,7.455,3.332,10.129,7.038,9.424,13.077,18.637,26.363,27.924,39.572,10.889,16.284,21.872,32.492,32.649,48.881,5.859,8.926,12.023,10.613,19.659,3.367,12.379-11.759,26.609-20.178,37.891-34.394,8-10.086,16.511-19.165,21.884-31.611q1.917-4.758,3.846-9.517c4.494-5.393,3.634-10.571-.224-16.256-4.463-6.573-10.8-7.774-16.985-9.676q-1.365-6.893-2.743-13.792l.118-.069-.062-.1c12.528,2.179,24.876,1.923,36.887-2.881,16.119-8.468,31.109,2.166,40.259,12.9,8.813,10.357,12.26,17.423,23.7.9-1.6,41.585,16.281,68.663,37.666,93.687,2.256,2.638,4.394,7.254,7.822,5.935,3.908-1.5,6-5.844,6.4-11.106.885-11.772,3.6-23.267,1.527-35.428-1.739-10.252.6-19.1,6.782-27.328,7.411-9.87,15.171-20.324,19.46-32.235,5.148-14.271,18.556-10.835,25.549-19.887.274-.361,3.229,1.125,4.02,2.471,6.8,11.668,18.936,18.769,21.13,34.491,1.135,8.128,5.217,8.913,10.3,3.519,1.82-1.937,1.727-6.594,6.725-5.491,9.661,37.816,28.385,70.565,48.449,102.454.175,1.173.362,2.353.542,3.519,4.158-3.249,7.9,3.776,13.245.409l-8.689-19.526c-2.144-7.871-8.739-9.6-13.706-13.418-16.287-12.522-20.027-24.725-13.351-46.062,10.634,7.177,23.841,8.906,31.365,23.059,3.771-5.553,7.286-10.648,10.727-15.812,9.287-13.966,9.013-22.74-1.134-36.046-2.73-3.575-5.46-7.163-8.365-10.551-18.475-21.539-14.018-18.734-3.515-38.58,3.528-.194,7.424-2.783,10.453.93,2.7,3.311,3.865,4.005,5.429-.9,1.839-5.761,6.944-7.913,11.107-10.259,15.9-8.482,27.6-24.392,31.932-43.425,1.01-4.047,2.144-8.628,4.507-11.523,8.527-10.419,3.4-23.052-.972-30.264-3.16-5.213,1.29-9.051-3.079-13.987-13.37-15.1-12.622-16-1.639-33.721a5.062,5.062,0,0,0,.748-5.678,54.443,54.443,0,0,0-9.212.076c-6.208,1.041-13.488,2.52-16.337-5.157-2.369-6.372,4.98-9.468,8-13.994,2.668-4,5.566-9.648,10.609-7.594,5.884,2.4-1.895,9.163,2.175,13.355,4.095-3.8,7.691-9.662,12.235-10.794,9.262-2.3,6.432,7.733,7.885,13.244a1.369,1.369,0,0,0,1.01.757c10.39.812,7.642,11.5,10.291,18.179,1.365,3.436-.43,10.086,5.1,9.475,4.612-.312,8.589-3.727,10.035-8.614,3.023-8.552-.711-13.772-5.192-18.762-7.7-8.586-9.075-16.652-2.306-27.071,5.042-7.774,8.153-17.277,12.123-26.023,9.9,1.923,15.608-2.61,17.6-14.292,1.851-10.884,4.494-21.58,6.788-32.353,4.961-19.665,9.929-39.322,14.959-59.23,8.44,17.5,9.848,36.081,13.725,53.948.486,2.256-2.038,8.746,4.619,6.615,6.869-2.2,1.315-5.581.636-8-2.169-7.712-7.162-16.007,4.8-18.429,2.387-.479,1.035-3.013.374-4.436-6.127-13.2-12.347-26.328-19.235-40.947-2.786,6.046-3.384,11.134-9.742,7.018-5.809-3.755-12.08-9.385-20.189-2.6-3.69,3.1-9.4-4-13.326-7.268-2.78-2.318,1.807-6.365,3.534-9.156,7.691-12.446,15.57-24.746,23.492-37a698.393,698.393,0,0,0-140.7-158.956,20.556,20.556,0,0,1-5.585,3.172c-8.521,3.019-16.723-.194-24.826-.736M439.488,610.01l.174-.215-.174.215m11.618,37.108a9.864,9.864,0,0,0,6.1-2.048,9.864,9.864,0,0,1-6.1,2.048M406.216,415.66c21.08-12.855,42.073-25.884,63.128-38.788C448.3,389.776,427.3,402.8,406.216,415.66m64.73-42.085c.486.062.966.1,1.427.111-.461-.014-.941-.049-1.427-.111m53.972,114a9.1,9.1,0,0,1,2.412-.167,9.4,9.4,0,0,0-2.412.167m6.414,2.464c11.095,6.934,23.106,11.238,34.818,16.305-11.718-5.06-23.729-9.364-34.818-16.305M735.314,157.471c-10.478-19.345-20.725-38.864-32.561-57.148,11.836,18.283,22.09,37.8,32.561,57.148M632.849,260.925c27.986-4.678,56.3-6.976,84.021-13.6-27.718,6.636-56.035,8.933-84.021,13.6" transform="translate(275.823 35.191)" fill="none"/>
        <path id="Path_5045" data-name="Path 5045" d="M23.279,267.733c1.378,3.158.106,6.331-1.945,9.031-11.3,14.9-11.375,25.322-.418,41,7.006,10.023,15.152,19.255,20.837,30.195,9.194,17.7,22.084,23.5,38.682,23.351,6.782-.056,10.478-.861,11.176-9.836.96-12.244,3.042-24.343,4.644-36.5.648-2.52,1.708-5.185-1.789-6.143-2.462-3.575.617-5.747,1.409-8.5,5.36-10.613,12.952-18.471,21.329-25.877,21.055-18.61,41.605-38,62.355-57.064,8.963-4.609,10.21-13.14,6.376-22.3a25.5,25.5,0,0,1-.586-19.04c2.256-7.073,3.621-14.591,6.14-21.518,4.588-12.585-.368-25.634-7.068-31-9.206-7.365-7.561-12.286-3.74-20.171,3.048-2.943,5.984-6.185.343-9.454-13.021-7.531-8.134-18.95-2.93-26.9,10.253-15.646,16.293-35.921,33.234-44.82.33-.174.168-1.555.256-2.36-22.52-10.225-37.429,10.96-57.306,16.833C94.042,110.346,45.219,186.256,10.42,269.948a21.951,21.951,0,0,0,5.685-2.3c2.244-1.187,5.148-4.533,7.174.083m70.078,56.148a2.076,2.076,0,0,1-.754-.937,2.162,2.162,0,0,0,.754.937" transform="translate(50.013 101.475)" fill="none"/>
        <path id="Path_5046" data-name="Path 5046" d="M13.659,253.342c-.692-2.624,1.851-7.6,4.12-9.718,7.342-6.872,15.246-12.918,23.5-19.748,1.1,7.726-4.27,12.4-1.589,21.462,4.513-13.07,15.776-14.119,22.869-26-7.536,3.672-8.907-12.217-17.022-2.922-.611.7-9.755-7.177-13.538-12.432-2.381-3.318,3.054-5.317,4.656-7.892C46.719,179.9,61.766,169.963,74.712,157.4c6.694-6.49,6.314-13.445,2.549-19.727-2.163-3.6-8.253-4.047-12.572-5.907a11.9,11.9,0,0,1-1.06-1.166c.293-7.108-4.351-6.879-8.29-7.851C48.807,121.124,41,116.89,39.67,111c-3.2-14.042-13.276-19.748-20.731-29.507A802.308,802.308,0,0,0,1.168,278.331c6.969-6,16.268-10.606,12.491-24.989" transform="translate(-0.722 424.692)" fill="none"/>
        <path id="Path_5047" data-name="Path 5047" d="M204.357,414.457c-1.01-15.181,8.14-33.964,20.226-38.129,8.483-2.922,11.668-8.649,12.684-17.728,2.58-8.6,4.556-17.3,3.017-26.648.162-19.894,1.895-39.121,9.412-57.495,4.282-10.474,3.26-23.142,3.067-34.915-.081-5.3-1.041-13.341-6.95-13.307l-.012-.021c-18.724.125-34.475-13.383-52.576-15.576-1.92-.493-3.977-1.714-5.766-1.36-16.268,3.207-29.426-2.18-39.15-18.728-2.281-3.887-6.058-6.553-8.608-10.287-4.251-6.24-9.48-8.975-16.031-7.594-12.516,2.645-23.2-2.617-33.172-10.953-10.359-8.663-21.884-12.446-34.363-13.563-10.951-.986-21.884-2.714-32.755-4.658A20.888,20.888,0,0,0,7.693,146.9C48.1,264.636,114.3,365.639,197.326,443.34q1.655-3.6,3.322-7.191a43.178,43.178,0,0,0,3.709-21.692" transform="translate(35.742 791.053)" fill="none"/>
        <path id="Path_5048" data-name="Path 5048" d="M176.694,170.911c3.565,10.363,6.875,20.088,19,23.829,7.629,2.353,14.884-4.179,21.872,1.749.262.222,7.71-1.513,8.2-7.962,1.19-15.667,7.5-31.375-1.552-46.861a9.777,9.777,0,0,1,.162-11.481c2.543-4.061,4.394-9.8-2.661-12.751-4.718-1.985-8.795-7.427-12.94,1.284-6.2,13.064-16.493,23.087-20.675,37.629-1.041,3.644-2.35,4.415-5.13,3.54-8.228,1.263-9.331,2.18-6.283,11.016Z" transform="translate(911.994 617.42)" fill="none"/>
        <path id="Path_5049" data-name="Path 5049" d="M136.382,131.878h-.006c-3.634-.535-4.9,2.443-6.083,5.546-3.572,9.406-6.1,19.651-15.146,24.461-3.035,1.617-3.54,5.74-2.9,8.69,1.209,5.657,2.287,11.3,2.979,16.812.979,7.8,1.166,15.312-.224,22.191,1.764,5.949,2.886,9.537,3.889,13.182,1.945,7.045,3.964,13.758,12.223,12.467,8.558-1.333,9.337-8,9.337-16.444-.006-19,.6-37.969,1.091-56.946.2-7.754,3.9-15.2.43-23.358a22.907,22.907,0,0,0-2.206-4.512,4.868,4.868,0,0,0-3.378-2.089" transform="translate(581.585 723.694)" fill="none"/>
        <path id="Path_5050" data-name="Path 5050" d="M242.322,121.454c-6.95-2.256-12.846.042-16.075,5.963-5.691,10.433-9.281,7.524-13.276-1.187a23.54,23.54,0,0,0-3.067-5.345,6.827,6.827,0,0,0-1.783-1.541c-1.446-.833-3.191-.909-5.435.285-2.375,1.277-6.164,4.442-5.89,6,1.265,7.17,7.386,4.158,10.908,4.685.5,5.99-7.286,2.832-5.03,8.461,1.415,3.533,4.3,7.538,8.24,1.874,1.727-2.471,3.484.715,5.173,1.666a61.435,61.435,0,0,0,22.345,6.594c6.059,5.373,10.341,11.55,5.921,22.073,6.152-1.506,10.34-3.422,15.414.361a9.571,9.571,0,0,0,11.269.111q3.487-19.731,6-39.753a76.263,76.263,0,0,0-11.83-4.269c-7.586-2.131-15.364-3.54-22.882-5.983" transform="translate(1025.248 645.914)" fill="none"/>
        <path id="Path_5051" data-name="Path 5051" d="M74.142,33.566a2.484,2.484,0,0,1-.143.243" transform="translate(382.723 139.967)" fill="none" stroke="#fff" stroke-linecap="round" stroke-linejoin="round" stroke-width="0"/>
        <path id="Path_5052" data-name="Path 5052" d="M71.252,29.216l-.143-.111.019.118Z" transform="translate(367.599 113.46)" fill="none"/>
        <path id="Path_5053" data-name="Path 5053" d="M123,59.962h.006c4.226-6.934,3.628-12.279-4-15.7-6.358-2.86-13.283-5.2-14.155-15.139-7.355.77-18.462-2.492-10.964,14.244a3.241,3.241,0,0,1-.829,4.179,2.531,2.531,0,0,1-.661.34c-3.7,1.09-4.862-2.2-5.977-5.435-3.883-11.245-11.338-7.92-17.995-5.9-5.13,1.555-4.139,9.038-2.175,10.273,7.586,4.8,11.662,21.789,24.228,11.162l-.006-.007c1-.84,2.954-.146,4.569-.174.312,6.268-6.464,6-6.551,11.314,2.774,3.026,8.982-1.916,9.618,5.081.5,5.588-6.4,2.062-7.679,6.393,13.869,12.022,13.918,12.029,17.452-7.226,1.521-8.295,2.911-16.583,8.813-23.17,2.755,3.144,1.427,9.4,6.3,9.773Z" transform="translate(333.871 113.563)" fill="none"/>
        <path id="Path_5054" data-name="Path 5054" d="M92.193,61.823C79.141,60.705,65.6,57.8,55.38,71.069c-1.353,1.756-2.175,1.492-3.571-.514-7.542-10.8-11.145-3.811-14.629,4.38,3.459,3.957,8.969-3.623,10.341,4.3.555,3.221,5.89,14.077,7.779,14.487,17.739,3.811,30.317-5.706,40.833-20.692,4.563-6.511,3.26-10.592-3.939-11.21" transform="translate(190.049 301.527)" fill="none"/>
        <path id="Path_5055" data-name="Path 5055" d="M120.963,71.62c-12.79,10.176-11.593,28.793-18.032,42.842-1.7,3.679,2.369,8.191,5.554,10.044l-.006-.007c7.5,4.366,15.4,5.97,23.629,2.818,4.905-1.881,6.345-4.97,1.72-8.552-11.126-8.635-7.766-18.575-4.132-29.778,2.493-7.7,7.9-12.987,10.166-20.588,14.953-14.764,34.188-23.351,47.159-43.432-38.52,11.4-48.6,18.6-66.058,46.653" transform="translate(532.037 88.877)" fill="none"/>
        <path id="Path_5056" data-name="Path 5056" d="M198.3,150.021c-3.223-7.087.48-6.789,5.142-5.032,6.95,2.617,10.515.923,9.262-1.083-6.021-9.662,2.057-6.268,4.793-7.788,1.434,2.457,3.428,10.363,5.2,4.5,3.347-11.106,9.449-13.633,17.752-15.188,1.994-.375,5.067-3.491,5.08-5.428.069-16.659,5.815-34.1-6.645-50.727-2.58,22.289-11.057,40.586-23.131,56.634-6.944-1.048-10.883,5.31-15.776,8.906-16.274,11.925-16.312,13.3-3.572,32.569,1.3-6.164,5.074-10.356,1.895-17.36" transform="translate(975.473 352.113)" fill="none"/>
        <path id="Path_5057" data-name="Path 5057" d="M168.519,121.807Z" transform="translate(877.348 664.233)" fill="none"/>
        <path id="Path_5058" data-name="Path 5058" d="M168.54,121.9l.025-.062h-.006l-.044-.042Z" transform="translate(877.327 664.146)" fill="none"/>
        <path id="Path_5059" data-name="Path 5059" d="M190.464,149.054c11.425,12.439,22.981,24.718,34.2,37.407,4,4.526,9.038,7.615,12.316,2.686,2.437-3.665,1.895-13.508-1.914-15.375-7.423-3.63-10.5-11.328-13.145-17.645-3.765-9-14.074-9.468-15.794-19.6-1.739,5.352-4.681.326-6.975.875-10.914-7.372-20.7-18.131-37.822-18.068,11.363,11.592,20.251,20.657,29.133,29.723" transform="translate(839.733 649.522)" fill="none"/>
        <path id="Path_5060" data-name="Path 5060" d="M96.4,113.11a23.658,23.658,0,0,0-10.8-14.653C76.642,93.467,72.073,86.241,76.144,74.5q-9.9,2.114-19.821,4.213c-7.3,8.448,5.859,1.756,4.912,8.524v-.007c-.517,3.6,3.179,14.368,12.821,12.1,3.777-.9,6.083,15.014,2.082,15.7-11.132,1.923,1.751,13.654-5.373,16.4,4.457,3.915,8.907,2.242,13.357.319-1.085,7.434-10.858,6.525-10.764,15.889,8.508-2.429,14.654-11.189,23.611-10.724,11.463.6,7.38-10.648,8.62-16.659,1.776-8.663-6.189-4.387-9.187-7.136" transform="translate(278.631 383.144)" fill="none"/>
        <path id="Path_5061" data-name="Path 5061" d="M22.522,94.133h-.006a6.094,6.094,0,0,0-2.468,2.915c-2.668,5.241-5.8,10.3-7.648,15.944-2.1,6.441-.841,11.4,6.682,10.176a100.164,100.164,0,0,1,25.618-.458c7.343.736,6.258-1.714,6.034-4.935-1.976-11.55-20.906-26.4-28.211-23.642" transform="translate(55.607 497.828)" fill="none"/>
        <path id="Path_5062" data-name="Path 5062" d="M190.894,164.981c1.047,2.867.249,7.8,4.344,6.914,3.646-.784,2.331-5.164,2.294-8.413-.031-2.575-1.995-5.414.393-7.948,3.946.521,5.149,9.669,9.7,5.65,4.226-3.721-1.253-9.2-2.537-10.481-7.361-7.386-3.135-12.362,3.291-18.179-5.878-.229-11.332,3.394-14.517-1.013a11.4,11.4,0,0,1-1.689-3.88,7.347,7.347,0,0,1,4.943-2.6c3.958-.68,8.458-.16,10.334-5.907a71,71,0,0,0-7.448.173c-11.394.951-13.656,5.983-14.679,22.906a29.586,29.586,0,0,0,.187,5.289c.742,6.24,3.26,11.71,5.385,17.485Z" transform="translate(965.067 648.123)" fill="none"/>
        <path id="Path_5063" data-name="Path 5063" d="M106.309,28.172c-4.943-2.457-11.076-3.8-15.009,3.422-2.169,3.963-4.905,5.227-9.113,2.8-12.03-6.927-10.447,3.859-11.051,11.668,1.982-3.519,6.663-2.027,7.025-1.27V44.8c4.7,9.947,13.239,2.728,19.578,6.525,3.553,2.124,10.69-1.68,11.544-9.142.542-4.776,1.8-11.627-2.973-14.014" transform="translate(367.741 96.258)" fill="none"/>
        <path id="Path_5064" data-name="Path 5064" d="M71.271,29.07a2.2,2.2,0,0,0-.162.243l.143.1c0-.1.006-.222.019-.347" transform="translate(367.6 113.255)" fill="none"/>
        <path id="Path_5065" data-name="Path 5065" d="M71.684,78.67c-9.424-3.165-11.02,8.51-16.854,12.3-2.979,1.944-5.055,6.49-1.552,9.065l.006.007c4.756,3.5,2.331,7.025,1.826,10.738-.268,1.951-3.36,3.561-.736,5.789,1.689,1.444,3.653.9,5.734.076,13.551-5.3,18.007-15.486,14.324-35.255-.449-.458-1.434-2.284-2.749-2.721" transform="translate(264.691 404.75)" fill="none"/>
        <path id="Path_5066" data-name="Path 5066" d="M197.035,98.593c5.8,3.193,1.8-4.97,3.715-6.275a8.981,8.981,0,0,1,6.887-1.728c10.029,3.193,12.242-8.371,17.833-12.98,3.035-2.492-1.091-9.086-4.806-7.823v.007c-7.049,2.381-11.625-2.277-17.1-6.074-3.7,8.01,1.608,17.749-7.187,22.448-2.78,1.478-3.6,10.072.661,12.425" transform="translate(1011.034 319.121)" fill="none"/>
        <path id="Path_5067" data-name="Path 5067" d="M226.938,141.032c-8.3-9.086-16.567-11.55-24.733-11.509-9.536.042-18.948,3.5-28.111,3.832,8.446,7.379,17.328,8.51,26.733,8.253,8.284-.222,16.96-1.52,26.11-.576" transform="translate(906.523 710.076)" fill="none"/>
        <path id="Path_5068" data-name="Path 5068" d="M191.808,136.611h0c5.292,4.394,11.625-1.652,18.649,5.9-1.739-5.206-1.851-7.115-2.655-7.7-11.182-8.232-11.656-8.989-13.825-24.239-.268-1.881-.673-3.728-.954-5.595-.48-3.255-1.982-5.227-4.905-4.977a6.074,6.074,0,0,0-5.5,4.651c-2.518,8.191,3.06,26.877,9.188,31.965" transform="translate(947.903 534.516)" fill="none"/>
        <path id="Path_5069" data-name="Path 5069" d="M171.77,26.116c4.874-3.533,4.07-5.109.131-8.7C159.809,6.4,150.06,12.247,144.332,36.056c9.848-4.512,19.322-4.068,27.438-9.94" transform="translate(750.777 12.152)" fill="none"/>
        <path id="Path_5070" data-name="Path 5070" d="M186.063,30.054c-10.278.34-12.447-9.787-17.876-16.541-7.935-9.836-18.082-4.47-24.733,11.342-4.644,1.631-7.673,4.991-8.028,10.884-.174,2.867,2.207,5.171,3.634,4.748,11.319-3.36,21.18,8.566,32.418,4.727,4-.715,8-1.347,11.974-2.187,2.263-.479,5.547-.368,5.354-4.075-.162-3.144-1.895-8.927-2.742-8.9" transform="translate(704.122 -8.571)" fill="none"/>
        <path id="Path_5071" data-name="Path 5071" d="M187.024,128.847l-.492.333.324-.118c3.067-3.422,5.011-.639,6.912,1.951,2.755,3.769,6.775,5.171,9.73,2.686a12.316,12.316,0,0,0,3.983-13.438c-1.184-4.109-1.988-8.239-5.13-10.884v.007c-4.563,3.5-5.41,12.765-13.682,10.856-1.477-.34-2.873,5.088-1.646,8.607" transform="translate(971.611 590.383)" fill="none"/>
        <path id="Path_5072" data-name="Path 5072" d="M14,134.941c-2.9.77-8.215.312-7.953,3.832.268,3.644-.3,10.3.692,10.62,3.534,1.152,9.306,1.937,10.989-.382,3.578-4.956,8.67-4.311,15.2-8.982C25.28,137.551,20.212,133.31,14,134.941" transform="translate(27.1 740.107)" fill="none"/>
        <path id="Path_5073" data-name="Path 5073" d="M100.859,22.431C97.88,23.438,94.3,24.1,93.941,28.8c-.069.9,1.6,2.11,2.537,3.068,3.291,3.4,8.838,1.715,9.443-.049l.006-.007c2.412-7,9.187-6.747,13.345-13.161-7.467-1.659-12.828,1.881-18.412,3.783" transform="translate(487.068 48.779)" fill="none"/>
        <path id="Path_5074" data-name="Path 5074" d="M74.143,33.572,74,33.815a4.007,4.007,0,0,0,.642.1c-.156-.125-.324-.243-.492-.354Z" transform="translate(382.728 139.961)" fill="none"/>
        <path id="Path_5075" data-name="Path 5075" d="M91.512,40.673c-1.533-3.943-3.946-8.642-9.138-7.351-2.873.715-5.061,3.839-8.271,3.346,2.138,1.59,2.238,4.2,2.425,6.907l-.006-.007c.654,9.628,9.886-1.95,11.145,6.317,3.322-1.291,5.067-5.338,3.9-9.038l-.056-.174" transform="translate(383.267 137.225)" fill="none"/>
        <path id="Path_5076" data-name="Path 5076" d="M74.545,86.62c2.474-6.476-.779-5.685-4.45-5.1h-.006c-2.225.347-5.56,3.644-6.414-2.228-.343-2.395,3.833-6.629-1.515-6.83-3.864-.16-7.187,3.033-7.611,7.316a71.974,71.974,0,0,0,.175,11.057Z" transform="translate(280.242 371.013)" fill="none"/>
        <path id="Path_5077" data-name="Path 5077" d="M168.564,121.864h0l-.006-.076-.044.028.006.007Z" transform="translate(877.323 664.117)" fill="none"/>
        <path id="Path_5078" data-name="Path 5078" d="M149.7,139.735c.318.437,4.051-1.222,4.849-2.839,3.815-7.753-2.5-11.044-6.532-19.581-2.381,10.71-2.369,16.958,1.683,22.42" transform="translate(761.626 637.545)" fill="none"/>
        <path id="Path_5079" data-name="Path 5079" d="M184.206,130.578c9.119-3.214,12.9-10.176,17.808-18.45-9.505,2.374-14.623,7.622-17.808,18.45" transform="translate(959.439 606.727)" fill="none"/>
        <path id="Path_5080" data-name="Path 5080" d="M179.172,101.1c-3.154,2.256-7.9,3.235-8.2,8.746-.156,3.006,1.988,4.88,5.124,4.928a15.929,15.929,0,0,0,6.663-10.315c.455-3.013-1.671-4.727-3.584-3.36" transform="translate(890.131 538.392)" fill="none"/>
        <path id="Path_5081" data-name="Path 5081" d="M89.3,107.8H89.3a5.851,5.851,0,0,0,1.621-7.538,5.349,5.349,0,0,0-.642-.923c-4.288-4.685-8.489-.708-12.877,2.4,3.858,2.881,6.009,10.37,11.893,6.06" transform="translate(400.547 517.977)" fill="none"/>
        <path id="Path_5082" data-name="Path 5082" d="M193.047,116.347Z" transform="translate(1005.702 631.792)" fill="none"/>
        <path id="Path_5083" data-name="Path 5083" d="M201.062,132.812c-3.4-4.609-3.559-10.294-4.918-16.465-6.308,6.226-2.861,12.765-1.726,18.86.53,2.811,2.287,5.754,4.93,4.783a5,5,0,0,0,2.169-6.3,4.692,4.692,0,0,0-.455-.875" transform="translate(1002.607 631.794)" fill="none"/>
        <path id="Path_5084" data-name="Path 5084" d="M115.075,15.84c-4.157.729-8.645,2.624-9.437,7.982-.405,2.735,3.347,4.005,5.6,3.533a12.734,12.734,0,0,0,9.325-6.983,5.215,5.215,0,0,0-5.491-4.533" transform="translate(548.135 34.498)" fill="none"/>
        <path id="Path_5085" data-name="Path 5085" d="M186.581,114.146c1.1-7.4,3.777-13.883-2.082-21.136-5.859,7.885-5.2,14.362,2.082,21.136" transform="translate(940.353 493.141)" fill="none"/>
        <path id="Path_5086" data-name="Path 5086" d="M117.513,30.5c-2.15-2.214-4.444-.77-6.688-.548.9-4.2,4.5-2.9,6.769-4.3,3.434-2.124,4.538-5.636,2.7-9.01-2.475-4.519-5.292-.888-7.511,1.013a20.285,20.285,0,0,0-6.794,13.723c-2.369,1.138-5.342,1.624-4.887,5.983,10.06.41,10.06.41,16.412-6.858" transform="translate(524.305 26.463)" fill="none"/>
        <path id="Path_5087" data-name="Path 5087" d="M76.939,109.68h0c3.322-.382,3.515-4.366,3.1-7.74-.4-3.214-.7-7.025-4.55-6.823-4.656.243-2.574,4.47-2.68,7.42,1.222,2.554.175,7.6,4.126,7.143" transform="translate(374.56 505.618)" fill="none"/>
      </g>
    </g>
    <g id="Group_2295" data-name="Group 2295" transform="translate(1068.828 2066.504)" opacity="0.033">
      <path id="Union_1" data-name="Union 1" d="M30.935,599.9a16.237,16.237,0,0,1,11.174-2.18c7.743,1.243,15.529,2.349,23.329,2.979,8.888.714,17.1,3.133,24.475,8.674,7.1,5.332,14.713,8.7,23.626,7.006,4.666-.884,8.391.866,11.418,4.856,1.817,2.389,4.507,4.094,6.131,6.58,6.927,10.584,16.3,14.029,27.885,11.978,1.273-.227,2.738.554,4.106.869,12.893,1.4,24.112,10.043,37.448,9.963l.008.012c4.209-.022,4.892,5.119,4.95,8.511.137,7.529.866,15.631-2.185,22.331-5.353,11.752-6.588,24.049-6.7,36.773,1.1,5.976-.312,11.543-2.149,17.043-.724,5.807-2.992,9.47-9.035,11.338-8.608,2.664-15.126,14.678-14.406,24.387a25.138,25.138,0,0,1-2.641,13.873q-1.185,2.3-2.366,4.6A463.771,463.771,0,0,1,30.935,599.9ZM433.409,747.008A63.035,63.035,0,0,0,417.1,725.69c-4.9-4.244-4.941-10.935-7.547-16.336-1.842-3.818-2.384-8.857-5.1-11.575-12.589-12.567-13.784-28.216-13.025-44.576.346-7.525-2.5-14.189-4.981-20.981-4.11-7.751-5.3-17.2-12.554-23.116-9.474-4.239-11.71-12.738-12.355-22.3-.834-12.377-3-14.628-14.348-15.543a1.429,1.429,0,0,0-.374.037c-.194.037-.378.075-.474-.011-13.163-11.5-21.793,1.994-32.187,5.728a31.034,31.034,0,0,1-3.266.822,41.706,41.706,0,0,0-6.548,2.1c-15.494,7.8-27.5,1.31-38.185-10.846-8.762-6.753-15.515-15.738-23.493-23.352-3.618-3.449-1.971-7.183-1.039-10.926-.386-4.55-.071-9.575-2.68-13.3-7.012-9.985-4.475-19.036.341-28.555,3.76-7.441,6.633-15.391,9.985-23.072,2.739-6.292,4.8-12.342,4.47-19.868-.417-9.46,7.3-15.994,10.966-24.084a2.528,2.528,0,0,1,2.162-1.217c15.067,4.005,26.183-6.716,39.094-10.681q.405,32.19.822,64.382l-.822-64.386c5.971-2.9,11.76-6.353,17.962-8.577,7.915-2.837,11.6.387,9.465,8.813-1.355,5.34.408,6.188,4.278,7.334,9.258,2.738,18.42,5.837,27.668,8.621,5.3,1.594,9.469,1.491,10.628-6.03,1-6.53,6.619-8.07,11.418-5.735,13.07,6.347,25.935,2.384,38.681.718,5.142-.674,9.857-5.07,10.008-11.981.119-5.776-.081-11.575.243-17.332.369-6.532-3.014-6.376-5.966-3.219-3.26,3.485-6.367,3.427-10.185,2.2a7.162,7.162,0,0,0-6.637.848c-5.208,3.569-9.039,1.6-12.333-3.516-6.8-10.539-5.589-15.52,6.832-22.486,8.243-4.622,16.479-10.136,26.9-5.869,5.417,2.219,9.887-2.562,15.041-2.847,5.181-4.86,2.779-8.154-2.307-10.7-5.418-2.7-10.9-5.23-17.249-8.257,2.389-2.619,4.7-4.817,4.773-8.17-2.855-2.015,1.291-3.5-.093-6.069-4.356.773-7.677,3.761-11.09,6.536-1.5,1.221-1.345,2.69-1.2,4.679.151,2.051,7.528-.626,2.148,3.56-2.74,2.131-5.559,5.873-9.768,3.911-3.532-1.651-2.485-4.936-1.629-7.875-10.61-1.91-13.918,1.318-16.195,16.03-.409,2.637-.453,5.349-.671,8.027,3.871,11.7,1.483,15.015-9.394,13.03-5.816,1.269-10.628,3.418-8.834,11.3,2.22,3.023,6.491,4.852,4.054,10.3-.782,1.739,2.073,5.366-2.029,6.051-3.209.536-5.364-.951-6.264-4.542a20.324,20.324,0,0,0-2.482-4.541,16.27,16.27,0,0,1-8.541-10.034c-2.869-8.68-9.355-12.381-16.7-14.092-4.693-1.092-6.5-4.808-9.607-7.342-1.8-1.469-3.955-3.623-6.091-1.288s-1.052,4.862.839,7.272c4.728,6.038,10.743,10.8,17.448,13.034,10.671,3.56,4.429,9.5,3.387,15.294-1.9-6.153-6.443-8.307-11.4-10.33-6.554-2.673-12.778-6.1-17.461-11.986a16.287,16.287,0,0,0-3.957-3.641c-2.837-1.8-26.36,10.691-25.8,13.975.818,4.733-1.739,7.388-3.772,10.58-3.109,4.874-7.005,8.976-5.732,16.2.839,4.749-4.183,7.693-7.574,10.131-7.223,5.2-16,3.875-24.12,3.609-4.368-.146-4.745-6.478-5.727-10.1-1.714-6.331-1.549-13.153-2.917-19.613-1.163-5.492,1.55-7.308,5.563-8.116,3.383-.683,6.947-.439,10.344-1.07,5.557-1.026,12.563.329,12.27-9.7-.254-8.746-3.427-14.3-11.3-16.87-2.264-.737-6.144-.2-5.758-4.08.3-2.939,4.582-1.247,5.647-2.633,4.608-5.988,11.8-8.062,16.826-14.358,7.139-8.914,9.292-22.85,22.717-26.49,6.428-1.741,1.3-6.953-.324-10.269-4.294-8.723-3-12.869,5.908-17.2,2.677,3.916,1.172,8.138.969,12.214-.3,6.073,3.711,8.408,9.216,8.47,8.178.1,15.179-2.686,22.308-5.78,9.71-2.974,13.248-10.068,12.413-20.368-.3-3.614,1.056-5.811,5.132-4.04,2.21.955,4.63,1.594,5.518-1.852.608-2.375.989-4.564-1.509-6.429-5.177-3.867-3.338-6.605,1.669-7.413,7.322-1.177,12.963-6.18,19.782-8.386-7.147-6.425-13.6-1.723-19.879,1.292-5.6,2.69-10.735,4.767-15.29-1.789-4.217-6.073-6.633-12.2-1.367-18.979,2.338-3.014,3.871-6.712,6.126-9.811,3.3-4.546,1.936-7.556-2.525-9.923-1.12.054-2.238.107-3.361.165l.049-.115a17.372,17.372,0,0,0-6.189,11.751c-.532,4.7-4.36,8.928-8.471,11.916-.395.693-.79,1.38-1.185,2.073-.183,4.244-.338,8.484-.551,12.724-.106,2.113-.835,4.923,1.328,5.825,8,3.333,4.209,8.217,2.029,12.816a17.11,17.11,0,0,0-1.926,10.473c1.189,7.378-5.464,9.98-8.51,14.729-1.433,2.242-3.623-.039-4.941-1.727a44.557,44.557,0,0,1-7.729-13.278l-6.548-9.407c-5.172,2.526-3.8,11.427-12.218,10.894-9.78-.617-18.717-16.515-11.108-25.6C294.267,231.5,303.617,209.822,315,189.44c4.556-8.164,11.108-13.3,17.967-18.17,2.376-1.682,4.533-3.139,6.042-5.611,1.284-2.105,3.365-4.968,5.164-4.068,3.057,1.529,5.677.649,8.265-.231a14.133,14.133,0,0,1,4.995-1.06,20.691,20.691,0,0,1,4.323-.248c1.931.284,4.715-.014,5.4,2.091,1.149,3.542-3.441,2.241-4.56,5.269,16.048-2.131,30.215,5.825,45.269,8.515,4.124.737,9.438,1,8.408,7.85-.963,6.4-5.935,5.372-10.241,5.291a177.757,177.757,0,0,0-22.123.475c9.985,3.032,7.9,21.136,23.167,18.663-4.134-4.36-4.884-7.662,1.743-7.459,3.708.111,7.507,2.585,6.181-5.446-.56-3.393,5.2-9.443,10.872-9.723,5.54-.28,6.14-2.251,3.329-6.539a12.714,12.714,0,0,1-1.874-6.935c-.056-1.838-2.277-4.271.827-5.376a7.906,7.906,0,0,1,8.19,1.562c2.979,2.5.489,3.169-.923,4.591-1.83,1.846-.377,3.458,1.229,4.23,2.3,1.1,5.027.9,6.052-1.628,2.486-6.135,8.116-8.333,12.714-11.712,4.017-2.944,6.971-8.337,14.073-4.59,3.006,1.576,7.179-3.844,11.09-5.67,4.288-1.993,13.306,2.349,12.533-8.231a8.627,8.627,0,0,1,3.1-.621c2.849.008,5.7-.193,8.557-.395,7.472-.529,14.924-1.059,22.2,2.219,1.4-2.583.791-5.349-1.243-5.634-8.092-1.145-5.65-10.05-9.966-14.286-2.517-2.47,4.356-5.758,4.356-9.776.008-9.732,6.978-9.514,13.176-10.487,2.061-.315,3.947-.536,4.316,2.775,1.328,11.934,3.9,23.5,9.7,34.2,1.972,3.637.076,7.108-2.064,10.025-1.541,2.108-3.445,3.915-5.354,6.037,9.065,1.505,13.141-4.257,15.049-20.622l-.893-3.075c-2.6.657-6.472,1.2-6.405-2.123.155-7.737-7.82-15.148-1.257-23.094.772-.937.487-2.841.688-4.28,5.549.071,1.793,9.337,7.973,8.662l.387-.764c.351-9.314,6.388-8.315,12.4-7.378,1.43-.089,2.869-.121,4.289-.288a9.367,9.367,0,0,1,1.712.021c1.786.123,3.621.248,3.784-2.4.186-2.957-2.583-2.482-4.563-2.78-4.134-.631-4.475-4.834-5.212-7.658-.9-3.427,2.921-2.809,4.843-3.528A88.561,88.561,0,0,1,585.848,85.7a9.1,9.1,0,0,0,7.7-7.312c-.994-5.216,1.781-7.582,5.831-9.6,12.967-6.442,25.757-13.252,38.707-19.739a14.784,14.784,0,0,0,7.366-6.952c6.055-12.009,15.466-12.44,24.7-1.7,1.812,2.113,3.8,1.328,4.235-1.239.621-3.709,2.683-3.412,4.764-3.115a9.761,9.761,0,0,0,2.009.151c2.762-.475,5.408-1.475,8.366-.427,13.064,4.64,13.987,8.648,4.017,18.361-1.851,1.8-3.849,3.431-5.78,5.142-3.637,4-7.272,8-11.708,12.879,5.927.137,8.905-4.835,13.448-5.265a74.465,74.465,0,0,1,32.9-6.149c5.772.346,11.614,2.4,17.683.47a15.138,15.138,0,0,0,3.977-2.028A466.314,466.314,0,0,1,844.275,160.846c-5.643,7.84-11.254,15.707-16.732,23.667-1.23,1.785-4.5,4.374-2.517,5.857,2.8,2.091,6.863,6.627,9.492,4.648,5.775-4.342,10.241-.741,14.378,1.66,4.529,2.632,4.955-.622,6.94-4.489,4.906,9.349,9.336,17.749,13.7,26.189.469.91,1.433,2.531-.268,2.837-8.519,1.549-4.963,6.854-3.418,11.787.484,1.545,4.44,3.707-.453,5.114-4.741,1.364-2.943-2.788-3.289-4.231-2.762-11.426-3.766-23.312-9.776-34.5-3.582,12.732-7.121,25.3-10.656,37.881-1.633,6.891-3.516,13.731-4.834,20.692-1.416,7.471-5.482,10.37-12.532,9.141-2.829,5.593-5.043,11.672-8.635,16.643-4.822,6.665-3.844,11.823,1.642,17.315,3.193,3.192,5.851,6.53,3.7,12a8.042,8.042,0,0,1-7.148,5.51c-3.941.391-2.664-3.862-3.635-6.06-1.886-4.27.071-11.108-7.33-11.626a.972.972,0,0,1-.719-.485c-1.034-3.524.982-9.944-5.615-8.47-3.237.723-5.8,4.475-8.715,6.9-2.9-2.682,2.642-7.006-1.55-8.543-3.591-1.314-5.656,2.3-7.554,4.857-2.149,2.894-7.384,4.874-5.7,8.95,2.027,4.91,7.213,3.964,11.636,3.3a43.2,43.2,0,0,1,6.56-.049,2.983,2.983,0,0,1-.532,3.631c-7.823,11.334-8.355,11.907,1.167,21.567,3.113,3.157-.057,5.611,2.194,8.946,3.111,4.612,6.766,12.692.693,19.356-1.683,1.851-2.492,4.781-3.211,7.369a42.327,42.327,0,0,1-22.742,27.774c-2.966,1.5-6.6,2.877-7.912,6.561-1.114,3.139-1.945,2.7-3.867.578-2.158-2.375-4.932-.719-7.445-.595-7.481,12.692-10.655,10.9,2.5,24.674,2.068,2.166,4.012,4.461,5.956,6.748,7.228,8.511,7.423,14.122.808,23.054-2.45,3.3-4.953,6.562-7.639,10.114-5.359-9.052-14.766-10.158-22.34-14.748-4.755,13.647-2.091,21.452,9.509,29.461,3.538,2.442,8.235,3.546,9.763,8.581l6.189,12.488c-1.914,1.082-3.54.485-5.061-.114-1.5-.59-2.9-1.182-4.374-.148-.129-.746-.262-1.5-.385-2.251-14.291-20.394-27.627-41.34-34.51-65.527-3.559-.705-3.494,2.273-4.79,3.512-3.618,3.449-6.526,2.948-7.334-2.251-1.562-10.056-10.207-14.6-15.051-22.06-.562-.861-2.668-1.811-2.862-1.58-4.982,5.789-14.531,3.591-18.2,12.718-3.055,7.618-8.581,14.305-13.86,20.618-4.4,5.265-6.069,10.921-4.83,17.478,1.474,7.777-.457,15.129-1.088,22.659-.284,3.365-1.771,6.143-4.555,7.1-2.442.844-3.965-2.109-5.571-3.8-15.232-16-27.97-33.322-26.828-59.919-8.146,10.57-10.6,6.051-16.88-.572-6.516-6.868-17.193-13.669-28.674-8.253-8.555,3.071-17.35,3.236-26.273,1.842l.044.062-.085.044q.979,4.415,1.954,8.821c4.4,1.217,8.918,1.985,12.1,6.189,2.748,3.635,3.361,6.947.159,10.4q-1.372,3.043-2.738,6.087c-3.828,7.961-9.886,13.767-15.587,20.217-8.037,9.093-18.172,14.477-26.989,22-5.438,4.634-9.828,3.556-14-2.154-7.675-10.481-15.5-20.848-23.254-31.262-6.614-8.448-13.176-16.945-19.888-25.31-1.9-2.37-3.774-7.133-7.213-4.5-3.047,2.331,1.078,5.257,2.313,7.525,4.155,7.644,8.811,14.992,13.278,22.455,10.477,17.189,25.381,29.793,40.089,42.606,4.239,5.14,8.932,5.424,14.455,2.454,5.279-2.833,10.9-4.967,17.868-8.076-2.64,17.718-2.2,34.357-11.946,48.63a14.2,14.2,0,0,1,1.571,2.885c2.469,5.216-.164,9.981-.306,14.94-.35,12.137-.782,24.271-.777,36.421,0,5.4-.555,9.665-6.651,10.517-5.882.826-7.32-3.467-8.7-7.973-.715-2.331-1.515-4.626-2.77-8.43a39.95,39.95,0,0,0,.159-14.194c-1.012,4.591-1.757,9.217-2.366,13.683-1.159,8.5,5.732,18.819,10.153,27.708,3.774,7.59,3.522,13.758-1.546,19.911-2.348,4.83-4.6,9.718-7.062,14.477-3.232,6.238-7.34,11.609-1.257,19.52,2.677,3.485,3.369,10.62-2.69,14.279a5.722,5.722,0,0,0-2.957,6.037c1.674,12.76-6.449,21.633-10.6,32.191-5.888,14.988-18.692,19.764-30.936,25.079a7.2,7.2,0,0,1-2.9.622C439.426,756.212,435.434,751.343,433.409,747.008Zm73.625-196.257c-2.547,6.016-4.347,12.569-10.788,15.645-2.166,1.035-2.523,3.671-2.074,5.559q.394,1.638.754,3.274-.357-1.634-.749-3.274c-.453-1.888-.094-4.523,2.069-5.559,6.441-3.077,8.243-9.629,10.788-15.645.827-1.944,1.708-3.812,4.177-3.564a4.3,4.3,0,0,0-.437-.023C508.634,547.164,507.806,548.922,507.034,550.751Zm4.332-3.546h0a3.643,3.643,0,0,1,1.637.61,3.594,3.594,0,0,0-1.636-.61Zm6.652-110.81h0Zm-.044,0h0Zm4.02-1.25.1-.064ZM509.48,412.658l.124-.139Zm90.214-66.3c-8.341-3.24-16.9-5.993-24.8-10.429C582.793,340.366,591.349,343.118,599.694,346.354Zm-29.366-12a7.44,7.44,0,0,1,1.717-.107c-.137-.008-.275-.012-.412-.012A7.349,7.349,0,0,0,570.328,334.349Zm-84.547-45.993c15.015-8.222,29.973-16.554,44.965-24.808C515.749,271.8,500.8,280.134,485.781,288.357ZM647.2,189.392c19.933-2.984,40.1-4.453,59.843-8.7C687.3,184.931,667.135,186.4,647.2,189.392Zm72.979-66.166c-7.4-12.276-14.647-24.662-22.994-36.277C705.535,98.564,712.779,110.95,720.182,123.226ZM805.687,596.1c.226-9.065-7.152-15.631-10.7-23.556-6.859-8.235-6.282-18.264-6.268-27.827l.147,0-.151,0c-6.7.164-13.026-.56-19.042-5.279,6.526-.214,13.229-2.424,20.023-2.45a23.353,23.353,0,0,1,16.925,6.7,23.356,23.356,0,0,0-16.93-6.7c1.291-2.926,3.721-6.091,6.789-7.272,10.675-4.116,17.407-11.956,23.026-20.857.53,3.991,2.323,7.489,3.836,11.183l0,.006.005-.006c-1.515-3.693-3.308-7.191-3.836-11.183a16.889,16.889,0,0,1-.133-3.383c.727-10.824,2.339-14.042,10.455-14.65,1.13-.085,2.37-.127,3.76-.127-1.391,0-2.632.042-3.761.127,1.639-2.93,3.387-5.3,7.912-2.9,3.946,2.087,5.594-.457,6.589-4.3,2.521-9.714,15.2-16.363,24.829-13.642,4.244,1.2,1.82,3.57,1.5,5.563-.67,4.173,3.16,10.034,7.818,13.892a3.481,3.481,0,0,0-1.2-.371,3.481,3.481,0,0,1,1.2.371,4.766,4.766,0,0,1,1.269.985l.012.013c3.024,2.193,6.241,3.448,8.73,2.828,2.809-.705,1.775-3.485,2.023-5.3,1.239-9.242,2.2-18.53,4.2-28.24,2.557,10.513,12.595,14.561,16.923,23.321h.005a34.092,34.092,0,0,0,7.488,11.568h.005a58.423,58.423,0,0,1,8.426,2.73q-1.785,12.806-4.271,25.425a464.784,464.784,0,0,1-17.589,64.451c-2.029-2.5-3.17-5.735-6.446-7.24-2.567-1.172-4.622-2.873-5.789,1.35-1.434,5.194-3.987,3.933-6.682.963-14.987-16.529-35.183-5.1-46.174,6.446-7.747,8.142-18.336,10.628-28.253,14.078a4.738,4.738,0,0,1-1.544.252C808.421,603.074,805.553,601.385,805.687,596.1ZM825.8,524.532h0Zm-.038,0c-2.056-.021-1.785-2.529-2.335-4.221C823.98,522,823.708,524.511,825.765,524.532Zm93.544-.62a7.408,7.408,0,0,1-4.057-1.21A7.394,7.394,0,0,0,919.309,523.912Zm-4.194-1.3a7.687,7.687,0,0,0-4.356-1.32A7.69,7.69,0,0,1,915.116,522.613Zm-10.842-.14h0c3.147-6.73.1-10.682-4.219-14.117C904.371,511.79,907.421,515.742,904.274,522.473Zm-76.212-3.387c.011.876.184,1.882.186,2.788,0-.907-.175-1.912-.186-2.788a4.351,4.351,0,0,0-.1-.823A4.351,4.351,0,0,1,828.062,519.086Zm-4.707,1.014c-.007-.018-.014-.037-.022-.055C823.341,520.063,823.348,520.081,823.355,520.1Zm10.358-1.834c-2.075,0-3.064-3.991-5.372-4.264h0C830.648,514.277,831.638,518.266,833.713,518.266Zm1.39-.537c.049-.036.1-.074.15-.114C835.2,517.655,835.153,517.693,835.1,517.729Zm45.352-14.653c1.23-1.584,2.483.457,3.685,1.062-1.2-.609-2.456-2.646-3.685-1.066-2.707,3.5-4.716,1.233-5.759-.961C875.739,504.305,877.749,506.568,880.456,503.076Zm-5.762-.969-.03-.064Zm-.031-.066-.035-.075Zm-.053-.115-.024-.052Zm-.316-1.189c.018-1.967,3.9-1.012,3.892-3.933C878.19,499.724,874.312,498.77,874.294,500.737Zm-45.6-.694a3.888,3.888,0,0,1-3.03-1.161A3.887,3.887,0,0,0,828.693,500.042Zm3.37-.417a18.6,18.6,0,0,1,3.727-.34h0q-.2-.007-.39-.007A20.152,20.152,0,0,0,832.062,499.626Zm-7.814-3.47a6.97,6.97,0,0,0,1.2,2.482l.076.091-.076-.091c.768-1.38,1.54-2.766,2.318-4.146A5.438,5.438,0,0,0,824.248,496.155Zm46.152-2.686c.65,3.308,3.1,3.224,5.358,3.047-2.256.175-4.706.257-5.356-3.052a.785.785,0,0,1,.065-.445A.8.8,0,0,0,870.4,493.469Zm7.769,2.992a5.438,5.438,0,0,0-.722-.043A5.438,5.438,0,0,1,878.169,496.461Zm-22.077-2.845a3.051,3.051,0,0,0,1.544-4.031,3.05,3.05,0,0,1-1.545,4.031,2.257,2.257,0,0,1-2.643-1.012A2.253,2.253,0,0,0,856.092,493.616Zm18.5-3.991a12.65,12.65,0,0,0-3.772,2.82,12.7,12.7,0,0,1,3.774-2.82,5.226,5.226,0,0,1,2.247-.579h0A5.232,5.232,0,0,0,874.6,489.625Zm-39.467,1.088Zm22.184-1.688c.038.051.075.1.109.157q-.051-.08-.107-.157c-2.42-2.942-2.53-6.583-3.5-10.53C854.777,482.442,854.888,486.077,857.312,489.025ZM24.1,568.9c-.705-.2-.3-4.461-.493-6.792-.186-2.251,3.6-1.958,5.665-2.45,4.421-1.044,8.031,1.669,13.478,3.254-4.648,2.988-8.275,2.575-10.822,5.744a4.126,4.126,0,0,1-3.167.957A17.743,17.743,0,0,1,24.1,568.9Zm734.014-34.228c-7.99-8.116-16.221-15.969-24.359-23.924-6.327-5.8-12.657-11.6-20.751-19.01,12.2-.04,19.167,6.841,26.94,11.555a3.005,3.005,0,0,1,1.824.5c1.168.582,2.336,1.164,3.143-1.062,1.225,6.482,8.569,6.782,11.25,12.537,1.882,4.04,4.075,8.964,9.362,11.285,2.714,1.195,3.1,7.489,1.363,9.834A3.535,3.535,0,0,1,763.967,538C762.062,538,759.939,536.527,758.117,534.677Zm46.416-14.118c-2.906-2.213-5.876-1.712-8.926-1.208a15.16,15.16,0,0,1-6.652.09c-8.64-2.393-11-8.613-13.536-15.24v-.005c-2.172-5.65-1.385-6.237,4.474-7.044,1.981.558,2.912.067,3.654-2.264,2.979-9.3,10.314-15.712,14.726-24.067,2.952-5.571,5.855-2.09,9.216-.821,5.025,1.886,3.708,5.557,1.9,8.154a5.746,5.746,0,0,0-.115,7.344c6.45,9.9,1.953,19.951,1.106,29.971-.333,3.9-5.09,5.1-5.768,5.1A.147.147,0,0,1,804.533,520.559ZM744.9,502.669l0,0,.031-.018.005.048h0l-.018.039Zm.032.028h0l-.028-.023Zm-95.839-5.564c-2.886-3.494-2.9-7.489-1.2-14.34,2.873,5.46,7.371,7.564,4.653,12.524a5.677,5.677,0,0,1-3.3,1.861A.2.2,0,0,1,649.092,497.132Zm178.153-37.367c-3.5,5.291-6.189,9.744-12.685,11.8C816.83,464.639,820.474,461.283,827.245,459.765Zm2.8,1.624c-1.354-1.656-2.738-3.436-4.922-1.247l-.23.076.349-.213c-.874-2.251.121-5.722,1.172-5.5,5.892,1.221,6.5-4.706,9.745-6.943v-.006c2.237,1.692,2.809,4.334,3.654,6.961a7.409,7.409,0,0,1-2.837,8.6,3.859,3.859,0,0,1-2.363.8A6.162,6.162,0,0,1,830.041,461.389ZM12.973,323.743c5.309,6.242,12.484,9.891,14.766,18.873.949,3.77,6.508,6.477,11.16,7.516,2.8.622,6.113.475,5.9,5.021a8.031,8.031,0,0,0,.756.746c3.077,1.19,7.414,1.475,8.954,3.778,2.681,4.019,2.952,8.466-1.816,12.618-9.22,8.035-19.939,14.388-27.108,24.745-1.14,1.648-5.011,2.926-3.316,5.047,2.7,3.361,9.208,8.4,9.643,7.952,3.253-3.347,4.985-1.59,6.834.166,1.436,1.364,2.944,2.729,5.29,1.7-5.051,7.6-13.074,8.271-16.288,16.63-1.908-5.8,1.914-8.785,1.132-13.727-5.877,4.37-11.506,8.236-16.737,12.631-1.616,1.354-3.427,4.537-2.934,6.216,2.69,9.2-3.933,12.142-8.9,15.982A462.55,462.55,0,0,1,12.973,323.743Zm804.1,106.637c-1.9.039-3.673.078-5.309-1.142-4.365-3.254-8.338-15.2-6.544-20.443a4.228,4.228,0,0,1,3.916-2.974c2.083-.161,3.152,1.1,3.493,3.182.2,1.195.489,2.375.68,3.578,1.543,9.754,1.882,10.237,9.846,15.5.573.377.651,1.6,1.89,4.927C822.212,430.279,819.539,430.331,817.069,430.38Zm-61.3-15.778c.217-3.526,3.6-4.151,5.843-5.593,1.363-.876,2.876.222,2.551,2.148a10.166,10.166,0,0,1-4.745,6.6C757.186,417.723,755.658,416.524,755.769,414.6ZM340.42,396.36c3.125-1.989,6.118-4.533,9.172-1.536a3.407,3.407,0,0,1,.457.59,3.506,3.506,0,0,1-1.154,4.821h0a4.336,4.336,0,0,1-2.37.836C343.987,401.072,342.579,397.807,340.42,396.36ZM48.436,390.668c1.314-3.609,3.546-6.845,5.446-10.2a4.043,4.043,0,0,1,1.759-1.864h0c5.2-1.763,18.686,7.733,20.093,15.12.16,2.061.933,3.628-4.3,3.157a79.324,79.324,0,0,0-18.246.294,10.549,10.549,0,0,1-1.513.119C47.677,397.3,47.093,394.365,48.436,390.668Zm270.2-1.7c.075-1.886-1.408-4.59,1.908-4.745,2.74-.129,2.957,2.309,3.242,4.364.292,2.158.155,4.705-2.212,4.95a3.327,3.327,0,0,1-.343.019C318.825,393.551,319.473,390.528,318.64,388.964ZM801.176,374.89c4.173,4.64,2.269,8.786,1.483,13.519C797.473,384.076,797,379.935,801.176,374.89ZM258.37,329.31c-3.171,1.231-6.34,2.3-9.514-.2,5.074-1.753-4.1-9.256,3.827-10.486,2.85-.441,1.207-10.616-1.483-10.043-6.869,1.452-9.5-5.434-9.132-7.737v0c.675-4.328-8.7-.049-3.5-5.452q7.058-1.345,14.116-2.694c-2.9,7.511.356,12.133,6.739,15.325a15.379,15.379,0,0,1,7.689,9.371c2.136,1.759,7.809-.976,6.544,4.564-.883,3.846,2.025,11.037-6.139,10.656-6.381-.3-10.757,5.305-16.817,6.859C250.635,333.483,257.6,334.065,258.37,329.31Zm-31.117,4.116c-1.868-1.425.334-2.456.524-3.7.36-2.375,2.087-4.63-1.3-6.867l-.006-.005c-2.495-1.646-1.016-4.554,1.106-5.8,4.155-2.424,5.293-9.891,12-7.868.937.28,1.638,1.448,1.958,1.741,2.623,12.643-.55,19.157-10.2,22.548a7.311,7.311,0,0,1-2.353.524A2.742,2.742,0,0,1,227.253,333.427Zm609.962-22c3.485-2.3,6.291-6.367,11.236-5.7,8.6-10.264,14.636-21.966,16.475-36.221,8.874,10.632,4.781,21.789,4.731,32.443-.008,1.239-2.2,3.232-3.617,3.472-5.914.995-10.26,2.611-12.645,9.714-1.259,3.752-2.68-1.305-3.7-2.877-1.949.973-7.7-1.2-3.415,4.981.893,1.283-1.646,2.367-6.6.693-3.32-1.123-5.957-1.314-3.663,3.219,2.265,4.479-.421,7.161-1.349,11.1C825.6,319.935,825.624,319.055,837.216,311.429ZM65.359,287.45c-4.05-7-9.851-12.9-14.841-19.311-7.806-10.03-7.751-16.693.3-26.225,1.461-1.727,2.366-3.756,1.385-5.775-1.443-2.953-3.512-.813-5.11-.054a16.683,16.683,0,0,1-4.049,1.47A468.378,468.378,0,0,1,145.5,94.751C159.662,91,170.282,77.445,186.322,83.985c-.062.514.053,1.4-.182,1.509-12.067,5.692-16.37,18.659-23.672,28.665-3.707,5.088-7.187,12.391,2.087,17.208,4.018,2.09,1.926,4.163-.246,6.047-2.72,5.043-3.893,8.19,2.664,12.9,4.773,3.431,8.3,11.777,5.035,19.826-1.794,4.431-2.766,9.238-4.373,13.763a14.771,14.771,0,0,0,.417,12.176c2.73,5.857,1.842,11.313-4.542,14.261-14.779,12.2-29.417,24.6-44.413,36.5-5.966,4.737-11.374,9.762-15.192,16.55-.564,1.759-2.756,3.147-1,5.434,2.49.613,1.737,2.317,1.274,3.929-1.141,7.773-2.624,15.512-3.307,23.342-.5,5.74-3.129,6.256-7.96,6.292l-.43,0C80.866,302.387,71.827,298.634,65.359,287.45Zm36.755-15.4a1.413,1.413,0,0,1-.538-.6A1.36,1.36,0,0,0,102.114,272.051Zm136.34,16.266a5.259,5.259,0,0,1,5.422-4.679c3.808.129.834,2.837,1.078,4.368.609,3.756,2.984,1.646,4.568,1.425h0c2.615-.373,4.932-.879,3.171,3.264l-14.118,2.694A41.469,41.469,0,0,1,238.454,288.316Zm621.994-21.154c-3.032-1.505-2.452-7-.471-7.947,6.264-3.006,2.481-9.234,5.118-14.358,3.9,2.428,7.162,5.408,12.182,3.885v0c2.647-.808,5.585,3.409,3.423,5-3.981,2.948-5.558,10.344-12.7,8.3a6.96,6.96,0,0,0-4.9,1.106c-1.143.7.673,4.484-1.144,4.484A3.657,3.657,0,0,1,860.448,267.163ZM174.748,252.8c-1.346-.262-5.146-7.205-5.541-9.266-.561-2.908-2.09-2.554-3.757-2.2-1.24.262-2.557.525-3.607-.553,2.48-5.239,5.047-9.709,10.419-2.8.993,1.283,1.58,1.451,2.543.328,7.277-8.484,16.924-6.629,26.221-5.913,5.128.395,6.055,3.006,2.805,7.169-6.369,8.153-13.8,13.773-23.654,13.773A28.632,28.632,0,0,1,174.748,252.8ZM456.207,136.474l0,0c-2.269-1.186-5.164-4.072-3.957-6.425,4.587-8.985,3.733-20.892,12.844-27.4,12.436-17.94,19.614-22.548,47.05-29.838C502.91,85.66,489.209,91.15,478.56,100.594c-1.611,4.86-5.466,8.243-7.241,13.167-2.589,7.165-4.983,13.523,2.943,19.046,3.294,2.289,2.269,4.266-1.227,5.469a18.971,18.971,0,0,1-6.208,1.054A22.88,22.88,0,0,1,456.207,136.474Zm-154-12.294c.915-2.77,5.825-.514,5.47-4.088-.272-2.684-1.972-2.622-3.714-2.56-1.164.043-2.346.085-3.136-.69.062-3.4,4.888-3.228,4.666-7.236a9.948,9.948,0,0,1-1.146-.079,3.151,3.151,0,0,0-2.109.19l.006,0c-8.95,6.8-11.853-4.072-17.257-7.139-1.4-.79-2.1-5.577,1.55-6.57,4.741-1.292,10.052-3.419,12.816,3.774.8,2.068,1.626,4.173,4.257,3.476a1.885,1.885,0,0,0,.471-.218,1.938,1.938,0,0,0,.591-2.672c-5.341-10.7,2.571-8.617,7.81-9.111.621,6.357,5.553,7.854,10.082,9.683,5.43,2.188,5.855,5.607,2.845,10.042h0l0,0a1.533,1.533,0,0,1-.1.155l.1-.155c-3.467-.24-2.522-4.239-4.485-6.25-4.2,4.213-5.194,9.514-6.277,14.819-1.406,6.878-2.037,9.913-4.042,9.913C309.013,129.472,306.571,127.575,302.209,124.18Zm29.263-6.242c-1.877.438-3.747.877-3.989-2.3l0,0c-.133-1.731-.2-3.4-1.727-4.417,2.287.315,3.844-1.682,5.891-2.14,3.7-.826,5.416,2.179,6.508,4.7l.041.111a4.531,4.531,0,0,1-2.779,5.78C334.988,117.117,333.226,117.528,331.472,117.938Zm-6.168-6.792.1-.155,0,0c.12.071.24.147.351.226A2.975,2.975,0,0,1,325.3,111.146Zm6.234-16.75c-1.765-.949-3.77-.822-5.757-.7-3.1.2-6.149.4-8.188-3.477v-.006c-.258-.484-3.591-1.437-5,.813.431-4.995-.7-11.894,7.87-7.463,3,1.549,4.946.741,6.491-1.793,2.8-4.622,7.169-3.761,10.689-2.19,3.4,1.527,2.5,5.909,2.118,8.964a7.138,7.138,0,0,1-6.592,6.221A3.434,3.434,0,0,1,331.537,94.4Zm-19.068-3.209h0v0h0a1.552,1.552,0,0,1,.114-.153,2.128,2.128,0,0,0-.013.222l-.059-.038.057.041-.089,0ZM415.629,51.581c-.665-.613-1.854-1.384-1.806-1.962.252-3,2.8-3.427,4.926-4.07,3.979-1.217,7.8-3.481,13.115-2.42-2.961,4.1-7.787,3.937-9.5,8.418l-.006,0c-.248.652-1.673,1.287-3.284,1.287A5,5,0,0,1,415.629,51.581ZM445.444,40.82c-.323-2.787,1.8-3.1,3.481-3.826a12.553,12.553,0,0,1,4.838-8.777c1.581-1.217,3.588-3.538,5.351-.649,1.308,2.158.522,4.4-1.924,5.762-1.615.9-4.177.067-4.82,2.752,1.6-.141,3.232-1.066,4.763.351-3.656,3.757-4.358,4.477-8.275,4.477C447.93,40.911,446.819,40.87,445.444,40.82ZM465.649,37.3c.564-3.427,3.76-4.639,6.721-5.106a3.638,3.638,0,0,1,3.912,2.9,9.038,9.038,0,0,1-6.642,4.467,3.862,3.862,0,0,1-.71.062C467.356,39.626,465.4,38.813,465.649,37.3ZM657.177,18.912c2.8,2.3,3.379,3.307-.093,5.567-5.78,3.756-12.529,3.472-19.543,6.357C641.621,15.608,648.564,11.866,657.177,18.912ZM611.948,21.98c-3.708-1.311-7.424-2.622-11.392-1.565-1.018.272-2.714-1.2-2.589-3.036.254-3.768,2.411-5.918,5.718-6.961C608.422.305,615.651-3.126,621.3,3.164c3.867,4.32,5.412,10.8,12.734,10.58.6-.018,1.838,3.679,1.952,5.692.139,2.37-2.2,2.3-3.814,2.605-2.827.538-5.682.941-8.527,1.4a11.3,11.3,0,0,1-3.343.492A25.472,25.472,0,0,1,611.948,21.98Z" transform="translate(0 0)" fill="#fff"/>
    </g>
    <g id="Group_2296" data-name="Group 2296" transform="translate(310 2473.279)">
      <g id="Group_2090" data-name="Group 2090">
        <g id="Group_2089" data-name="Group 2089" clip-path="url(#clip-path-3)">
          <path id="Path_7341" data-name="Path 7341" d="M89.839,73.008H259.354a24.022,24.022,0,0,1,24.122,23.918V229.342a21.684,21.684,0,0,1-20.737,21.584l-59.914,2.861a21.9,21.9,0,0,1-3.6-.124L50.4,236.233a21.673,21.673,0,0,1-19.23-21.455V131.2c0-32.14,26.272-58.2,58.682-58.2" transform="translate(-3.483 -8.16)" fill="#3745ac" stroke="#717fcf" stroke-width="1"/>
          <path id="Path_7342" data-name="Path 7342" d="M260.057,73.32a2.3,2.3,0,0,0-1.168-.313H64.14a2.287,2.287,0,0,0-1.168.313A36.523,36.523,0,0,0,31.16,109.6v72.145l11.563-1.354a66.287,66.287,0,0,0-.749-32.9,68.435,68.435,0,0,1-2.34-30.322c2.487-15.568,11.095-33.257,37.1-34.938,0,0,35.524.2,48.772-1.437l36.011-.852,36.013.852c13.249,1.633,48.772,1.437,48.772,1.437,26,1.681,34.613,19.363,37.1,34.938a68.431,68.431,0,0,1-2.339,30.321c-5.086,17.039,1.5,43,1.5,43l9.312-8.753V109.6A36.523,36.523,0,0,0,260.057,73.32" transform="translate(-3.483 -8.16)" fill="#3745ac" stroke="#717fcf" stroke-width="1"/>
          <path id="Path_7343" data-name="Path 7343" d="M260.057,73.32a2.3,2.3,0,0,0-1.168-.313H64.14a2.287,2.287,0,0,0-1.168.313A36.523,36.523,0,0,0,31.16,109.6v72.145l11.563-1.354a66.287,66.287,0,0,0-.749-32.9,68.435,68.435,0,0,1-2.34-30.322c2.487-15.568,11.095-33.257,37.1-34.938,0,0,35.524.2,48.772-1.437l36.011-.852,36.013.852c13.249,1.633,48.772,1.437,48.772,1.437,26,1.681,34.613,19.363,37.1,34.938a68.431,68.431,0,0,1-2.339,30.321c-5.086,17.039,1.5,43,1.5,43l9.312-8.753V109.6A36.523,36.523,0,0,0,260.057,73.32Z" transform="translate(-3.483 -8.16)" fill="#3745ac" stroke="#717fcf" stroke-miterlimit="10" stroke-width="1"/>
          <path id="Path_7344" data-name="Path 7344" d="M61.81,247.181s11.508-2.706,40.427-.267l2.709-4.53s-9.039-7.843-43.137,2.4Z" transform="translate(-6.909 -26.771)" fill="#3745ac" stroke="#717fcf" stroke-width="1"/>
          <path id="Path_7345" data-name="Path 7345" d="M54.956,218.308V377.016H.5V218.308a27.228,27.228,0,0,1,54.456-.01Z" transform="translate(-0.056 -21.357)" fill="#3745ac" stroke="#717fcf" stroke-width="1"/>
          <path id="Path_7346" data-name="Path 7346" d="M25.683,191.043a27.216,27.216,0,0,1,26.99,16.314c-17.107-11.838-29.346-9.66-37.306-4.521-7.421,4.791-11.646,13.28-11.822,22.134L.5,377V219.056c0-14.434,10.836-26.962,25.187-28.014" transform="translate(-0.056 -21.345)" fill="#3745ac" stroke="#717fcf" stroke-width="1"/>
          <path id="Path_7347" data-name="Path 7347" d="M300.725,247.585s-55.943-8.8-84.435-1.68l.883,8.767,83.508,5.534Z" transform="translate(-24.175 -27.175)" fill="#3745ac" stroke="#717fcf" stroke-width="1"/>
          <path id="Path_7348" data-name="Path 7348" d="M311.08,129.441,302.249,157.5l-8.165-14.024,8.5-19.931Z" transform="translate(-32.871 -13.809)" fill="#3745ac" stroke="#717fcf" stroke-width="1"/>
          <path id="Path_7349" data-name="Path 7349" d="M78.485,100.582,85.1,132.068l4.68-27.979L84.13,97.647Z" transform="translate(-8.773 -10.914)" fill="#3745ac" stroke="#717fcf" stroke-width="1"/>
          <path id="Path_7350" data-name="Path 7350" d="M58.382,247.935c33.289-8.032,117.424,17.712,173.648,1.332,18.694-5.448,29.569-2.28,37.865,0a227.784,227.784,0,0,0,35.983,6.4l-24.2,127.523H31.153V253.347s18.544-3.317,27.229-5.412" transform="translate(-3.482 -27.525)" fill="#3745ac" stroke="#717fcf" stroke-width="1"/>
          <path id="Path_7352" data-name="Path 7352" d="M54.956,218.308V377.016H.5V218.308a27.228,27.228,0,0,1,54.456-.01v.01" transform="translate(-0.056 -21.357)" fill="#3745ac" stroke="#717fcf" stroke-miterlimit="10" stroke-width="1"/>
          <path id="Path_7353" data-name="Path 7353" d="M195.133,34.131s16.388-7.843-.505-20.5c0,0-18.653-35.928-38.321,8.856,0,0-11.846,2.278-2.52,12.4,0,0-36.807,3.036-15.127,43.266L179,56.4Z" transform="translate(-14.734 0)" fill="#3745ac" stroke="#717fcf" stroke-width="1"/>
          <path id="Path_7354" data-name="Path 7354" d="M183.877,412.881l8.278,17.65a4.519,4.519,0,0,1-4.974,6.359L177.9,435a14.263,14.263,0,0,1-11.383-14.335l.214-8.793Z" transform="translate(-18.612 -46.036)" fill="#3745ac" stroke="#717fcf" stroke-width="1"/>
          <path id="Path_7355" data-name="Path 7355" d="M194.632,60.676c-2.209-.617-2.348-2.739-2.075-4.418a5.517,5.517,0,0,1,1.707-3.1c2.043-1.934,6.286-7.29,6.477-18.6a10.83,10.83,0,0,1-5.293-8.1S187.883,40.632,177.3,37.852c0,0-4.814-6.5-4.31,3.369,0,0,.1,3.558,1.8,4.84,1.681,1.264,3.009,14.123-.4,16.338l10.462,2.02s12.294-3.036,9.77-3.739" transform="translate(-19.331 -2.958)" fill="#3745ac" stroke="#717fcf" stroke-width="1"/>
          <path id="Path_7356" data-name="Path 7356" d="M144.645,128.357c-2.229-2.753-8.822-8.733-23.088-7.382,3.691-10.334,7.47-19.475,10.382-26.133a44.611,44.611,0,0,1,18.7-21.016c20.454-11.6,40.5-10.037,54.77-6.04a38.776,38.776,0,0,1,26.085,24.8l12.29,35.7c-12.858-9.489-24.574,2.068-24.574,2.068l6.8,22.287,3.4,21.951-71.6-2.154c.631-24.668-6.679-65.276-6.679-65.276-1.586,5.534-3.952,13.186-6.484,21.193" transform="translate(-13.587 -7.247)" fill="#3745ac" stroke="#717fcf" stroke-width="1"/>
          <path id="Path_7357" data-name="Path 7357" d="M195.083,64.9s-1.832-.184-1.737,2.507a56.828,56.828,0,0,1-1.372,10.06c-.559,2.149-3.339,2.9-5.152,1.622-2.592-1.824-4.659-3.387-8.064-10.78,0,0-.507-2.431-1.767-2.158a35.374,35.374,0,0,1,18.092-1.244" transform="translate(-19.783 -7.184)" fill="#3745ac" stroke="#717fcf" stroke-width="1"/>
          <path id="Path_7358" data-name="Path 7358" d="M147.742,104.359c2.985-2.875,7.589-2.168,7.8,1.975.444,8.674-1.226,23.463,4.562,32.411,4.021,6.218,7.283,27.309,17.182,16.028A94.271,94.271,0,0,1,190.809,143.9c7.412-4.373,24.022,4.309,27.227-3.7,2.211-5.534-4.885-33.114-4.885-33.114l7.625,26.774a188.1,188.1,0,0,1,10.4,44.954l-71.6-2.152L152.9,111.384l-6.484,21.191s-1.308-2.862-9.04-6.018c0,0,3.039-15.142,10.374-22.206" transform="translate(-15.355 -11.47)" fill="#3745ac" stroke="#717fcf" stroke-width="1"/>
          <path id="Path_7359" data-name="Path 7359" d="M61.782,359.424a.234.234,0,0,0,.234-.233V248.117a.233.233,0,1,0-.465,0h0V359.193a.234.234,0,0,0,.232.233" transform="translate(-6.88 -27.707)" fill="#3745ac" stroke="#717fcf" stroke-width="1"/>
          <path id="Path_7360" data-name="Path 7360" d="M287.016,25.4,183.982,41.1,81.888,17.272l4.934,145.492L181.5,176.669l95.742-12.747Z" transform="translate(-9.153 -1.931)" fill="#3745ac" stroke="#717fcf" stroke-width="1"/>
          <path id="Path_7361" data-name="Path 7361" d="M311.751,127.412l1.783-16.468s-3.9-8.616-13.4-4.365c0,0-1.354,26.125,11.621,20.832" transform="translate(-33.542 -11.781)" fill="#3745ac" stroke="#717fcf" stroke-width="1"/>
          <path id="Path_7362" data-name="Path 7362" d="M183.978,41.1,181.5,176.669,86.823,162.762,81.889,17.27Z" transform="translate(-9.153 -1.93)" fill="#3745ac" stroke="#717fcf" stroke-width="1"/>
          <path id="Path_7363" data-name="Path 7363" d="M78.484,98.575l4.043-16.061s6.641-6.711,14.078.593c0,0-7.8,24.964-18.127,15.468" transform="translate(-8.772 -8.908)" fill="#3745ac" stroke="#717fcf" stroke-width="1"/>
          <path id="Path_7364" data-name="Path 7364" d="M233,187.705c7.048,2.487,35.422,67.178-42.732,55.535,0,0,4.032,91.595-17.143,132.079l1.008,9.612-17.143-1.01v-9.11s-24.716-63.252-19.671-134.606c0,0-12.1,48.577-40.335,47.566l-5.547,9.11-12.1-9.11,4.538-11.636s-16.136-38.967,83.7-114.366c0,0,19.918,3.8,65.422,25.936" transform="translate(-8.868 -18.082)" fill="#3745ac" stroke="#717fcf" stroke-width="1"/>
          <path id="Path_7365" data-name="Path 7365" d="M92.2,284.846s13.614-5.82,30-40.987c0,0,21.818-38.46,51.373-57.942,0,0,6.869-4.3,24.515,11.891,0,0,33.105,22.01,41.384,7.34,5.329,19.049,5.685,48.794-48.444,40.737,0,0-4.866-26.313-20.457-34.411,0,0-21.393-1.776-32.487,31.378,0,0-12.1,48.578-40.337,47.566L92.2,299.526l-6.092-4.587Z" transform="translate(-9.624 -20.723)" fill="#3745ac" stroke="#717fcf" stroke-width="1"/>
          <path id="Path_7366" data-name="Path 7366" d="M178.615,389.7a22.737,22.737,0,0,0-1.471-10.836c31.035-141.748-3.416-163.944-3.416-163.944v-7.29l16,4.3,18.38,37.324c-2.309-.219-4.738-.51-7.29-.888,0,0,4.035,91.593-17.143,132.079l1.01,9.615Z" transform="translate(-19.418 -23.207)" fill="#3745ac" stroke="#717fcf" stroke-width="1"/>
          <path id="Path_7367" data-name="Path 7367" d="M157.671,350.377h.028a.137.137,0,0,0,.108-.159c-11.091-55.834-8.628-86.076-4.611-101.613,4.352-16.82,11.409-20.5,11.479-20.53a.14.14,0,0,0,.067-.185.134.134,0,0,0-.177-.067h-.008c-.074.036-7.219,3.737-11.608,20.648-2.576,9.91-3.716,22.359-3.4,37,.394,18.3,3.082,40.1,7.989,64.8a.14.14,0,0,0,.135.113" transform="translate(-16.71 -25.463)" fill="#3745ac" stroke="#717fcf" stroke-width="1"/>
          <path id="Path_7368" data-name="Path 7368" d="M83.143,288.933a.139.139,0,0,0,.122-.073l3.851-7.071a.169.169,0,0,0,.014-.089l-.348-2.761c-3.159-18.83,10.8-40.5,23.058-55.371a234.231,234.231,0,0,1,27.667-28.048.14.14,0,1,0-.155-.234l-.011.008-.012.01a234.921,234.921,0,0,0-27.7,28.087c-7.823,9.486-13.8,18.578-17.765,27.036C86.9,261.006,85.1,270.615,86.5,278.978l.344,2.719-3.829,7.034a.136.136,0,0,0,.044.185l.012.005a.13.13,0,0,0,.066.018" transform="translate(-9.277 -21.825)" fill="#3745ac" stroke="#717fcf" stroke-width="1"/>
          <path id="Path_7369" data-name="Path 7369" d="M88.918,312.739l-8.213,13.089a13.547,13.547,0,0,1-13.286,6.242l-6.515-.876a4.776,4.776,0,0,1-2.8-8.038l18.71-19.528Z" transform="translate(-6.346 -33.938)" fill="#3745ac" stroke="#717fcf" stroke-width="1"/>
          <path id="Path_7370" data-name="Path 7370" d="M22.114,117.721h.052a.5.5,0,0,0,.444-.551c-.042-.4-3.819-39.739,30.348-49.157a.5.5,0,0,0-.266-.965c-35,9.646-31.121,49.826-31.076,50.229a.5.5,0,0,0,.5.444" transform="translate(-2.399 -7.493)" fill="#3745ac" stroke="#717fcf" stroke-width="1"/>
          <path id="Path_7371" data-name="Path 7371" d="M311.582,359.423a.234.234,0,0,0,.234-.233V248.117a.233.233,0,0,0-.465,0V359.193a.234.234,0,0,0,.232.233" transform="translate(-34.801 -27.707)" fill="#3745ac" stroke="#717fcf" stroke-width="1"/>
          <path id="Path_7372" data-name="Path 7372" d="M366.323,212.858V375.914h-54.46V212.858c0-15.506,12.19-28.072,27.229-28.072s27.231,12.567,27.231,28.072" transform="translate(-34.858 -20.654)" fill="#3745ac" stroke="#717fcf" stroke-width="1"/>
          <path id="Path_7373" data-name="Path 7373" d="M322.37,190.666c19.3-13.057,43.266-1.371,45.122,21.422.029,18.575.227,143.57-.021,163.5-.335,1.392-1.442,1.688-2.12.932-1.635-18.248.123-146.074-.645-165.654-4.577-18.845-29.151-26.57-43.841-13.412-2.959,2.419-5.018,6-7.415,8.8-.523.4-.284-.409-.211-.743a37.615,37.615,0,0,1,4.018-8.682,40.311,40.311,0,0,1,5.118-6.168" transform="translate(-34.998 -20.702)" fill="#3745ac" stroke="#717fcf" stroke-width="1"/>
          <path id="Path_7374" data-name="Path 7374" d="M366.323,212.918v163.4h-54.46v-163.4c0-15.539,12.19-28.133,27.229-28.133s27.231,12.593,27.231,28.133" transform="translate(-34.858 -20.654)" fill="#3745ac" stroke="#717fcf" stroke-miterlimit="10" stroke-width="1"/>
          <path id="Path_7375" data-name="Path 7375" d="M243.975,386.955V312.41a27.84,27.84,0,0,1,27.762-27.857H418.889a27.84,27.84,0,0,1,27.762,27.857l-.007,74.421,1,.077v-74.5a28.842,28.842,0,0,0-28.754-28.854H271.736a28.844,28.844,0,0,0-28.756,28.857v74.522c.333,0,.666.012,1,.015" transform="translate(-27.159 -31.694)" fill="#3745ac" stroke="#717fcf" stroke-width="1"/>
          <path id="Path_7376" data-name="Path 7376" d="M419.327,284.114a28.222,28.222,0,0,1,25.25,15.683H246.927a28.222,28.222,0,0,1,25.25-15.683Z" transform="translate(-27.6 -31.756)" fill="#3745ac" stroke="#717fcf" stroke-width="1"/>
          <path id="Path_7377" data-name="Path 7377" d="M403.075,260.465H408.3a5.535,5.535,0,0,1,5.352,6.919l-1.528,5.991a8.341,8.341,0,0,1-10.987,5.774c-.02-.008-.036-.02-.056-.028a13.606,13.606,0,0,1-25.226-7.136v-11.52Zm5.744,14.3a6.292,6.292,0,0,0,.977-2.14l1.464-5.729a3.242,3.242,0,0,0-.449-2.688,3.066,3.066,0,0,0-2.508-1.292h-3.739a1.486,1.486,0,0,0-1.483,1.487v7.588a13.662,13.662,0,0,1-.616,4.066.846.846,0,0,0,.543,1.066.671.671,0,0,0,.118.029,5.873,5.873,0,0,0,5.7-2.385" transform="translate(-42.01 -29.113)" fill="#3745ac" stroke="#717fcf" stroke-width="1"/>
          <path id="Path_7378" data-name="Path 7378" d="M379.8,260.465v8.072a13.609,13.609,0,0,0,20.389,11.855,13.6,13.6,0,0,1-24.348-8.405V260.465Z" transform="translate(-42.009 -29.113)" fill="#3745ac" stroke="#717fcf" stroke-width="1"/>
          <path id="Path_7379" data-name="Path 7379" d="M364.157,289.838h48.161a1.934,1.934,0,0,0,1.931-1.936H362.225a1.934,1.934,0,0,0,1.93,1.937" transform="translate(-40.487 -32.18)" fill="#3745ac" stroke="#717fcf" stroke-width="1"/>
          <path id="Path_7380" data-name="Path 7380" d="M390.937,270.3a.1.1,0,0,0,.1-.1v-9.828a.1.1,0,0,0-.2-.023.076.076,0,0,0,0,.02V270.2a.1.1,0,0,0,.1.1h0" transform="translate(-43.685 -29.091)" fill="#3745ac" stroke="#717fcf" stroke-width="1"/>
          <path id="Path_7381" data-name="Path 7381" d="M389.3,269.641h2.747a.462.462,0,0,1,.461.428l.339,4.682a.464.464,0,0,1-.43.5h-3.455a.464.464,0,0,1-.462-.465v-.031l.339-4.682a.463.463,0,0,1,.462-.428m1.374,2.221a.614.614,0,1,0-.61-.617.613.613,0,0,0,.61.617h0" transform="translate(-43.424 -30.139)" fill="#3745ac" stroke="#717fcf" stroke-width="1"/>
          <path id="Path_7382" data-name="Path 7382" d="M393.5,252.872h0a.339.339,0,0,0,.337-.338v-7.956a.338.338,0,0,0-.674-.036.25.25,0,0,0,0,.036v7.956a.339.339,0,0,0,.338.338" transform="translate(-43.945 -27.297)" fill="#3745ac" stroke="#717fcf" stroke-width="1"/>
          <path id="Path_7383" data-name="Path 7383" d="M390.45,244.225h0a.339.339,0,0,0,.338-.338V235.93a.338.338,0,0,0-.674-.036.269.269,0,0,0,0,.036v7.956a.339.339,0,0,0,.338.338" transform="translate(-43.604 -26.331)" fill="#3745ac" stroke="#717fcf" stroke-width="1"/>
          <path id="Path_7384" data-name="Path 7384" d="M388.542,255.936h0a.339.339,0,0,0,.338-.338v-3.062a.338.338,0,0,0-.674-.036.268.268,0,0,0,0,.036V255.6a.339.339,0,0,0,.338.338" transform="translate(-43.391 -28.187)" fill="#3745ac" stroke="#717fcf" stroke-width="1"/>
        </g>
      </g>
      <g id="Group_2092" data-name="Group 2092">
        <g id="Group_2091" data-name="Group 2091" clip-path="url(#clip-path-3)">
          <path id="Path_7385" data-name="Path 7385" d="M233.455,83.975c0,7.383-5.489,14.237-12.261,15.31s-12.261-4.043-12.261-11.426,5.489-14.236,12.26-15.309,12.262,4.041,12.262,11.424Z" transform="translate(-23.353 -8.093)" fill="#3745ac" stroke="#717fcf" stroke-width="1"/>
          <line id="Line_1108" data-name="Line 1108" y2="0.277" transform="translate(198.757 83.573)" fill="none" stroke="#717fcf" stroke-linecap="round" stroke-linejoin="round" stroke-width="0.323"/>
          <line id="Line_1109" data-name="Line 1109" y2="0.277" transform="translate(198.757 85.157)" fill="none" stroke="#717fcf" stroke-linecap="round" stroke-linejoin="round" stroke-width="0.323"/>
          <path id="Path_7386" data-name="Path 7386" d="M223.935,89.839l-.07.012a2.272,2.272,0,0,1-2.606-2.429V85.49l5.283-.837v1.932A3.322,3.322,0,0,1,223.935,89.839Z" transform="translate(-24.731 -9.462)" fill="#3745ac" stroke="#717fcf" stroke-linecap="round" stroke-linejoin="round" stroke-width="0.323"/>
          <path id="Path_7387" data-name="Path 7387" d="M221.11,84.748v-.894a1.3,1.3,0,0,1-1.167-1.253,1.424,1.424,0,0,1,1.87-1.439,2.383,2.383,0,0,1,.637-2.23c1.741-1.847,5.094-.841,4,2.2a.723.723,0,0,1,1.029.205,1.115,1.115,0,0,1-1.083,1.613v.965" transform="translate(-24.584 -8.719)" fill="#3745ac" stroke="#717fcf" stroke-linecap="round" stroke-linejoin="round" stroke-width="0.323"/>
          <path id="Path_7388" data-name="Path 7388" d="M221.153,86s-.338-.56-.709-.13c-.352.408.123,1.784.709,1.049" transform="translate(-24.626 -9.58)" fill="#3745ac" stroke="#717fcf" stroke-linecap="round" stroke-linejoin="round" stroke-width="0.323"/>
          <path id="Path_7389" data-name="Path 7389" d="M227.2,85.041s.338-.667.709-.354c.352.3-.123,1.822-.709,1.273" transform="translate(-25.395 -9.456)" fill="#3745ac" stroke="#717fcf" stroke-linecap="round" stroke-linejoin="round" stroke-width="0.323"/>
          <line id="Line_1110" data-name="Line 1110" y2="1.133" transform="translate(198.055 80.299)" fill="none" stroke="#717fcf" stroke-linecap="round" stroke-linejoin="round" stroke-width="0.323"/>
          <path id="Path_7390" data-name="Path 7390" d="M225.482,90.008V91.14l.488-.077a2.154,2.154,0,0,1,1.673.405c.2.152.41.315.581.446a1,1,0,0,1,.365.8v2.524" transform="translate(-25.203 -10.06)" fill="#3745ac" stroke="#717fcf" stroke-linecap="round" stroke-linejoin="round" stroke-width="0.323"/>
          <path id="Path_7391" data-name="Path 7391" d="M225.171,91.282l-2,1.411a1.141,1.141,0,0,0-.473.913v2.664" transform="translate(-24.891 -10.203)" fill="#3745ac" stroke="#717fcf" stroke-linecap="round" stroke-linejoin="round" stroke-width="0.323"/>
          <path id="Path_7392" data-name="Path 7392" d="M223.185,92.315l-.824-.635-.826.131a3.109,3.109,0,0,0-1.081.394l-1.511.884a.6.6,0,0,1-.853-.2l-.634-1.132" transform="translate(-24.306 -10.247)" fill="#3745ac" stroke="#717fcf" stroke-linecap="round" stroke-linejoin="round" stroke-width="0.323"/>
          <path id="Path_7393" data-name="Path 7393" d="M222.046,81.562a1.653,1.653,0,0,0,.513.759" transform="translate(-24.819 -9.116)" fill="#3745ac" stroke="#717fcf" stroke-linecap="round" stroke-linejoin="round" stroke-width="0.323"/>
          <path id="Path_7394" data-name="Path 7394" d="M215.957,92.008l1.125,2.766a.838.838,0,0,0,.942.528l1.385-.24v1.69" transform="translate(-24.138 -10.284)" fill="#3745ac" stroke="#717fcf" stroke-linecap="round" stroke-linejoin="round" stroke-width="0.323"/>
          <path id="Path_7395" data-name="Path 7395" d="M219.9,89.765l-6.8,1.077a4.083,4.083,0,0,1,3.4-3.608A2.785,2.785,0,0,1,219.9,89.765Z" transform="translate(-23.819 -9.744)" fill="#3745ac" stroke="#717fcf" stroke-linecap="round" stroke-linejoin="round" stroke-width="0.323"/>
          <path id="Path_7396" data-name="Path 7396" d="M215.878,87.376s.124-1.048.934-1.177.877.875.877.875" transform="translate(-24.129 -9.634)" fill="#3745ac" stroke="#717fcf" stroke-linecap="round" stroke-linejoin="round" stroke-width="0.323"/>
          <line id="Line_1111" data-name="Line 1111" y1="0.679" x2="4.282" transform="translate(190.592 81.24)" fill="none" stroke="#717fcf" stroke-linecap="round" stroke-linejoin="round" stroke-width="0.323"/>
          <line id="Line_1112" data-name="Line 1112" y1="5.349" x2="33.767" transform="translate(215.901 62.061)" fill="none" stroke="#717fcf" stroke-miterlimit="10" stroke-width="0.381"/>
          <line id="Line_1113" data-name="Line 1113" y1="5.349" x2="33.767" transform="translate(214.265 67.87)" fill="none" stroke="#717fcf" stroke-miterlimit="10" stroke-width="0.381"/>
          <path id="Path_7397" data-name="Path 7397" d="M241.228,87.5l25.33-4.012Z" transform="translate(-26.963 -9.332)" fill="#3745ac" stroke="#717fcf" stroke-miterlimit="10" stroke-width="0.33"/>
          <path id="Path_7398" data-name="Path 7398" d="M291.8,108.586c0,7.383-5.487,14.238-12.258,15.313s-12.262-4.04-12.264-11.422,5.487-14.238,12.258-15.313h.005c6.769-1.071,12.258,4.041,12.259,11.423" transform="translate(-29.875 -10.844)" fill="#3745ac" stroke="#717fcf" stroke-width="1"/>
          <path id="Path_7399" data-name="Path 7399" d="M283.347,107.572a3.45,3.45,0,0,1,.147,1.016,4.16,4.16,0,0,1-2.156,3.605v.523a.622.622,0,0,0,.584.661c1.228.049,4.269.524,4.37,4.211l-11.912,1.887c0-3.544,3.087-5.082,4.3-5.564a.917.917,0,0,0,.556-.835v-.591a2.833,2.833,0,0,1-2.06-2.867,4.209,4.209,0,0,1,2.11-3.607" transform="translate(-30.668 -11.849)" fill="#3745ac" stroke="#717fcf" stroke-linecap="round" stroke-linejoin="round" stroke-width="0.323"/>
          <path id="Path_7400" data-name="Path 7400" d="M279.386,112.731l-1.79.283a1.576,1.576,0,0,1-1.808-1.685V108.4a5.955,5.955,0,0,1,4.675-5.838c2.582-.409,4.676,1.542,4.676,4.357v2.848a2.3,2.3,0,0,1-1.809,2.259l-1.833.29" transform="translate(-30.826 -11.457)" fill="#3745ac" stroke="#717fcf" stroke-linecap="round" stroke-linejoin="round" stroke-width="0.323"/>
          <path id="Path_7401" data-name="Path 7401" d="M279.908,106.01s.719,1.959,4.056,1.562" transform="translate(-31.286 -11.849)" fill="#3745ac" stroke="#717fcf" stroke-linecap="round" stroke-linejoin="round" stroke-width="0.323"/>
          <path id="Path_7402" data-name="Path 7402" d="M279.391,114.758s1.3,1,2.974-.471" transform="translate(-31.228 -12.774)" fill="#3745ac" stroke="#717fcf" stroke-linecap="round" stroke-linejoin="round" stroke-width="0.323"/>
          <line id="Line_1114" data-name="Line 1114" y2="1.935" transform="translate(252.296 101.656)" fill="none" stroke="#717fcf" stroke-linecap="round" stroke-linejoin="round" stroke-width="0.323"/>
          <path id="Path_7403" data-name="Path 7403" d="M284.674,117.334a.958.958,0,0,1-.753.94.656.656,0,0,1-.752-.7.958.958,0,0,1,.752-.94A.656.656,0,0,1,284.674,117.334Z" transform="translate(-31.651 -13.035)" fill="#3745ac" stroke="#717fcf" stroke-linecap="round" stroke-linejoin="round" stroke-width="0.323"/>
          <path id="Path_7404" data-name="Path 7404" d="M277.168,119.084v-.815a1.165,1.165,0,0,1,.914-1.141.8.8,0,0,1,.914.852v.815" transform="translate(-30.98 -13.091)" fill="#3745ac" stroke="#717fcf" stroke-linecap="round" stroke-linejoin="round" stroke-width="0.323"/>
          <line id="Line_1115" data-name="Line 1115" y1="1.552" transform="translate(247.102 102.485)" fill="none" stroke="#717fcf" stroke-linecap="round" stroke-linejoin="round" stroke-width="0.323"/>
          <line id="Line_1116" data-name="Line 1116" y1="5.349" x2="33.767" transform="translate(197.333 96.281)" fill="none" stroke="#717fcf" stroke-miterlimit="10" stroke-width="0.381"/>
          <line id="Line_1117" data-name="Line 1117" y1="5.349" x2="33.767" transform="translate(197.333 101.83)" fill="none" stroke="#717fcf" stroke-miterlimit="10" stroke-width="0.381"/>
          <path id="Path_7405" data-name="Path 7405" d="M231.663,124.229l25.33-4.012Z" transform="translate(-25.894 -13.437)" fill="#3745ac" stroke="#717fcf" stroke-miterlimit="10" stroke-width="0.33"/>
          <path id="Path_7406" data-name="Path 7406" d="M279.806,144.346c0,7.383-5.489,14.237-12.261,15.31s-12.261-4.043-12.261-11.426,5.489-14.236,12.26-15.309,12.262,4.041,12.262,11.424Z" transform="translate(-28.534 -14.841)" fill="#3745ac" stroke="#717fcf" stroke-width="1"/>
          <path id="Path_7407" data-name="Path 7407" d="M262.839,155.612v-1.547a5.729,5.729,0,0,1,4.5-5.616l2.532-.4c2.484-.393,4.5,1.483,4.5,4.192v1.547" transform="translate(-29.378 -16.542)" fill="#3745ac" stroke="#717fcf" stroke-linecap="round" stroke-linejoin="round" stroke-width="0.334"/>
          <line id="Line_1118" data-name="Line 1118" y1="2" transform="translate(235.762 136.706)" fill="none" stroke="#717fcf" stroke-linecap="round" stroke-linejoin="round" stroke-width="0.334"/>
          <line id="Line_1119" data-name="Line 1119" y1="2" transform="translate(242.857 135.582)" fill="none" stroke="#717fcf" stroke-linecap="round" stroke-linejoin="round" stroke-width="0.334"/>
          <path id="Path_7408" data-name="Path 7408" d="M272.549,141.577l-.532-.563c0-2.126-1.416-3.374-3.162-3.1h0a4.018,4.018,0,0,0-3.162,4.1l-.532.732c-.108.149-.022.346.14.32l7.106-1.125A.232.232,0,0,0,272.549,141.577Z" transform="translate(-29.633 -15.411)" fill="#3745ac" stroke="#717fcf" stroke-linecap="round" stroke-linejoin="round" stroke-width="0.334"/>
          <line id="Line_1120" data-name="Line 1120" y2="2.002" transform="translate(239.225 122.504)" fill="none" stroke="#717fcf" stroke-linecap="round" stroke-linejoin="round" stroke-width="0.334"/>
          <line id="Line_1121" data-name="Line 1121" y2="1.186" transform="translate(237.963 122.981)" fill="none" stroke="#717fcf" stroke-linecap="round" stroke-linejoin="round" stroke-width="0.334"/>
          <line id="Line_1122" data-name="Line 1122" y2="1.202" transform="translate(240.449 122.571)" fill="none" stroke="#717fcf" stroke-linecap="round" stroke-linejoin="round" stroke-width="0.334"/>
          <path id="Path_7409" data-name="Path 7409" d="M271.9,142.56a3.534,3.534,0,0,1,.044.556,3.813,3.813,0,0,1-2.992,3.736,2.607,2.607,0,0,1-2.99-2.789,3.8,3.8,0,0,1,.044-.569" transform="translate(-29.727 -15.934)" fill="#3745ac" stroke="#717fcf" stroke-linecap="round" stroke-linejoin="round" stroke-width="0.334"/>
          <path id="Path_7410" data-name="Path 7410" d="M267.718,148.481l1.43,2.5,1.443-2.959" transform="translate(-29.924 -16.545)" fill="#3745ac" stroke="#717fcf" stroke-linecap="round" stroke-linejoin="round" stroke-width="0.334"/>
          <path id="Path_7411" data-name="Path 7411" d="M268.336,155.412l-1.821.289v-2l1.821-.288Z" transform="translate(-29.789 -17.147)" fill="#3745ac" stroke="#717fcf" stroke-linecap="round" stroke-linejoin="round" stroke-width="0.334"/>
          <line id="Line_1123" data-name="Line 1123" y1="5.349" x2="33.767" transform="translate(188.124 129.205)" fill="none" stroke="#717fcf" stroke-miterlimit="10" stroke-width="0.381"/>
          <line id="Line_1124" data-name="Line 1124" y1="5.349" x2="33.767" transform="translate(188.124 134.755)" fill="none" stroke="#717fcf" stroke-miterlimit="10" stroke-width="0.381"/>
          <path id="Path_7412" data-name="Path 7412" d="M221.3,161.3l25.33-4.012Z" transform="translate(-24.735 -17.58)" fill="#3745ac" stroke="#717fcf" stroke-miterlimit="10" stroke-width="0.33"/>
          <path id="Path_7413" data-name="Path 7413" d="M121.937,96.509c0,6.443-4.579,10.807-10.227,9.747s-10.227-7.143-10.227-13.586,4.579-10.806,10.226-9.747,10.228,7.142,10.228,13.585h0" transform="translate(-11.343 -9.251)" fill="#3745ac" stroke="#717fcf" stroke-miterlimit="10" stroke-width="0.381"/>
          <line id="Line_1125" data-name="Line 1125" y2="0.242" transform="translate(101.131 90.625)" fill="none" stroke="#717fcf" stroke-miterlimit="10" stroke-width="0.381"/>
          <line id="Line_1126" data-name="Line 1126" y2="0.242" transform="translate(101.131 92.008)" fill="none" stroke="#717fcf" stroke-miterlimit="10" stroke-width="0.381"/>
          <path id="Path_7414" data-name="Path 7414" d="M114,98.461l-.059-.011a2.951,2.951,0,0,1-2.173-2.888V93.876l4.406.828v1.685A1.886,1.886,0,0,1,114,98.461Z" transform="translate(-12.492 -10.493)" fill="#3745ac" stroke="#717fcf" stroke-miterlimit="10" stroke-width="0.381"/>
          <path id="Path_7415" data-name="Path 7415" d="M111.64,93.246v-.78a1.747,1.747,0,0,1-.974-1.438.9.9,0,0,1,1.56-.7,1.655,1.655,0,0,1,.531-1.759c1.452-1.1,4.248.768,3.335,3.1a.776.776,0,0,1,.859.482c.287.536.02,1.424-.9,1.088v.842" transform="translate(-12.37 -9.863)" fill="#3745ac" stroke="#717fcf" stroke-miterlimit="10" stroke-width="0.381"/>
          <path id="Path_7416" data-name="Path 7416" d="M111.675,94.213s-.282-.588-.592-.322c-.293.251.1,1.593.592,1.124" transform="translate(-12.405 -10.487)" fill="#3745ac" stroke="#717fcf" stroke-miterlimit="10" stroke-width="0.381"/>
          <path id="Path_7417" data-name="Path 7417" d="M116.723,95.162s.282-.482.592-.1c.293.362-.1,1.554-.592.9" transform="translate(-13.047 -10.609)" fill="#3745ac" stroke="#717fcf" stroke-miterlimit="10" stroke-width="0.381"/>
          <line id="Line_1127" data-name="Line 1127" y2="0.989" transform="translate(100.545 87.561)" fill="none" stroke="#717fcf" stroke-miterlimit="10" stroke-width="0.381"/>
          <path id="Path_7418" data-name="Path 7418" d="M115.286,98.973v.988l.407.076a2.482,2.482,0,0,1,1.395.846c.168.193.343.4.485.561a1.262,1.262,0,0,1,.3.81v2.2" transform="translate(-12.886 -11.063)" fill="#3745ac" stroke="#717fcf" stroke-miterlimit="10" stroke-width="0.381"/>
          <path id="Path_7419" data-name="Path 7419" d="M115.026,100.084l-1.669.641a.672.672,0,0,0-.4.657v2.325" transform="translate(-12.626 -11.187)" fill="#3745ac" stroke="#717fcf" stroke-miterlimit="10" stroke-width="0.381"/>
          <path id="Path_7420" data-name="Path 7420" d="M113.371,100.317l-.687-.8-.689-.13a2.051,2.051,0,0,0-.9.026l-1.259.325a.654.654,0,0,1-.712-.424l-.528-1.174" transform="translate(-12.138 -10.97)" fill="#3745ac" stroke="#717fcf" stroke-miterlimit="10" stroke-width="0.381"/>
          <path id="Path_7421" data-name="Path 7421" d="M112.42,90.589a2.274,2.274,0,0,0,.427.813" transform="translate(-12.566 -10.125)" fill="#3745ac" stroke="#717fcf" stroke-miterlimit="10" stroke-width="0.381"/>
          <path id="Path_7422" data-name="Path 7422" d="M107.341,97.91l.938,2.746a1.082,1.082,0,0,0,.786.738l1.155.2v1.475" transform="translate(-11.998 -10.944)" fill="#3745ac" stroke="#717fcf" stroke-miterlimit="10" stroke-width="0.381"/>
          <path id="Path_7423" data-name="Path 7423" d="M110.631,97.238l-5.673-1.064a2.305,2.305,0,0,1,2.836-2.147A3.631,3.631,0,0,1,110.631,97.238Z" transform="translate(-11.732 -10.503)" fill="#3745ac" stroke="#717fcf" stroke-miterlimit="10" stroke-width="0.381"/>
          <path id="Path_7424" data-name="Path 7424" d="M107.276,93.879s.1-.878.779-.751.731,1.022.731,1.022" transform="translate(-11.991 -10.408)" fill="#3745ac" stroke="#717fcf" stroke-miterlimit="10" stroke-width="0.381"/>
          <line id="Line_1128" data-name="Line 1128" x2="3.572" y2="0.671" transform="translate(94.32 86.774)" fill="none" stroke="#717fcf" stroke-miterlimit="10" stroke-width="0.381"/>
          <line id="Line_1129" data-name="Line 1129" x2="28.164" y2="5.287" transform="translate(115.431 81.574)" fill="none" stroke="#717fcf" stroke-miterlimit="10" stroke-width="0.381"/>
          <line id="Line_1130" data-name="Line 1130" x2="28.164" y2="5.287" transform="translate(114.066 86.161)" fill="none" stroke="#717fcf" stroke-miterlimit="10" stroke-width="0.381"/>
          <path id="Path_7425" data-name="Path 7425" d="M128.42,101.866l21.127,3.966Z" transform="translate(-14.354 -11.386)" fill="#3745ac" stroke="#717fcf" stroke-miterlimit="10" stroke-width="0.381"/>
          <path id="Path_7426" data-name="Path 7426" d="M170.605,135.19c0,6.443-4.576,10.809-10.224,9.75s-10.228-7.14-10.23-13.584,4.576-10.809,10.224-9.75h0c5.646,1.061,10.224,7.141,10.225,13.583" transform="translate(-16.783 -13.575)" fill="#3745ac" stroke="#717fcf" stroke-miterlimit="10" stroke-width="0.381"/>
          <path id="Path_7427" data-name="Path 7427" d="M163.551,131.543a3.616,3.616,0,0,1,.123.93,2.39,2.39,0,0,1-1.8,2.511v.457a.825.825,0,0,0,.487.75,5.444,5.444,0,0,1,3.645,4.963l-9.936-1.865a3.444,3.444,0,0,1,3.588-3.587.521.521,0,0,0,.464-.566v-.515a3.764,3.764,0,0,1-1.718-3.109,2.427,2.427,0,0,1,1.76-2.526" transform="translate(-17.445 -14.417)" fill="#3745ac" stroke="#717fcf" stroke-miterlimit="10" stroke-width="0.381"/>
          <path id="Path_7428" data-name="Path 7428" d="M160.247,134.867l-1.493-.281a2.046,2.046,0,0,1-1.508-2v-2.56c0-2.457,1.745-4.121,3.9-3.716a5.29,5.29,0,0,1,3.9,5.18v2.485a1.307,1.307,0,0,1-1.508,1.437l-1.53-.287" transform="translate(-17.576 -14.111)" fill="#3745ac" stroke="#717fcf" stroke-miterlimit="10" stroke-width="0.381"/>
          <path id="Path_7429" data-name="Path 7429" d="M160.682,128.984a4.363,4.363,0,0,0,3.383,2.559" transform="translate(-17.96 -14.417)" fill="#3745ac" stroke="#717fcf" stroke-miterlimit="10" stroke-width="0.381"/>
          <path id="Path_7430" data-name="Path 7430" d="M160.251,136.517a2.032,2.032,0,0,0,2.481.465" transform="translate(-17.912 -15.259)" fill="#3745ac" stroke="#717fcf" stroke-miterlimit="10" stroke-width="0.381"/>
          <line id="Line_1131" data-name="Line 1131" y2="1.689" transform="translate(145.787 122.191)" fill="none" stroke="#717fcf" stroke-miterlimit="10" stroke-width="0.381"/>
          <path id="Path_7431" data-name="Path 7431" d="M164.657,140.3a.545.545,0,0,1-.628.6.853.853,0,0,1-.628-.834.545.545,0,0,1,.628-.6A.851.851,0,0,1,164.657,140.3Z" transform="translate(-18.264 -15.587)" fill="#3745ac" stroke="#717fcf" stroke-miterlimit="10" stroke-width="0.381"/>
          <path id="Path_7432" data-name="Path 7432" d="M158.4,139.619v-.711a.661.661,0,0,1,.762-.727,1.035,1.035,0,0,1,.763,1.013v.711" transform="translate(-17.705 -15.444)" fill="#3745ac" stroke="#717fcf" stroke-miterlimit="10" stroke-width="0.381"/>
          <line id="Line_1132" data-name="Line 1132" y1="1.354" transform="translate(141.455 121.384)" fill="none" stroke="#717fcf" stroke-miterlimit="10" stroke-width="0.381"/>
          <line id="Line_1133" data-name="Line 1133" x2="28.164" y2="5.287" transform="translate(99.943 105.964)" fill="none" stroke="#717fcf" stroke-miterlimit="10" stroke-width="0.381"/>
          <line id="Line_1134" data-name="Line 1134" x2="28.164" y2="5.287" transform="translate(99.943 110.807)" fill="none" stroke="#717fcf" stroke-miterlimit="10" stroke-width="0.381"/>
          <path id="Path_7433" data-name="Path 7433" d="M120.442,131.1l21.127,3.966Z" transform="translate(-13.462 -14.654)" fill="#3745ac" stroke="#717fcf" stroke-miterlimit="10" stroke-width="0.381"/>
          <path id="Path_7434" data-name="Path 7434" d="M160.6,162.86c0,6.444-4.579,10.808-10.227,9.747s-10.227-7.143-10.227-13.587,4.579-10.805,10.227-9.747S160.6,156.417,160.6,162.86h0" transform="translate(-15.664 -16.667)" fill="#3745ac" stroke="#717fcf" stroke-miterlimit="10" stroke-width="0.381"/>
          <path id="Path_7435" data-name="Path 7435" d="M146.445,167.45V166.1c0-2.364,1.68-3.965,3.752-3.576l2.112.4a5.09,5.09,0,0,1,3.752,4.984v1.35" transform="translate(-16.369 -18.159)" fill="#3745ac" stroke="#717fcf" stroke-miterlimit="10" stroke-width="0.381"/>
          <line id="Line_1135" data-name="Line 1135" y1="1.746" transform="translate(131.996 147.904)" fill="none" stroke="#717fcf" stroke-miterlimit="10" stroke-width="0.381"/>
          <line id="Line_1136" data-name="Line 1136" y1="1.746" transform="translate(137.914 149.015)" fill="none" stroke="#717fcf" stroke-miterlimit="10" stroke-width="0.381"/>
          <path id="Path_7436" data-name="Path 7436" d="M154.545,157.991l-.443-.648a3.575,3.575,0,0,0-2.638-3.636h0c-1.457-.273-2.638.791-2.638,2.646l-.443.482a.208.208,0,0,0,.117.321l5.926,1.111C154.563,158.294,154.635,158.124,154.545,157.991Z" transform="translate(-16.581 -17.176)" fill="#3745ac" stroke="#717fcf" stroke-miterlimit="10" stroke-width="0.381"/>
          <line id="Line_1137" data-name="Line 1137" y2="1.747" transform="translate(134.884 136.532)" fill="none" stroke="#717fcf" stroke-miterlimit="10" stroke-width="0.381"/>
          <line id="Line_1138" data-name="Line 1138" y2="1.035" transform="translate(133.832 136.576)" fill="none" stroke="#717fcf" stroke-miterlimit="10" stroke-width="0.381"/>
          <line id="Line_1139" data-name="Line 1139" y2="1.049" transform="translate(135.906 136.952)" fill="none" stroke="#717fcf" stroke-miterlimit="10" stroke-width="0.381"/>
          <path id="Path_7437" data-name="Path 7437" d="M154,158.624a3.457,3.457,0,0,1,.036.5,2.163,2.163,0,0,1-2.5,2.378,3.383,3.383,0,0,1-2.493-3.315,3.28,3.28,0,0,1,.036-.483" transform="translate(-16.66 -17.627)" fill="#3745ac" stroke="#717fcf" stroke-miterlimit="10" stroke-width="0.381"/>
          <path id="Path_7438" data-name="Path 7438" d="M150.515,162.505l1.193,2.607,1.2-2.157" transform="translate(-16.824 -18.164)" fill="#3745ac" stroke="#717fcf" stroke-miterlimit="10" stroke-width="0.381"/>
          <path id="Path_7439" data-name="Path 7439" d="M151.03,168.718l-1.519-.285v-1.746l1.519.285Z" transform="translate(-16.711 -18.631)" fill="#3745ac" stroke="#717fcf" stroke-miterlimit="10" stroke-width="0.381"/>
          <line id="Line_1140" data-name="Line 1140" x2="28.164" y2="5.287" transform="translate(92.261 131.983)" fill="none" stroke="#717fcf" stroke-miterlimit="10" stroke-width="0.381"/>
          <line id="Line_1141" data-name="Line 1141" x2="28.164" y2="5.287" transform="translate(92.261 136.826)" fill="none" stroke="#717fcf" stroke-miterlimit="10" stroke-width="0.381"/>
          <path id="Path_7440" data-name="Path 7440" d="M111.794,160.394l21.127,3.966Z" transform="translate(-12.496 -17.928)" fill="#3745ac" stroke="#717fcf" stroke-miterlimit="10" stroke-width="0.381"/>
          <path id="Path_7441" data-name="Path 7441" d="M168.57,67.388l-4.354,2.925a7.731,7.731,0,0,0-2.186-1.052v0l-.513-.135v.005a6.778,6.778,0,0,0-.863-.135l-.007-.009-.926-1.106-1.231-1.472-.316-.378-.616-.735h0l-.184-.219-.741-.886-.765-.914-.195.085-1.259.846,4.2,5.023a2,2,0,0,0-1.42,1.934l0,.174-.831-.218v2.846l-.3.2-.562-.147a17.464,17.464,0,0,1-1.111-4.421l.11.029V68.519l-.273-.071a142.64,142.64,0,0,1-.852-14.551l.14-.258.144-.3-.2-.056a.755.755,0,0,0-.2-.242v-.211a1.041,1.041,0,0,0-.457-.766V50.136a.411.411,0,0,0-.092-.243v-.106l-.515-.135v.106a.24.24,0,0,0-.092.2v1.931a.53.53,0,0,0-.457.527v.211a.358.358,0,0,0-.2.133l-.222-.058.306.719a131.012,131.012,0,0,1-.853,14.1l-.274-.072v1.108l.113.029a11.641,11.641,0,0,1-1.112,3.839l-.711-.186v1.776l-1.9,3.072a.571.571,0,0,0-.632.584v.242l3.493.914V78.58a1.02,1.02,0,0,0-.346-.719l-.017-.015a1.134,1.134,0,0,0-.1-.081l-.023-.018-.016-.011,0,0a2.494,2.494,0,0,1,3.177-1.661l.136.036a4.78,4.78,0,0,1,3.308,3.358.56.56,0,0,0-.512.581v.241l1.1.29h0l4.142,1.085,6.695,1.752V81.869l.078.02V81.43l.254.067.179.213,1.429-.959-1.953-2.335V73.948l-.831-.218,0-.173a3,3,0,0,0-.537-1.645l.319-.215.616-.414.616-.415.308-.206.624-.421h0l.309-.21.6-.406.4-.269L170,69.1Zm-17.24,5.537c.09-.287.22-.71.322-1.071.131-.465.292-1.291.362-1.666l.87.228c.071.411.232,1.323.362,1.855.1.41.231.9.322,1.24Z" transform="translate(-16.336 -5.55)" fill="#3745ac" stroke="#717fcf" stroke-width="1"/>
          <path id="Path_7442" data-name="Path 7442" d="M121.871,46.9V45.829l.206.054V45.11a.573.573,0,0,0-.113-.342l-1.03-2.68V40.257l.1-.187.027.007-.016-.026.222-.4-.56-.146a21.313,21.313,0,0,1-1.555-5.023.355.355,0,0,0,.19-.343.722.722,0,0,0-.527-.617.386.386,0,0,0-.531.349.634.634,0,0,0,.193.438,13.279,13.279,0,0,1-1.555,4.2l-.561-.147.223.521-.014.015.023.006.107.249v1.821l-1.034,2.146a.356.356,0,0,0-.11.274v.779l.206.053V45.3l-.255.212-.284-.075v5.61l.26.068.2.312V68.6l.077.02v.432l6.107,1.6v-.431l.078.02V53.068l.2-.205.26.068V47.32l-.283-.075Z" transform="translate(-12.879 -3.745)" fill="#3745ac" stroke="#717fcf" stroke-width="1"/>
          <path id="Path_7443" data-name="Path 7443" d="M111.979,42.625l.126.041.046-.679-.172-.055v-.028l-.439-.115-1.311-.419-3.807-1.221-.046.678.227.074-.166,2.453-.846-.269-.029.442,0,.232-.162,2.38-.01,0-.028.441-.007.23-.161,2.382-.009,0-.028.44-.008.226-.162,2.383-.006,0-.029.441-.01.225-.161,2.387-.005,0-.03.439-.011.237-.161,2.378,0,0-.028.437-.011.208-.163,2.4h0l-.041.639-.339,5.01,3.162,1.012v.281l5.226,1.369.258.068V45.049l-.648-.17Z" transform="translate(-11.622 -4.488)" fill="#3745ac" stroke="#717fcf" stroke-width="1"/>
          <path id="Path_7444" data-name="Path 7444" d="M142.2,66.057l-.133-1.047-.34-.089-.133-1.047-.234-.061V53.458l-.293-.548v-.959l-.3-1.37-.429-.112-1.082-10.287-.514-.134-1.082,9.72-.429-.112-.3,1.212v.958l-.293.4v6.369l-1.784-3.178-1.784,2.244V51.287l-.293-.548V49.78l-.3-1.37-.428-.112-1.081-10.287-.514-.135L129.366,47.6l-.427-.113-.3,1.213v.958l-.293.4V60.407l-.234-.061-.133.977-.34-.089-.133.977-.34-.089-.239,1.753v8.317l15.85,4.151V68.025l-.238-1.879Z" transform="translate(-14.187 -4.233)" fill="#3745ac" stroke="#717fcf" stroke-width="1"/>
        </g>
      </g>
    </g>
  </g>
</svg>
