<svg xmlns="http://www.w3.org/2000/svg" width="279.885" height="51.104" viewBox="0 0 279.885 51.104">
  <g id="Group_3400" data-name="Group 3400" transform="translate(-114.569 -118.848)">
    <g id="Component_3_23" data-name="Component 3 – 23" transform="translate(116.069 120.348)">
      <path id="Path_6821" data-name="Path 6821" d="M230.853,17.422a9.036,9.036,0,0,0-9.2,8.865c0,.163,0,.326,0,.49a9.012,9.012,0,0,0,8.69,9.324c.169.006.339.007.507,0a8.883,8.883,0,0,0,8.987-8.2V26.067h-9.855v1.945h7.3a6.176,6.176,0,0,1-6.438,5.939c-3.862,0-6.753-2.784-6.753-7.174,0-4.415,2.89-7.2,6.753-7.2a5.842,5.842,0,0,1,5.569,3.364h2.864a8.661,8.661,0,0,0-8.432-5.518m12.141.21V35.948h8.8V34h-6.411V17.632Zm28.852,9.144a9.2,9.2,0,0,0-18.395-.257c0,.085,0,.172,0,.257a9.2,9.2,0,0,0,18.395.257c0-.085,0-.172,0-.257m-15.951,0c0-4.491,2.89-7.275,6.753-7.275s6.753,2.784,6.753,7.275c0,4.468-2.89,7.275-6.753,7.275s-6.753-2.808-6.753-7.275M285.408,30.8c0,2-1.419,3.18-3.784,3.18h-4.23V27.51h4.152c2.335,0,3.862,1.264,3.862,3.287m-.473-8.225c0,1.866-1.288,2.969-3.521,2.969H277.39V19.6h3.968c2.343,0,3.574,1.157,3.574,2.969Zm2.864,8.462a4.571,4.571,0,0,0-3.626-4.52,4.286,4.286,0,0,0,3.206-4.23c0-2.549-1.945-4.651-5.808-4.651H275V35.948h6.832c3.784,0,5.965-2.155,5.965-4.914Zm15.609,4.914h2.523l-6.6-18.211h-2.757l-6.622,18.21h2.523l1.471-4.073h7.989Zm-2.156-6.018h-6.623l3.311-9.251Zm7.568-12.3V35.948h8.8V34H311.21V17.632Z" transform="translate(-39.237 -3.32)" fill="#e9a749"/>
      <path id="Path_6822" data-name="Path 6822" d="M14.387-24.885v12.013a6.8,6.8,0,0,1-1.748,5.06,6.687,6.687,0,0,1-4.9,1.722A7.578,7.578,0,0,1,2.348-7.956a7.086,7.086,0,0,1-2-5.441H6.107a2.6,2.6,0,0,0,.368,1.59,1.211,1.211,0,0,0,1,.46,1.009,1.009,0,0,0,.815-.342,1.855,1.855,0,0,0,.289-1.183V-24.885ZM25.979-6.09a9.665,9.665,0,0,1-4.823-1.235,9.247,9.247,0,0,1-3.483-3.417,9.485,9.485,0,0,1-1.288-4.916,9.485,9.485,0,0,1,1.288-4.916,9.149,9.149,0,0,1,3.483-3.4A9.747,9.747,0,0,1,25.979-25.2a9.673,9.673,0,0,1,4.81,1.222,9.08,9.08,0,0,1,3.457,3.4,9.561,9.561,0,0,1,1.275,4.916,9.561,9.561,0,0,1-1.275,4.916,9.15,9.15,0,0,1-3.47,3.417A9.614,9.614,0,0,1,25.979-6.09Zm0-5.441a3.32,3.32,0,0,0,2.681-1.117,4.5,4.5,0,0,0,.946-3.01,4.547,4.547,0,0,0-.946-3.036,3.32,3.32,0,0,0-2.681-1.117,3.352,3.352,0,0,0-2.707,1.117,4.547,4.547,0,0,0-.946,3.036,4.5,4.5,0,0,0,.946,3.01A3.352,3.352,0,0,0,25.979-11.531Zm24.1-4.285A4.437,4.437,0,0,1,52.7-14.2a4.528,4.528,0,0,1,.933,2.826A4.6,4.6,0,0,1,52.015-7.6a7.14,7.14,0,0,1-4.639,1.327H37.624V-24.885h9.489a7.238,7.238,0,0,1,4.469,1.235,4.241,4.241,0,0,1,1.63,3.6,4.389,4.389,0,0,1-.854,2.747A4.055,4.055,0,0,1,50.083-15.816ZM43.459-17.63H45.72a1.811,1.811,0,0,0,1.17-.315,1.19,1.19,0,0,0,.381-.973,1.265,1.265,0,0,0-.381-1.012,1.759,1.759,0,0,0-1.17-.329H43.459Zm2.655,6.677a1.868,1.868,0,0,0,1.17-.3,1.184,1.184,0,0,0,.381-.986q0-1.341-1.551-1.341H43.459v2.629Zm20.74,4.679-5.415-8.07v8.07H55.6V-24.885h5.836v7.833l5.336-7.833h6.6l-6.414,8.911,6.834,9.7ZM81.285-10.69H86.91v4.416H75.449V-24.885h5.836Zm13.3-14.194V-6.274H88.75V-24.885ZM108.642-6.274l-5.415-8.07v8.07H97.391V-24.885h5.836v7.833l5.336-7.833h6.6l-6.414,8.911,6.834,9.7Z" transform="translate(61.981 38.558)" fill="#3745ac"/>
      <g id="Group_2349" data-name="Group 2349" transform="translate(-1.441 -1.441)">
        <g id="Group_2350" data-name="Group 2350">
          <path id="Path_7715" data-name="Path 7715" d="M28.207,13.821h0A42.252,42.252,0,0,1,29.56,24.6H40.978A23.6,23.6,0,0,0,17.38,1C22.1,1,26.185,6.212,28.207,13.821Z" transform="translate(7.659 0.441)" fill="none" stroke="#e9a749" stroke-linecap="round" stroke-linejoin="round" stroke-width="3"/>
          <path id="Path_7716" data-name="Path 7716" d="M37.214,20.11a22.433,22.433,0,0,0,.176-2.73H25.971" transform="translate(11.248 7.659)" fill="none" stroke="#e9a749" stroke-linecap="round" stroke-linejoin="round" stroke-width="3"/>
          <path id="Path_7717" data-name="Path 7717" d="M13.773,13.821h0C15.794,6.212,19.878,1,24.6,1A23.6,23.6,0,0,0,1,24.6H12.42A42.188,42.188,0,0,1,13.773,13.821Z" transform="translate(0.441 0.441)" fill="none" stroke="#e9a749" stroke-linecap="round" stroke-linejoin="round" stroke-width="3"/>
          <path id="Path_7718" data-name="Path 7718" d="M12.515,20.2c-.061-.925-.1-1.866-.1-2.824H1a23.468,23.468,0,0,0,1.589,8.5" transform="translate(0.441 7.659)" fill="none" stroke="#e9a749" stroke-linecap="round" stroke-linejoin="round" stroke-width="3"/>
          <path id="Path_7719" data-name="Path 7719" d="M29.129,23.579a44.019,44.019,0,0,0,.448-6.2H17.341v4.187" transform="translate(7.642 7.659)" fill="none" stroke="#e9a749" stroke-linecap="round" stroke-linejoin="round" stroke-width="3"/>
          <path id="Path_7720" data-name="Path 7720" d="M29.577,20.677A42.252,42.252,0,0,0,28.224,9.9H17.341V20.677Z" transform="translate(7.642 4.362)" fill="none" stroke="#e9a749" stroke-linecap="round" stroke-linejoin="round" stroke-width="3"/>
          <path id="Path_7721" data-name="Path 7721" d="M21.049,9.9H10.28A42.186,42.186,0,0,0,8.926,20.677H21.049Z" transform="translate(3.934 4.362)" fill="none" stroke="#e9a749" stroke-linecap="round" stroke-linejoin="round" stroke-width="3"/>
          <path id="Path_7723" data-name="Path 7723" d="M20.634,13.821V1.056S22.132,11.91,20.634,13.821Z" transform="translate(4.348 0.441)" fill="none" stroke="#e9a749" stroke-linecap="round" stroke-linejoin="round" stroke-width="3"/>
          <path id="Path_7724" data-name="Path 7724" d="M23.2,39.6c9.242,0,17.271-5.611,21.348-13.859.441-1.642-1.869-4.531-4.12-2.428L35.96,27.933c-1.939,1.576-4.3,4.061-6.721,4.061h-.67c1.331,0,.438-5.153-2.668-6.052l-8.618-2.26c-8.591-2.02-13.261,5.686-13.261,5.686A23.568,23.568,0,0,0,23.2,39.6Z" transform="translate(1.772 9.947)" fill="none" stroke="#3745ac" stroke-linecap="round" stroke-linejoin="round" stroke-width="3"/>
        </g>
      </g>
    </g>
  </g>
</svg>
