<svg id="Group_2349" data-name="Group 2349" xmlns="http://www.w3.org/2000/svg" width="41.167" height="41.911" viewBox="0 0 41.167 41.911">
  <g id="Group_2350" data-name="Group 2350" transform="translate(0 0)">
    <path id="Path_7715" data-name="Path 7715" d="M36.463,21.314H27.1a1.23,1.23,0,0,1-1.23-1.23A33.235,33.235,0,0,0,24.8,11.56v0c-1.55-5.83-4.568-9.6-7.689-9.6a1.23,1.23,0,0,1,0-2.46A20.567,20.567,0,0,1,37.694,20.083,1.23,1.23,0,0,1,36.463,21.314Zm-8.154-2.46h6.883A17.952,17.952,0,0,0,33.81,13.03q-.118-.28-.246-.555H27.548A35.9,35.9,0,0,1,28.31,18.853Zm-1.39-8.839h5.264a18.234,18.234,0,0,0-8.019-6.63q-.307-.13-.617-.248A20.967,20.967,0,0,1,26.92,10.014Z" transform="translate(3.473 0.5)" fill="#e9a749"/>
    <path id="Path_7716" data-name="Path 7716" d="M34.923,20.579A1.231,1.231,0,0,1,33.7,19.2c.036-.295.065-.581.086-.859H25.7a1.23,1.23,0,0,1,0-2.46h9.365a1.23,1.23,0,0,1,1.23,1.23,19.5,19.5,0,0,1-.153,2.388A1.23,1.23,0,0,1,34.923,20.579Z" transform="translate(4.871 3.473)" fill="#e9a749"/>
    <path id="Path_7717" data-name="Path 7717" d="M10.1,21.314H.731A1.23,1.23,0,0,1-.5,20.083,20.566,20.566,0,0,1,20.083-.5a1.23,1.23,0,1,1,0,2.46c-3.121,0-6.139,3.767-7.688,9.6v0a33.182,33.182,0,0,0-1.068,8.523A1.23,1.23,0,0,1,10.1,21.314ZM2,18.853H8.885a35.857,35.857,0,0,1,.761-6.379H3.63q-.127.275-.246.555A17.955,17.955,0,0,0,2,18.853Zm3.009-8.839h5.264a20.967,20.967,0,0,1,3.372-6.878q-.311.118-.618.248a18.232,18.232,0,0,0-8.018,6.63Z" transform="translate(0.5 0.5)" fill="#e9a749"/>
    <path id="Path_7718" data-name="Path 7718" d="M2.034,25.308a1.23,1.23,0,0,1-1.147-.786A20.447,20.447,0,0,1-.5,17.11,1.23,1.23,0,0,1,.73,15.88H10.1a1.23,1.23,0,0,1,1.23,1.23c0,.719.025,1.471.075,2.235a1.23,1.23,0,0,1-2.455.161c-.026-.392-.045-.782-.059-1.166H2a18,18,0,0,0,1.179,5.293,1.231,1.231,0,0,1-1.147,1.675Z" transform="translate(0.5 3.473)" fill="#e9a749"/>
    <path id="Path_7719" data-name="Path 7719" d="M26.74,23.424a1.231,1.231,0,0,1-1.219-1.4,35.706,35.706,0,0,0,.332-3.68H18.3v2.2a1.23,1.23,0,0,1-2.46,0V17.111a1.23,1.23,0,0,1,1.23-1.23H27.106a1.23,1.23,0,0,1,1.23,1.23,37.525,37.525,0,0,1-.38,5.256A1.23,1.23,0,0,1,26.74,23.424Z" transform="translate(3.466 3.473)" fill="#e9a749"/>
    <path id="Path_7720" data-name="Path 7720" d="M27.106,19.7H17.071a1.23,1.23,0,0,1-1.23-1.23V9.629a1.23,1.23,0,0,1,1.23-1.23H26a1.23,1.23,0,0,1,1.189.914,35.694,35.694,0,0,1,1.151,9.155A1.23,1.23,0,0,1,27.106,19.7Zm-8.8-2.46h7.554a33.149,33.149,0,0,0-.82-6.379H18.3Z" transform="translate(3.466 2.115)" fill="#e9a749"/>
    <path id="Path_7721" data-name="Path 7721" d="M9.767,8.4H18.6a1.23,1.23,0,0,1,1.23,1.23v8.839A1.23,1.23,0,0,1,18.6,19.7H8.656a1.23,1.23,0,0,1-1.23-1.23A35.64,35.64,0,0,1,8.578,9.313,1.23,1.23,0,0,1,9.767,8.4Zm7.6,2.46h-6.64a33.094,33.094,0,0,0-.821,6.379h7.462Z" transform="translate(1.939 2.115)" fill="#e9a749"/>
    <path id="Path_7723" data-name="Path 7723" d="M20.364,12.485a1.23,1.23,0,0,1-1.23-1.23V.786A1.23,1.23,0,0,1,21.582.618c.013.093.315,2.3.47,4.737a32.187,32.187,0,0,1,.058,3.67,5.3,5.3,0,0,1-.779,2.989A1.23,1.23,0,0,1,20.364,12.485Z" transform="translate(0.172 0.49)" fill="#e9a749"/>
    <path id="Path_7724" data-name="Path 7724" d="M19.479,37.5a19.7,19.7,0,0,1-4.959-.633,20.014,20.014,0,0,1-4.534-1.8A21.742,21.742,0,0,1,2.75,28.589a1.23,1.23,0,0,1-.05-1.351A12.739,12.739,0,0,1,5.145,24.47,10.956,10.956,0,0,1,12.309,21.7a11.385,11.385,0,0,1,2.6.309l.031.008,7.068,1.854.03.008a4.826,4.826,0,0,1,2.874,2.557,6.471,6.471,0,0,1,.651,2.058,13.808,13.808,0,0,0,2.7-1.99c.292-.252.569-.491.846-.718l3.612-3.738.045-.044a3.184,3.184,0,0,1,2.2-.937,3.221,3.221,0,0,1,2.53,1.34,3.349,3.349,0,0,1,.682,2.806,1.23,1.23,0,0,1-.085.226,22.218,22.218,0,0,1-7.589,8.7A19.908,19.908,0,0,1,19.479,37.5Zm-14.2-9.635A19.166,19.166,0,0,0,11.164,32.9a17.19,17.19,0,0,0,8.315,2.132A18.434,18.434,0,0,0,35.8,24.518a1.226,1.226,0,0,0-.275-.627.825.825,0,0,0-.563-.359.845.845,0,0,0-.5.256L30.83,27.553a1.231,1.231,0,0,1-.109.1c-.268.218-.55.461-.849.719-1.569,1.353-3.347,2.887-5.439,2.887H18.962a1.23,1.23,0,1,1,0-2.46h4.16a4.009,4.009,0,0,0-.349-1.133,2.583,2.583,0,0,0-1.406-1.415l-7.035-1.845a8.917,8.917,0,0,0-2.022-.241A9.24,9.24,0,0,0,5.275,27.861Z" transform="translate(1.049 4.416)" fill="#3745ac"/>
  </g>
</svg>
