<svg xmlns="http://www.w3.org/2000/svg" width="182.788" height="177.823" viewBox="0 0 182.788 177.823">
  <g id="Group_3425" data-name="Group 3425" transform="translate(-357.101 -2055.961)">
    <path id="Path_2898" data-name="Path 2898" d="M21.078,133.315c-4.124,0-10.678-9.524-12.514-12.3C-4.479,101.281-4.8,62.817,23.047,55.55c8.324-2.172,17.289-1.889,25.8-2.824C59.7,51.533,69.51,46.791,78.432,40.7c8.962-6.123,16.847-14.833,27.734-17.4,7.091-1.673,15.116-2.362,21.826,1.045,7.007,3.557,10.826,11.435,13,18.651,6.91,22.97,4.579,48.535-4.756,70.435a129.673,129.673,0,0,1-10.687,19.891Z" transform="translate(440.999 2038.934) rotate(39)" fill="#5674f5" opacity="0.08"/>
    <path id="Path_2899" data-name="Path 2899" d="M15.918,21.275v2a18.251,18.251,0,0,0-6.152,4.688A8.61,8.61,0,0,0,7.91,33.287,4.043,4.043,0,0,0,8.4,35.631a1.268,1.268,0,0,0,1.074.684,5.656,5.656,0,0,0,1.709-.366,6.11,6.11,0,0,1,1.953-.366,4.781,4.781,0,0,1,3.491,1.489,4.949,4.949,0,0,1,1.489,3.638,5.319,5.319,0,0,1-1.807,4.028,6.335,6.335,0,0,1-4.492,1.685A7.926,7.926,0,0,1,5.908,43.59a9.861,9.861,0,0,1-2.637-6.982A14.651,14.651,0,0,1,6.519,27.5,18.769,18.769,0,0,1,15.918,21.275Zm23.291.146v1.855q-4.932,2.832-6.494,5.078a9,9,0,0,0-1.562,5.273,3.283,3.283,0,0,0,.537,2.051,1.476,1.476,0,0,0,1.123.684,5.278,5.278,0,0,0,1.611-.391,6.25,6.25,0,0,1,2.148-.391,4.861,4.861,0,0,1,3.491,1.44,4.733,4.733,0,0,1,1.489,3.54,5.5,5.5,0,0,1-1.88,4.15,6.5,6.5,0,0,1-4.614,1.758,7.786,7.786,0,0,1-5.811-2.783,9.792,9.792,0,0,1-2.588-6.934A14.912,14.912,0,0,1,29.932,27.4,17.555,17.555,0,0,1,39.209,21.422Z" transform="translate(514.824 2183.746) rotate(180)" fill="#3745ac"/>
  </g>
</svg>
